<?xml version="1.0" encoding="UTF-8" standalone="no"?>
<svg
   xmlns:dc="http://purl.org/dc/elements/1.1/"
   xmlns:cc="http://creativecommons.org/ns#"
   xmlns:rdf="http://www.w3.org/1999/02/22-rdf-syntax-ns#"
   xmlns:svg="http://www.w3.org/2000/svg"
   xmlns="http://www.w3.org/2000/svg"
   id="svg6878"
   preserveAspectRatio="xMidYMid meet"
   viewBox="0 0 10309.514 14348.519"
   height="1434.8519"
   width="1030.9514"
   version="1.0">
  <metadata
     id="metadata6884">
    <rdf:RDF>
      <cc:Work
         rdf:about="">
        <dc:format>image/svg+xml</dc:format>
        <dc:type
           rdf:resource="http://purl.org/dc/dcmitype/StillImage" />
        <dc:title></dc:title>
      </cc:Work>
    </rdf:RDF>
  </metadata>
  <defs
     id="defs6882" />
  <g
     transform="translate(-1890.3204,-461.48037)"
     style="fill:#020202;stroke:none"
     id="layer101">
    <path
       id="path3596"
       d="m 3301,14772 c -62,-65 -86,-124 -86,-211 0,-42 6,-89 12,-106 6,-16 28,-72 48,-124 45,-118 60,-161 75,-231 7,-30 16,-62 21,-71 13,-26 37,-139 29,-139 -4,0 -30,30 -58,68 -28,37 -74,99 -103,137 -29,39 -83,113 -119,165 -219,314 -326,447 -384,477 -43,22 -158,35 -198,22 -60,-20 -93,-37 -118,-64 -23,-24 -25,-35 -24,-108 0,-95 14,-158 53,-242 15,-33 34,-76 41,-95 7,-19 25,-62 41,-95 15,-33 35,-85 45,-115 9,-30 28,-70 41,-88 13,-18 33,-52 44,-77 11,-24 34,-64 52,-87 102,-136 235,-378 208,-378 -5,0 -71,60 -148,133 -76,73 -179,166 -228,208 -50,42 -97,85 -105,94 -33,40 -223,195 -246,201 -50,13 -190,-23 -239,-61 -60,-45 -67,-86 -36,-206 32,-127 90,-235 212,-399 30,-41 58,-82 61,-90 3,-8 39,-56 80,-105 41,-50 117,-144 168,-210 51,-66 124,-156 161,-200 146,-173 227,-266 304,-351 103,-114 185,-225 219,-294 29,-60 36,-71 81,-140 17,-25 39,-68 49,-96 10,-27 23,-53 27,-58 5,-6 9,-16 9,-24 0,-8 16,-50 35,-94 l 35,-79 -22,-75 c -16,-58 -25,-73 -37,-70 -9,3 -34,8 -56,12 -22,3 -107,30 -190,59 -82,29 -170,58 -195,65 -25,6 -63,20 -85,31 -75,36 -197,51 -365,47 -85,-2 -166,-9 -180,-15 -14,-6 -52,-19 -85,-29 -33,-10 -64,-22 -70,-26 -5,-4 -16,-8 -25,-8 -17,0 -131,-112 -149,-147 -17,-33 -13,-123 7,-163 25,-51 85,-87 167,-100 163,-28 244,-52 371,-111 22,-10 43,-19 47,-19 5,0 150,-68 372,-176 27,-13 223,-84 286,-104 14,-4 66,-28 115,-52 219,-111 229,-115 359,-169 11,-4 56,-20 100,-34 44,-14 103,-33 130,-41 28,-9 66,-25 85,-36 38,-22 127,-57 239,-94 40,-13 99,-36 130,-50 31,-14 70,-32 86,-39 17,-8 75,-21 130,-29 87,-14 103,-20 122,-44 13,-15 23,-30 23,-34 0,-15 66,-105 104,-143 23,-22 48,-54 55,-70 8,-17 25,-43 36,-60 12,-16 28,-43 37,-60 26,-53 60,-110 74,-125 7,-9 20,-31 29,-50 8,-19 29,-57 45,-85 16,-27 44,-77 61,-110 17,-33 47,-81 65,-106 19,-26 34,-49 34,-53 0,-3 38,-59 84,-124 83,-116 176,-263 176,-276 0,-4 11,-22 24,-39 13,-18 32,-52 41,-77 10,-25 23,-58 30,-75 7,-16 20,-55 29,-85 10,-30 23,-66 31,-80 7,-14 30,-65 50,-115 21,-49 53,-124 72,-165 55,-120 60,-132 72,-189 6,-29 18,-70 27,-90 42,-94 100,-211 129,-256 51,-83 54,-88 82,-143 14,-30 39,-63 54,-75 16,-11 34,-37 40,-56 6,-20 23,-61 39,-91 15,-30 31,-71 35,-90 6,-35 16,-63 40,-110 7,-14 16,-42 19,-64 4,-21 11,-46 16,-55 34,-62 120,-248 120,-259 0,-7 4,-20 10,-30 5,-9 21,-44 36,-77 14,-33 38,-87 54,-120 53,-115 70,-155 70,-165 0,-6 5,-18 10,-28 6,-9 19,-37 30,-62 11,-25 29,-58 40,-75 50,-76 61,-107 101,-268 5,-21 13,-45 19,-55 15,-29 60,-130 60,-137 0,-3 13,-34 29,-68 16,-34 32,-72 35,-84 4,-12 18,-41 31,-65 13,-24 35,-64 49,-90 14,-26 46,-76 73,-112 96,-130 114,-157 108,-165 -6,-10 -128,-59 -164,-66 -13,-2 -28,-9 -35,-14 -13,-11 -77,-33 -146,-51 -25,-7 -52,-18 -60,-25 -8,-7 -42,-22 -75,-33 -51,-17 -151,-62 -205,-91 -8,-5 -28,-15 -45,-22 -16,-7 -41,-21 -55,-30 -14,-9 -44,-19 -68,-23 -24,-3 -51,-10 -60,-15 -25,-14 -134,-53 -237,-86 -102,-32 -116,-37 -165,-58 -19,-9 -53,-18 -75,-22 -37,-6 -121,-29 -155,-42 -8,-4 -17,-7 -20,-7 -15,-4 -111,-41 -147,-57 -24,-11 -48,-19 -53,-19 -6,0 -57,-45 -113,-99 -106,-102 -232,-214 -302,-266 -22,-16 -87,-67 -144,-112 -57,-46 -107,-83 -113,-83 -24,0 -183,-143 -273,-245 -55,-63 -186,-195 -291,-294 -106,-99 -216,-207 -245,-241 -30,-33 -99,-100 -154,-148 -55,-48 -154,-141 -220,-207 -66,-66 -172,-165 -235,-220 -191,-167 -264,-240 -257,-259 11,-28 38,-18 97,37 31,28 110,99 175,157 206,182 860,816 1040,1010 22,23 82,76 132,117 51,41 103,87 115,103 21,26 113,103 338,284 47,38 136,114 198,170 63,55 130,112 151,126 20,14 67,51 104,82 53,45 82,62 140,79 39,11 86,27 102,34 34,14 123,41 172,50 18,4 50,15 72,25 21,11 61,24 87,30 27,6 53,15 59,20 5,4 38,16 73,24 35,9 80,25 100,36 20,10 57,21 82,25 45,7 263,106 275,125 3,6 16,10 28,10 13,0 32,6 43,14 11,8 40,19 64,26 25,6 61,22 80,35 19,13 64,31 100,40 36,9 83,25 105,35 22,10 58,24 80,30 22,7 64,26 94,42 30,15 64,30 75,32 94,19 126,27 161,40 22,8 52,15 66,16 33,0 109,23 209,61 41,16 79,29 84,29 5,0 27,9 50,19 87,42 201,94 206,96 3,1 19,5 35,10 17,4 53,19 82,32 28,12 58,23 65,23 8,0 19,5 26,12 7,7 12,8 12,4 0,-5 11,-1 25,8 13,9 48,21 77,27 29,6 59,16 66,22 7,5 16,7 20,3 4,-4 -2,-12 -13,-18 -11,-6 -50,-41 -87,-78 -58,-57 -68,-72 -68,-102 0,-22 7,-41 20,-53 19,-17 27,-17 122,-6 56,7 110,17 120,22 10,5 18,6 18,1 0,-4 -48,-27 -107,-51 -132,-53 -214,-91 -231,-108 -22,-21 -99,-53 -128,-53 -30,0 -260,-108 -311,-146 -17,-13 -35,-24 -38,-24 -4,0 -24,-12 -44,-27 -49,-37 -63,-46 -156,-93 -188,-97 -243,-126 -269,-147 -16,-13 -34,-23 -40,-23 -22,0 -229,-104 -266,-134 -8,-7 -40,-25 -70,-40 -69,-35 -79,-43 -76,-62 4,-30 21,-34 56,-14 19,11 58,32 85,47 28,15 59,33 70,40 21,13 127,66 135,67 7,2 146,73 215,111 33,18 105,55 160,83 55,27 143,78 195,113 111,75 242,141 343,173 81,26 150,59 179,86 11,10 32,21 46,25 15,4 49,17 75,31 68,34 235,90 302,101 28,5 27,3 -15,-24 -64,-42 -172,-167 -168,-194 5,-38 46,-59 127,-64 59,-3 80,0 109,16 20,10 42,19 48,19 6,0 17,7 24,16 17,20 50,37 50,26 0,-8 -124,-102 -135,-102 -2,0 -29,-16 -60,-35 -48,-31 -100,-56 -115,-56 -3,0 -12,-6 -20,-14 -8,-7 -49,-27 -90,-44 -41,-18 -84,-37 -95,-43 -11,-6 -29,-16 -40,-22 -11,-6 -27,-16 -35,-23 -8,-6 -26,-14 -40,-17 -34,-6 -73,-28 -145,-81 -33,-24 -82,-57 -110,-73 -27,-16 -99,-68 -160,-116 -60,-47 -124,-93 -141,-101 -18,-8 -55,-31 -84,-50 -29,-19 -58,-35 -64,-35 -7,0 -26,-11 -42,-25 -16,-14 -33,-25 -37,-25 -5,0 -23,-10 -40,-22 -17,-13 -39,-27 -48,-33 -111,-65 -249,-176 -249,-199 0,-5 -9,-19 -20,-31 -21,-23 -18,-55 5,-55 7,0 29,11 49,25 20,14 43,25 49,25 7,0 17,4 22,9 25,25 234,81 322,87 l 92,7 38,-33 c 50,-44 123,-138 123,-159 -1,-43 -42,-101 -117,-167 -120,-104 -122,-105 -182,-126 -31,-10 -63,-22 -71,-25 -8,-3 -17,-7 -20,-8 -3,-1 -12,-5 -20,-8 -8,-3 -30,-8 -48,-11 -18,-2 -40,-10 -48,-16 -7,-7 -14,-9 -14,-5 0,5 -8,1 -18,-7 -22,-20 -82,-50 -82,-42 0,3 -15,-5 -34,-20 -19,-14 -38,-26 -42,-26 -4,0 -25,-12 -46,-26 -37,-26 -49,-56 -28,-69 12,-7 102,35 141,66 14,11 32,21 40,23 8,1 35,14 62,30 31,18 55,26 70,22 28,-7 87,-88 87,-120 0,-30 -101,-124 -174,-162 -28,-14 -58,-32 -66,-39 -8,-8 -26,-19 -40,-25 -14,-6 -52,-26 -85,-45 -33,-18 -85,-45 -115,-60 -30,-14 -57,-29 -60,-33 -3,-4 -16,-13 -30,-20 -75,-37 -226,-127 -251,-149 -22,-19 -169,-94 -169,-86 0,3 -9,-2 -20,-12 -11,-10 -20,-14 -20,-10 0,4 -9,0 -19,-9 -11,-10 -25,-18 -33,-20 -7,-1 -20,-6 -28,-11 -8,-5 -17,-10 -20,-11 -8,-1 -58,-22 -116,-49 -30,-14 -62,-25 -70,-25 -9,0 -30,-7 -47,-14 -18,-8 -61,-22 -97,-31 -98,-24 -208,-65 -335,-125 -33,-16 -85,-32 -115,-36 -30,-4 -62,-10 -71,-15 -18,-9 -251,-64 -364,-85 -125,-24 -153,-37 -255,-117 -52,-42 -156,-124 -230,-183 -74,-58 -169,-136 -210,-173 -41,-37 -117,-102 -169,-146 -101,-85 -174,-170 -217,-252 -10,-21 4,-43 26,-43 13,0 27,12 38,31 37,67 108,148 191,219 49,41 138,118 198,170 61,52 155,129 209,170 54,41 133,102 174,135 121,99 126,101 265,129 198,40 348,77 370,90 11,7 43,16 71,19 28,3 82,20 120,37 115,53 132,60 143,60 6,0 19,4 29,10 15,8 76,27 287,89 65,19 99,34 275,118 63,31 139,67 168,81 29,13 69,38 89,53 20,16 41,29 48,29 6,0 20,9 30,20 10,11 22,20 27,20 9,0 77,37 171,94 18,10 64,35 102,56 39,20 90,49 115,63 25,14 60,33 79,41 79,37 234,164 251,206 17,42 7,91 -30,145 -18,26 -30,48 -28,49 1,2 43,19 92,37 74,28 103,46 170,105 44,39 95,87 112,105 32,35 64,108 64,146 0,37 -100,172 -154,209 -45,30 -58,34 -117,34 -77,0 -195,-21 -254,-45 l -40,-16 36,33 c 50,45 211,148 232,148 9,0 32,14 51,30 18,17 55,39 80,51 25,11 80,47 121,81 42,33 77,59 79,57 1,-2 12,-20 24,-39 12,-19 55,-67 96,-107 41,-40 111,-124 155,-187 45,-62 108,-144 141,-181 32,-37 67,-88 76,-113 10,-26 21,-51 26,-56 4,-6 8,-19 8,-30 0,-11 25,-63 55,-116 30,-52 64,-122 76,-155 55,-151 68,-184 98,-248 17,-38 31,-71 31,-74 0,-6 98,-198 144,-283 20,-36 40,-74 46,-85 14,-26 31,-53 54,-88 47,-70 244,-445 336,-639 17,-37 36,-71 42,-74 5,-4 20,-27 32,-53 11,-25 31,-59 42,-76 12,-16 36,-59 54,-95 18,-36 45,-80 61,-98 16,-18 32,-45 35,-60 4,-15 15,-38 24,-52 10,-14 26,-43 37,-65 11,-22 33,-62 48,-89 15,-26 47,-90 69,-140 23,-51 50,-105 61,-121 33,-49 45,-69 52,-85 3,-8 23,-38 44,-67 21,-28 52,-79 68,-113 17,-34 42,-77 56,-96 14,-18 25,-36 25,-40 0,-4 18,-29 39,-55 22,-25 49,-64 61,-86 27,-53 64,-87 86,-79 13,5 15,19 13,90 -4,79 -6,85 -41,129 -21,25 -38,48 -38,50 0,3 -22,39 -49,80 -28,41 -56,90 -64,108 -13,31 -117,186 -194,287 -18,24 -33,52 -33,61 0,10 -8,29 -18,42 -10,13 -26,44 -37,69 -10,25 -28,58 -39,74 -34,50 -56,99 -56,124 0,29 -22,71 -50,97 -12,10 -31,40 -44,65 -44,87 -107,205 -124,231 -9,14 -27,41 -40,60 -12,19 -25,45 -29,59 -3,14 -32,74 -64,133 -33,59 -59,111 -59,115 0,16 -169,331 -195,362 -6,8 -15,22 -19,30 -3,8 -15,29 -25,45 -11,17 -31,50 -44,75 -14,25 -37,65 -51,90 -26,44 -55,104 -101,205 -13,28 -35,76 -49,107 -14,31 -26,60 -26,65 0,7 -29,82 -67,173 -29,67 -66,140 -74,145 -4,3 -18,27 -30,53 -12,26 -25,55 -30,64 -5,10 -9,31 -9,47 0,46 -16,77 -64,129 -43,46 -133,166 -201,267 -34,50 -109,131 -178,193 -20,17 -44,46 -53,64 -16,31 -16,32 10,55 15,13 33,23 40,23 7,0 21,9 31,20 10,11 22,20 27,20 5,0 24,11 41,24 18,13 43,27 57,31 14,4 36,15 50,24 14,9 34,22 45,29 11,7 49,26 85,43 36,17 106,51 157,75 50,24 102,48 115,54 13,5 31,16 41,22 16,11 24,7 59,-32 22,-25 52,-68 65,-97 14,-29 31,-57 38,-63 8,-7 19,-28 26,-48 6,-20 24,-65 40,-98 16,-34 29,-66 29,-72 0,-5 16,-33 35,-62 19,-29 35,-57 35,-62 0,-6 16,-44 35,-85 19,-41 35,-77 35,-80 0,-2 16,-24 35,-47 19,-24 35,-46 35,-50 0,-11 100,-166 137,-213 18,-23 33,-46 33,-51 0,-6 10,-23 23,-39 13,-15 38,-53 56,-83 18,-30 62,-105 99,-167 37,-62 79,-134 94,-160 15,-26 61,-93 101,-148 40,-55 89,-129 107,-165 19,-36 56,-99 84,-140 27,-41 70,-119 96,-172 27,-53 57,-110 68,-125 40,-57 172,-335 172,-362 0,-16 7,-35 17,-42 9,-8 33,-49 54,-91 20,-43 57,-101 81,-129 41,-48 67,-93 171,-289 25,-47 68,-128 96,-180 50,-95 84,-161 149,-297 19,-40 38,-73 42,-73 4,0 24,-26 45,-58 110,-165 402,-450 545,-531 156,-89 245,-120 360,-127 73,-5 108,-3 151,10 72,21 145,78 171,133 18,38 24,43 50,40 37,-3 59,24 42,50 -20,32 -68,36 -133,9 -33,-13 -74,-27 -90,-31 -50,-11 -175,23 -234,63 -65,44 -187,142 -187,151 0,3 -41,51 -91,106 -50,55 -108,125 -127,155 -20,30 -66,96 -103,145 -61,83 -87,110 -177,187 -20,16 -32,36 -32,51 0,13 -18,61 -40,106 -22,45 -40,89 -40,99 0,10 -13,42 -30,72 -16,30 -37,71 -46,90 -9,19 -25,51 -35,71 -11,20 -19,43 -19,50 0,14 -86,147 -119,184 -10,11 -21,27 -25,35 -3,8 -15,29 -26,45 -20,29 -81,151 -115,230 -18,40 -156,249 -267,404 -33,46 -68,99 -77,117 -19,35 -61,101 -146,231 -27,42 -79,108 -115,148 -85,94 -139,174 -143,212 -4,33 -56,141 -91,188 -12,17 -28,46 -36,65 -8,19 -29,57 -47,85 -18,27 -33,53 -33,58 0,5 -11,23 -23,40 -21,28 -61,106 -122,237 -9,19 -24,47 -33,61 -47,73 -82,138 -82,152 0,9 -4,19 -10,22 -5,3 -14,24 -20,46 -10,36 -76,154 -162,288 -15,25 -28,52 -28,62 0,10 -4,21 -10,24 -5,3 -15,25 -21,48 -6,23 -19,59 -29,80 -10,21 -22,52 -25,70 -4,18 -15,59 -25,92 -51,167 -60,202 -60,228 0,15 -6,43 -14,62 -8,19 -18,56 -22,82 -3,26 -22,80 -40,119 -19,39 -34,74 -34,78 0,4 -31,73 -70,152 -38,79 -70,147 -70,152 0,4 -9,25 -20,47 -11,22 -20,48 -20,58 0,10 -5,27 -10,37 -6,10 -17,53 -25,94 -13,68 -29,118 -56,168 -5,10 -9,22 -9,28 0,12 -58,133 -82,170 -41,65 -78,144 -78,167 0,15 -34,89 -75,166 -41,76 -75,147 -75,157 0,9 -10,32 -23,51 -31,48 -87,178 -87,205 0,9 -15,46 -33,82 -19,37 -42,92 -52,122 -10,30 -29,69 -42,86 -12,17 -23,34 -23,37 0,4 -15,27 -34,52 -19,24 -38,55 -42,67 -3,13 -34,59 -67,103 -33,44 -66,94 -73,112 -8,17 -18,34 -24,38 -30,18 -240,297 -240,318 0,10 -102,168 -131,202 -9,11 -25,36 -36,55 -10,19 -31,54 -46,77 -15,24 -27,45 -27,47 0,3 -24,39 -54,80 -52,72 -100,128 -315,360 -51,55 -138,162 -194,236 -55,74 -114,151 -131,171 -71,84 -96,118 -96,132 0,9 -35,44 -77,80 -43,35 -129,114 -192,175 -62,62 -118,112 -124,112 -6,0 -34,22 -62,49 -52,52 -58,57 -221,181 -55,41 -127,99 -160,130 -69,62 -146,120 -160,120 -5,0 -42,29 -82,64 -102,89 -165,117 -179,79 -8,-21 22,-134 53,-198 13,-28 29,-77 35,-110 6,-33 17,-76 25,-95 22,-60 64,-197 75,-249 10,-48 105,-248 154,-326 14,-22 32,-54 40,-72 8,-17 19,-34 24,-37 5,-4 12,-20 16,-36 4,-16 25,-51 49,-77 61,-70 106,-135 106,-154 0,-9 8,-27 18,-40 31,-39 94,-167 194,-394 49,-111 83,-179 110,-225 12,-19 36,-62 53,-95 43,-81 97,-175 149,-255 46,-71 62,-102 76,-145 7,-22 16,-44 20,-50 4,-5 12,-26 19,-45 6,-20 24,-60 41,-90 16,-30 40,-76 54,-102 36,-71 66,-118 106,-168 58,-72 120,-178 120,-205 0,-17 29,-75 56,-112 13,-17 24,-35 24,-39 0,-4 11,-22 25,-40 14,-19 36,-55 48,-81 27,-58 70,-124 114,-177 18,-22 33,-47 33,-55 0,-22 46,-107 82,-154 17,-21 39,-63 50,-95 12,-31 29,-68 38,-82 9,-14 31,-56 49,-95 17,-38 39,-83 48,-100 9,-16 24,-43 33,-60 9,-16 30,-52 48,-79 17,-27 39,-72 48,-100 23,-70 62,-146 90,-176 47,-51 130,-153 147,-184 11,-17 30,-42 43,-57 13,-14 24,-28 24,-32 0,-10 58,-93 76,-108 14,-11 79,-104 94,-134 13,-25 111,-164 120,-170 21,-13 9,-34 -27,-46 -21,-6 -69,-27 -108,-47 -38,-19 -81,-40 -95,-47 -14,-7 -52,-20 -85,-30 -33,-9 -64,-20 -70,-25 -5,-4 -19,-10 -30,-13 -11,-3 -45,-13 -75,-22 -30,-9 -75,-21 -100,-25 -25,-4 -61,-11 -81,-15 l -36,-7 -70,93 c -83,114 -177,261 -199,315 -9,21 -23,55 -31,74 -8,19 -19,44 -23,55 -5,11 -22,50 -39,86 -17,37 -31,72 -31,78 0,7 -6,22 -14,34 -7,12 -26,69 -42,127 -25,94 -40,130 -81,195 -26,41 -63,115 -63,126 0,6 -7,27 -16,47 -9,21 -22,51 -29,67 -7,17 -33,73 -58,125 -58,122 -97,207 -97,215 0,3 -27,61 -60,127 -33,67 -60,130 -60,140 0,11 -13,47 -30,82 -16,35 -34,83 -39,106 -5,23 -16,49 -25,59 -8,9 -34,55 -56,101 -22,47 -44,92 -49,100 -6,8 -16,29 -24,45 -18,40 -75,144 -96,175 -59,91 -107,196 -130,285 -12,44 -46,136 -77,205 -92,206 -116,262 -152,350 -6,14 -13,39 -17,55 -4,17 -13,46 -22,65 -38,88 -66,146 -78,160 -7,8 -28,44 -47,80 -43,79 -70,122 -147,225 -32,44 -69,98 -81,120 -12,22 -42,67 -66,101 -24,34 -53,81 -64,105 -12,24 -32,62 -46,84 -13,22 -30,51 -36,65 -7,14 -22,39 -34,55 -20,28 -49,75 -79,133 -7,13 -35,51 -61,84 -72,91 -96,127 -129,191 -15,31 -34,62 -42,68 -7,7 -13,17 -13,23 0,14 -42,54 -80,78 -14,8 -66,21 -115,28 -50,7 -106,19 -125,27 -52,22 -83,35 -105,43 -11,4 -40,17 -65,28 -25,11 -67,26 -94,32 -27,6 -83,27 -125,46 -42,20 -85,39 -96,43 -11,5 -31,13 -45,18 -41,16 -183,61 -215,68 -16,4 -46,13 -65,22 -98,42 -127,55 -150,69 -14,8 -77,39 -140,70 -63,30 -123,59 -132,65 -10,5 -26,9 -35,9 -10,0 -31,7 -46,15 -16,8 -64,26 -108,40 -43,13 -86,29 -96,34 -10,5 -29,13 -43,18 -14,5 -90,41 -170,80 -299,146 -423,190 -575,208 -143,16 -170,68 -86,158 28,30 77,55 151,76 25,8 59,18 75,23 17,6 83,12 147,15 130,6 247,-7 318,-36 57,-23 113,-41 129,-41 7,0 29,-7 49,-16 21,-9 46,-20 57,-25 86,-37 317,-99 371,-99 53,0 69,20 78,90 4,30 13,86 21,124 l 15,69 -41,121 c -49,145 -48,143 -93,231 -19,39 -54,108 -77,154 -24,46 -57,103 -73,125 -17,23 -39,53 -48,67 -9,14 -60,74 -115,134 -139,154 -328,377 -430,508 -48,62 -121,153 -162,203 -42,50 -98,125 -126,165 -27,40 -74,105 -104,144 -30,38 -73,111 -96,160 -42,87 -72,195 -61,214 5,8 30,15 103,27 29,6 40,-2 135,-90 57,-53 156,-141 221,-197 65,-55 253,-235 419,-400 165,-164 309,-301 320,-305 11,-3 31,0 44,7 30,16 32,65 5,100 -10,13 -22,35 -26,49 -10,33 -46,97 -90,161 -19,28 -38,63 -41,78 -4,14 -21,51 -39,81 -18,30 -55,99 -81,152 -66,131 -71,140 -140,242 -32,49 -76,120 -96,159 -21,38 -44,77 -53,87 -8,9 -15,24 -15,33 0,10 -4,25 -9,35 -5,9 -17,35 -26,57 -10,22 -22,48 -27,59 -25,50 -91,215 -99,249 -31,130 -31,130 15,152 25,12 45,14 82,8 45,-8 52,-14 114,-90 83,-103 223,-293 232,-314 3,-9 62,-90 130,-179 124,-164 183,-244 215,-290 10,-14 45,-61 79,-105 34,-44 70,-94 80,-111 28,-46 53,-83 102,-147 58,-77 104,-146 118,-177 16,-36 102,-128 135,-145 34,-18 81,-19 97,-3 31,31 -1,118 -42,118 -14,0 -76,75 -76,92 0,8 -76,122 -110,165 -10,13 -21,44 -25,70 -4,27 -13,62 -20,78 -8,17 -23,55 -35,85 -11,30 -24,64 -29,75 -5,11 -16,38 -26,60 -9,22 -21,49 -26,60 -10,21 -37,117 -70,250 -18,75 -28,109 -50,163 -5,12 -13,32 -18,45 -12,31 -26,66 -45,109 -9,20 -19,63 -22,96 -6,53 -4,64 21,106 40,68 70,61 131,-31 44,-65 58,-89 73,-118 6,-11 22,-38 36,-60 14,-22 29,-49 35,-60 6,-11 19,-33 30,-50 11,-16 23,-37 26,-45 4,-8 13,-22 20,-30 6,-8 21,-31 32,-51 40,-72 47,-84 65,-108 9,-13 17,-31 17,-39 0,-8 21,-49 48,-91 62,-99 69,-112 81,-136 5,-11 31,-49 58,-85 73,-97 105,-149 133,-210 13,-30 29,-62 35,-70 6,-8 19,-31 29,-50 44,-86 112,-175 140,-185 25,-8 31,-6 52,19 23,26 24,33 20,129 -2,59 -19,179 -39,282 -20,99 -39,203 -42,230 -4,28 -20,104 -35,170 -16,66 -34,154 -41,195 -15,88 -16,247 -2,261 12,12 55,-41 84,-104 24,-50 41,-80 55,-98 6,-8 21,-48 34,-89 12,-41 46,-124 75,-185 29,-60 67,-141 85,-180 18,-38 44,-86 56,-105 13,-19 30,-53 37,-75 20,-55 156,-331 192,-388 17,-26 63,-94 103,-152 39,-59 72,-109 72,-113 0,-4 13,-23 30,-42 16,-19 29,-39 30,-43 0,-5 16,-30 35,-55 78,-103 105,-142 123,-179 17,-35 38,-75 110,-203 14,-25 47,-87 73,-139 27,-52 58,-104 68,-115 11,-12 35,-55 54,-96 19,-42 42,-81 51,-89 9,-7 16,-19 16,-25 0,-6 14,-29 30,-50 17,-23 30,-52 30,-68 0,-16 5,-39 12,-51 7,-12 15,-65 19,-117 4,-52 13,-149 20,-215 13,-131 14,-158 8,-317 -4,-102 -3,-108 20,-132 14,-14 32,-26 41,-26 18,0 45,-28 74,-74 10,-16 88,-100 174,-188 85,-87 185,-194 221,-238 194,-233 257,-300 444,-474 99,-91 197,-206 197,-231 0,-4 11,-21 25,-39 14,-18 25,-36 25,-40 0,-4 24,-37 53,-74 29,-37 65,-87 81,-112 16,-25 89,-103 162,-175 148,-146 320,-333 409,-445 33,-41 129,-145 215,-231 313,-313 406,-427 563,-683 11,-17 38,-52 62,-78 24,-27 62,-86 85,-131 23,-45 47,-89 54,-97 7,-8 20,-28 28,-45 25,-50 59,-107 97,-163 20,-30 46,-73 59,-95 13,-23 34,-53 47,-67 13,-14 43,-65 67,-115 51,-104 84,-164 103,-185 8,-8 18,-26 23,-40 6,-14 25,-45 43,-70 18,-25 48,-76 66,-114 19,-38 43,-82 56,-100 27,-37 34,-51 82,-141 20,-38 47,-88 61,-110 13,-22 39,-69 58,-105 19,-36 46,-82 60,-103 14,-21 26,-43 26,-50 1,-19 51,-81 159,-197 55,-59 113,-132 130,-163 17,-31 35,-64 40,-74 5,-10 19,-45 31,-78 34,-90 57,-136 93,-182 17,-22 65,-85 106,-139 41,-55 94,-119 116,-144 23,-25 55,-74 70,-110 16,-36 35,-72 42,-81 7,-8 13,-19 13,-23 0,-4 18,-30 39,-59 22,-29 44,-63 50,-77 11,-25 23,-44 73,-116 69,-100 93,-131 119,-162 16,-17 42,-58 57,-90 59,-116 78,-145 163,-250 48,-59 109,-141 135,-182 26,-41 67,-100 91,-131 24,-30 43,-58 43,-61 0,-4 19,-35 43,-69 52,-77 85,-129 94,-149 3,-8 19,-34 35,-58 16,-23 38,-62 49,-85 27,-58 57,-108 79,-132 10,-11 23,-31 29,-45 13,-29 23,-45 71,-115 19,-27 46,-70 59,-95 13,-25 34,-59 47,-77 13,-17 24,-35 24,-39 0,-4 6,-15 14,-23 7,-9 30,-47 50,-84 20,-38 45,-81 57,-95 11,-15 30,-42 42,-61 31,-49 50,-58 81,-41 23,12 26,20 26,63 0,38 -6,58 -24,82 -14,17 -35,49 -47,71 -12,21 -33,57 -46,79 -12,22 -28,51 -35,65 -7,14 -28,50 -48,80 -116,176 -135,206 -154,246 -9,18 -26,45 -38,60 -30,38 -39,54 -85,142 -20,40 -43,78 -50,84 -7,6 -13,14 -13,18 0,13 -136,226 -201,314 -25,34 -63,90 -85,125 -21,35 -68,98 -104,141 -69,84 -100,125 -113,150 -4,8 -16,29 -27,45 -11,17 -35,60 -54,96 -19,36 -46,79 -59,95 -33,40 -177,243 -177,250 0,3 -29,50 -65,104 -36,54 -65,101 -65,105 0,3 -16,27 -35,52 -19,25 -35,53 -35,62 0,9 -25,48 -56,86 -31,39 -70,90 -87,115 -17,25 -58,77 -90,115 -67,80 -81,104 -107,183 -10,31 -25,71 -33,87 -9,17 -23,46 -32,65 -26,59 -36,71 -167,208 -90,93 -128,139 -128,156 0,13 -9,34 -19,47 -23,30 -53,80 -84,140 -13,25 -40,73 -60,106 -21,34 -37,66 -37,73 0,13 -49,97 -110,190 -20,30 -43,71 -50,90 -7,19 -30,58 -52,86 -21,28 -38,54 -38,58 0,4 -17,33 -38,64 -21,32 -50,75 -63,97 -13,22 -30,49 -37,60 -7,11 -16,29 -21,40 -5,11 -21,35 -35,54 -14,19 -26,40 -26,47 0,6 -7,17 -15,24 -8,7 -15,20 -15,28 0,14 -31,67 -118,207 -6,11 -17,31 -23,45 -6,14 -17,32 -25,41 -8,9 -32,50 -53,91 -53,101 -83,147 -120,182 -17,17 -31,34 -31,38 0,5 -25,45 -55,88 -30,43 -55,82 -55,86 0,3 -15,24 -32,47 -18,22 -42,55 -53,73 -27,43 -347,384 -434,462 -39,35 -101,102 -138,149 -88,112 -385,436 -463,505 -33,29 -97,103 -143,163 -92,124 -99,134 -127,192 -11,23 -39,66 -62,95 -44,56 -315,328 -328,328 -4,0 -40,39 -81,87 -41,48 -99,114 -130,147 -30,34 -85,97 -121,141 -37,44 -117,130 -179,190 -100,99 -195,206 -242,275 -9,14 -24,34 -32,46 -12,16 -16,64 -19,230 -3,115 -10,222 -15,238 -6,15 -11,58 -11,96 0,38 -5,81 -11,97 -6,15 -15,53 -21,82 -12,69 -37,122 -89,190 -22,30 -47,71 -55,93 -7,21 -28,60 -46,86 -51,73 -51,73 -101,182 -12,25 -30,59 -42,75 -21,29 -47,78 -105,195 -15,30 -45,78 -66,107 -84,113 -169,238 -183,269 -5,11 -32,51 -60,88 -28,37 -51,70 -51,72 0,3 -10,20 -22,37 -13,18 -28,41 -34,52 -7,11 -23,40 -38,65 -14,25 -31,56 -37,70 -6,14 -33,69 -60,123 -27,54 -49,105 -49,115 0,10 -11,33 -24,52 -13,20 -56,103 -95,185 -39,83 -76,158 -81,167 -6,10 -20,48 -31,85 -22,69 -61,154 -104,228 -13,22 -28,49 -34,60 -17,36 -115,122 -153,136 -52,18 -81,2 -114,-63 -52,-103 -43,-316 26,-598 15,-63 31,-142 34,-175 7,-56 29,-154 42,-190 11,-28 -11,-15 -31,18 -10,17 -48,73 -84,122 -70,96 -87,121 -98,145 -3,8 -16,28 -27,45 -31,43 -41,61 -86,150 -42,83 -46,91 -92,163 -16,24 -28,46 -28,49 0,3 -10,20 -23,37 -13,17 -27,38 -30,46 -4,8 -16,29 -27,45 -11,17 -27,44 -35,60 -9,17 -24,44 -35,60 -11,17 -23,37 -26,45 -4,8 -27,44 -52,79 -54,77 -116,111 -201,111 -50,0 -57,-3 -90,-38 z m 2283,-4261 c 11,-12 17,-23 14,-26 -6,-7 -88,64 -88,76 0,12 47,-20 74,-50 z m 85,-75 c 27,-23 36,-36 27,-39 -13,-5 -76,50 -76,66 0,12 7,8 49,-27 z m -58,-68 c 34,-40 146,-157 248,-259 202,-201 280,-287 381,-415 71,-90 183,-226 286,-345 36,-43 78,-98 95,-124 16,-25 73,-101 127,-167 53,-66 120,-151 147,-188 88,-119 108,-144 147,-186 43,-45 59,-71 121,-194 47,-94 126,-205 227,-320 56,-64 117,-146 168,-225 7,-11 22,-39 33,-62 11,-23 23,-44 28,-47 4,-3 27,-45 51,-93 24,-48 54,-102 67,-119 13,-17 23,-35 23,-40 0,-12 58,-124 73,-143 17,-20 34,-51 62,-111 14,-30 39,-81 55,-113 17,-31 30,-61 30,-67 0,-5 16,-36 35,-69 20,-33 47,-96 61,-138 14,-43 32,-94 41,-113 49,-109 100,-209 123,-240 35,-47 48,-79 76,-188 13,-51 28,-100 33,-110 25,-50 170,-513 195,-625 6,-27 6,-28 -26,-22 -18,3 -55,2 -82,-4 l -48,-9 -52,52 c -61,59 -157,142 -204,175 -18,12 -57,54 -88,92 -30,38 -61,69 -69,69 -23,0 -102,87 -164,183 -33,50 -69,104 -80,119 -12,14 -21,31 -21,36 0,11 -64,157 -80,182 -34,54 -59,113 -69,162 -11,50 -21,67 -80,130 -38,41 -77,89 -87,109 -11,20 -41,78 -67,129 -26,52 -54,101 -62,110 -8,9 -22,33 -31,55 -9,22 -28,58 -43,80 -15,22 -37,58 -48,80 -11,22 -28,54 -36,70 -21,39 -47,101 -47,110 0,4 -10,21 -22,38 -27,37 -56,89 -99,177 -17,36 -43,81 -58,100 -32,43 -34,47 -94,156 -27,49 -52,96 -57,104 -38,64 -79,137 -114,205 -23,44 -61,109 -84,145 -23,36 -47,82 -53,104 -6,21 -14,46 -19,55 -30,59 -106,221 -115,246 -6,17 -35,66 -64,110 -30,44 -70,112 -91,150 -21,39 -49,90 -64,115 -14,25 -26,51 -26,59 0,7 -20,46 -45,86 -25,39 -52,92 -60,116 -9,24 -36,71 -61,104 -25,33 -59,86 -75,118 -16,32 -51,88 -78,125 -42,59 -81,133 -113,212 -6,14 -14,32 -19,40 -64,115 -132,300 -109,300 4,0 36,-33 71,-72 z" />
  </g>
  <path
     d="m 3379.6796,10278.52 c 9.9052,-28.414 20.5754,-60.099 32,-87 14,-32 33,-89 42,-128 8,-38 24,-92.0004 35,-120.0004 10,-27 31,-97 46,-155 26,-98 92,-249 151,-342 13,-21 46,-82 73,-135 28,-56 67,-116 91,-140 57,-57 130,-194 286,-538 42,-93 103,-215 135,-271 33,-55 59,-104 59,-108 0,-6 90,-158 160,-271 21,-33 48,-90 60,-128 33,-102 144,-311 219,-412 88,-119 99,-137 121,-201 10,-29 45,-98 78,-151 33,-54 76,-129 96,-166 21,-38 58,-93 83,-123 24,-31 51,-77 59,-103 8,-27 29,-68 47,-92 30,-39 111,-196 187,-364 15,-33 53,-103 84,-155 31,-52 61,-113 67,-135 15,-55 53,-126 79,-150 12,-11 36,-40 53,-65 16,-25 44,-61 62,-80 18,-19 58,-73 90,-120 32,-47 71,-101 87,-120 17,-19 57,-78 90,-130 73,-114 150,-220 161,-220 4,0 47,15 95,34 48,18 96,36 107,40 18,7 16,11 -25,49 -61,56 -138,121 -178,151 -40,29 -110,105 -117,127 -3,8 -23,25 -44,37 -50,28 -120,106 -179,197 -24,39 -53,81 -64,95 -10,14 -30,50 -44,80 -14,30 -52,111 -84,180 -33,69 -64,144 -70,168 -8,30 -30,64 -73,111 -41,45 -83,108 -125,187 -88,166 -127,236 -185,333 -28,46 -64,116 -82,155 -29,66 -48,103 -115,216 -14,25 -32,61 -40,80 -7,19 -28,56 -47,81 -30,43 -129,216 -268,469 -28,52 -68,122 -88,154 -20,32 -44,80 -53,105 -32,86 -167,366 -204,421 -48,72 -120,200 -168,297 -72,143 -132,254 -171,311 -21,32 -50,81 -65,111 -15,29 -49,83 -75,120 -48,66 -67,101 -154,281 -79,164 -107,243 -114,326 -5,68.0004 -4,79.0004 12,90.0004 16,12 22,11 39,-4 21,-17 21,-17 4,4 -22,25 -24,41 -3,24 8,-7 15,-10 15,-7 0,4 -35,30 -77,58 -43,29 -100,72 -128,96 -50,44 -65,51 -65,33 z"
     id="path4453"
     style="fill:#717171;stroke:none" />
  <path
     d="m 3804.6796,9903.5196 c 33,-38 110,-118 170,-177 250,-245 289,-286 348,-362 111,-140 258,-321 352,-429 38,-44 90,-111 115,-147 25,-37 90,-123 145,-191 55,-68 115,-144 132,-169 18,-25 59,-79 93,-120 69,-85 89,-113 183,-246 41,-60 67,-106 67,-123 0,-26 47,-89 175,-237 85,-98 225,-332 348,-579 16,-33 44,-82 61,-110 43,-67 75,-130 131,-255 26,-58 60,-125 75,-150 16,-25 33,-65 39,-90 20,-88 98,-259 169,-368 21,-33 48,-95 61,-138 12,-44 53,-171 91,-284 75,-225 160,-516 160,-547 0,-11 9,-28 21,-39 12,-10 32,-38 46,-62 28,-47 27,-81 -5,-143 l -17,-34 55,-1 c 68,-1 165,-41 175,-74 4,-12 9,-19 11,-17 5,5 -27,158 -58,282 -23,87 -71,215 -118,310 -102,207 -162,364 -189,491 -15,76 -85,245 -146,354 -29,52 -68,136 -88,185 -54,139 -105,245 -116,245 -6,0 -11,7 -11,16 0,9 -22,62 -49,118 -27,56 -54,121 -61,145 -6,24 -29,81 -50,127 -21,45 -43,99 -50,120 -13,38 -83,153 -187,303 -32,46 -68,102 -81,125 -13,23 -40,59 -61,81 -68,73 -150,182 -188,252 -21,37 -66,111 -102,163 -35,52 -86,131 -112,175 -79,133 -245,340 -375,469 -72,72 -157,173 -257,306 -190,254 -191,254 -449,506 -51,51 -109,102 -128,115 -19,12 -62,48 -95,78 -133,123 -398.1034,344.8814 -419.1034,330.8814 -9,-5 27.0422,-43.145 10.0422,-28.145 -13,12 146.0612,-137.7364 179.0612,-176.7364 z"
     id="path4529"
     style="fill:#717171;stroke:none" />
  <path
     d="m 7025.6796,4653.5196 c -8,-43 -44,-86 -105,-127 -25,-17 -48,-33 -50,-34 -2,-2 10,-19 28,-39 17,-20 41,-54 52,-78 12,-23 32,-58 45,-77 13,-20 34,-63 47,-95 46,-115 199,-430 226,-465 15,-19 45,-66 65,-103 21,-37 57,-93 80,-125 64,-86 115,-168 161,-257 23,-44 65,-124 93,-179 29,-54 69,-117 91,-141 21,-23 47,-55 56,-71 10,-16 60,-92 110,-169 152,-233 162,-249 210,-345 26,-52 58,-111 71,-132 41,-65 284,-548 284,-564 0,-9 21,-41 47,-71 26,-31 59,-79 74,-107 14,-28 74,-141 134,-251 60,-110 124,-230.99997 143,-269.99997 119,-241 162,-302 339,-486 197,-203 363,-320 546,-384.999999 69,-24 196,-29 255.0004,-10 65.555,28.834029 87.359,50.601159 117,75.999999 5,8 -11,9 -52,5 -117.0004,-13 -251.0004,37 -376.0004,141 -93,77 -267,277 -372,428 -160.659,211.5053 -163.327,191.7322 -332,487.99997 -13,21 -23,44 -23,51 0,8 -17,47 -39,88 -21,41 -51,103 -66,139 -27,60 -65,123 -160,260 -21,30 -69,120 -108,200 -63,132 -169,301 -253,405 -31,38 -158,236 -217,338 -32.58,33.3935 -49.5415,79.7069 -73,107 -23.0038,30.6778 -41.8822,53.6406 -72,93 -115,127 -192,244 -192,293 0,19 -19,59 -50,109 -27,44 -50,84 -50,89 0,5 -17,37 -38,70 -66,104 -128,218 -166,304 -20,46 -54,111 -77,144 -22,34 -60,109 -83,168 -24,58 -64,137 -90,175 -61,91 -136,247 -172,357 -16,48 -34,88 -40,88 -7,0 -15,-16 -18,-35 z"
     id="path5645"
     style="fill:#717171;stroke:none" />
</svg>
