<?xml version="1.0" encoding="UTF-8" standalone="no"?>
<svg
   xmlns:dc="http://purl.org/dc/elements/1.1/"
   xmlns:cc="http://creativecommons.org/ns#"
   xmlns:rdf="http://www.w3.org/1999/02/22-rdf-syntax-ns#"
   xmlns:svg="http://www.w3.org/2000/svg"
   xmlns="http://www.w3.org/2000/svg"
   viewBox="0 0 480.02155 480.00781"
   height="480.00781"
   width="480.02155"
   id="svg4644"
   version="1.1">
  <metadata
     id="metadata4650">
    <rdf:RDF>
      <cc:Work
         rdf:about="">
        <dc:format>image/svg+xml</dc:format>
        <dc:type
           rdf:resource="http://purl.org/dc/dcmitype/StillImage" />
        <dc:title></dc:title>
      </cc:Work>
    </rdf:RDF>
  </metadata>
  <defs
     id="defs4648" />
  <path
     d="m 13.203125,0 -0.34961,1.0078125 c -0.196753,0.5644057 -0.348332,3.1334735 -0.34375,5.8398437 0.0083,4.9093538 0.202248,6.2027688 2.390625,16.0039058 0.650472,2.913282 2.046171,5.089733 3.681641,5.738282 0.806067,0.319647 4.591819,-0.131924 5.388672,-0.642578 1.582844,-1.014349 3.523673,-7.376852 3.800781,-12.458985 C 28.042773,10.512883 27.091205,3.0720658 25.882812,0.72070312 25.518508,0.01181893 25.418979,0 19.359375,0 Z M 69.169922,0 68.972656,1.0390625 C 68.73552,2.2896988 68.309204,2.8995732 67.140625,3.6601562 66.131275,4.3171034 66.05131,4.919639 66.77539,6.3710938 c 0.745724,1.4948441 0.368363,3.2707512 -1.509765,7.1113282 -1.918736,3.923614 -2.682508,6.893814 -3.363282,13.078125 -0.671171,6.097056 -0.793468,23.909396 -0.183593,26.71875 0.885965,4.081136 2.244782,10.653625 2.613281,12.636719 0.417616,2.247412 3.589699,11.16626 5.351562,15.044922 0.5996,1.319999 1.649638,3.262359 2.332032,4.318359 0.682394,1.056 1.491433,2.569328 1.798828,3.361328 0.753245,1.940704 1.817872,3.4818 2.90625,4.208984 0.495245,0.330896 1.251312,0.562825 1.679687,0.515625 1.490957,-0.164275 1.472026,-0.910995 -0.34375,-13.044922 -0.925293,-6.183267 -1.091589,-12.051996 -0.486328,-17.28125 0.87221,-7.535594 1.337352,-17.359569 0.908203,-19.21875 -0.506012,-2.192166 -0.475016,-5.133317 0.107422,-9.83789 0.759626,-6.135792 0.946224,-6.71678 3.244141,-10.177734 1.149715,-1.731615 2.73201,-4.448689 3.517578,-6.03711 0.785568,-1.588421 1.753171,-3.33602 2.15039,-3.884766 0.39722,-0.548745 0.906611,-1.818247 1.13086,-2.820312 0.29977,-1.3395012 1.089399,-2.855094 2.984375,-5.7226562 1.41761,-2.1451894 2.940086,-4.2231407 3.382812,-4.61914068 L 95.800781,0 H 82.486328 Z M 206.41406,0.015625 c -0.72088,0.01582286 -1.34611,0.1688482 -1.58203,0.453125 -0.42887,0.51675242 -0.13146,0.856367 3.18945,3.6425781 0.968,0.8121431 2.63666,2.2822846 3.70898,3.265625 1.07231,0.9833405 3.01663,2.4932617 4.32032,3.3554689 2.62432,1.735626 7.85128,6.971016 10.45117,10.46875 0.924,1.243091 1.67969,2.365005 1.67969,2.49414 0,0.129138 0.88675,1.583208 1.9707,3.230469 1.08394,1.647262 2.32364,3.785907 2.75391,4.753907 0.43027,0.967999 1.3276,2.912312 1.99414,4.320312 2.1471,4.535536 5.18999,14.516098 6.24609,20.480469 0.28048,1.584 0.84251,3.959297 1.24805,5.279297 1.83198,5.962995 2.23431,7.392588 3.5625,12.68164 1.30622,5.201533 1.56741,5.888388 3.48633,9.189453 1.14086,1.962608 3.0477,4.793063 4.23828,6.289063 2.54217,3.194304 10.18999,10.834768 12.25976,12.248048 2.54659,1.73886 5.21164,4.08749 7.98828,7.03711 1.49042,1.58326 3.65087,3.62224 4.80078,4.53125 2.95668,2.33725 8.12398,5.88058 9.13672,6.26562 0.4703,0.17881 1.45445,0.81055 2.18555,1.4043 2.27509,1.84767 6.92557,4.73628 10.92969,6.78711 2.112,1.08173 4.63161,2.40134 5.59961,2.93359 1.06565,0.58595 3.27455,1.31164 5.59961,1.83985 2.112,0.4798 5.49553,1.27406 7.51953,1.76562 4.21117,1.02275 7.6563,1.58789 9.6914,1.58789 0.77434,0 2.11455,0.21512 2.97852,0.47852 0.86397,0.26341 3.29306,0.7704 5.39844,1.12695 4.47312,0.75755 9.91848,2.55422 15.53125,5.12305 2.2,1.00689 4.57725,2.00908 5.28125,2.22656 1.21574,0.37558 7.36889,3.21849 16.16015,7.4668 2.2,1.06313 4.71961,2.40694 5.59961,2.98633 0.88,0.5794 2.39138,1.32557 3.35938,1.6582 0.968,0.33262 3.20094,1.37085 4.96093,2.30859 5.11617,2.72595 14.45423,6.19692 19.75977,7.34375 1.80358,0.38986 4.28753,1.05116 5.51953,1.46875 2.14109,0.72574 7.96171,1.73242 10.01563,1.73242 1.25757,0 1.98437,0.28809 1.98437,0.78516 0,0.75504 1.13657,1.40353 4.48047,2.55664 1.848,0.63727 4.65623,1.64641 6.24023,2.24414 4.31979,1.63008 13.8547,4.65444 14.65626,4.64844 0.38682,-0.003 1.99998,0.28059 3.58398,0.62891 1.584,0.34832 5.11184,0.90912 7.83984,1.24609 2.728,0.33696 5.61138,0.62889 6.40821,0.65039 2.7641,0.0747 3.78051,-1.69749 1.88671,-3.29102 -0.54151,-0.45564 -1.15288,-0.83098 -1.35937,-0.83398 -0.2065,-0.003 -2.38872,-0.29138 -4.84766,-0.64062 -2.45892,-0.34926 -4.90637,-0.63191 -5.43945,-0.62891 -0.87226,0.005 -3.83185,-0.58665 -8.80859,-1.75781 -0.968,-0.2278 -2.62369,-0.70861 -3.67969,-1.07032 -1.056,-0.36171 -3.57756,-1.16351 -5.60156,-1.78125 -8.1887,-2.49925 -10.75253,-3.50415 -11.63672,-4.56054 -1.33827,-1.59894 -2.29405,-1.87553 -10.44336,-3.02149 -1.496,-0.21037 -3.3896,-0.64243 -4.20899,-0.96094 -0.81939,-0.31848 -2.83585,-0.88889 -4.48046,-1.26562 -6.13091,-1.40443 -14.13861,-4.30804 -19.78907,-7.17578 -1.848,-0.9379 -4.27594,-2.07578 -5.39453,-2.5293 -1.11859,-0.45352 -2.82048,-1.34664 -3.78125,-1.98437 -0.96077,-0.63772 -2.63597,-1.52013 -3.72461,-1.96094 -8.38304,-3.46501 -3.12538,-1.71385 -11.48047,-5.40625 -1.60992,-0.80855 -4.52205,-2.08843 -6.47265,-2.84375 -1.95056,-0.75531 -4.84374,-1.94436 -6.42774,-2.64258 -4.75472,-2.09588 -10.33579,-3.84983 -14.08007,-4.42383 -1.93601,-0.29678 -4.43421,-0.81034 -5.55274,-1.14062 -1.11856,-0.33029 -2.77425,-0.60247 -3.67969,-0.60547 -2.41875,-0.008 -6.57904,-0.70977 -13.98633,-2.35547 -6.33682,-1.40788 -6.76398,-1.552 -11.52148,-3.91016 -6.0539,-3.00073 -10.20658,-5.40685 -12.25976,-7.10351 -0.85466,-0.70625 -2.2916,-1.68558 -3.19532,-2.17578 -3.94738,-2.14117 -8.73035,-6.0628 -14.44336,-11.84375 -2.288,-2.31521 -5.02408,-4.8335 -6.08008,-5.595706 -2.52878,-1.825232 -10.08003,-9.425577 -12.375,-12.455078 -0.99832,-1.31785 -2.60323,-3.763547 -3.56445,-5.435547 -1.49027,-2.592262 -1.92196,-3.746797 -2.93359,-7.839843 -1.12635,-4.557258 -1.78321,-6.929722 -3.54688,-12.798828 -0.4231,-1.408001 -1.0602,-4.073876 -1.41406,-5.921876 -0.71004,-3.708213 -2.29951,-9.833361 -3.19726,-12.318359 -1.34254,-3.716109 -2.71216,-7.134856 -3.39649,-8.480469 -0.40278,-0.792 -1.22934,-2.542447 -1.83789,-3.890625 -0.60854,-1.348178 -1.76714,-3.473076 -2.57422,-4.720703 -0.80709,-1.247626 -1.74702,-2.808555 -2.08789,-3.46875 -1.95831,-3.79284 -9.3029,-11.791979 -13.2832,-14.4667966 C 217.05949,6.7581296 215.11459,5.2518749 214.1289,4.3457031 212.19606,2.5687886 209.99767,1.0041687 208.5664,0.38671875 207.95077,0.1211333 207.13494,-1.9786375e-4 206.41406,0.015625 Z m -57.42383,0.0039063 c -6.0629,-0.0183151 -6.64453,0.02786706 -6.02344,0.46289063 0.37812,0.26484912 1.0226,0.61530197 1.43164,0.77929697 0.40903,0.1639947 2.11121,0.2998143 3.78321,0.3027343 2.37715,0.00415 3.52771,-0.1617643 5.27929,-0.75976565 l 2.24024,-0.76367188 z M 0,44.451172 0.5078125,45.666016 c 1.2971879,3.106384 5.9205595,10.066081 8.0625,12.136718 1.9126645,1.848995 4.1387215,3.039366 6.9707025,3.726563 2.791352,0.677335 3.895315,0.655465 4.640625,-0.08984 0.352,-0.352 0.640625,-0.993755 0.640625,-1.425781 0,-0.65503 -0.200486,-0.821408 -1.201172,-1.00586 C 17.369341,58.592757 15.88957,57.902904 12.796875,55.824219 9.704362,53.745659 7.2459952,51.396839 5.140625,48.507812 4.4907389,47.616027 3.1781857,46.441766 2.0117188,45.710938 Z M 350.61718,172.58984 c -0.11475,-0.0193 -0.19531,0.0516 -0.19531,0.19141 0,0.18639 0.14431,0.33789 0.32031,0.33789 0.176,0 0.31836,-0.063 0.31836,-0.14062 0,-0.0776 -0.14236,-0.22913 -0.31836,-0.3379 -0.044,-0.0272 -0.0867,-0.0444 -0.125,-0.0508 z m 128.95508,6.8125 c -0.17546,0.0468 -0.4171,0.33216 -0.75,0.79297 -0.2201,0.30465 -1.11121,0.7881 -1.97851,1.07617 l -1.57618,0.5254 0.0723,1.97656 0.0703,1.97851 1.90625,0.6836 c 1.0479,0.37639 2.08469,0.70281 2.30469,0.72461 0.3009,0.0298 0.40039,-0.95562 0.40039,-3.97852 0,-2.83616 -0.0632,-3.88235 -0.44922,-3.7793 z m -329.62109,107.1581 c -3.65297,2.51306 -6.10821,4.41238 -7.87944,5.80653 m 0,0 c -1.77124,1.39415 -2.85849,2.28313 -3.77548,2.77551 m 0,0 c -1.20483,0.6101 -1.46365,1.63056 -3.35043,2.56085 -4.0105,2.87472 -7.57883,6.74026 -9.40481,8.18319 -0.924,0.73016 -1.67969,1.44983 -1.67969,1.59766 0,0.14783 -1.38614,1.76371 -3.08007,3.59179 -1.69393,1.82808 -4.03315,4.53606 -5.19922,6.01758 -5.69517,7.23589 -6.75289,8.1866 -13.29883,11.95703 -2.12347,1.22311 -4.671976,2.7909 -5.662107,3.48438 -2.125619,1.48873 -4.440808,2.17664 -7.357421,2.18164 -1.165014,0.002 -3.828936,0.34936 -5.919922,0.77343 -2.090986,0.42403 -4.896231,0.86783 -6.234375,0.98438 -2.802272,0.24406 -3.298295,0.50228 -6.822266,3.56445 -3.985881,3.46362 -5.657475,4.73765 -8.705078,6.63477 -3.750359,2.33453 -5.963222,4.3309 -6.820313,6.15429 -0.459562,0.97767 -2.260275,3.06183 -5.240234,6.0625 -3.941667,3.96906 -4.708984,4.5986 -5.820312,4.78711 -2.266231,0.38435 -12.686875,4.00033 -17.119141,5.93946 -1.450604,0.63466 -2.776711,0.95057 -4.382813,1.04297 -2.115993,0.12176 -2.596544,0.29589 -5.919922,2.14257 -6.4321355,3.57415 -13.3296551,7.03711 -14.013671,7.03711 -0.3667522,0 -1.0212703,-0.23335 -1.45507812,-0.51757 l -0.7890625,-0.51543 v 10.24609 c 0,9.96365 0.01695617,10.2429 0.6171875,10.08594 0.3395104,-0.0888 2.24774492,-1.50611 4.24023442,-3.15039 1.9924896,-1.64429 4.7285927,-3.65005 6.0800777,-4.45703 1.351485,-0.80697 3.940116,-2.63123 5.753906,-4.05273 1.813789,-1.42147 4.813337,-3.48412 6.664063,-4.58399 1.850725,-1.09987 4.587984,-2.79485 6.083984,-3.76758 3.018077,-1.96237 5.042886,-3.01695 9.705078,-5.04883 1.730026,-0.75401 4.323745,-2.07952 5.761719,-2.94726 1.437971,-0.86774 4.566027,-2.57265 6.953125,-3.78711 2.387098,-1.21447 6.492192,-3.62014 9.121094,-5.34766 2.628902,-1.72752 5.909978,-3.7493 7.291015,-4.49218 3.421565,-1.84044 5.379801,-3.17474 8.208985,-5.5918 1.32,-1.12774 4.062271,-3.14979 6.09375,-4.49414 2.031478,-1.34432 4.925717,-3.44192 6.43164,-4.66016 2.779098,-2.24813 8.639801,-6.13012 16.035157,-10.62304 6.28633,-3.81917 7.85444,-5.06287 10.47851,-8.30079 3.8068,-4.69728 4.72321,-5.73083 6.58203,-7.42968 0.96088,-0.87819 2.59791,-2.77512 3.63867,-4.2168 1.30828,-1.81224 2.51693,-3.05591 3.91602,-4.0293 1.11301,-0.77435 3.03167,-2.4274 4.26367,-3.67382 1.89196,-1.91412 5.92268,-5.15054 12.41211,-9.96485 1.57392,-1.16764 4.71534,-2.95769 10.94727,-6.24023 4.6888,-2.46972 11.17699,-6.70039 17.5039,-11.41211 2.05865,-1.5331 5.5865,-3.93545 7.83985,-5.33789 2.25336,-1.40245 4.79792,-3.20245 5.65429,-4 2.87713,-2.67956 12.42321,-9.30793 17.96289,-12.47266 1.936,-1.106 4.02463,-2.39891 4.64063,-2.875 2.89289,-2.23588 9.52055,-6.26875 11.45117,-6.9668 2.56107,-0.926 5.7921,-2.68315 7.20703,-3.91992 0.56185,-0.4911 3.30147,-2.01075 6.08789,-3.37695 l 5.06641,-2.48438 2.77344,0.16211 c 2.47201,0.14399 3.16533,0.33958 6.38281,1.79492 7.27318,3.28985 8.67128,5.02136 8.04883,9.97852 -0.31258,2.48942 -0.8503,3.72176 -2.42578,5.56836 -0.59013,0.69168 -1.07227,1.43955 -1.07227,1.66211 0,0.22255 -0.74444,1.02543 -1.6543,1.7832 -0.90986,0.75776 -2.38711,2.04581 -3.28125,2.86328 -0.89414,0.81748 -2.48892,1.99916 -3.54492,2.625 -1.056,0.62584 -2.66158,1.75699 -3.56836,2.51368 -5.17061,4.31478 -6.32203,5.17053 -8.77539,6.52734 -1.48331,0.82032 -4.33667,2.73286 -6.34179,4.25 -2.00512,1.51714 -4.5004,3.374 -5.54493,4.12695 -1.04454,0.75294 -2.72356,2.05462 -3.73047,2.89258 -1.00691,0.83796 -3.04771,2.37661 -4.53515,3.41992 -2.76226,1.93748 -6.24503,4.62935 -9.10352,7.03516 -0.88,0.74063 -2.68,2.06859 -4,2.95117 -7.33778,4.90621 -15.17805,12.88897 -19.20117,19.55078 -3.15128,5.21814 -4.18631,6.52109 -9.44726,11.90039 -2.66799,2.728 -5.98887,6.39644 -7.38086,8.15039 -3.15709,3.97799 -10.65519,11.5763 -14.05079,14.23828 -3.36451,2.6376 -20.38955,19.49351 -23.58203,23.34766 -1.37356,1.65824 -2.49804,3.27785 -2.49804,3.59961 0,0.964 1.33284,0.69831 3.08789,-0.61523 2.16434,-1.61987 8.85373,-7.8548 14.51172,-13.52539 2.552,-2.5577 6.36846,-6.04114 8.48046,-7.74024 3.70925,-2.9841 13.49439,-12.81378 17.13672,-17.21484 0.94678,-1.144 3.10395,-3.5193 4.79493,-5.2793 1.69097,-1.76 4.07194,-4.49348 5.29101,-6.07422 1.21908,-1.58074 3.85408,-4.74781 5.85547,-7.03906 2.0014,-2.29126 4.61784,-5.53503 5.81445,-7.20703 2.81281,-3.9303 13.561,-14.61135 18.54688,-18.43164 2.024,-1.55084 4.58858,-3.51073 5.69922,-4.35547 1.11065,-0.84474 3.70612,-2.53405 5.76757,-3.75391 2.06145,-1.21987 4.88239,-3.19931 6.26758,-4.39844 1.38518,-1.19914 3.41581,-2.9147 4.51367,-3.8125 2.25946,-1.84774 10.51945,-7.16796 11.12891,-7.16796 0.2198,0 1.40341,-0.6233 2.63086,-1.38477 1.22744,-0.76148 3.26473,-1.92372 4.52539,-2.58398 1.72163,-0.90169 2.63724,-1.64679 3.67969,-2.99414 2.92852,-3.7851 7.36667,-7.99234 11.4668,-10.86719 3.02677,-2.12227 9.35256,-2.8656 12.0996,-1.42188 4.27182,2.24506 7.74024,5.22913 7.74024,6.65821 0,0.50315 0.21367,1.92236 0.47461,3.15429 0.26095,1.23193 0.47747,3.04227 0.48047,4.02344 0.008,2.63261 -2.05356,8.28382 -4.11719,11.2832 -0.53156,0.77259 -1.20674,2.00341 -1.5,2.73633 -0.44763,1.11875 -1.15698,1.77949 -4.41602,4.11914 -2.13509,1.53276 -4.96429,3.82125 -6.28711,5.08399 -1.50813,1.43963 -3.06977,2.58967 -4.1875,3.08398 -2.72742,1.2062 -8.67722,6.4424 -12.98828,11.42969 -0.98888,1.144 -2.60339,2.66749 -3.58789,3.38672 -2.49848,1.82524 -8.12638,8.07354 -13.89648,15.42773 -4.94442,6.30182 -17.06845,19.0649 -21.01367,22.12109 -0.968,0.74989 -3.70408,3.19181 -6.08008,5.42579 -2.376,2.23398 -5.61522,5.18913 -7.19922,6.56836 -5.00568,4.35866 -25.82377,26.48523 -27.77539,29.52148 -0.77355,1.20349 -2.76081,3.71579 -4.41602,5.58203 -1.65521,1.86624 -3.80153,4.37675 -4.76953,5.58008 -0.968,1.20332 -2.27445,2.77382 -2.90234,3.48828 -1.44911,1.64887 -3.93008,4.931 -4.39844,5.81836 -0.19724,0.37369 -0.50885,1.35248 -0.69336,2.17578 -0.18451,0.82333 -1.17524,3.25339 -2.20117,5.40039 -1.02593,2.14698 -2.04051,4.43478 -2.25391,5.08399 -0.21339,0.64922 -1.18487,2.44922 -2.16015,4 -2.19217,3.4858 -2.77981,4.65289 -3.29102,6.54101 -0.79216,2.92583 -0.34582,2.85729 2.38281,-0.36914 1.40684,-1.66349 3.4188,-3.87589 4.47071,-4.91601 1.05191,-1.04016 2.17541,-2.48127 2.49804,-3.20313 0.32264,-0.72186 0.99892,-1.95995 1.50196,-2.75195 0.50305,-0.792 1.16945,-2.23317 1.48047,-3.20117 0.59265,-1.84451 0.69221,-1.95437 6.375,-7.10938 2.61836,-2.37516 4.40835,-3.73707 8.95117,-6.80469 13.80202,-9.32 22.52954,-12.93922 29.02539,-12.03906 3.29027,0.45596 8.67413,3.13449 11.39844,5.66992 2.02176,1.88153 2.02696,1.88868 3.12109,5.67188 0.60256,2.08352 1.0957,4.28766 1.0957,4.89844 0,0.61078 0.15262,2.09796 0.33985,3.30468 0.30454,1.96288 0.27421,2.32572 -0.29297,3.4375 -0.34869,0.68349 -3.34562,4.00038 -6.66016,7.37305 -3.31455,3.37267 -8.86284,9.14685 -12.32812,12.83008 -3.88977,4.1344 -6.76666,6.92523 -7.51953,7.29297 -0.67072,0.32762 -1.36042,0.95453 -1.53321,1.39453 -0.17279,0.44 -1.28926,2.72369 -2.48047,5.07422 -1.19121,2.35052 -2.16601,4.40306 -2.16601,4.56054 0,0.58556 0.65748,0.24328 2.52929,-1.31445 1.05743,-0.88 2.15509,-1.59961 2.43946,-1.59961 0.55133,0 3.10838,1.37248 4.12109,2.21289 0.33526,0.27821 1.32219,2.01919 2.19336,3.86719 1.58183,3.35555 1.58366,3.36366 1.43945,6.08008 -0.0851,1.60362 -0.41595,3.47161 -0.80664,4.55273 -0.81461,2.25424 -4.91986,8.05307 -8.46875,11.96094 -1.45544,1.60266 -2.81482,3.36658 -3.01953,3.91992 L 183.75781,480 h 3.43555 3.43554 l 2.37696,-2.06445 c 2.40774,-2.09315 2.72948,-2.48145 5.26367,-6.33399 4.12285,-6.26771 5.29848,-11.1877 4.28711,-17.93945 -0.41294,-2.75677 -1.79223,-8.03586 -2.41797,-9.25586 -0.43644,-0.85091 -1.90308,-1.84156 -2.74219,-1.85156 -0.22874,-0.003 -0.6177,-0.13236 -0.86523,-0.28907 -0.35473,-0.22458 0.0793,-1.01234 2.04882,-3.71484 1.37429,-1.88579 3.52029,-4.54147 4.76953,-5.90234 1.24924,-1.36086 3.09053,-3.41091 4.0918,-4.55664 1.00128,-1.14576 3.08576,-3.07488 4.63086,-4.28711 5.24251,-4.11305 6.4152,-5.61492 8.34766,-10.67383 0.6716,-1.75815 0.82607,-2.81689 0.96484,-6.65039 0.0908,-2.508 0.2985,-4.56055 0.46289,-4.56055 0.16439,0 0.93268,0.36963 1.70508,0.82227 1.26995,0.74425 1.38587,0.91436 1.21484,1.76953 -0.28282,1.41411 0.544,2.09609 3.28125,2.70508 1.70013,0.37824 2.847,0.87835 4.14063,1.80468 0.98436,0.70487 3.47384,2.0802 5.53125,3.05664 2.05742,0.97645 5.10504,2.64313 6.77344,3.70313 1.66841,1.06003 4.1394,2.44709 5.49023,3.08203 2.42697,1.1408 2.45057,1.1632 2.01758,1.94531 -0.241,0.43533 -0.44322,1.62229 -0.44922,2.63868 -0.0105,1.71667 -0.0737,1.87296 -0.89063,2.18359 -1.4104,0.53622 -2,1.2552 -2,2.43945 0,1.33604 0.23793,1.80319 2.59961,5.0918 1.0275,1.43078 2.64756,4.26263 3.60157,6.29297 2.04509,4.35242 3.70848,6.33753 6.36328,7.59765 1.50601,0.71482 2.39284,1.51355 4.83594,4.35157 3.83568,4.45568 9.96844,10.35887 13.01757,12.53125 1.30929,0.93283 5.1891,3.55951 8.6211,5.83593 3.432,2.27645 7.60925,5.15432 9.28125,6.39649 1.672,1.24221 3.72193,2.6159 4.55664,3.05078 l 1.51758,0.78906 10.96289,-0.084 10.96289,-0.084 -2.56055,-1.32031 c -2.8322,-1.46035 -5.09662,-2.24321 -10.00586,-3.46094 -4.23663,-1.05088 -6.23658,-2.07782 -11.98437,-6.15625 -2.59062,-1.83821 -7.19886,-4.85531 -10.24024,-6.70312 -9.34456,-5.67731 -10.62249,-6.81038 -22.47656,-19.95899 -9.07272,-10.06352 -8.96686,-9.92425 -9.75586,-12.79296 -1.10708,-4.02518 -1.11715,-3.99339 2.62305,-7.62696 1.804,-1.75258 4.28753,-3.94101 5.51953,-4.86523 1.232,-0.92422 3.19579,-2.52641 4.36328,-3.5586 1.87525,-1.65795 2.14123,-1.8016 2.28906,-1.23632 0.0934,0.35715 0.43739,0.64062 0.77735,0.64062 0.33501,0 2.7592,-1.65774 5.38867,-3.68359 2.62946,-2.02586 5.50399,-4.16856 6.38672,-4.76172 2.82018,-1.895 5.82948,-2.5788 7.66992,-1.74024 0.73056,0.33286 1.10977,0.22496 3.29883,-0.9414 1.53599,-0.8184 4.08466,-1.75345 6.72461,-2.46875 2.33807,-0.63347 4.62198,-1.29412 5.07617,-1.4668 0.45419,-0.17267 4.08472,-2.4296 8.0664,-5.01562 4.41306,-2.8662 9.94458,-6.10226 14.16993,-8.28907 3.81232,-1.97306 8.27624,-4.41633 9.91992,-5.42968 7.10899,-4.38262 18.00773,-10.75561 20.58984,-12.04102 2.49581,-1.24243 6.62726,-2.78619 9.71094,-3.62891 1.28714,-0.35174 3.33529,-1.37223 5.59375,-2.7871 4.76691,-2.98634 5.4415,-3.24562 12.84765,-4.92383 8.37076,-1.89676 9.06433,-1.86201 13.44727,0.67578 6.12787,3.54813 8.7347,5.83437 10.40039,9.12305 0.67351,1.32972 1.77594,3.16576 2.45117,4.08007 0.67526,0.9143 2.1646,3.19582 3.3086,5.06836 1.144,1.87252 2.83673,4.36392 3.76172,5.53711 0.92499,1.17315 2.67071,3.42772 3.88085,5.01172 1.21011,1.584 2.87939,3.52831 3.70899,4.32031 0.82964,0.792 2.05885,2.23317 2.73047,3.20117 1.58451,2.28385 4.80593,5.38498 7.06836,6.80469 1.96669,1.23411 3.93347,2.69613 6.27929,4.66797 6.14426,5.16467 11.54966,8.80229 14.33008,9.64453 2.01402,0.61011 2.86694,1.09923 2.98438,1.70899 0.20666,1.07302 -0.56851,1.52818 -2.48438,1.45898 -1.05642,-0.0381 -2.12197,0.1175 -2.58789,0.37891 -0.5854,0.32842 -1.86042,0.42368 -4.88086,0.36328 -2.24858,-0.045 -4.35156,0.0589 -4.67578,0.23242 -0.32416,0.17348 -1.94012,0.47427 -3.5918,0.66797 -1.65168,0.19373 -4.51528,0.78165 -6.36328,1.30664 -1.848,0.52499 -4.65623,1.15876 -6.24023,1.4082 -6.18218,0.97353 -7.1444,1.18462 -10.24024,2.23438 -1.76,0.5968 -3.84862,1.24758 -4.64062,1.44726 -0.792,0.19965 -2.80847,1.12826 -4.48047,2.0625 -1.672,0.93427 -3.68652,2.02255 -4.47852,2.41993 -1.30643,0.65552 -3.52123,2.2563 -12.80078,9.25585 -1.672,1.26118 -4.20099,3.51021 -5.62109,4.9961 -1.81372,1.89776 -2.80688,2.70117 -3.33789,2.70117 -0.41578,0 -2.20643,0.84652 -3.97852,1.88086 -1.77213,1.0343 -4.59282,2.67531 -6.26757,3.64648 -3.6682,2.12714 -7.68336,5.20318 -11.99415,9.18946 -7.05862,6.52732 -14.67506,13.0268 -20.16015,17.20312 L 342.29492,480 h 6.33398 c 5.89747,0 6.39728,-0.0458 7.26563,-0.66406 1.39972,-0.99671 5.68091,-4.73015 11.08789,-9.66992 8.54896,-7.81024 9.78366,-8.71211 19.71094,-14.4004 6.03286,-3.45684 6.39338,-3.71861 7.19921,-5.21289 0.89075,-1.65174 3.95517,-4.15319 11.12305,-9.08007 4.54544,-3.12435 14.47106,-8.16459 18.53516,-9.41211 0.35725,-0.10966 1.41895,-0.69492 2.35937,-1.30078 0.94042,-0.60589 2.73591,-1.40416 3.99024,-1.77344 1.25431,-0.36925 3.28948,-1.08027 4.52148,-1.58008 5.85856,-2.37683 10.11239,-3.58073 14.29492,-4.04492 4.55977,-0.50605 5.05818,-0.5996 7.625,-1.43164 0.968,-0.31379 3.3994,-0.755 5.40235,-0.98047 3.6486,-0.41076 5.09926,-0.9577 5.88476,-2.22266 0.40534,-0.65273 -1.32381,-4.83835 -2.67578,-6.47851 -0.98643,-1.19674 -6.59291,-5.69876 -11.64258,-9.34766 -4.29699,-3.10502 -10.32123,-8.42902 -16.58398,-14.6582 -5.01251,-4.9856 -6.03094,-6.16724 -7.08985,-8.22266 -1.73478,-3.3673 -2.83662,-4.90282 -5.6289,-7.83984 -2.66388,-2.80192 -5.05384,-5.8807 -8.56641,-11.03907 -1.2584,-1.848 -2.74033,-3.98705 -3.29297,-4.75195 -0.99024,-1.37056 -2.20703,-4.21836 -2.20703,-5.16406 5.4e-4,-1.02358 1.9174,-4.39049 3.3125,-5.81836 0.80285,-0.82169 2.36706,-2.1349 3.47461,-2.91797 2.85034,-2.01533 14.36156,-7.81903 19.4668,-9.81445 8.98231,-3.51082 12.86815,-4.54418 19.36133,-5.14844 5.24996,-0.48858 9.93642,-1.67263 13.29882,-3.36133 4.7937,-2.40751 8.01892,-3.2119 9.56446,-2.38476 0.32768,0.17536 0.82088,0.23121 1.09765,0.125 0.42367,-0.16259 0.50391,-0.88515 0.50391,-4.57813 0,-5.0716 -0.344,-6.15343 -2.61133,-8.22851 -0.74323,-0.6802 -1.89206,-1.76492 -2.55469,-2.41016 -1.21392,-1.18207 -2.99816,-1.87965 -6.0332,-2.35742 -0.792,-0.12467 -2.7472,-0.69751 -4.34375,-1.27344 -1.59657,-0.57594 -4.76363,-1.3565 -7.03906,-1.73437 -6.0558,-1.00563 -10.48004,-1.89962 -13.73828,-2.77735 -1.58432,-0.42679 -3.94388,-1.0604 -5.24414,-1.4082 -2.64195,-0.70672 -6.95768,-1.16351 -13.63477,-1.43945 -6.268,-0.25904 -11.51408,-0.73357 -16,-1.45118 -2.112,-0.33786 -6.29879,-0.75431 -9.30273,-0.92382 -3.73577,-0.2108 -6.2638,-0.52423 -8,-0.99219 -1.39606,-0.37629 -3.68966,-0.96564 -5.09766,-1.31055 -1.408,-0.34492 -4.24546,-1.34937 -6.30469,-2.23047 -4.43223,-1.89645 -12.69272,-4.73397 -20.25586,-6.95898 -2.992,-0.88022 -6.90958,-2.11017 -8.70507,-2.73242 -1.79549,-0.62225 -7.05118,-2.07775 -11.67969,-3.23438 -8.14503,-2.03538 -8.63604,-2.11822 -15.29492,-2.58203 -8.1534,-0.56792 -15.6362,-1.46719 -19.83985,-2.38672 -1.672,-0.36574 -5.02502,-0.92831 -7.45117,-1.25 -2.95145,-0.39134 -4.60227,-0.7579 -4.98633,-1.10547 -0.35409,-0.32046 -1.13504,-0.51953 -2.04101,-0.51953 -2.51348,0 -2.48242,0.051 -2.48242,-3.9082 0,-4.16201 -0.51032,-6.41081 -2.23047,-9.83203 -1.72464,-3.43013 -3.79275,-5.62356 -6.55079,-6.94532 l -2.24023,-1.07421 -4.80859,0.0137 c -4.19999,0.0122 -5.8546,0.1527 -7.84766,0.66406 -0.37944,0.0974 -0.51572,-0.34958 -0.6582,-2.16016 -0.21592,-2.74362 -1.5552,-5.24634 -3.82422,-7.14843 -2.42746,-2.03492 -3.52561,-2.56736 -5.30664,-2.56836 -0.98372,-7.3e-4 -3.07092,-0.45973 -5.2793,-1.16211 l -3.65234,-1.16214 -4.65821,0.1875 c -4.10514,0.1644 -4.95707,0.29802 -7.19921,1.13281 -4.60181,1.71332 -11.28676,4.93742 -13.23633,6.38477 -0.84648,0.62843 -1.42518,0.79834 -2.56055,0.74804 -2.22875,-0.0988 -4.69871,-1.20718 -5.46875,-2.45312 -1.22962,-1.98957 -1.0778,-1.97469 -22.23828,-2.21485 -21.03492,-0.23875 -24.95282,-0.0714 -30.0918,1.2793 -6.65356,1.74878 -7.23627,1.79636 -25.42773,2.07813 -9.416,0.14585 -20.14385,0.39566 -23.83985,0.55468 -6.42603,0.27648 -6.85991,0.33574 -9.91992,1.37696 -2.707449,0.92125 -3.216211,1.20209 -3.304681,1.82617 -0.198029,1.39691 0.409418,1.66406 3.804681,1.66406 1.80194,0 3.22938,0.13988 3.34571,0.32813 0.11158,0.18053 0.2814,1.10035 0.3789,2.04492 0.21465,2.07973 -0.0415,2.30435 -3.9043,3.4082 -5.252506,1.50097 -11.059944,4.48337 -10.017569,5.14453 0.618976,0.39261 2.067382,0.32142 4.576172,-0.22461 1.232,-0.26814 4.759844,-0.92743 7.839837,-1.46484 l 5.60156,-0.97656 17.91993,-0.0274 c 15.2646,-0.0227 18.4383,0.0524 21.41601,0.50977 2.75442,0.42303 5.78944,0.53711 14.31836,0.53711 8.17869,0 4.68834,-0.0993 10.58265,0.23787 3.78269,0.13855 7.45547,0.46475 13.12243,0.60191 5.06,0.12229 9.19922,0.33379 9.19922,0.46875 0,0.13496 -0.87545,0.7786 -1.94727,1.42969 -3.18186,1.93288 -8.22322,5.8155 -11.82422,9.10937 -1.85428,1.69613 -4.44604,3.70031 -5.75976,4.45313 -1.31371,0.75281 -3.53927,2.09498 -4.94727,2.98242 -1.408,0.88744 -4.02681,2.44956 -5.81836,3.47266 -4.98949,2.91735 -9.16691,5.95146 -14.01757,9.11718 l -0.95508,0.60743 m 94.5332,-47.5038 c -0.80163,-0.008 -1.65813,0.24972 -2.70312,0.73828 -2.15637,1.00816 -5.6367,3.4774 -6.85352,4.86328 -2.80017,3.18922 -4.93692,10.30722 -3.90234,13 0.39406,1.02564 2.84741,3.74963 4.02343,4.4668 0.53492,0.3262 1.02745,0.59311 1.09375,0.59375 0.0663,6.6e-4 1.21694,-0.59964 2.5586,-1.33398 4.58151,-2.50763 6.01706,-3.65657 7.88086,-6.31641 2.18091,-3.11239 2.33315,-3.23843 3.8457,-3.14453 1.2292,0.0763 1.23201,0.075 1.77344,-1.6836 0.29801,-0.968 0.64355,-2.37642 0.76953,-3.1289 0.22055,-1.31739 0.17779,-1.4155 -1.16016,-2.65039 -0.76422,-0.70536 -2.18044,-2.06092 -3.14844,-3.01367 -1.65638,-1.6303 -2.84167,-2.37791 -4.17773,-2.39063 z m 27.14453,14.4707 c -0.26596,-0.003 -0.53903,0.0231 -0.86133,0.0703 -2.29061,0.33544 -3.82048,1.15872 -6.58593,3.54101 -4.94803,4.26247 -7.46975,7.00142 -8.5293,9.26563 -0.89659,1.91609 -0.97658,2.34146 -0.83594,4.41797 0.13034,1.92428 0.34789,2.61725 1.33789,4.26367 1.37944,2.29406 1.72766,2.63321 3.86524,3.75586 1.85136,0.97233 2.42004,1.00749 5.81445,0.36132 4.07939,-0.77653 6.72505,-1.98549 8.77148,-4.0039 3.4711,-3.42354 4.77235,-6.20261 4.77735,-10.20313 9.7e-4,-0.81197 0.15305,-2.01991 0.33789,-2.68554 0.28977,-1.04348 0.2187,-1.50778 -0.51758,-3.36133 -0.46968,-1.18237 -1.00796,-2.34024 -1.19726,-2.57422 -0.18932,-0.23398 -1.56639,-1.00338 -3.0586,-1.70898 -1.78864,-0.8458 -2.52047,-1.12913 -3.31836,-1.13868 z m -60.57031,5.69532 c -0.27268,-0.0458 -0.47656,0.10313 -0.47656,0.46875 0,0.75953 0.84516,1.94169 4.04883,5.66211 1.62572,1.88794 3.33621,4.08284 3.80273,4.8789 0.86305,1.47269 1.61765,1.84146 1.95703,0.95703 0.2596,-0.67648 -1.4904,-3.18496 -5.01367,-7.18945 -1.62592,-1.848 -3.16954,-3.68408 -3.43164,-4.08008 -0.27223,-0.41131 -0.61404,-0.6515 -0.88672,-0.69726 z m -4.87891,4.52539 c -0.0639,0.0361 -0.0781,0.2034 -0.0781,0.51953 0,0.84126 0.41132,1.69005 2.78125,5.73242 0.97264,1.65902 1.9481,2.96094 2.21875,2.96094 0.33482,0 0.42193,-0.19376 0.2832,-0.63086 -0.27255,-0.85871 -4.26532,-7.73494 -4.83008,-8.31836 -0.19793,-0.20447 -0.31109,-0.29973 -0.375,-0.26367 z m 6.00977,2.51367 c -0.055,0.0303 -0.0213,0.19813 0.0625,0.52344 0.0999,0.38791 0.86963,1.793 1.71094,3.12109 1.51108,2.38538 2.05859,2.89255 2.05859,1.91016 0,-0.61489 -2.54258,-4.5902 -3.36133,-5.25586 -0.27231,-0.22139 -0.41565,-0.32918 -0.4707,-0.29883 z m -145.275388,1.59766 c -0.971785,-0.0266 -1.91822,0.0276 -2.470703,0.17578 -1.710598,0.45878 -0.925343,2.25793 1.339844,3.06836 2.000006,0.71554 3.02782,1.47187 3.810547,2.80859 0.565772,0.9662 0.607825,1.67137 0.541015,9.22851 -0.03978,4.49977 -0.213328,8.91027 -0.384765,9.80079 -0.171434,0.89052 -0.390972,3.27482 -0.488282,5.29882 -0.09731,2.024 -0.380554,4.81188 -0.628906,6.19532 -0.248352,1.38344 -0.451172,3.99057 -0.451172,5.79492 0,4.4255 -1.1487,10.00439 -2.875,13.96094 -0.722125,1.65504 -1.77091,4.05551 -2.330078,5.33593 -1.354329,3.10115 -2.715172,4.82599 -6.101562,7.72852 -1.555076,1.33286 -3.86017,3.7444 -5.121094,5.35742 -1.260922,1.61306 -3.050303,3.52517 -3.976563,4.25 -0.926259,0.72483 -2.313647,2.18232 -3.082031,3.23828 -0.768387,1.056 -2.025565,2.39868 -2.794922,2.98438 -1.886806,1.43638 -6.904565,3.9618 -11.958984,6.01953 -2.288,0.93149 -5.888,2.60105 -8,3.70898 -9.624452,5.04883 -11.687105,5.93806 -14.0800778,6.07422 -1.5900285,0.0905 -2.976128,-0.0667 -4.7792969,-0.54101 -1.3971474,-0.36752 -2.65792861,-0.66797 -2.8007813,-0.66797 -0.14285267,0 -0.25976562,0.92503 -0.25976562,2.05469 v 2.05273 l 2.00000002,0.65039 c 1.1,0.3568 2.3607812,0.70444 2.8007812,0.77344 0.44,0.069 1.9513751,0.0624 3.359375,-0.0156 2.8936434,-0.16026 4.6791724,-0.88319 14.1347654,-5.72265 2.846369,-1.4568 7.382446,-3.53735 10.080078,-4.62305 7.475978,-3.00877 10.690919,-4.94939 14.396484,-8.68945 1.70017,-1.716 3.239715,-3.1211 3.421875,-3.1211 0.361792,0 3.216022,-3.38124 3.509766,-4.1582 0.100067,-0.26468 2.205902,-3.12334 4.679687,-6.35352 7.531869,-9.83484 7.825441,-10.2596 8.00586,-11.51172 0.364185,-2.52746 1.187048,-5.37743 2.220703,-7.70312 0.896624,-2.0174 1.116013,-2.9781 1.294922,-5.63281 0.118611,-1.76 0.503866,-5.28785 0.855469,-7.83985 0.3516,-2.552 0.841362,-6.83283 1.08789,-9.51367 0.246528,-2.68084 0.751578,-6.71378 1.123047,-8.96094 0.941455,-5.69524 0.96297,-12.3843 0.05078,-16.0332 -0.794288,-3.17729 -1.823354,-4.68844 -3.507812,-5.15625 -0.652146,-0.18111 -1.649309,-0.28983 -2.621094,-0.3164 z m 214.486328,14.59374 c 0.64528,0.0154 1.4485,0.0485 2.46093,0.0957 2.552,0.11887 5.64886,0.44915 6.88086,0.73242 1.232,0.28328 3.70524,0.73416 5.49805,1.00391 1.79281,0.26974 5.47816,1.13462 8.18945,1.91992 3.56146,1.03153 6.4221,1.61602 10.30469,2.10547 6.56958,0.82816 8.47116,1.21177 15.20703,3.07812 8.2216,2.278 10.51197,2.9919 13.43946,4.18555 3.34588,1.36424 17.6827,4.64492 23.52148,5.38281 6.13894,0.77582 10.79625,1.84175 17.59961,4.02539 3.344,1.07331 8.43788,2.44712 11.32031,3.05274 2.88243,0.60562 7.70713,1.73817 10.7207,2.51757 6.21043,1.60622 9.45108,2.22816 14.2793,2.74024 1.848,0.196 5.23153,0.6931 7.51953,1.10547 2.288,0.41236 6.24683,0.99217 8.79883,1.28711 2.552,0.29494 5.18936,0.67315 5.85938,0.84179 0.66998,0.16864 3.18959,0.51361 5.5996,0.76563 4.43741,0.46403 10.16506,1.58783 10.45118,2.05078 0.13737,0.22226 -4.04457,1.51922 -6.70899,2.08008 -1.56698,0.32983 -11.75998,3.7231 -12.80078,4.26172 -0.528,0.27325 -3.19923,1.25293 -5.9375,2.17773 -4.62099,1.56064 -8.91744,3.36767 -15.66211,6.58594 -3.8673,1.84531 -6.57953,3.85731 -7.39844,5.48828 -0.37056,0.73805 -1.224,2.06336 -1.89453,2.94336 -0.67053,0.88 -1.52506,2.42108 -1.90039,3.42578 -0.3983,1.06634 -1.08989,2.17084 -1.66211,2.65234 -0.89821,0.75581 -1.14583,0.80688 -2.94336,0.61719 -1.07892,-0.11386 -2.4648,-0.49556 -3.08007,-0.84765 -1.00061,-0.57258 -1.45448,-0.6164 -4.3086,-0.41407 -2.16716,0.15364 -3.8616,0.48168 -5.28125,1.01953 -1.14963,0.43559 -3.37565,1.14789 -4.94531,1.58399 -2.9496,0.81952 -4.28123,1.35495 -11.06641,4.44531 -2.2,1.00199 -5.41515,2.4577 -7.14453,3.23633 -1.72934,0.77862 -4.96097,2.43277 -7.18164,3.67578 -2.22067,1.243 -5.12513,2.6926 -6.45508,3.2207 -1.32995,0.52806 -3.12898,1.46971 -3.99804,2.09375 -0.86905,0.62403 -3.8216,2.28834 -6.56055,3.69727 -2.73894,1.40892 -6.41969,3.60101 -8.17969,4.87109 -3.90397,2.81718 -6.37321,4.20065 -10.8125,6.06055 -2.6481,1.10944 -3.64885,1.38574 -4.52148,1.24414 -1.01186,-0.16422 -1.63407,0.14674 -6.375,3.19141 -6.70063,4.3032 -6.89825,4.39719 -12.05078,5.79101 -2.41341,0.65284 -5.43097,1.73034 -6.83789,2.44141 -1.38511,0.70003 -2.57373,1.27344 -2.64063,1.27344 -0.0669,0 -0.12109,-0.55778 -0.12109,-1.24024 0,-2.09286 -0.32964,-2.08842 -5.62696,0.0918 -5.76977,2.37469 -6.98197,3.04575 -7.11132,3.93164 -0.0729,0.49955 -0.4686,0.76217 -1.55274,1.03516 -1.21532,0.30601 -1.98824,0.90654 -4.70117,3.64257 -3.48237,3.512 -7.23498,6.52579 -10.22266,8.21094 -1.09145,0.61561 -2.67017,1.95746 -3.83789,3.26172 -1.0911,1.21866 -2.29137,2.41664 -2.66601,2.66211 -0.63584,0.41661 -0.69967,0.37852 -0.97266,-0.57422 -0.20051,-0.69977 -0.80623,-1.37471 -1.92578,-2.14258 l -1.63281,-1.11914 0.16406,-1.62109 0.16211,-1.62305 -1.71875,-1.37695 c -2.90404,-2.32826 -11.53558,-7.90049 -15.85742,-10.23633 -4.46398,-2.41267 -9.96623,-4.77159 -13.23047,-5.67188 -1.76979,-0.48812 -2.48445,-0.93588 -4.92578,-3.08398 -1.57066,-1.38202 -3.58029,-2.87987 -4.46485,-3.32812 -0.88458,-0.44826 -2.11937,-1.15211 -2.74414,-1.56446 -2.46779,-1.6287 -8.1751,-2.85546 -11.69531,-2.51367 -1.63499,0.15875 -2.20383,0.0611 -3.83203,-0.66406 -1.0516,-0.46832 -3.21323,-1.19005 -4.80469,-1.60352 -3.53045,-0.91732 -4.64258,-1.32623 -4.64258,-1.70898 0,-0.16102 2.26707,-2.41271 5.03907,-5.00391 5.35008,-5.00112 16.06701,-15.94653 21.32031,-21.77344 1.73858,-1.92845 7.2361,-7.69416 12.21484,-12.8125 4.97874,-5.1183 10.09542,-10.59045 11.3711,-12.16015 1.27567,-1.56966 3.33893,-3.87806 4.58593,-5.12891 1.24701,-1.25085 3.26328,-3.48183 4.48047,-4.95898 1.2172,-1.47715 3.07214,-3.40516 4.1211,-4.28516 1.33142,-1.11696 2.70693,-2.81323 4.55664,-5.61523 3.73941,-5.66456 5.2027,-7.34739 8.73046,-10.03907 1.70444,-1.30049 4.10785,-3.39996 5.33985,-4.66601 2.26096,-2.32347 6.75798,-5.56305 10.87891,-7.83594 1.232,-0.6795 2.60101,-1.47757 3.04101,-1.77344 0.52367,-0.35212 1.04267,-0.46402 2.97852,-0.41797 z m -39.97466,1.38669 c -0.93162,0 -0.35986,1.28104 2.03515,4.55078 1.364,1.86217 3.05577,4.19102 3.75977,5.17579 1.31167,1.83479 2.40039,2.35223 2.40039,1.14062 0,-0.35952 -0.61101,-1.47599 -1.35742,-2.48047 -0.74641,-1.00449 -1.69903,-2.33126 -2.11719,-2.94726 -1.5443,-2.27491 -4.29043,-5.43946 -4.7207,-5.43946 z m -197.539062,3.83985 c -1.56265,0 -3.686768,2.71165 -6.541015,8.34961 -3.594636,7.10043 -4.755331,8.10569 -9.369141,8.12109 -2.163553,0.007 -2.725654,-0.0994 -3.314453,-0.63086 -1.141263,-1.03008 -2.139867,-3.33669 -2.730469,-6.31055 -0.302764,-1.52451 -0.730459,-2.84108 -0.951172,-2.92578 -0.765618,-0.2938 -2.379263,1.79844 -2.59375,3.36328 -0.172279,1.25692 -0.01062,1.90538 1.144532,4.62696 1.628955,3.83787 2.613384,5.57896 4.068359,7.18945 1.642284,1.81781 2.696682,2.05431 5.744141,1.29102 3.664365,-0.91781 4.5996,-1.07696 4.58789,-0.7793 -0.0057,0.14599 -0.29035,1.05739 -0.630859,2.02539 -0.880486,2.50305 -0.795448,5.14224 0.320312,9.9707 0.528,2.28493 0.957025,4.54039 0.953125,5.01172 -0.01792,2.18518 -2.58799,5.32648 -5.990234,7.32031 -1.310524,0.76803 -1.600827,0.80997 -4.34375,0.64844 -4.294012,-0.25293 -5.706204,-0.85258 -8.378906,-3.56055 -4.205054,-4.26055 -5.75901,-7.34434 -5.544922,-11.00585 0.114489,-1.95812 0.267454,-2.35543 1.763672,-4.56446 1.409096,-2.0804 2.300136,-3.03122 4.507812,-4.81054 0.786099,-0.63357 0.01223,-0.92974 -2.425781,-0.92774 -2.958671,0.002 -4.087378,0.56681 -6.2929684,3.15235 -1.8827532,2.20708 -2.0673211,2.57639 -2.4375,4.875 -0.3950496,2.45301 -0.088951,3.56628 1.9140626,6.95898 0.866178,1.46714 1.6662519,3.19498 1.7773437,3.83984 0.1110918,0.64486 0.5823896,2.32442 1.0468751,3.73242 0.821609,2.49057 0.941842,2.65612 4.492187,6.15626 2.928864,2.88741 3.945004,3.68944 5.144531,4.05859 3.154989,0.97101 7.692212,0.4361 11.210938,-1.32227 1.88001,-0.93949 2.624333,-1.53725 3.673828,-2.95508 0.723629,-0.97759 1.931136,-2.47855 2.683594,-3.33398 0.752458,-0.85545 1.692252,-2.22251 2.08789,-3.03906 0.700621,-1.44601 0.71875,-1.7561 0.71875,-11.89258 V 309.9043 l 1.714894,-3.51172 c 2.437302,-4.98985 4.540631,-10.30983 4.740234,-11.99219 0.188445,-1.58831 -0.499094,-4.69013 -1.316406,-5.9375 -0.3479,-0.53097 -0.809933,-0.7832 -1.433594,-0.7832 z m 198.681642,3.20117 c -0.57055,0 -0.30538,0.78847 1.3164,3.92578 1.66935,3.22934 2.45474,3.77412 2.08203,1.44336 -0.33138,-2.07235 -2.41823,-5.36914 -3.39843,-5.36914 z m -4.38868,3.33984 c -0.35029,0.13143 0.56118,2.06026 1.91211,3.7793 0.94801,1.20631 1.34988,1.42977 1.66016,0.92773 0.17901,-0.28966 -2.2269,-3.75203 -3.11719,-4.48632 -0.22538,-0.1859 -0.37424,-0.25104 -0.45508,-0.22071 z m -238.13671124,6.74024 -0.01171875,1.84961 c -0.01008368,1.75344 0.02467414,1.83418 0.63085937,1.50976 0.81835612,-0.43797 0.82234452,-1.63008 0.009766,-2.60547 z M 147.07421,303.67969 c -1.05471,0 -0.38493,0.8765 2.0293,2.65625 1.38473,1.02081 4.73132,3.96031 7.4375,6.5332 2.70619,2.57291 5.56933,5.1544 6.36133,5.73633 0.792,0.58192 1.692,1.0624 2,1.06641 0.82336,0.0117 0.69486,-1.10943 -0.19336,-1.69141 -0.41382,-0.27114 -2.89735,-2.53853 -5.51953,-5.03906 -6.84406,-6.52653 -10.42175,-9.26172 -12.11524,-9.26172 z m 11.5293,3.20898 c -0.11738,0.001 -0.18164,0.076 -0.18164,0.23828 0,0.16212 1.10007,1.72207 2.44531,3.46485 1.34524,1.74278 3.08924,4.15322 3.875,5.35742 0.97002,1.48657 1.53256,2.08463 1.75391,1.86328 0.48487,-0.48487 0.0924,-1.58348 -1.34766,-3.77539 -2.2945,-3.49254 -5.72327,-7.15686 -6.54492,-7.14844 z m -17.00976,0.1836 c -0.0245,0.01 -0.043,0.0301 -0.0527,0.0586 -0.17721,0.5182 0.28723,1.20934 2.94336,4.38867 1.17629,1.408 4.52133,5.62133 7.43359,9.36133 2.91227,3.74 5.41471,6.79883 5.56055,6.79883 0.67939,0 0.60867,-0.7902 -0.17773,-1.97852 -1.15407,-1.74393 -8.43512,-11.09678 -10.66602,-13.70117 -2.68641,-3.13614 -4.67437,-5.0738 -5.04101,-4.92773 z m 25.17578,1.74023 c -0.19392,-0.004 -0.19812,0.32293 0.0195,0.94727 0.18406,0.528 0.46425,0.96093 0.62304,0.96093 0.42075,0 0.35483,-1.08853 -0.0937,-1.53711 -0.2473,-0.24729 -0.43248,-0.36874 -0.54883,-0.37109 z m 21.79101,24.41406 c -0.18887,0.0814 0.77216,1.58094 3.15235,4.97852 1.61628,2.30717 2.99916,4.19531 3.07226,4.19531 0.49426,0 -4.52914,-7.80801 -5.66211,-8.80078 -0.30846,-0.27028 -0.49954,-0.40019 -0.5625,-0.37305 z m 3.39453,0.21094 c -0.037,0.003 -0.0288,0.0623 0.0293,0.18359 0.4328,0.9039 2.25168,3.2949 5.43164,7.14258 1.47082,1.77965 2.80733,3.23633 2.9707,3.23633 0.47193,0 -0.10983,-0.86489 -3.01562,-4.48047 -2.70796,-3.36943 -5.15728,-6.10163 -5.41602,-6.08203 z m -4.45898,9.2832 c -0.15147,0 -0.27539,0.0722 -0.27539,0.16211 0,0.15376 1.94096,5.49233 2.60547,7.16602 0.22828,0.57498 0.39732,0.6769 0.66992,0.40429 0.27261,-0.27258 0.21975,-0.82952 -0.20899,-2.20898 -0.65548,-2.10905 -2.38095,-5.52344 -2.79101,-5.52344 z m -187.31444937,2.79492 -0.08984375,3.94336 c -0.04969188,2.16954 -0.02118218,4.1284 0.06445312,4.35157 0.34828451,0.90762 3.8891204,2.28751 7.2324219,2.81836 1.8436944,0.29277 3.5680311,0.58318 3.8320311,0.64648 0.264,0.0636 3.000078,0.0909 6.080078,0.0605 l 5.601562,-0.0566 4.958985,-2.66407 c 7.151334,-3.84067 8.86394,-5.07834 8.089844,-5.85156 -0.137771,-0.13763 -1.113922,0.11555 -2.169922,0.5625 -4.844826,2.05065 -6.195121,2.39203 -10.53711,2.66211 -5.042662,0.31363 -10.174517,-0.0375 -12.822265,-0.875 -2.9966643,-0.94793 -7.217992,-3.05081 -8.8007812,-4.38476 z m 178.41014937,37.51954 1.03516,0.43164 c 0.56914,0.23692 2.22183,0.90386 3.67383,1.48242 1.452,0.57853 2.64062,1.14661 2.64062,1.26367 0,0.11705 -0.82784,0.61792 -1.83984,1.11133 -2.6153,1.2751 -9.09361,5.11024 -11.91992,7.05664 -1.32,0.90902 -3.19216,2.1328 -4.16016,2.7207 -0.968,0.58791 -2.79253,1.91245 -4.05469,2.94336 -1.26217,1.03091 -2.37864,1.875 -2.48047,1.875 -0.93627,0 2.37557,-4.23361 3.6211,-4.6289 0.31455,-0.0998 1.55007,-1.29526 2.74414,-2.65625 1.19406,-1.36096 3.44874,-3.62716 5.00976,-5.03516 1.56103,-1.408 3.48759,-3.46135 4.28321,-4.5625 z"
     style="fill:#949494;stroke-width:0.31999999"
     id="path5207" />
  <path
     d="M 19.5,0 C 15.306513,0 13.751641,0.10513263 13.560546,0.40039062 13.135843,1.0565927 13.047724,10.816934 13.447265,12.943359 c 1.951231,10.384763 3.128273,13.946175 4.908203,14.84961 0.982859,0.498868 4.35918,0.150652 5.345704,-0.550781 0.916832,-0.651883 2.344882,-4.513206 3.070312,-8.304688 C 27.596459,14.625744 27.245443,8.2480258 25.882812,2.8007812 L 25.18164,0 Z M 82.126953,0 C 70.906643,0 69.414887,0.05703439 69.578125,0.48242188 69.863015,1.2248357 69.217924,2.6014622 67.996093,3.859375 c -1.104838,1.1374662 -1.105447,1.1402276 -0.580078,2.1933594 0.787453,1.5784871 0.405138,3.521134 -1.474609,7.4941406 -2.690509,5.686621 -3.276174,8.858344 -3.88086,21.013672 -0.472498,9.498058 -0.207543,15.978872 0.855469,20.958984 0.450806,2.112 1.101672,5.417489 1.447266,7.345703 0.820992,4.580675 1.005355,5.224745 3.003906,10.548828 2.4688,6.576804 3.505251,8.900881 5.050781,11.3125 0.759366,1.184905 1.789428,3.126823 2.289063,4.316407 0.506778,1.206592 1.326993,2.514302 1.855469,2.958984 1.134032,0.954227 2.044031,1.027061 2.265625,0.179688 0.08897,-0.340211 -0.405235,-4.695899 -1.097657,-9.679688 -1.417248,-10.200778 -1.482229,-13.446019 -0.464843,-23.117187 0.491068,-4.668013 0.560803,-7.703218 0.464843,-20.345704 -0.02345,-3.089429 0.163359,-5.457777 0.654297,-8.318359 C 79.058797,26.79326 79.104087,26.670661 80.945312,24 c 1.031383,-1.496 2.605602,-4.159922 3.498047,-5.919922 0.892445,-1.76 1.921562,-3.632156 2.285156,-4.160156 0.363597,-0.528 0.963844,-1.966688 1.333985,-3.197266 0.651574,-2.1662276 3.990694,-7.6492989 5.99414,-9.84179662 L 94.861328,0 Z M 206.20898,0.0078125 c -0.33714,-5.003e-4 -0.63226,0.07588393 -0.89453,0.22265625 -0.45584,0.25509954 -0.1768,0.6193788 1.80273,2.34960935 1.28905,1.1267157 3.32745,2.9450393 4.5293,4.0410157 1.20186,1.095976 3.38477,2.8010223 4.85156,3.7871092 2.98124,2.004201 9.06574,8.295291 11.14844,11.529297 3.87762,6.021147 5.49996,8.761371 6.16992,10.410156 0.41311,1.016659 1.17392,2.684668 1.68946,3.708985 1.89718,3.769517 4.84671,13.461861 6.11914,20.103515 0.37091,1.936 0.94964,4.383453 1.28515,5.439453 1.33948,4.21584 2.55012,8.551078 3.66406,13.121094 1.0501,4.308102 1.38361,5.175636 3.26368,8.478516 1.15211,2.024 3.17317,5.012869 4.49023,6.640625 3.19978,3.954628 9.9222,10.527746 12.89258,12.605466 1.32,0.92331 4.20039,3.49757 6.40039,5.72071 5.18422,5.23877 9.82946,8.91573 14.11328,11.17187 0.98577,0.51917 2.20852,1.2932 2.71875,1.7207 1.78668,1.49699 6.7224,4.54337 11.16602,6.89258 2.46572,1.30354 4.98722,2.63731 5.60546,2.96485 1.13539,0.6015 12.84487,3.51892 17.27735,4.30468 1.32,0.234 3.12865,0.43241 4.01953,0.44141 0.89085,0.009 2.76301,0.31695 4.16016,0.68359 1.39712,0.36665 3.90317,0.87241 5.56836,1.12305 3.51718,0.52939 10.30352,2.77637 14.89062,4.92969 1.76,0.8262 3.92078,1.7566 4.80078,2.06836 1.61318,0.57152 7.71813,3.35032 13.91992,6.33593 1.848,0.88965 4.1531,1.96904 5.1211,2.39649 0.968,0.42744 2.19075,1.10262 2.71875,1.50195 1.19709,0.90536 3.13539,1.88706 4.76953,2.41602 0.68711,0.22242 2.63142,1.14157 4.32031,2.04297 5.41776,2.89162 13.88238,6.00798 20.50977,7.54882 2.2,0.51149 4.50509,1.14026 5.12109,1.39649 1.08448,0.45108 5.76185,1.24403 9.81836,1.66601 1.78989,0.1862 2.00791,0.29059 2.28516,1.08594 0.26016,0.74629 0.75909,1.04031 3.30078,1.94141 1.64707,0.58393 4.45882,1.60903 6.24804,2.27929 1.78918,0.67027 4.88604,1.71395 6.88086,2.31836 1.99478,0.60441 4.49088,1.3851 5.54688,1.73438 2.47677,0.81921 6.41772,1.59125 11.03906,2.16406 2.024,0.25088 5.0487,0.64553 6.7207,0.87696 1.77082,0.24513 3.44006,0.31343 3.99805,0.16406 0.52685,-0.14104 0.99386,-0.25586 1.03906,-0.25586 0.0451,0 0.082,-0.35703 0.082,-0.79297 -1e-5,-1.54664 -0.78875,-1.75074 -12.79883,-3.30273 -5.38176,-0.69546 -7.37699,-1.22862 -21.28125,-5.69922 -5.74304,-1.84655 -6.85924,-2.31155 -7.67969,-3.19141 -1.28627,-1.37943 -2.44749,-1.907 -5.11914,-2.33008 -1.232,-0.1951 -3.66539,-0.57926 -5.40625,-0.85351 -1.74084,-0.27424 -3.67538,-0.71217 -4.29883,-0.97266 -0.62343,-0.26049 -2.72612,-0.835 -4.67383,-1.27734 -6.16041,-1.39907 -14.36111,-4.4188 -19.86133,-7.3125 -1.76,-0.92594 -3.95724,-1.93491 -4.88281,-2.24219 -0.92557,-0.30728 -2.3785,-1.03636 -3.22851,-1.62109 -2.004,-1.37852 -20.12135,-9.97087 -22.60938,-10.72266 -0.704,-0.21272 -2.83857,-1.10226 -4.74414,-1.97656 -4.89226,-2.2446 -12.22898,-4.5961 -16.21484,-5.19727 -1.848,-0.27872 -4.22525,-0.71527 -5.28125,-0.9707 -1.056,-0.25544 -3.79208,-0.67567 -6.08008,-0.9336 -2.288,-0.25792 -7.18291,-1.14032 -10.87891,-1.96093 -6.44976,-1.43202 -6.91915,-1.59059 -11.67969,-3.91993 -5.67486,-2.77671 -10.68948,-5.67544 -12.5039,-7.22851 -0.68603,-0.58722 -2.0049,-1.47419 -2.93164,-1.9707 -3.85675,-2.06632 -9.14143,-6.38136 -14.48438,-11.82618 -2.288,-2.33163 -5.02408,-4.85974 -6.08008,-5.61914 -4.31487,-3.102995 -12.36423,-11.714391 -15.15429,-16.212888 -2.51833,-4.060396 -3.09389,-5.447632 -4.35352,-10.505859 -1.18671,-4.765354 -2.21869,-8.472781 -3.38867,-12.162109 -0.33525,-1.057184 -0.97535,-3.721106 -1.42187,-5.919922 -0.44652,-2.198813 -1.11427,-5.076484 -1.48243,-6.396484 -0.36816,-1.320001 -0.8553,-3.12 -1.08398,-4 -1.2669,-4.875188 -6.06478,-15.600161 -8.80469,-19.681641 -0.64982,-0.968 -1.4754,-2.335063 -1.83398,-3.039063 -1.87995,-3.690998 -8.87008,-11.308142 -12.85348,-14.005859 -1.30706,-0.8851933 -3.39568,-2.4913098 -4.64062,-3.5683594 -3.73068,-3.2275608 -5.97461,-4.65603515 -7.43555,-4.6582031 z m -57.62695,0.01171875 c -2.86,-0.01115599 -5.20117,0.04789156 -5.20117,0.13085937 0,0.0829678 0.46901,0.2948318 1.04101,0.47070313 1.28796,0.39600385 7.47265,0.22254627 8.56055,-0.24023437 0.61171,-0.26021427 -0.42426,-0.34581847 -4.40039,-0.36132813 z M 2.2441406,46.771484 c -0.086022,-0.0045 -0.1551777,0.01455 -0.203125,0.0625 -0.4761298,0.476131 5.5776207,9.437877 7.3359376,10.859375 2.3054758,1.863843 3.9175768,2.722374 5.5546868,2.958985 0.862992,0.124726 1.786782,0.349295 2.050782,0.498047 0.784387,0.441968 2.156799,0.327574 2.710937,-0.226563 0.80296,-0.80296 0.445219,-1.166633 -1.607422,-1.632812 C 16.682456,58.97227 15.273517,58.247751 12.660156,56.5 8.9919368,54.046788 6.58923,51.763792 5.0292969,49.25 4.2737611,48.032473 2.8462944,46.802985 2.2441406,46.771484 Z M 479.77929,179.83984 c -0.13366,0 -0.41465,0.2738 -0.62304,0.60743 -0.20835,0.33364 -1.02072,0.851 -1.80469,1.15039 l -1.42383,0.54492 0.0469,1.56836 0.0469,1.56836 1.75977,0.61523 c 0.968,0.33832 1.868,0.62673 2,0.64063 0.132,0.0139 0.24023,-1.48794 0.24023,-3.33594 0,-1.848 -0.10853,-3.35938 -0.24219,-3.35938 z m -235.66211,52.90625 c -0.89369,-0.0531 -2.06565,0.0323 -4.33398,0.20899 -5.03579,0.39228 -5.80854,0.62089 -12.40234,3.67578 -4.18638,1.93954 -6.17589,2.9919 -7.38868,3.9043 -2.09617,1.57697 -6.25663,0.56674 -8.65625,-2.10157 l -1.32617,-1.47265 -20.27344,-0.29102 c -22.07034,-0.31667 -25.35813,-0.18367 -30.51562,1.23438 -6.37889,1.75387 -7.74771,1.86489 -26.23828,2.1289 -16.82293,0.24019 -26.17497,0.5949 -26.58789,1.00782 -0.11176,0.11176 0.10444,0.63403 0.48047,1.1621 0.80509,1.13067 1.93067,1.37397 6.27343,1.35547 38.54867,-0.16404 39.29569,-0.20165 47.07617,-2.33007 l 3.79688,-1.03711 13.71094,-0.11719 13.71289,-0.11719 1.16797,0.80078 c 1.54009,1.05634 2.57697,1.28137 4.08593,0.88281 0.78973,-0.20859 3.16679,-0.24368 6.52149,-0.0957 5.02419,0.22161 5.38605,0.28058 7.4414,1.2461 1.18801,0.55808 2.16016,1.07905 2.16016,1.15625 0,0.21358 -4.43163,2.81825 -6.22656,3.66015 -0.8722,0.4091 -2.28562,1.27641 -3.14063,1.92774 -1.55408,1.18383 -1.55587,1.18596 -4.81445,1.19726 -1.79278,0.006 -5.21319,0.13366 -7.60156,0.28516 -3.91878,0.24857 -10.04833,-0.12462 -10.9336,-0.66602 -10.20322,0.0136 -10.31547,0.0245 -28.4121,-0.4414 -11.31807,-1.25705 -11.94419,-1.28078 -26.39258,-0.98633 -15.67205,0.3194 -16.26085,0.39596 -16.09766,2.07422 l 0.0977,1.00195 3.20117,0.23242 c 1.76,0.1281 9.5353,0.20528 17.2793,0.17188 11.92757,-0.0515 14.61486,0.0242 17.57617,0.48828 2.78943,0.43712 5.6992,0.54973 14.40039,0.55273 13.20241,-0.10259 13.75696,0.26924 21.10156,0.8125 3.49692,0.12934 7.96084,0.25123 9.91992,0.26953 4.40931,0.0412 4.54895,0.3482 1.16211,2.56055 -4.3897,2.86744 -9.40187,6.68836 -12.82226,9.77734 -2.21096,1.99673 -4.36929,3.59871 -6.23828,4.62696 -1.57218,0.86494 -3.79546,2.18228 -4.93946,2.92773 -1.144,0.74545 -3.47603,2.15818 -5.18164,3.13867 -2.51989,1.44859 -11.18828,7.24032 -15.98828,10.68164 -2.82337,2.00204 -6.5962,4.16175 -9.01172,6.64063 -1.24152,0.60742 -1.61776,1.10002 -3.61523,2.72266 -3.17644,2.1137 -5.56672,4.10142 -8.7793,7.35742 -6.09027,6.17259 -9.03372,9.47182 -14.02539,15.72265 -3.24695,4.06598 -5.34527,5.77945 -10.91797,8.91407 -1.672,0.94051 -4.048778,2.39994 -5.281245,3.24218 -2.544694,1.739 -5.142644,2.50763 -8.494141,2.51563 -1.15224,0.003 -3.385177,0.28579 -4.960938,0.62891 -1.57576,0.34309 -4.198351,0.75724 -5.828124,0.91992 -3.324473,0.33188 -4.198097,0.76583 -7.384766,3.67773 -2.825533,2.58189 -5.714024,4.77058 -8.851563,6.70508 -3.353965,2.06794 -5.773273,4.32961 -6.572265,6.14648 -0.361738,0.82259 -2.276753,2.97035 -5.316406,5.95899 -4.349622,4.27664 -4.873167,4.68896 -6.191407,4.89453 -1.620486,0.25271 -5.399202,1.48549 -9.919922,3.23633 -1.672,0.64756 -3.758672,1.39584 -4.638671,1.66211 -0.88,0.26627 -2.188741,0.8292 -2.908204,1.25 -1.012475,0.59219 -1.774001,0.76367 -3.36914,0.76367 -2.183569,0 -4.283588,0.81329 -8.283203,3.20312 -3.072262,1.83574 -11.5480169,6.07813 -12.1425781,6.07813 -0.3145088,0 -0.9503274,-0.29929 -1.41406252,-0.66406 l -0.84379,-0.66211 v 6.74218 c 4.12322252,11.5154 -0.30902936,0.80066 0.06640625,10.70313 l 0.09375,2.40625 2.72070317,-2.22461 c 3.0708758,-2.51168 6.1311782,-4.75854 9.4824212,-6.96094 1.255479,-0.82509 3.713733,-2.58859 5.462891,-3.91992 1.749157,-1.33129 4.177121,-2.97625 5.396484,-3.6543 1.219363,-0.67802 3.490722,-2.08491 5.046875,-3.12695 1.556153,-1.04205 6.020075,-3.47008 9.919922,-5.39453 10.916204,-5.38672 17.191766,-8.80508 22.611328,-12.32031 2.728,-1.76944 6.57155,-4.1251 8.541016,-5.23438 1.969466,-1.10928 4.790726,-3.06046 6.271484,-4.33594 1.480762,-1.27552 4.364462,-3.41983 6.408203,-4.76367 2.043741,-1.34387 5.255333,-3.67153 7.136719,-5.17383 1.881385,-1.50228 3.867463,-2.96116 4.412109,-3.24218 0.544647,-0.28106 2.790235,-1.68942 4.990235,-3.12891 2.199999,-1.43946 5.080389,-3.241 6.400389,-4.00391 6.16385,-3.56259 7.85624,-5.04487 12.65625,-11.07421 1.27543,-1.60208 3.00293,-3.47207 3.83789,-4.15625 0.83495,-0.68419 2.54044,-2.60932 3.79101,-4.2793 1.46624,-1.95801 2.89826,-3.47079 4.03321,-4.25781 0.968,-0.67125 2.91231,-2.33271 4.32031,-3.69141 2.56518,-2.47536 9.97679,-8.32709 13.73633,-10.8457 1.10228,-0.73845 4.65503,-2.73399 7.89453,-4.43555 6.64028,-3.48785 9.81153,-5.50846 17.02148,-10.8457 2.75763,-2.04137 7.21059,-5.08588 9.89453,-6.76563 2.68394,-1.67976 5.60233,-3.73696 6.48633,-4.57031 0.884,-0.83334 2.47135,-2.11857 3.52735,-2.85742 1.056,-0.73886 3.28738,-2.34598 4.95898,-3.57031 1.67161,-1.22435 4.552,-3.12139 6.40039,-4.21485 4.4777,-2.64889 6.2142,-3.75039 11.25977,-7.13867 2.34297,-1.5734 5.12564,-3.19614 6.18164,-3.60742 3.56342,-1.38784 6.39164,-2.88123 8,-4.22461 0.88,-0.73503 3.83059,-2.41881 6.55859,-3.74219 l 4.96094,-2.40625 2.87891,0.125 c 2.70562,0.11888 3.13289,0.24081 7.04101,2.01172 3.53741,1.60293 4.45424,2.17813 6.13086,3.83789 2.2995,2.27638 2.61985,3.37418 2.03711,6.99414 -0.40176,2.4957 -0.63388,3.03273 -2.08398,4.83398 -0.56675,0.704 -1.26753,1.74128 -1.5586,2.30665 -0.29106,0.56536 -1.05232,1.42928 -1.6914,1.91992 -0.6391,0.49063 -2.09131,1.7186 -3.22657,2.72851 -1.13526,1.0099 -2.89364,2.27957 -3.9082,2.82032 -1.01456,0.54076 -3.0552,2.01897 -4.5332,3.28515 -4.0259,3.44893 -5.00884,4.16934 -7.80664,5.71485 -1.408,0.77778 -4.26654,2.70337 -6.35157,4.27929 -2.08502,1.57591 -4.38816,3.29046 -5.11914,3.81055 -0.73097,0.52008 -2.49967,1.88714 -3.92968,3.03906 -1.43001,1.15191 -3.44453,2.66555 -4.47852,3.36328 -1.03399,0.69775 -3.58642,2.64207 -5.66992,4.32032 -2.08351,1.67827 -5.39489,4.18205 -7.35938,5.56445 -1.9645,1.3824 -4.36403,3.19075 -5.33203,4.01758 -0.968,0.82682 -2.27111,1.88622 -2.89648,2.35547 -2.19908,1.65011 -8.73211,9.46835 -10.97461,13.13281 -3.25572,5.32017 -4.05188,6.32193 -9.32813,11.74023 -2.65647,2.728 -5.96173,6.40016 -7.34375,8.16016 -3.12458,3.97914 -11.12368,12.00444 -15.37695,15.42773 -3.52369,2.8361 -21.2631,20.61429 -23.4707,23.52149 -0.76384,1.00589 -1.33734,1.98602 -1.27344,2.17773 0.0678,0.20323 0.68211,-0.0315 1.47265,-0.5625 1.97295,-1.32502 10.46038,-9.17265 15.24024,-14.09179 2.27021,-2.33639 5.87021,-5.66421 8,-7.39649 5.21828,-4.24439 22.81716,-22.7202 27.84375,-29.23047 1.3226,-1.71299 4.00671,-4.94574 5.96484,-7.18554 1.95813,-2.23978 4.40155,-5.30344 5.43164,-6.80665 2.7013,-3.94202 13.1626,-14.17037 19.50196,-19.06835 5.8536,-4.52265 7.24062,-5.48995 10.87304,-7.58594 1.50517,-0.86853 3.67241,-2.35768 4.81641,-3.31055 1.144,-0.95287 3.30478,-2.75098 4.80078,-3.99414 3.05969,-2.54258 10.62466,-7.45873 12.43945,-8.08398 0.65528,-0.22576 1.83192,-0.85113 2.61524,-1.38868 0.78331,-0.53756 2.43206,-1.48628 3.66406,-2.10937 2.28896,-1.15766 3.3636,-2.1195 5.34766,-4.78125 2.49044,-3.3411 9.79596,-9.38996 12.73242,-10.54297 2.59414,-1.01861 7.71639,-1.20685 9.63672,-0.35352 1.98093,0.88026 4.63827,2.6836 6.5957,4.47461 1.55088,1.41903 1.69796,1.68283 2.01563,3.61133 0.86987,5.28085 0.98116,6.33466 0.81054,7.69336 -0.22598,1.79949 -1.66326,5.58138 -3.27734,8.6211 -0.67116,1.26394 -1.58149,2.9894 -2.02148,3.83593 -1.10357,2.12321 -1.32868,2.34914 -4.58594,4.58008 -3.02456,2.07156 -6.43167,4.99803 -6.14844,5.28125 0.092,0.092 1.15766,-0.49063 2.36719,-1.29492 1.20953,-0.80428 3.06088,-1.89746 4.11523,-2.42969 1.05435,-0.53224 2.36597,-1.34546 2.91406,-1.80664 0.54808,-0.46118 1.25226,-0.83312 1.56641,-0.82812 2.75674,0.0482 9.40383,0.68835 10.1582,0.97851 0.52081,0.20032 2.53728,0.57465 4.48047,0.83203 4.02318,0.53287 5.46168,0.85915 11.04102,2.50391 2.61902,0.77208 5.74832,1.39886 9.11914,1.82422 2.82279,0.35621 6.50183,0.92461 8.17383,1.26367 4.46845,0.90614 17.01997,4.54039 20.84375,6.03516 1.8239,0.71299 5.61954,1.8101 8.43554,2.43945 2.816,0.62936 6.34956,1.42001 7.85157,1.75586 1.50202,0.33585 4.52477,0.83874 6.71875,1.11914 6.46116,0.82576 11.26447,1.91871 18.08984,4.11133 3.53111,1.13436 8.35581,2.44904 10.7207,2.92383 2.3649,0.47477 7.03491,1.56377 10.37891,2.41796 6.68906,1.70866 11.76046,2.68593 15.67969,3.02344 1.408,0.12125 4.36054,0.55817 6.56054,0.9707 2.2,0.41254 6.01647,0.9773 8.48047,1.25586 2.464,0.27855 5.48675,0.71102 6.71875,0.95899 1.232,0.24797 3.89788,0.61142 5.92188,0.80859 4.99968,0.48707 11.83984,1.96882 11.83984,2.56446 0,0.31743 -2.4506,1.0992 -7.52148,2.40039 -3.94669,1.01273 -11.74813,3.56289 -13.33594,4.35937 -0.64688,0.32451 -3.3108,1.29574 -5.91992,2.1582 -2.60912,0.86247 -6.47199,2.35513 -8.58399,3.31836 -2.112,0.9632 -4.77592,2.15445 -5.91992,2.64649 -4.42755,1.90428 -7.55276,4.11361 -8.5293,6.02929 -0.28259,0.55433 -1.13199,1.83499 -1.88671,2.84571 -0.75475,1.01072 -1.54443,2.37973 -1.75586,3.04101 -0.61993,1.93904 -1.61177,3.32442 -2.70508,3.78125 -1.25917,0.52611 -4.59248,0.13628 -5.84375,-0.68359 -1.32198,-0.86621 -6.74829,-0.43427 -9.78125,0.7793 -1.26361,0.5056 -3.44942,1.21325 -4.85742,1.57226 -1.408,0.35901 -5.15232,1.8344 -8.32032,3.27735 -3.168,1.44294 -7.19898,3.26989 -8.95898,4.06054 -1.76,0.79063 -5.2898,2.56515 -7.8418,3.94336 -2.552,1.37821 -5.46645,2.81301 -6.47656,3.18945 -1.01012,0.37646 -2.5215,1.17363 -3.35938,1.76954 -0.83788,0.5959 -3.89437,2.32669 -6.79296,3.84765 -2.89856,1.52096 -6.71686,3.81932 -8.48438,5.10742 -4.88806,3.56224 -12.49863,7.19232 -15.08008,7.19532 -1.12988,9.3e-4 -2.11317,0.51735 -7.03906,3.68945 -4.75337,3.06096 -6.18948,3.8229 -8.44726,4.48242 -6.60607,1.9297 -8.29739,2.52735 -10.46485,3.70117 -1.26771,0.68659 -2.45438,1.24805 -2.63867,1.24805 -0.18875,0 -0.33594,-0.6983 -0.33594,-1.59961 0,-1.10358 -0.12959,-1.59961 -0.41797,-1.59961 -0.52953,0 -9.42209,3.57838 -10.36718,4.17188 -0.3879,0.24362 -0.74869,0.80006 -0.80079,1.23632 -0.0784,0.65658 -0.36362,0.86123 -1.65625,1.18946 -1.35176,0.34323 -2.08196,0.90775 -5.43945,4.19726 -3.84996,3.77196 -6.65739,5.99904 -10.20703,8.09766 -1.05532,0.62391 -2.4568,1.85023 -3.26758,2.85938 -0.78099,0.97206 -2.14413,2.33957 -3.02929,3.03906 -1.95243,1.54288 -2.57422,2.75906 -2.57422,5.0332 0,1.74247 -0.37336,2.49609 -1.23828,2.49609 -0.80765,0 -1.64258,1.01812 -1.64258,2.00391 0,0.92634 0.31744,1.47543 3.2832,5.68945 0.81013,1.1511 2.05769,3.43826 2.77148,5.08399 1.84212,4.2472 3.36896,6.15317 5.9004,7.36133 1.58306,0.75552 2.52917,1.52945 4.2246,3.45703 8.21299,9.33754 11.8823,12.49781 21.91407,18.87695 2.20716,1.40349 5.95112,3.9967 8.32031,5.76172 2.3692,1.76502 5.17091,3.72501 6.22656,4.35547 h 0.002 l 1.91796,1.14648 h 10.08008 c 11.17354,7.7e-4 10.87258,0.094 6.13086,-1.9082 -1.29231,-0.5457 -4.31701,-1.49011 -6.7207,-2.09961 -2.40369,-0.60951 -5.23306,-1.51771 -6.28906,-2.01758 -1.056,-0.4999 -4.26264,-2.57027 -7.125,-4.60156 -2.86237,-2.0313 -6.96551,-4.7378 -9.11914,-6.01367 -6.39764,-3.79021 -9.47044,-6.0258 -13.15626,-9.57617 -4.2607,-4.1041 -18.70514,-20.13472 -19.48046,-21.61915 -0.70249,-1.34501 -1.50963,-4.71017 -1.51563,-6.32421 -0.004,-1.0441 0.19478,-1.39623 1.35547,-2.40039 0.748,-0.64711 2.43977,-2.25618 3.75977,-3.57618 1.32,-1.32 3.36022,-3.08427 4.5332,-3.91992 1.17294,-0.83555 3.28193,-2.59947 4.68555,-3.91992 1.40362,-1.32041 2.64049,-2.40039 2.75,-2.40039 0.10907,0 0.10671,0.57725 -0.006,1.28125 -0.12233,0.76496 -0.0769,1.2793 0.11132,1.2793 0.29613,0 7.78426,-5.59666 10.07618,-7.53125 2.5132,-2.12134 7.00045,-3.49257 8.88281,-2.71289 0.826,0.34215 1.12688,0.26676 2.94336,-0.74024 1.11308,-0.61706 3.28422,-1.49434 4.82422,-1.94922 1.54,-0.45488 3.9886,-1.18106 5.4414,-1.61328 2.00511,-0.59651 3.57941,-1.39827 6.53321,-3.33008 9.27429,-6.06544 11.53128,-7.41053 18.37109,-10.94336 3.97465,-2.05296 8.94367,-4.81143 11.04102,-6.1289 6.75372,-4.2424 18.40322,-10.88307 21.04687,-11.99805 1.41299,-0.5959 3.97368,-1.50006 5.68945,-2.00977 3.50365,-1.04086 4.17379,-1.35158 7.33789,-3.39843 3.78093,-2.44586 5.92985,-3.26112 12.59961,-4.77344 8.19472,-1.85804 9.40641,-1.86652 12.63086,-0.10352 6.76428,3.69847 10.43082,6.7222 11.88477,9.80079 0.55908,1.18371 1.7565,3.18291 2.66016,4.44336 0.90368,1.26044 2.57865,3.82722 3.72265,5.70507 1.144,1.87783 3.21519,4.80804 4.60156,6.50977 1.38634,1.7017 3.0808,3.91679 3.76563,4.92383 0.68487,1.00707 1.75407,2.23177 2.37695,2.7207 0.62288,0.48896 1.76278,1.82475 2.53321,2.96875 1.77196,2.6312 4.4908,5.26299 7.36328,7.12891 2.28496,1.48429 3.14811,2.14257 10.18164,7.75195 4.61687,3.68204 8.00885,5.72666 10.9707,6.61523 1.66739,0.50023 2.14148,0.79089 2.39844,1.4668 0.25606,0.6735 0.19763,1.00682 -0.29492,1.66016 -0.53545,0.71034 -0.86298,0.81828 -2.4961,0.83007 -1.03376,0.008 -2.30979,0.19772 -2.83594,0.42188 -0.63405,0.27014 -2.25345,0.38294 -4.80078,0.33594 -2.21238,-0.0408 -4.20161,0.077 -4.6875,0.27734 -0.46426,0.19149 -2.26112,0.50597 -3.99414,0.69922 -1.73299,0.19325 -4.29579,0.71413 -5.69531,1.15625 -2.23379,0.70566 -4.39948,1.14428 -11.70703,2.37891 -2.61187,0.44128 -9.78025,2.77206 -12.16016,3.95312 -4.84736,2.4055 -8.0585,4.33554 -11.51953,6.92383 -10.43827,7.80611 -11.73344,8.88854 -14.27539,11.92969 -0.5991,0.71674 -1.27617,1.1914 -1.70312,1.1914 -0.62745,0 -8.48553,4.37689 -13.05469,7.27149 -2.532,1.60406 -6.51695,4.89073 -11.80274,9.73633 -6.864,6.29232 -16.33482,14.24474 -18.88086,15.85351 -0.48087,0.3038 0.52077,0.38344 4.93555,0.39844 l 5.53906,0.0195 4.38086,-3.75781 c 2.40976,-2.06684 5.3891,-4.70283 6.6211,-5.85742 9.45075,-8.85693 11.50823,-10.3354 24.56836,-17.66993 2.0009,-1.12371 2.95545,-1.8674 3.31836,-2.58593 0.79853,-1.58102 1.58651,-2.3181 6.0332,-5.62696 5.71895,-4.25555 8.3974,-6.0175 12.32031,-8.10547 3.14711,-1.67507 10.37095,-4.95114 12.16016,-5.51562 0.44,-0.13882 1.28156,-0.61896 1.86914,-1.06641 0.58755,-0.44743 3.035,-1.49449 5.43945,-2.32617 2.40442,-0.83165 6.45972,-2.24328 9.01172,-3.13672 3.58615,-1.25549 5.36663,-1.69577 7.83984,-1.9414 4.14826,-0.412 6.38754,-0.80706 8.12891,-1.43164 0.77482,-0.27792 3.14374,-0.73005 5.26367,-1.00586 3.86919,-0.50336 5.52613,-1.04363 5.85938,-1.91211 0.2313,-0.60272 -0.97737,-3.57715 -2.21094,-5.43946 -0.92681,-1.39926 -5.49181,-5.17061 -11.55078,-9.54492 -3.40883,-2.46105 -7.42247,-5.80583 -10.60938,-8.83789 -1.408,-1.33959 -3.28015,-3.04667 -4.16015,-3.79297 -0.88,-0.74628 -3.11294,-2.98732 -4.96094,-4.98047 -2.53481,-2.73396 -3.70646,-4.29745 -4.76953,-6.36523 -1.00717,-1.95904 -2.3337,-3.77244 -4.6543,-6.35938 -3.57943,-3.99021 -5.94007,-7.02751 -9.40039,-12.09961 -1.26077,-1.848 -2.79713,-4.07833 -3.41406,-4.95507 -0.61693,-0.87674 -1.1211,-1.82003 -1.1211,-2.09766 0,-0.2776 -0.2123,-0.78528 -0.4707,-1.12695 -1.72301,-2.27801 1.51721,-7.51259 6.98242,-11.28321 4.17741,-2.88211 15.24264,-8.13739 23.24805,-11.04101 6.57632,-2.38528 9.83194,-3.14167 16,-3.71484 4.69715,-0.43651 9.49948,-1.66652 12.47266,-3.19727 4.4538,-2.29312 8.64357,-3.40428 9.88281,-2.61914 0.23948,0.1518 0.70654,0.20604 1.03906,0.11914 0.55177,-0.14426 0.60557,-0.50563 0.60557,-4.12106 v -3.96094 l -1.0957,-1.52539 c -0.60244,-0.83852 -2.1499,-2.47092 -3.43946,-3.62696 -2.53588,-2.27327 -2.42578,-2.22868 -9.54492,-3.78711 -1.672,-0.36601 -4.83906,-1.09037 -7.03906,-1.60937 -2.2,-0.51901 -6.88039,-1.59553 -10.40039,-2.39258 -3.52,-0.79705 -7.58821,-1.80712 -9.03906,-2.24414 -3.08822,-0.93021 -6.65068,-1.32431 -16.08203,-1.77539 -6.44782,-0.30839 -12.31568,-0.90063 -16.11719,-1.62695 -0.90281,-0.17249 -4.09003,-0.44943 -7.08203,-0.61719 -8.06214,-0.45204 -13.33271,-1.62745 -19.67969,-4.38672 -4.41638,-1.91996 -13.71659,-5.13558 -20.58008,-7.11719 -3.02563,-0.87356 -6.7247,-2.03913 -8.2207,-2.58984 -2.85027,-1.04926 -18.95607,-5.22102 -21.43946,-5.55273 -0.792,-0.10579 -3.88885,-0.33858 -6.88085,-0.51954 -7.65477,-0.46295 -18.87618,-1.93836 -21.74415,-2.85742 -0.53683,-0.17203 -2.8301,-0.5377 -5.09765,-0.8125 -3.0787,-0.37309 -4.35852,-0.66527 -5.05078,-1.1582 l -0.92578,-0.66016 -1.51172,0.78711 c -1.83653,0.95884 -2.40647,2.11801 -1.52344,3.09375 0.64175,0.70913 0.9323,0.77002 6.25391,1.29492 2.024,0.19963 6.56007,0.84934 10.08007,1.44532 7.9476,1.34563 13.20315,1.97053 20,2.37695 2.904,0.17365 6.00086,0.45583 6.88086,0.62695 3.92003,0.76229 16.06871,3.9894 20,5.3125 2.376,0.79965 6.55834,2.09578 9.29492,2.88086 6.76308,1.9402 15.28306,4.96939 20.30469,7.21875 6.42205,2.87665 9.71128,3.59547 18.24024,3.99024 2.464,0.11405 6.35067,0.48531 8.63867,0.82422 6.47962,0.9598 9.07457,1.20345 16.64062,1.56054 8.27671,0.39062 12.06397,0.80814 14.71094,1.62305 3.15341,0.97081 21.91821,5.65014 24.16992,6.02734 1.144,0.19164 3.90738,0.76155 6.14063,1.26563 3.70096,0.83537 4.20353,1.03752 5.67969,2.27344 0.89075,0.74578 1.61914,1.48128 1.61914,1.63476 0,0.15349 0.44274,0.78351 0.98437,1.40039 1.00699,1.14694 1.01304,1.7793 0.0176,1.7793 -0.30771,0 -2.27897,0.63945 -4.38086,1.41992 -3.46035,1.28489 -3.88145,1.37537 -4.46094,0.95117 -1.58515,-1.16033 -3.25411,-1.71565 -5.17773,-1.72265 -1.11545,-0.004 -3.55961,-0.41191 -5.60156,-0.93555 -1.9919,-0.5108 -5.27679,-1.09904 -7.30079,-1.30664 -2.024,-0.20759 -5.40753,-0.71389 -7.51953,-1.125 -2.112,-0.4111 -5.1367,-0.83779 -6.7207,-0.94922 -1.584,-0.11143 -4.82322,-0.55148 -7.19922,-0.97656 -2.376,-0.42508 -5.83364,-0.93211 -7.68164,-1.12696 -4.5687,-0.48171 -7.52046,-1.05414 -13.91992,-2.69726 -2.992,-0.76823 -7.67044,-1.85969 -10.39844,-2.42578 -2.728,-0.56609 -7.80713,-1.94195 -11.28516,-3.05664 -6.96015,-2.23069 -11.76371,-3.34055 -17.83593,-4.125 -3.30707,-0.42723 -11.93079,-2.15038 -18.56055,-3.70899 -0.792,-0.18619 -3.31161,-1.03826 -5.59961,-1.89258 -2.288,-0.85431 -5.34057,-1.85415 -6.7832,-2.2207 -1.44265,-0.36656 -4.36425,-1.16624 -6.49414,-1.7793 -5.07558,-1.4609 -8.94924,-2.22932 -15.23242,-3.01953 -3.26894,-0.41113 -6.59902,-1.06714 -9.11915,-1.79492 -5.35953,-1.54777 -7.28595,-1.97469 -10.77734,-2.39648 -1.6315,-0.19711 -3.9352,-0.63603 -5.11914,-0.97461 -1.33663,-0.38224 -3.14528,-0.61524 -4.77344,-0.61524 -1.44217,0 -2.69982,-0.12546 -2.79492,-0.27929 -0.0951,-0.15384 0.42258,-1.19816 1.15234,-2.32032 0.73141,-1.12468 1.77875,-3.42081 2.33204,-5.11523 0.93263,-2.85607 0.9961,-3.3425 0.9082,-6.87891 -0.11927,-4.79905 -0.45358,-6.3076 -2.19727,-9.88867 -1.72492,-3.5425 -3.70398,-5.66678 -6.45312,-6.92578 -1.90155,-0.87087 -2.20304,-0.91174 -6.56055,-0.89844 -2.51187,0.008 -5.14365,0.13686 -5.84765,0.28711 -0.704,0.15025 -1.72833,0.37457 -2.27735,0.49805 l -0.99804,0.22461 -0.14258,-2.71094 c -0.12378,-2.35833 -0.27319,-2.91371 -1.14453,-4.27148 -1.97475,-3.07712 -4.8996,-5.24219 -7.08399,-5.24219 -1.42084,0 -2.95259,-0.38001 -7.35351,-1.82813 -1.15453,-0.37989 -1.77037,-0.57194 -2.66407,-0.625 z m 0.23438,6.9336 c -1.9635,0 -7.65489,3.41081 -9.25977,5.54883 -2.10157,2.79973 -3.71093,7.37997 -3.71093,10.5664 -1e-5,1.66278 0.1002,1.89803 1.47851,3.47461 0.81293,0.92987 1.78509,1.94006 2.16016,2.24414 0.37507,0.30409 0.85262,0.5546 1.06054,0.5586 0.71384,0.0134 6.2817,-3.35227 7.8086,-4.72071 0.84012,-0.75293 2.18097,-2.36259 2.98047,-3.57617 1.51504,-2.2997 2.15532,-2.73691 3.5039,-2.39844 0.75891,0.19048 0.84308,0.078 1.4668,-1.9414 0.966,-3.12752 0.89097,-3.79638 -0.53906,-4.86133 -0.66,-0.4915 -1.92125,-1.62644 -2.80274,-2.52149 -1.93814,-1.96798 -2.64497,-2.37304 -4.14648,-2.37304 z m 27.45312,14.46093 c -0.28129,-0.009 -0.58082,0.01 -0.9414,0.0449 -2.21751,0.21668 -3.75293,1.06185 -6.90039,3.80273 -6.72218,5.85384 -8.58203,8.49959 -8.58203,12.21094 -1e-5,2.42663 0.24496,3.17562 1.79687,5.51367 0.78321,1.17996 1.61865,1.97361 2.63477,2.50195 2.37535,1.23508 5.63976,0.94169 10.64843,-0.95703 1.71045,-0.64841 2.51882,-1.21825 4.18555,-2.95117 3.24754,-3.37653 3.68889,-4.34741 4.26367,-9.37305 l 0.49219,-4.29297 -1.05078,-2.07617 c -0.98927,-1.95473 -1.18809,-2.14525 -3.44922,-3.30664 -1.58384,-0.81348 -2.25376,-1.08957 -3.09766,-1.11719 z M 67.75,268.54297 c -0.390324,-0.022 -0.81332,-0.0201 -1.273438,0.002 -1.720428,0.0824 -1.974609,0.17707 -1.974609,0.72656 0,0.44239 0.383717,0.77616 1.287109,1.11914 2.126397,0.80729 3.496147,1.82538 4.244141,3.15626 0.678626,1.20745 0.707955,1.58838 0.697265,9.21679 -0.0077,5.50001 -0.154872,8.74599 -0.474609,10.51563 -0.254397,1.408 -0.468916,3.92956 -0.478516,5.60156 -0.0096,1.672 -0.224927,3.97514 -0.476562,5.11914 -0.251635,1.144 -0.462574,3.68093 -0.46875,5.63672 -0.0079,2.49185 -0.24986,4.74177 -0.8125,7.51953 -0.905258,4.46926 -1.464589,6.00362 -4.421875,12.1543 l -2.083984,4.33398 -4.023438,3.77344 c -2.212845,2.07609 -4.761294,4.77247 -5.664062,5.99023 -0.902764,1.21776 -2.489525,2.86502 -3.525391,3.66211 -1.035865,0.79705 -2.444511,2.27642 -3.130859,3.28711 -0.68635,1.01068 -2.016277,2.41972 -2.957032,3.13086 -2.028688,1.53357 -6.071467,3.72629 -8.751953,4.74805 -4.514674,1.7209 -9.565438,4.02767 -13.222656,6.03906 -9.283488,5.10566 -12.0146004,5.91002 -16.4628904,4.84766 -1.2729727,-0.30409 -2.5635287,-0.68111 -2.8691406,-0.83794 -0.85451553,-0.43843 -0.88476562,-0.39442 -0.88476562,1.32226 0,1.78678 -0.0017929,1.78599 3.35937502,2.73242 1.1151603,0.31402 2.5218205,0.39869 4.640625,0.27735 l 3.0390616,-0.17383 8.640626,-4.28516 c 7.707375,-3.82102 10.325614,-5.00951 15.96289,-7.24804 4.687443,-1.86134 9.035316,-4.98381 12.851563,-9.23047 0.711731,-0.792 1.878976,-1.89847 2.59375,-2.45899 0.714775,-0.56054 1.558861,-1.56877 1.876953,-2.24023 0.31809,-0.67148 1.814771,-2.82064 3.326172,-4.77735 1.511405,-1.95671 4.044906,-5.23408 5.628906,-7.2832 3.352845,-4.33741 4,-5.43298 4,-6.76758 0,-1.54928 0.869264,-4.48014 2.117187,-7.14062 1.029466,-2.19474 1.17804,-2.85404 1.419922,-6.29102 0.148633,-2.112 0.565045,-5.86362 0.925781,-8.33593 0.360739,-2.47231 0.805171,-6.5033 0.986329,-8.95899 0.181159,-2.45569 0.451958,-5.11425 0.601562,-5.90625 0.901881,-4.7746 1.10241,-6.71334 1.125,-10.87891 0.01903,-3.50939 -0.117659,-5.1948 -0.558594,-6.91406 -0.951167,-3.70872 -2.076328,-5.02954 -4.808593,-5.18359 z M 43.824218,288 c -0.171808,0 -1.004358,0.69186 -1.849609,1.53711 -1.140384,1.14038 -2.168317,2.79767 -3.984375,6.42773 -1.346057,2.6906 -2.745199,5.27141 -3.109375,5.73438 -1.68646,2.14399 -5.344773,3.53587 -8.175781,3.11133 -2.688012,-0.40309 -4.241459,-2.4902 -5.212891,-7.00586 -0.382154,-1.77643 -0.705193,-2.60547 -1.015625,-2.60547 -0.61894,0 -1.573611,1.99997 -1.574219,3.29687 -6.63e-4,1.40905 3.170401,8.37306 4.617188,10.13868 1.725394,2.10561 2.607448,2.27389 6.613281,1.26171 1.830477,-0.46252 3.581967,-0.97659 3.892578,-1.14257 0.918742,-0.49094 0.980553,0.38996 0.171875,2.47461 -1.021787,2.63399 -1.001985,6.60129 0.05273,10.53125 0.428656,1.59722 0.782278,3.82803 0.792968,5.00781 0.01711,1.88813 -0.09305,2.28346 -0.980468,3.51953 -0.54991,0.76598 -2.207552,2.31061 -3.681641,3.43164 l -2.679687,2.03711 -3.199219,-0.16602 c -5.503906,-0.28515 -7.56832,-1.46319 -11.455078,-6.53711 -2.475982,-3.23225 -3.1944731,-4.88542 -3.3457031,-7.70898 -0.1272666,-2.37612 -0.089052,-2.53109 1.0390621,-4.38281 1.556274,-2.55451 3.641783,-5.23728 4.380859,-5.63282 0.833997,-0.44633 0.418678,-0.92778 -0.798828,-0.92578 -5.0400661,0.009 -9.6679687,6.17146 -8.2324212,10.96289 0.2144103,0.71565 0.9763138,2.23183 1.6933594,3.36719 0.8684501,1.3751 1.5561073,3.03983 2.0585937,4.98633 1.1755561,4.55379 1.9752911,5.8987 5.4042961,9.08008 1.728842,1.604 3.599535,3.03306 4.376953,3.34375 1.737508,0.69434 5.574548,0.73643 8.064454,0.0879 2.954305,-0.76951 5.390256,-2.22399 6.589843,-3.93555 0.576141,-0.82204 1.726481,-2.29224 2.556641,-3.26562 0.830156,-0.97338 1.850071,-2.55691 2.267578,-3.51953 0.844317,-1.94669 0.932699,-4.27653 0.462891,-12.31055 -0.140109,-2.3959 -0.110664,-5.43418 0.07031,-7.16602 0.282544,-2.70377 0.496432,-3.36844 2.111328,-6.58984 0.987802,-1.97047 1.794922,-3.67957 1.794922,-3.79688 0,-0.11731 0.57725,-1.56122 1.28125,-3.20898 0.917104,-2.14654 1.279297,-3.44389 1.279297,-4.57812 0,-2.72504 -1.217834,-5.85938 -2.277344,-5.85938 z m 220.792962,2.88672 c -1.65235,-0.0832 -8.60764,5.8833 -14.09765,12.19531 -0.89263,1.02627 -2.342,2.32676 -3.22071,2.89063 -0.90635,0.5816 -3.04707,2.6966 -4.94531,4.88672 -1.84035,2.12331 -4.17296,4.7974 -5.18555,5.9414 -1.0126,1.144 -2.71253,3.23067 -3.77539,4.63867 -4.10971,5.44426 -17.19693,19.23505 -20.73047,21.84375 -0.88,0.64966 -3.76039,3.20384 -6.40039,5.67578 -2.64,2.47194 -6.09568,5.63326 -7.67968,7.0254 -1.584,1.39208 -5.0029,4.77351 -7.59766,7.51367 -14.22345,15.02054 -18.0648,19.22603 -19.29687,21.125 -0.74833,1.15338 -2.3087,3.17609 -3.4668,4.49609 -1.1581,1.32 -3.65711,4.25732 -5.55274,6.52539 -7.29368,8.72672 -7.75562,9.40298 -8.36523,12.2793 -0.19633,0.92634 -0.77024,2.50987 -1.27734,3.51953 -0.50711,1.0097 -1.47284,3.1328 -2.14453,4.7168 -0.67169,1.584 -2.10044,4.32007 -3.17579,6.08007 -2.09283,3.42531 -2.9294,5.18193 -2.61523,5.4961 0.2946,0.29459 1.05023,-0.43199 3.49609,-3.35938 1.22362,-1.46455 2.56948,-2.82001 2.99024,-3.01172 0.42077,-0.19172 0.76562,-0.50606 0.76562,-0.69921 0,-0.43565 1.52797,-3.37349 2.09375,-4.0254 0.22913,-0.26399 0.73876,-1.34439 1.13086,-2.40039 0.9619,-2.59053 1.74468,-3.67546 3.82031,-5.29687 0.96564,-0.75433 2.7734,-2.33059 4.01758,-3.50195 3.32385,-3.12931 14.2971,-10.46087 20.29688,-13.56055 6.82706,-3.52714 10.53992,-4.66788 15.20117,-4.67188 3.06582,-0.002 4.53425,0.41077 8.42969,2.36719 2.12279,1.06614 3.57542,2.08564 5.17187,3.63281 l 2.21875,2.1504 1.08985,3.83984 c 1.34375,4.73536 1.8441,10.38555 1.05468,11.91211 -0.58966,1.14029 -5.4398,6.4211 -10.07422,10.96875 -1.88327,1.848 -6.20495,6.33935 -9.60351,9.98047 -4.63964,4.97075 -6.42155,6.67347 -7.15235,6.83398 -0.62532,0.13735 -1.03471,0.45962 -1.14453,0.90039 -0.094,0.37735 -1.01358,2.32931 -2.04297,4.33789 -1.02937,2.00861 -1.82116,3.70227 -1.75976,3.76367 0.0614,0.0614 0.74617,-0.39347 1.52148,-1.00976 0.77532,-0.61632 1.62663,-1.11914 1.89063,-1.11914 0.264,10e-4 1.48675,0.54649 2.71875,1.21094 l 2.24023,1.20703 1.82227,3.66797 c 1.62373,3.26812 1.82364,3.88853 1.83984,5.70117 0.0204,2.28765 -0.66503,5.28915 -1.64844,7.21679 -1.1536,2.26125 -5.12709,7.58322 -7.8125,10.46485 -1.42965,1.53414 -2.75415,3.23458 -2.94335,3.77734 L 184.375,480 h 2.96289 2.96289 l 3.05664,-3.11914 c 1.68091,-1.716 3.31284,-3.62424 3.62695,-4.24024 0.31412,-0.616 0.89455,-1.55207 1.28906,-2.08007 1.1321,-1.51517 2.58404,-4.61479 3.36133,-7.17383 0.63615,-2.0944 0.69448,-2.80752 0.53516,-6.54883 -0.1698,-3.98713 -0.43381,-5.4303 -2.00977,-10.99414 -0.52734,-1.86176 -1.29831,-2.46266 -3.63281,-2.83594 -0.72638,-0.11616 -1.40547,-0.35076 -1.50977,-0.51953 -0.1043,-0.16877 0.30348,-0.83243 0.90625,-1.47656 0.60276,-0.64409 1.94243,-2.32442 2.97657,-3.73242 3.7749,-5.13962 10.9687,-12.6742 14.93554,-15.64258 2.8293,-2.11719 4.26646,-4.04896 5.74024,-7.7168 0.97748,-2.4327 1.03535,-2.81829 1.17383,-7.75976 0.0806,-2.87507 0.27936,-5.19922 0.44336,-5.19922 0.16312,0 1.21531,0.52817 2.33789,1.17383 2.00802,1.15491 2.04062,1.1949 1.98632,2.47656 -0.0608,1.43437 -0.30375,1.28269 3.83399,2.39844 0.73121,0.19718 2.08572,0.87806 3.00976,1.51367 0.92403,0.63562 3.56438,2.08999 5.86914,3.23242 2.30476,1.14247 5.15407,2.70033 6.33008,3.46094 1.17602,0.76058 3.30278,1.98179 4.72656,2.71484 2.48724,1.28061 2.61885,1.31179 3.38086,0.8125 1.436,-0.9409 1.0055,-1.97626 -1.52734,-3.67578 -1.6396,-1.10016 -1.67654,-1.17329 -1.20703,-2.4082 0.49064,-1.29046 -0.0863,-2.07098 -3.20899,-4.33789 -9.55503,-6.93635 -21.16208,-13.05798 -27.61132,-14.5625 -1.10443,-0.25763 -2.16377,-0.72238 -2.44141,-1.07032 -2.06914,-2.59302 -8.75995,-7.02028 -12.33008,-8.1582 -2.15714,-0.68755 -6.70492,-1.2149 -8.47851,-0.98437 -1.1597,0.15072 -1.93034,-0.0111 -3.9375,-0.81836 -1.37314,-0.55226 -3.60608,-1.28167 -4.96094,-1.62305 -3.02274,-0.76163 -4.86328,-1.55218 -4.86328,-2.08594 0,-0.22131 2.55569,-2.82247 5.67969,-5.78125 3.124,-2.95879 6.89755,-6.68035 8.38476,-8.26953 1.48722,-1.58918 4.65428,-4.91162 7.03906,-7.38477 2.38479,-2.47312 7.64927,-8.00903 11.69727,-12.30078 4.048,-4.29174 9.10167,-9.55486 11.23047,-11.69726 2.1288,-2.14243 4.70891,-4.96102 5.73437,-6.26172 1.02545,-1.30071 3.24778,-3.80445 4.93946,-5.56445 1.69169,-1.76 3.88801,-4.20746 4.8789,-5.43946 0.99088,-1.232 2.74611,-3.07471 3.90039,-4.09375 1.42696,-1.25976 2.96942,-3.1582 4.82227,-5.93164 3.46501,-5.1866 5.23034,-7.15353 8.90039,-9.91992 3.2479,-2.44817 5.92023,-5.03485 5.56641,-5.38867 -0.061,-0.061 -0.14766,-0.0941 -0.25782,-0.0996 z M 0.19726563,301.92969 c -0.11967674,-0.0328 -0.16723481,0.29268 -0.16992187,1.04883 -0.002981,0.83884 0.1197818,1.30195 0.31445312,1.18164 0.40592138,-0.25087 0.40592138,-1.45196 0,-2.08008 -0.0567015,-0.0877 -0.104639,-0.13945 -0.14453125,-0.15039 z m -0.17578125,43.91797 0.0058594,3.95507 0.0058594,3.95704 1.83398437,0.75195 c 2.5055301,1.02649 4.6194385,1.58462 7.2734375,1.92187 1.232,0.15654 4.761796,0.30312 7.841797,0.32422 4.605508,0.0317 5.769077,-0.0542 6.558593,-0.48047 2.061156,-1.1128 7.11281,-3.78508 8.480469,-4.48632 1.652509,-0.84733 3.102504,-1.92081 2.875,-2.12891 -0.08537,-0.0781 -1.57313,0.42887 -3.306641,1.12695 -3.814635,1.53616 -7.611029,1.99778 -14.449218,1.75586 -3.589346,-0.127 -4.956043,-0.31443 -6.878907,-0.94336 -3.5687442,-1.16729 -7.6826552,-3.25118 -9.0410148,-4.58008 z M 178.62695,382.73047 c 0.28944,-0.006 2.01728,0.57325 3.83984,1.28711 4.74225,1.85744 4.75391,1.86209 4.75391,2.14453 0,0.14118 -1.11452,0.80684 -2.47852,1.47851 -3.1232,1.53795 -9.51425,5.2801 -12.24023,7.16797 -1.14329,0.79178 -2.94329,1.96519 -4,2.60743 -1.05671,0.64221 -3.02286,2.06284 -4.37109,3.15625 -1.34823,1.09341 -2.58561,1.98828 -2.74805,1.98828 -0.4526,0 -0.72071,-0.36924 -0.72071,-0.98828 0,-0.64103 2.94777,-3.98537 4.1836,-4.7461 0.45301,-0.27885 1.77007,-1.58625 2.92773,-2.90625 1.15765,-1.32 3.25607,-3.40862 4.66407,-4.64062 1.408,-1.232 3.25994,-3.20669 4.11328,-4.38868 0.85334,-1.182 1.78673,-2.15415 2.07617,-2.16015 z"
     style="fill:#131313;stroke-width:0.31999999"
     id="path5205" />
</svg>
