<svg xmlns="http://www.w3.org/2000/svg" width="640" height="320" viewBox="0 0 640 320">
  <g fill="none" fill-rule="evenodd">
    <rect width="640" height="320" fill="#FF006C"/>
    <g fill-rule="nonzero" transform="translate(255.768 104.36)">
      <path fill="#062CFF" d="M16.256,49.28 C18.176,49.28 19.936,49.0346667 21.536,48.544 C23.136,48.0533333 24.5973333,47.3386667 25.92,46.4 L25.92,46.4 L25.92,37.312 C23.5306667,39.232 21.12,40.192 18.688,40.192 C16.8106667,40.192 15.328,39.4453333 14.24,37.952 C13.152,36.4586667 12.608,34.176 12.608,31.104 C12.608,28.032 13.152,25.696 14.24,24.096 C15.328,22.496 16.7466667,21.696 18.496,21.696 C19.392,21.696 20.3093333,21.8666667 21.248,22.208 C22.1866667,22.5493333 23.0826667,22.976 23.936,23.488 L23.936,23.488 L26.816,15.296 C25.3226667,14.4426667 23.744,13.7813333 22.08,13.312 C20.416,12.8426667 18.624,12.608 16.704,12.608 C13.3333333,12.608 10.5066667,13.376 8.224,14.912 C5.94133333,16.448 4.21333333,18.6133333 3.04,21.408 C1.86666667,24.2026667 1.28,27.4346667 1.28,31.104 C1.28,37.376 2.58133333,41.9733333 5.184,44.896 C7.78666667,47.8186667 11.4773333,49.28 16.256,49.28 Z M42.624,48.64 L42.624,32.64 C42.624,29.056 42.88,26.3786667 43.392,24.608 C43.904,22.8373333 44.9706667,21.952 46.592,21.952 C48.4266667,21.952 49.344,24.32 49.344,29.056 L49.344,29.056 L49.344,48.64 L60.608,48.64 L60.608,25.6 C60.608,21.3333333 59.6586667,18.1013333 57.76,15.904 C55.8613333,13.7066667 53.3973333,12.608 50.368,12.608 C46.6986667,12.608 44.0746667,14.272 42.496,17.6 L42.496,17.6 L41.92,17.6 C42.3893333,14.9973333 42.624,11.904 42.624,8.32 L42.624,8.32 L42.624,-7.10542736e-15 L31.488,-7.10542736e-15 L31.488,48.64 L42.624,48.64 Z M74.112,49.28 C76.4586667,49.28 78.3253333,48.8533333 79.712,48 C81.0986667,47.1466667 82.4106667,45.8026667 83.648,43.968 L83.648,43.968 L83.84,43.968 L85.824,48.64 L93.696,48.64 L93.696,25.408 C93.696,21.1413333 92.6293333,17.9413333 90.496,15.808 C88.3626667,13.6746667 85.4826667,12.608 81.856,12.608 C79.1253333,12.608 76.64,12.8853333 74.4,13.44 C72.16,13.9946667 70.144,14.784 68.352,15.808 L68.352,15.808 L71.296,23.616 C74.4533333,21.8666667 77.0986667,20.992 79.232,20.992 C81.408,20.992 82.496,22.4426667 82.496,25.344 L82.496,25.344 L82.496,26.112 L77.76,26.304 C73.7493333,26.4746667 70.6773333,27.488 68.544,29.344 C66.4106667,31.2 65.344,34.0266667 65.344,37.824 C65.344,39.9146667 65.664,41.8346667 66.304,43.584 C66.944,45.3333333 67.9146667,46.72 69.216,47.744 C70.5173333,48.768 72.1493333,49.28 74.112,49.28 Z M79.04,40.896 C77.376,40.896 76.544,39.7013333 76.544,37.312 C76.544,34.5813333 77.9093333,33.1306667 80.64,32.96 L80.64,32.96 L82.56,32.832 L82.56,35.84 C82.56,37.3333333 82.208,38.5493333 81.504,39.488 C80.8,40.4266667 79.9786667,40.896 79.04,40.896 Z M111.424,49.28 C113.130667,49.28 114.634667,49.0986667 115.936,48.736 C117.237333,48.3733333 118.506667,47.8933333 119.744,47.296 L119.744,47.296 L119.744,38.912 C118.848,39.2533333 118.005333,39.5413333 117.216,39.776 C116.426667,40.0106667 115.669333,40.128 114.944,40.128 C113.237333,40.128 112.384,38.976 112.384,36.672 L112.384,36.672 L112.384,21.952 L119.232,21.952 L119.232,13.248 L112.384,13.248 L112.384,6.144 L104.896,6.144 L102.272,13.568 L97.6,16.576 L97.6,21.952 L101.248,21.952 L101.248,36.992 C101.248,41.344 102.069333,44.48 103.712,46.4 C105.354667,48.32 107.925333,49.28 111.424,49.28 Z M143.808,49.28 C146.154667,49.28 148.021333,48.8533333 149.408,48 C150.794667,47.1466667 152.106667,45.8026667 153.344,43.968 L153.344,43.968 L153.536,43.968 L155.52,48.64 L163.392,48.64 L163.392,25.408 C163.392,21.1413333 162.325333,17.9413333 160.192,15.808 C158.058667,13.6746667 155.178667,12.608 151.552,12.608 C148.821333,12.608 146.336,12.8853333 144.096,13.44 C141.856,13.9946667 139.84,14.784 138.048,15.808 L138.048,15.808 L140.992,23.616 C144.149333,21.8666667 146.794667,20.992 148.928,20.992 C151.104,20.992 152.192,22.4426667 152.192,25.344 L152.192,25.344 L152.192,26.112 L147.456,26.304 C143.445333,26.4746667 140.373333,27.488 138.24,29.344 C136.106667,31.2 135.04,34.0266667 135.04,37.824 C135.04,39.9146667 135.36,41.8346667 136,43.584 C136.64,45.3333333 137.610667,46.72 138.912,47.744 C140.213333,48.768 141.845333,49.28 143.808,49.28 Z M148.736,40.896 C147.072,40.896 146.24,39.7013333 146.24,37.312 C146.24,34.5813333 147.605333,33.1306667 150.336,32.96 L150.336,32.96 L152.256,32.832 L152.256,35.84 C152.256,37.3333333 151.904,38.5493333 151.2,39.488 C150.496,40.4266667 149.674667,40.896 148.736,40.896 Z M180.864,64 L180.864,50.944 C180.864,50.0906667 180.832,49.1306667 180.768,48.064 C180.704,46.9973333 180.629333,45.7813333 180.544,44.416 L180.544,44.416 L180.864,44.416 C181.717333,45.9946667 182.762667,47.2 184,48.032 C185.237333,48.864 186.752,49.28 188.544,49.28 C191.701333,49.28 194.250667,47.68 196.192,44.48 C198.133333,41.28 199.104,36.7786667 199.104,30.976 C199.104,25.216 198.165333,20.7146667 196.288,17.472 C194.410667,14.2293333 191.808,12.608 188.48,12.608 C186.730667,12.608 185.290667,12.9813333 184.16,13.728 C183.029333,14.4746667 181.930667,15.8293333 180.864,17.792 L180.864,17.792 L180.352,17.792 L178.688,13.248 L169.728,13.248 L169.728,64 L180.864,64 Z M184.448,40.064 C183.125333,40.064 182.197333,39.392 181.664,38.048 C181.130667,36.704 180.864,34.624 180.864,31.808 L180.864,31.808 L180.864,30.08 C180.864,27.0933333 181.130667,24.9173333 181.664,23.552 C182.197333,22.1866667 183.125333,21.504 184.448,21.504 C185.514667,21.504 186.336,22.272 186.912,23.808 C187.488,25.344 187.776,27.7546667 187.776,31.04 C187.776,34.1546667 187.498667,36.4373333 186.944,37.888 C186.389333,39.3386667 185.557333,40.064 184.448,40.064 Z M215.488,64 L215.488,50.944 C215.488,50.0906667 215.456,49.1306667 215.392,48.064 C215.328,46.9973333 215.253333,45.7813333 215.168,44.416 L215.168,44.416 L215.488,44.416 C216.341333,45.9946667 217.386667,47.2 218.624,48.032 C219.861333,48.864 221.376,49.28 223.168,49.28 C226.325333,49.28 228.874667,47.68 230.816,44.48 C232.757333,41.28 233.728,36.7786667 233.728,30.976 C233.728,25.216 232.789333,20.7146667 230.912,17.472 C229.034667,14.2293333 226.432,12.608 223.104,12.608 C221.354667,12.608 219.914667,12.9813333 218.784,13.728 C217.653333,14.4746667 216.554667,15.8293333 215.488,17.792 L215.488,17.792 L214.976,17.792 L213.312,13.248 L204.352,13.248 L204.352,64 L215.488,64 Z M219.072,40.064 C217.749333,40.064 216.821333,39.392 216.288,38.048 C215.754667,36.704 215.488,34.624 215.488,31.808 L215.488,31.808 L215.488,30.08 C215.488,27.0933333 215.754667,24.9173333 216.288,23.552 C216.821333,22.1866667 217.749333,21.504 219.072,21.504 C220.138667,21.504 220.96,22.272 221.536,23.808 C222.112,25.344 222.4,27.7546667 222.4,31.04 C222.4,34.1546667 222.122667,36.4373333 221.568,37.888 C221.013333,39.3386667 220.181333,40.064 219.072,40.064 Z M248.384,49.28 C252.608,49.28 255.765333,48.2773333 257.856,46.272 C259.946667,44.2666667 260.992,41.4293333 260.992,37.76 C260.992,34.9013333 260.341333,32.6506667 259.04,31.008 C257.738667,29.3653333 255.914667,27.9253333 253.568,26.688 C251.989333,25.8346667 250.826667,25.1733333 250.08,24.704 C249.333333,24.2346667 248.842667,23.84 248.608,23.52 C248.373333,23.2 248.256,22.848 248.256,22.464 C248.256,21.3973333 248.917333,20.864 250.24,20.864 C251.306667,20.864 252.522667,21.12 253.888,21.632 C255.253333,22.144 256.554667,22.7626667 257.792,23.488 L257.792,23.488 L260.48,15.616 C258.688,14.6346667 256.938667,13.888 255.232,13.376 C253.525333,12.864 251.690667,12.608 249.728,12.608 C245.930667,12.608 242.954667,13.5146667 240.8,15.328 C238.645333,17.1413333 237.568,19.712 237.568,23.04 C237.568,25.6853333 238.144,27.8826667 239.296,29.632 C240.448,31.3813333 242.133333,32.8106667 244.352,33.92 C246.016,34.7733333 247.264,35.4453333 248.096,35.936 C248.928,36.4266667 249.472,36.8533333 249.728,37.216 C249.984,37.5786667 250.112,37.9733333 250.112,38.4 C250.112,39.7226667 249.173333,40.384 247.296,40.384 C245.888,40.384 244.32,40.1173333 242.592,39.584 C240.864,39.0506667 239.210667,38.3573333 237.632,37.504 L237.632,37.504 L237.632,47.296 C239.381333,48.0213333 241.141333,48.5333333 242.912,48.832 C244.682667,49.1306667 246.506667,49.28 248.384,49.28 Z"/>
      <path fill="#FFF" d="M15.04,112.64 L15.04,85.952 L20.928,85.952 L20.928,77.248 L15.04,77.248 L15.04,76.032 C15.04,74.752 15.1893333,73.8346667 15.488,73.28 C15.7866667,72.7253333 16.256,72.448 16.896,72.448 C17.4933333,72.448 18.0693333,72.512 18.624,72.64 C19.1786667,72.768 19.7333333,72.9173333 20.288,73.088 L20.288,73.088 L22.464,65.344 C20.8,64.7893333 19.36,64.3733333 18.144,64.096 C16.928,63.8186667 15.5733333,63.68 14.08,63.68 C10.496,63.68 7.91466667,64.6933333 6.336,66.72 C4.75733333,68.7466667 3.968,72.1066667 3.968,76.8 L3.968,76.8 L3.968,77.376 L-3.41060513e-13,80.32 L-3.41060513e-13,85.952 L3.84,85.952 L3.84,112.64 L15.04,112.64 Z M38.528,113.28 C42.0693333,113.28 44.9493333,112.437333 47.168,110.752 C49.3866667,109.066667 51.008,106.826667 52.032,104.032 C53.056,101.237333 53.568,98.176 53.568,94.848 C53.568,90.9653333 52.9386667,87.6693333 51.68,84.96 C50.4213333,82.2506667 48.672,80.1813333 46.432,78.752 C44.192,77.3226667 41.6,76.608 38.656,76.608 C35.2,76.608 32.352,77.3866667 30.112,78.944 C27.872,80.5013333 26.208,82.656 25.12,85.408 C24.032,88.16 23.488,91.3066667 23.488,94.848 C23.488,98.2186667 24.0533333,101.301333 25.184,104.096 C26.3146667,106.890667 28,109.12 30.24,110.784 C32.48,112.448 35.2426667,113.28 38.528,113.28 Z M38.592,104.512 C37.2266667,104.512 36.256,103.690667 35.68,102.048 C35.104,100.405333 34.816,98.0266667 34.816,94.912 C34.816,91.6693333 35.104,89.2693333 35.68,87.712 C36.256,86.1546667 37.2266667,85.376 38.592,85.376 C39.9573333,85.376 40.9173333,86.1653333 41.472,87.744 C42.0266667,89.3226667 42.304,91.6906667 42.304,94.848 C42.304,98.048 42.0266667,100.458667 41.472,102.08 C40.9173333,103.701333 39.9573333,104.512 38.592,104.512 Z M70.144,112.64 L70.144,94.976 C70.144,92.3733333 70.6773333,90.5386667 71.744,89.472 C72.8106667,88.4053333 74.176,87.872 75.84,87.872 C76.736,87.872 77.4613333,87.904 78.016,87.968 C78.5706667,88.032 79.0613333,88.128 79.488,88.256 L79.488,88.256 L80.384,76.992 C79.36,76.736 78.336,76.608 77.312,76.608 C76.16,76.608 75.0826667,76.9173333 74.08,77.536 C73.0773333,78.1546667 72.2026667,78.944 71.456,79.904 C70.7093333,80.864 70.1013333,81.856 69.632,82.88 L69.632,82.88 L69.056,82.88 L67.392,77.248 L58.944,77.248 L58.944,112.64 L70.144,112.64 Z M103.552,113.28 C105.898667,113.28 107.765333,112.853333 109.152,112 C110.538667,111.146667 111.850667,109.802667 113.088,107.968 L113.088,107.968 L113.28,107.968 L115.264,112.64 L123.136,112.64 L123.136,89.408 C123.136,85.1413333 122.069333,81.9413333 119.936,79.808 C117.802667,77.6746667 114.922667,76.608 111.296,76.608 C108.565333,76.608 106.08,76.8853333 103.84,77.44 C101.6,77.9946667 99.584,78.784 97.792,79.808 L97.792,79.808 L100.736,87.616 C103.893333,85.8666667 106.538667,84.992 108.672,84.992 C110.848,84.992 111.936,86.4426667 111.936,89.344 L111.936,89.344 L111.936,90.112 L107.2,90.304 C103.189333,90.4746667 100.117333,91.488 97.984,93.344 C95.8506667,95.2 94.784,98.0266667 94.784,101.824 C94.784,103.914667 95.104,105.834667 95.744,107.584 C96.384,109.333333 97.3546667,110.72 98.656,111.744 C99.9573333,112.768 101.589333,113.28 103.552,113.28 Z M108.48,104.896 C106.816,104.896 105.984,103.701333 105.984,101.312 C105.984,98.5813333 107.349333,97.1306667 110.08,96.96 L110.08,96.96 L112,96.832 L112,99.84 C112,101.333333 111.648,102.549333 110.944,103.488 C110.24,104.426667 109.418667,104.896 108.48,104.896 Z M143.296,113.28 C145.216,113.28 146.976,113.034667 148.576,112.544 C150.176,112.053333 151.637333,111.338667 152.96,110.4 L152.96,110.4 L152.96,101.312 C150.570667,103.232 148.16,104.192 145.728,104.192 C143.850667,104.192 142.368,103.445333 141.28,101.952 C140.192,100.458667 139.648,98.176 139.648,95.104 C139.648,92.032 140.192,89.696 141.28,88.096 C142.368,86.496 143.786667,85.696 145.536,85.696 C146.432,85.696 147.349333,85.8666667 148.288,86.208 C149.226667,86.5493333 150.122667,86.976 150.976,87.488 L150.976,87.488 L153.856,79.296 C152.362667,78.4426667 150.784,77.7813333 149.12,77.312 C147.456,76.8426667 145.664,76.608 143.744,76.608 C140.373333,76.608 137.546667,77.376 135.264,78.912 C132.981333,80.448 131.253333,82.6133333 130.08,85.408 C128.906667,88.2026667 128.32,91.4346667 128.32,95.104 C128.32,101.376 129.621333,105.973333 132.224,108.896 C134.826667,111.818667 138.517333,113.28 143.296,113.28 Z M169.92,113.28 C171.626667,113.28 173.130667,113.098667 174.432,112.736 C175.733333,112.373333 177.002667,111.893333 178.24,111.296 L178.24,111.296 L178.24,102.912 C177.344,103.253333 176.501333,103.541333 175.712,103.776 C174.922667,104.010667 174.165333,104.128 173.44,104.128 C171.733333,104.128 170.88,102.976 170.88,100.672 L170.88,100.672 L170.88,85.952 L177.728,85.952 L177.728,77.248 L170.88,77.248 L170.88,70.144 L163.392,70.144 L160.768,77.568 L156.096,80.576 L156.096,85.952 L159.744,85.952 L159.744,100.992 C159.744,105.344 160.565333,108.48 162.208,110.4 C163.850667,112.32 166.421333,113.28 169.92,113.28 Z M188.48,73.792 C190.314667,73.792 191.754667,73.3653333 192.8,72.512 C193.845333,71.6586667 194.368,70.2933333 194.368,68.416 C194.368,66.496 193.856,65.1093333 192.832,64.256 C191.808,63.4026667 190.357333,62.976 188.48,62.976 C186.56,62.976 185.098667,63.4026667 184.096,64.256 C183.093333,65.1093333 182.592,66.496 182.592,68.416 C182.592,70.2933333 183.114667,71.6586667 184.16,72.512 C185.205333,73.3653333 186.645333,73.792 188.48,73.792 Z M193.984,112.64 L193.984,77.248 L182.848,77.248 L182.848,112.64 L193.984,112.64 Z M219.776,112.64 L230.464,77.248 L218.88,77.248 L214.976,94.912 C214.677333,96.2773333 214.442667,97.5253333 214.272,98.656 C214.101333,99.7866667 213.994667,100.821333 213.952,101.76 L213.952,101.76 L213.696,101.76 C213.568,99.6693333 213.226667,97.344 212.672,94.784 L212.672,94.784 L209.088,77.248 L197.44,77.248 L208,112.64 L219.776,112.64 Z M239.488,73.792 C241.322667,73.792 242.762667,73.3653333 243.808,72.512 C244.853333,71.6586667 245.376,70.2933333 245.376,68.416 C245.376,66.496 244.864,65.1093333 243.84,64.256 C242.816,63.4026667 241.365333,62.976 239.488,62.976 C237.568,62.976 236.106667,63.4026667 235.104,64.256 C234.101333,65.1093333 233.6,66.496 233.6,68.416 C233.6,70.2933333 234.122667,71.6586667 235.168,72.512 C236.213333,73.3653333 237.653333,73.792 239.488,73.792 Z M244.992,112.64 L244.992,77.248 L233.856,77.248 L233.856,112.64 L244.992,112.64 Z M260.992,113.28 C265.216,113.28 268.373333,112.277333 270.464,110.272 C272.554667,108.266667 273.6,105.429333 273.6,101.76 C273.6,98.9013333 272.949333,96.6506667 271.648,95.008 C270.346667,93.3653333 268.522667,91.9253333 266.176,90.688 C264.597333,89.8346667 263.434667,89.1733333 262.688,88.704 C261.941333,88.2346667 261.450667,87.84 261.216,87.52 C260.981333,87.2 260.864,86.848 260.864,86.464 C260.864,85.3973333 261.525333,84.864 262.848,84.864 C263.914667,84.864 265.130667,85.12 266.496,85.632 C267.861333,86.144 269.162667,86.7626667 270.4,87.488 L270.4,87.488 L273.088,79.616 C271.296,78.6346667 269.546667,77.888 267.84,77.376 C266.133333,76.864 264.298667,76.608 262.336,76.608 C258.538667,76.608 255.562667,77.5146667 253.408,79.328 C251.253333,81.1413333 250.176,83.712 250.176,87.04 C250.176,89.6853333 250.752,91.8826667 251.904,93.632 C253.056,95.3813333 254.741333,96.8106667 256.96,97.92 C258.624,98.7733333 259.872,99.4453333 260.704,99.936 C261.536,100.426667 262.08,100.853333 262.336,101.216 C262.592,101.578667 262.72,101.973333 262.72,102.4 C262.72,103.722667 261.781333,104.384 259.904,104.384 C258.496,104.384 256.928,104.117333 255.2,103.584 C253.472,103.050667 251.818667,102.357333 250.24,101.504 L250.24,101.504 L250.24,111.296 C251.989333,112.021333 253.749333,112.533333 255.52,112.832 C257.290667,113.130667 259.114667,113.28 260.992,113.28 Z M289.92,113.28 C291.626667,113.28 293.130667,113.098667 294.432,112.736 C295.733333,112.373333 297.002667,111.893333 298.24,111.296 L298.24,111.296 L298.24,102.912 C297.344,103.253333 296.501333,103.541333 295.712,103.776 C294.922667,104.010667 294.165333,104.128 293.44,104.128 C291.733333,104.128 290.88,102.976 290.88,100.672 L290.88,100.672 L290.88,85.952 L297.728,85.952 L297.728,77.248 L290.88,77.248 L290.88,70.144 L283.392,70.144 L280.768,77.568 L276.096,80.576 L276.096,85.952 L279.744,85.952 L279.744,100.992 C279.744,105.344 280.565333,108.48 282.208,110.4 C283.850667,112.32 286.421333,113.28 289.92,113.28 Z M312.192,113.28 C316.416,113.28 319.573333,112.277333 321.664,110.272 C323.754667,108.266667 324.8,105.429333 324.8,101.76 C324.8,98.9013333 324.149333,96.6506667 322.848,95.008 C321.546667,93.3653333 319.722667,91.9253333 317.376,90.688 C315.797333,89.8346667 314.634667,89.1733333 313.888,88.704 C313.141333,88.2346667 312.650667,87.84 312.416,87.52 C312.181333,87.2 312.064,86.848 312.064,86.464 C312.064,85.3973333 312.725333,84.864 314.048,84.864 C315.114667,84.864 316.330667,85.12 317.696,85.632 C319.061333,86.144 320.362667,86.7626667 321.6,87.488 L321.6,87.488 L324.288,79.616 C322.496,78.6346667 320.746667,77.888 319.04,77.376 C317.333333,76.864 315.498667,76.608 313.536,76.608 C309.738667,76.608 306.762667,77.5146667 304.608,79.328 C302.453333,81.1413333 301.376,83.712 301.376,87.04 C301.376,89.6853333 301.952,91.8826667 303.104,93.632 C304.256,95.3813333 305.941333,96.8106667 308.16,97.92 C309.824,98.7733333 311.072,99.4453333 311.904,99.936 C312.736,100.426667 313.28,100.853333 313.536,101.216 C313.792,101.578667 313.92,101.973333 313.92,102.4 C313.92,103.722667 312.981333,104.384 311.104,104.384 C309.696,104.384 308.128,104.117333 306.4,103.584 C304.672,103.050667 303.018667,102.357333 301.44,101.504 L301.44,101.504 L301.44,111.296 C303.189333,112.021333 304.949333,112.533333 306.72,112.832 C308.490667,113.130667 310.314667,113.28 312.192,113.28 Z"/>
    </g>
    <path fill="#002CFF" fill-rule="nonzero" d="M149.2992,0 L16.5888,0 C7.42705874,0 0,7.42705874 0,16.5888 L0,165.888 L33.1776,132.7104 L149.2992,132.7104 C158.460941,132.7104 165.888,125.283341 165.888,116.1216 L165.888,16.5888 C165.888,7.382016 158.42304,0 149.2992,0 Z" transform="matrix(-1 0 0 1 223 89)"/>
  </g>
</svg>
