<svg xmlns="http://www.w3.org/2000/svg" xmlns:xlink="http://www.w3.org/1999/xlink" width="1200" height="628" viewBox="0 0 1200 628">
  <defs>
    <rect id="collective-action-a" width="1104" height="532" x="48" y="48" rx="24"/>
  </defs>
  <g fill="none" fill-rule="evenodd">
    <rect width="1200" height="628" fill="#FFF"/>
    <path fill="#FF006C" d="M80,580 L1120,580 C1120,588.836556 1112.83656,596 1104,596 L96,596 C87.163444,596 80,588.836556 80,580 L80,580 L80,580 Z" opacity=".5"/>
    <mask id="collective-action-b" fill="#fff">
      <use xlink:href="#collective-action-a"/>
    </mask>
    <use fill="#FF006C" xlink:href="#collective-action-a"/>
    <g mask="url(#collective-action-b)">
      <g transform="translate(279 45)">
        <path fill="#FFF" fill-rule="nonzero" d="M84.48,154 L84.48,125.392 L46.08,125.392 L46.08,16.912 L11.328,16.912 L11.328,154 L84.48,154 Z M140.736,155.92 C154.304,155.92 165.504,153.36 174.336,148.24 L174.336,148.24 L174.336,122.512 C169.216,125.456 164.448,127.568 160.032,128.848 C155.616,130.128 150.784,130.768 145.536,130.768 C133.632,130.768 127.68,124.112 127.68,110.8 L127.68,110.8 L180.096,110.8 L180.096,94.48 C180.096,78.736 176.352,66.736 168.864,58.48 C161.376,50.224 151.04,46.096 137.856,46.096 C124.032,46.096 113.312,50.768 105.696,60.112 C98.08,69.456 94.272,83.216 94.272,101.392 C94.272,119.44 98.24,133.04 106.176,142.192 C114.112,151.344 125.632,155.92 140.736,155.92 Z M149.568,88.528 L127.68,88.528 C127.808,81.872 128.928,77.168 131.04,74.416 C133.152,71.664 135.744,70.288 138.816,70.288 C142.144,70.288 144.768,71.824 146.688,74.896 C148.608,77.968 149.568,82.512 149.568,88.528 L149.568,88.528 Z M229.44,155.92 C234.56,155.92 239.072,155.376 242.976,154.288 C246.88,153.2 250.688,151.76 254.4,149.968 L254.4,149.968 L254.4,124.816 C251.712,125.84 249.184,126.704 246.816,127.408 C244.448,128.112 242.176,128.464 240,128.464 C234.88,128.464 232.32,125.008 232.32,118.096 L232.32,118.096 L232.32,73.936 L252.864,73.936 L252.864,47.824 L232.32,47.824 L232.32,26.512 L209.856,26.512 L201.984,48.784 L187.968,57.808 L187.968,73.936 L198.912,73.936 L198.912,119.056 C198.912,132.112 201.376,141.52 206.304,147.28 C211.232,153.04 218.944,155.92 229.44,155.92 Z M293.568,71.632 C296.384,64.592 298.88,56.432 301.056,47.152 C303.232,37.872 305.024,28.496 306.432,19.024 L306.432,19.024 L305.472,16.912 L274.176,16.912 C274.048,20.368 273.728,24.432 273.216,29.104 C272.704,33.776 272.128,38.704 271.488,43.888 C270.848,49.072 270.144,54.064 269.376,58.864 C268.608,63.664 267.84,67.92 267.072,71.632 L267.072,71.632 L293.568,71.632 Z M345.984,155.92 C358.656,155.92 368.128,152.912 374.4,146.896 C380.672,140.88 383.808,132.368 383.808,121.36 C383.808,112.784 381.856,106.032 377.952,101.104 C374.048,96.176 368.576,91.856 361.536,88.144 C356.8,85.584 353.312,83.6 351.072,82.192 C348.832,80.784 347.36,79.6 346.656,78.64 C345.952,77.68 345.6,76.624 345.6,75.472 C345.6,72.272 347.584,70.672 351.552,70.672 C354.752,70.672 358.4,71.44 362.496,72.976 C366.592,74.512 370.496,76.368 374.208,78.544 L374.208,78.544 L382.272,54.928 C376.896,51.984 371.648,49.744 366.528,48.208 C361.408,46.672 355.904,45.904 350.016,45.904 C338.624,45.904 329.696,48.624 323.232,54.064 C316.768,59.504 313.536,67.216 313.536,77.2 C313.536,85.136 315.264,91.728 318.72,96.976 C322.176,102.224 327.232,106.512 333.888,109.84 C338.88,112.4 342.624,114.416 345.12,115.888 C347.616,117.36 349.248,118.64 350.016,119.728 C350.784,120.816 351.168,122 351.168,123.28 C351.168,127.248 348.352,129.232 342.72,129.232 C338.496,129.232 333.792,128.432 328.608,126.832 C323.424,125.232 318.464,123.152 313.728,120.592 L313.728,120.592 L313.728,149.968 C318.976,152.144 324.256,153.68 329.568,154.576 C334.88,155.472 340.352,155.92 345.984,155.92 Z M39.936,315.92 C51.584,315.92 60.032,310.928 65.28,300.944 L65.28,300.944 L67.008,300.944 L71.04,314 L96.576,314 L96.576,207.824 L63.168,207.824 L63.168,258.512 C63.168,267.6 62.528,274.768 61.248,280.016 C59.968,285.264 56.64,287.888 51.264,287.888 C48.192,287.888 46.048,286.096 44.832,282.512 C43.616,278.928 43.008,273.552 43.008,266.384 L43.008,266.384 L43.008,207.824 L9.408,207.824 L9.408,276.944 C9.408,289.744 12.224,299.44 17.856,306.032 C23.488,312.624 30.848,315.92 39.936,315.92 Z M149.184,314 L149.18492,265.298812 C149.214347,254.145699 149.950041,246.155429 151.392,241.328 C152.864,236.4 155.904,233.936 160.512,233.936 C164.096,233.936 166.496,235.728 167.712,239.312 C168.928,242.896 169.536,248.208 169.536,255.248 L169.536,255.248 L169.536,314 L203.136,314 L203.136,244.88 C203.136,232.08 200.352,222.384 194.784,215.792 C189.216,209.2 181.76,205.904 172.416,205.904 C166.272,205.904 161.152,207.184 157.056,209.744 C152.96,212.304 149.632,216.08 147.072,221.072 L147.072,221.072 L145.728,221.072 L141.504,207.824 L115.776,207.824 L115.776,314 L149.184,314 Z M239.04,197.456 C244.544,197.456 248.864,196.176 252,193.616 C255.136,191.056 256.704,186.96 256.704,181.328 C256.704,175.568 255.168,171.408 252.096,168.848 C249.024,166.288 244.672,165.008 239.04,165.008 C233.28,165.008 228.896,166.288 225.888,168.848 C222.88,171.408 221.376,175.568 221.376,181.328 C221.376,186.96 222.944,191.056 226.08,193.616 C229.216,196.176 233.536,197.456 239.04,197.456 Z M255.552,314 L255.552,207.824 L222.144,207.824 L222.144,314 L255.552,314 Z M309.504,315.92 C314.624,315.92 319.136,315.376 323.04,314.288 C326.944,313.2 330.752,311.76 334.464,309.968 L334.464,309.968 L334.464,284.816 C331.776,285.84 329.248,286.704 326.88,287.408 C324.512,288.112 322.24,288.464 320.064,288.464 C314.944,288.464 312.384,285.008 312.384,278.096 L312.384,278.096 L312.384,233.936 L332.928,233.936 L332.928,207.824 L312.384,207.824 L312.384,186.512 L289.92,186.512 L282.048,208.784 L268.032,217.808 L268.032,233.936 L278.976,233.936 L278.976,279.056 C278.976,292.112 281.44,301.52 286.368,307.28 C291.296,313.04 299.008,315.92 309.504,315.92 Z M391.104,315.92 C404.672,315.92 415.872,313.36 424.704,308.24 L424.704,308.24 L424.704,282.512 C419.584,285.456 414.816,287.568 410.4,288.848 C405.984,290.128 401.152,290.768 395.904,290.768 C384,290.768 378.048,284.112 378.048,270.8 L378.048,270.8 L430.464,270.8 L430.464,254.48 C430.464,238.736 426.72,226.736 419.232,218.48 C411.744,210.224 401.408,206.096 388.224,206.096 C374.4,206.096 363.68,210.768 356.064,220.112 C348.448,229.456 344.64,243.216 344.64,261.392 C344.64,279.44 348.608,293.04 356.544,302.192 C364.48,311.344 376,315.92 391.104,315.92 Z M399.936,248.528 L378.048,248.528 C378.176,241.872 379.296,237.168 381.408,234.416 C383.52,231.664 386.112,230.288 389.184,230.288 C392.512,230.288 395.136,231.824 397.056,234.896 C398.976,237.968 399.936,242.512 399.936,248.528 L399.936,248.528 Z" transform="translate(0 105)"/>
        <circle cx="470" cy="407" r="12" fill="#FFF"/>
        <polygon fill="#062CFF" fill-rule="nonzero" points="448 0 448 213.95 506.5 213.95 506.5 389 643 155.6 565 155.6 643 0"/>
        <polygon fill="#FFF" fill-rule="nonzero" points="0 0 0 165 45 165 45 300 150 120 90 120 150 0" transform="translate(429 74)"/>
      </g>
    </g>
  </g>
</svg>
