<svg xmlns="http://www.w3.org/2000/svg" width="640" height="320" viewBox="0 0 640 320">
  <g fill="none" fill-rule="evenodd">
    <rect width="640" height="320" fill="#FF006C"/>
    <g fill-rule="nonzero" transform="translate(44.44 103.336)">
      <path fill="#FFF" d="M11.328,10.816 C13.1626667,10.816 14.6133333,10.3893333 15.68,9.536 C16.7466667,8.68266667 17.28,7.31733333 17.28,5.44 C17.28,3.52 16.7786667,2.13333333 15.776,1.28 C14.7733333,0.426666667 13.2906667,1.63424829e-13 11.328,1.63424829e-13 C9.45066667,1.63424829e-13 8.01066667,0.426666667 7.008,1.28 C6.00533333,2.13333333 5.504,3.52 5.504,5.44 C5.504,7.31733333 6.016,8.68266667 7.04,9.536 C8.064,10.3893333 9.49333333,10.816 11.328,10.816 Z M5.696,65.024 C9.45066667,65.024 12.2666667,63.936 14.144,61.76 C16.0213333,59.584 16.96,56.512 16.96,52.544 L16.96,52.544 L16.96,14.272 L5.76,14.272 L5.76,51.2 C5.76,52.864 5.51466667,54.048 5.024,54.752 C4.53333333,55.456 3.84,55.808 2.944,55.808 C2.09066667,55.808 1.10933333,55.616 -3.41060513e-13,55.232 L-3.41060513e-13,55.232 L-3.41060513e-13,64.256 C0.853333333,64.512 1.80266667,64.704 2.848,64.832 C3.89333333,64.96 4.84266667,65.024 5.696,65.024 Z M37.312,50.304 C40.8533333,50.304 43.7333333,49.4613333 45.952,47.776 C48.1706667,46.0906667 49.792,43.8506667 50.816,41.056 C51.84,38.2613333 52.352,35.2 52.352,31.872 C52.352,27.9893333 51.7226667,24.6933333 50.464,21.984 C49.2053333,19.2746667 47.456,17.2053333 45.216,15.776 C42.976,14.3466667 40.384,13.632 37.44,13.632 C33.984,13.632 31.136,14.4106667 28.896,15.968 C26.656,17.5253333 24.992,19.68 23.904,22.432 C22.816,25.184 22.272,28.3306667 22.272,31.872 C22.272,35.2426667 22.8373333,38.3253333 23.968,41.12 C25.0986667,43.9146667 26.784,46.144 29.024,47.808 C31.264,49.472 34.0266667,50.304 37.312,50.304 Z M37.376,41.536 C36.0106667,41.536 35.04,40.7146667 34.464,39.072 C33.888,37.4293333 33.6,35.0506667 33.6,31.936 C33.6,28.6933333 33.888,26.2933333 34.464,24.736 C35.04,23.1786667 36.0106667,22.4 37.376,22.4 C38.7413333,22.4 39.7013333,23.1893333 40.256,24.768 C40.8106667,26.3466667 41.088,28.7146667 41.088,31.872 C41.088,35.072 40.8106667,37.4826667 40.256,39.104 C39.7013333,40.7253333 38.7413333,41.536 37.376,41.536 Z M63.424,10.816 C65.2586667,10.816 66.6986667,10.3893333 67.744,9.536 C68.7893333,8.68266667 69.312,7.31733333 69.312,5.44 C69.312,3.52 68.8,2.13333333 67.776,1.28 C66.752,0.426666667 65.3013333,1.63424829e-13 63.424,1.63424829e-13 C61.504,1.63424829e-13 60.0426667,0.426666667 59.04,1.28 C58.0373333,2.13333333 57.536,3.52 57.536,5.44 C57.536,7.31733333 58.0586667,8.68266667 59.104,9.536 C60.1493333,10.3893333 61.5893333,10.816 63.424,10.816 Z M68.928,49.664 L68.928,14.272 L57.792,14.272 L57.792,49.664 L68.928,49.664 Z M86.656,49.664 L86.656,33.664 C86.656,29.824 86.9013333,27.0826667 87.392,25.44 C87.8826667,23.7973333 88.896,22.976 90.432,22.976 C91.6266667,22.976 92.4266667,23.5733333 92.832,24.768 C93.2373333,25.9626667 93.44,27.7333333 93.44,30.08 L93.44,30.08 L93.44,49.664 L104.64,49.664 L104.64,26.624 C104.64,22.3573333 103.712,19.1253333 101.856,16.928 C100,14.7306667 97.5146667,13.632 94.4,13.632 C92.352,13.632 90.6453333,14.0586667 89.28,14.912 C87.9146667,15.7653333 86.8053333,17.024 85.952,18.688 L85.952,18.688 L85.504,18.688 L84.096,14.272 L75.52,14.272 L75.52,49.664 L86.656,49.664 Z M137.088,50.304 C140.629333,50.304 143.509333,49.4613333 145.728,47.776 C147.946667,46.0906667 149.568,43.8506667 150.592,41.056 C151.616,38.2613333 152.128,35.2 152.128,31.872 C152.128,27.9893333 151.498667,24.6933333 150.24,21.984 C148.981333,19.2746667 147.232,17.2053333 144.992,15.776 C142.752,14.3466667 140.16,13.632 137.216,13.632 C133.76,13.632 130.912,14.4106667 128.672,15.968 C126.432,17.5253333 124.768,19.68 123.68,22.432 C122.592,25.184 122.048,28.3306667 122.048,31.872 C122.048,35.2426667 122.613333,38.3253333 123.744,41.12 C124.874667,43.9146667 126.56,46.144 128.8,47.808 C131.04,49.472 133.802667,50.304 137.088,50.304 Z M137.152,41.536 C135.786667,41.536 134.816,40.7146667 134.24,39.072 C133.664,37.4293333 133.376,35.0506667 133.376,31.936 C133.376,28.6933333 133.664,26.2933333 134.24,24.736 C134.816,23.1786667 135.786667,22.4 137.152,22.4 C138.517333,22.4 139.477333,23.1893333 140.032,24.768 C140.586667,26.3466667 140.864,28.7146667 140.864,31.872 C140.864,35.072 140.586667,37.4826667 140.032,39.104 C139.477333,40.7253333 138.517333,41.536 137.152,41.536 Z M167.616,50.304 C171.498667,50.304 174.314667,48.64 176.064,45.312 L176.064,45.312 L176.64,45.312 L177.984,49.664 L186.496,49.664 L186.496,14.272 L175.36,14.272 L175.36,31.168 C175.36,34.1973333 175.146667,36.5866667 174.72,38.336 C174.293333,40.0853333 173.184,40.96 171.392,40.96 C170.368,40.96 169.653333,40.3626667 169.248,39.168 C168.842667,37.9733333 168.64,36.1813333 168.64,33.792 L168.64,33.792 L168.64,14.272 L157.44,14.272 L157.44,37.312 C157.44,41.5786667 158.378667,44.8106667 160.256,47.008 C162.133333,49.2053333 164.586667,50.304 167.616,50.304 Z M204.096,49.664 L204.096,32 C204.096,29.3973333 204.629333,27.5626667 205.696,26.496 C206.762667,25.4293333 208.128,24.896 209.792,24.896 C210.688,24.896 211.413333,24.928 211.968,24.992 C212.522667,25.056 213.013333,25.152 213.44,25.28 L213.44,25.28 L214.336,14.016 C213.312,13.76 212.288,13.632 211.264,13.632 C210.112,13.632 209.034667,13.9413333 208.032,14.56 C207.029333,15.1786667 206.154667,15.968 205.408,16.928 C204.661333,17.888 204.053333,18.88 203.584,19.904 L203.584,19.904 L203.008,19.904 L201.344,14.272 L192.896,14.272 L192.896,49.664 L204.096,49.664 Z"/>
      <path fill="#002CFF" d="M19.584,114.304 C21.504,114.304 23.264,114.058667 24.864,113.568 C26.464,113.077333 27.9253333,112.362667 29.248,111.424 L29.248,111.424 L29.248,102.336 C26.8586667,104.256 24.448,105.216 22.016,105.216 C20.1386667,105.216 18.656,104.469333 17.568,102.976 C16.48,101.482667 15.936,99.2 15.936,96.128 C15.936,93.056 16.48,90.72 17.568,89.12 C18.656,87.52 20.0746667,86.72 21.824,86.72 C22.72,86.72 23.6373333,86.8906667 24.576,87.232 C25.5146667,87.5733333 26.4106667,88 27.264,88.512 L27.264,88.512 L30.144,80.32 C28.6506667,79.4666667 27.072,78.8053333 25.408,78.336 C23.744,77.8666667 21.952,77.632 20.032,77.632 C16.6613333,77.632 13.8346667,78.4 11.552,79.936 C9.26933333,81.472 7.54133333,83.6373333 6.368,86.432 C5.19466667,89.2266667 4.608,92.4586667 4.608,96.128 C4.608,102.4 5.90933333,106.997333 8.512,109.92 C11.1146667,112.842667 14.8053333,114.304 19.584,114.304 Z M48.704,114.304 C52.2453333,114.304 55.1253333,113.461333 57.344,111.776 C59.5626667,110.090667 61.184,107.850667 62.208,105.056 C63.232,102.261333 63.744,99.2 63.744,95.872 C63.744,91.9893333 63.1146667,88.6933333 61.856,85.984 C60.5973333,83.2746667 58.848,81.2053333 56.608,79.776 C54.368,78.3466667 51.776,77.632 48.832,77.632 C45.376,77.632 42.528,78.4106667 40.288,79.968 C38.048,81.5253333 36.384,83.68 35.296,86.432 C34.208,89.184 33.664,92.3306667 33.664,95.872 C33.664,99.2426667 34.2293333,102.325333 35.36,105.12 C36.4906667,107.914667 38.176,110.144 40.416,111.808 C42.656,113.472 45.4186667,114.304 48.704,114.304 Z M48.768,105.536 C47.4026667,105.536 46.432,104.714667 45.856,103.072 C45.28,101.429333 44.992,99.0506667 44.992,95.936 C44.992,92.6933333 45.28,90.2933333 45.856,88.736 C46.432,87.1786667 47.4026667,86.4 48.768,86.4 C50.1333333,86.4 51.0933333,87.1893333 51.648,88.768 C52.2026667,90.3466667 52.48,92.7146667 52.48,95.872 C52.48,99.072 52.2026667,101.482667 51.648,103.104 C51.0933333,104.725333 50.1333333,105.536 48.768,105.536 Z M80.256,113.664 L80.256,97.92 C80.256,94.1653333 80.512,91.4026667 81.024,89.632 C81.536,87.8613333 82.5173333,86.976 83.968,86.976 C85.8453333,86.976 86.784,89.3653333 86.784,94.144 L86.784,94.144 L86.784,113.664 L97.92,113.664 L97.92,96.896 C97.92,93.5253333 98.1653333,91.0293333 98.656,89.408 C99.1466667,87.7866667 100.117333,86.976 101.568,86.976 C102.549333,86.976 103.274667,87.552 103.744,88.704 C104.213333,89.856 104.448,91.6693333 104.448,94.144 L104.448,94.144 L104.448,113.664 L115.648,113.664 L115.648,90.624 C115.648,86.1866667 114.794667,82.912 113.088,80.8 C111.381333,78.688 108.842667,77.632 105.472,77.632 C103.552,77.632 101.909333,78.048 100.544,78.88 C99.1786667,79.712 98.0693333,80.8746667 97.216,82.368 L97.216,82.368 L96.704,82.368 C95.9786667,80.96 94.9653333,79.8186667 93.664,78.944 C92.3626667,78.0693333 90.6453333,77.632 88.512,77.632 C86.2506667,77.632 84.3733333,78.0693333 82.88,78.944 C81.3866667,79.8186667 80.2773333,81.0453333 79.552,82.624 L79.552,82.624 L79.104,82.624 L77.696,78.272 L69.12,78.272 L69.12,113.664 L80.256,113.664 Z M133.12,113.664 L133.12,97.92 C133.12,94.1653333 133.376,91.4026667 133.888,89.632 C134.4,87.8613333 135.381333,86.976 136.832,86.976 C138.709333,86.976 139.648,89.3653333 139.648,94.144 L139.648,94.144 L139.648,113.664 L150.784,113.664 L150.784,96.896 C150.784,93.5253333 151.029333,91.0293333 151.52,89.408 C152.010667,87.7866667 152.981333,86.976 154.432,86.976 C155.413333,86.976 156.138667,87.552 156.608,88.704 C157.077333,89.856 157.312,91.6693333 157.312,94.144 L157.312,94.144 L157.312,113.664 L168.512,113.664 L168.512,90.624 C168.512,86.1866667 167.658667,82.912 165.952,80.8 C164.245333,78.688 161.706667,77.632 158.336,77.632 C156.416,77.632 154.773333,78.048 153.408,78.88 C152.042667,79.712 150.933333,80.8746667 150.08,82.368 L150.08,82.368 L149.568,82.368 C148.842667,80.96 147.829333,79.8186667 146.528,78.944 C145.226667,78.0693333 143.509333,77.632 141.376,77.632 C139.114667,77.632 137.237333,78.0693333 135.744,78.944 C134.250667,79.8186667 133.141333,81.0453333 132.416,82.624 L132.416,82.624 L131.968,82.624 L130.56,78.272 L121.984,78.272 L121.984,113.664 L133.12,113.664 Z M184.96,114.304 C188.842667,114.304 191.658667,112.64 193.408,109.312 L193.408,109.312 L193.984,109.312 L195.328,113.664 L203.84,113.664 L203.84,78.272 L192.704,78.272 L192.704,95.168 C192.704,98.1973333 192.490667,100.586667 192.064,102.336 C191.637333,104.085333 190.528,104.96 188.736,104.96 C187.712,104.96 186.997333,104.362667 186.592,103.168 C186.186667,101.973333 185.984,100.181333 185.984,97.792 L185.984,97.792 L185.984,78.272 L174.784,78.272 L174.784,101.312 C174.784,105.578667 175.722667,108.810667 177.6,111.008 C179.477333,113.205333 181.930667,114.304 184.96,114.304 Z M221.376,113.664 L221.376,97.664 C221.376,93.824 221.621333,91.0826667 222.112,89.44 C222.602667,87.7973333 223.616,86.976 225.152,86.976 C226.346667,86.976 227.146667,87.5733333 227.552,88.768 C227.957333,89.9626667 228.16,91.7333333 228.16,94.08 L228.16,94.08 L228.16,113.664 L239.36,113.664 L239.36,90.624 C239.36,86.3573333 238.432,83.1253333 236.576,80.928 C234.72,78.7306667 232.234667,77.632 229.12,77.632 C227.072,77.632 225.365333,78.0586667 224,78.912 C222.634667,79.7653333 221.525333,81.024 220.672,82.688 L220.672,82.688 L220.224,82.688 L218.816,78.272 L210.24,78.272 L210.24,113.664 L221.376,113.664 Z M251.328,74.816 C253.162667,74.816 254.602667,74.3893333 255.648,73.536 C256.693333,72.6826667 257.216,71.3173333 257.216,69.44 C257.216,67.52 256.704,66.1333333 255.68,65.28 C254.656,64.4266667 253.205333,64 251.328,64 C249.408,64 247.946667,64.4266667 246.944,65.28 C245.941333,66.1333333 245.44,67.52 245.44,69.44 C245.44,71.3173333 245.962667,72.6826667 247.008,73.536 C248.053333,74.3893333 249.493333,74.816 251.328,74.816 Z M256.832,113.664 L256.832,78.272 L245.696,78.272 L245.696,113.664 L256.832,113.664 Z M274.816,114.304 C276.522667,114.304 278.026667,114.122667 279.328,113.76 C280.629333,113.397333 281.898667,112.917333 283.136,112.32 L283.136,112.32 L283.136,103.936 C282.24,104.277333 281.397333,104.565333 280.608,104.8 C279.818667,105.034667 279.061333,105.152 278.336,105.152 C276.629333,105.152 275.776,104 275.776,101.696 L275.776,101.696 L275.776,86.976 L282.624,86.976 L282.624,78.272 L275.776,78.272 L275.776,71.168 L268.288,71.168 L265.664,78.592 L260.992,81.6 L260.992,86.976 L264.64,86.976 L264.64,102.016 C264.64,106.368 265.461333,109.504 267.104,111.424 C268.746667,113.344 271.317333,114.304 274.816,114.304 Z M292.416,129.024 C296.128,129.024 299.029333,128.010667 301.12,125.984 C303.210667,123.957333 304.96,120.597333 306.368,115.904 L306.368,115.904 L317.568,78.272 L306.112,78.272 L302.144,95.232 C301.888,96.256 301.696,97.1946667 301.568,98.048 C301.44,98.9013333 301.354667,99.6906667 301.312,100.416 L301.312,100.416 L301.056,100.416 C300.970667,98.7946667 300.693333,97.024 300.224,95.104 L300.224,95.104 L296.256,78.272 L284.544,78.272 L295.808,113.152 L295.616,113.856 C294.976,116.117333 294.357333,117.653333 293.76,118.464 C293.162667,119.274667 292.138667,119.68 290.688,119.68 C290.218667,119.68 289.738667,119.637333 289.248,119.552 C288.757333,119.466667 288.298667,119.381333 287.872,119.296 L287.872,119.296 L287.872,128.512 C288.512,128.682667 289.205333,128.810667 289.952,128.896 C290.698667,128.981333 291.52,129.024 292.416,129.024 Z"/>
    </g>
    <path fill="#002CFF" fill-rule="nonzero" d="M429.625,216.125 C440.041667,187.6875 453.192708,164.145833 469.078125,145.5 C484.963542,126.854167 503.791667,111.020833 525.5625,98 L525.5625,98 L543.375,87.53125 L525.5625,76.90625 C503.791667,64.09375 485.015625,48.3645833 469.234375,29.71875 C453.453125,11.0729167 440.354167,-12.5729167 429.9375,-41.21875 C419.729167,-13.09375 406.578125,10.3958333 390.484375,29.25 C374.390625,48.1041667 355.458333,63.9895833 333.6875,76.90625 L333.6875,76.90625 L316.1875,87.53125 L333.6875,98 C349.9375,107.6875 363.817708,118.234375 375.328125,129.640625 C386.838542,141.046875 396.760417,153.052083 405.09375,165.65625 C413.427083,178.260417 421.604167,195.083333 429.625,216.125 Z M429.625,158.3125 C421.5,145.1875 411.838542,132.661458 400.640625,120.734375 C389.442708,108.807292 376.760417,97.7395833 362.59375,87.53125 C375.927083,78.0520833 388.296875,67.3229167 399.703125,55.34375 C411.109375,43.3645833 421.083333,30.4479167 429.625,16.59375 C437.75,29.6145833 447.541667,42.2708333 459,54.5625 C470.458333,66.8541667 483.0625,77.84375 496.8125,87.53125 C482.333333,97.9479167 469.442708,109.276042 458.140625,121.515625 C446.838542,133.755208 437.333333,146.020833 429.625,158.3125 Z M583.375,236.90625 C591.1875,218.989583 600.171875,205.239583 610.328125,195.65625 C620.484375,186.072917 632.333333,178 645.875,171.4375 L645.875,171.4375 L665.5625,161.75 L645.875,152.0625 C631.083333,144.875 618.713542,136.151042 608.765625,125.890625 C598.817708,115.630208 590.40625,102.53125 583.53125,86.59375 C576.447917,102.739583 567.854167,115.942708 557.75,126.203125 C547.645833,136.463542 535.40625,145.083333 521.03125,152.0625 L521.03125,152.0625 L501.5,161.75 L521.03125,171.4375 C536.135417,178.9375 548.6875,187.713542 558.6875,197.765625 C568.6875,207.817708 576.916667,220.864583 583.375,236.90625 Z M583.53125,194.09375 C579.885417,189.510417 575.09375,184.328125 569.15625,178.546875 C563.21875,172.765625 555.979167,167.166667 547.4375,161.75 C555.979167,156.333333 563.21875,150.734375 569.15625,144.953125 C575.09375,139.171875 579.885417,133.989583 583.53125,129.40625 C587.072917,133.989583 591.786458,139.145833 597.671875,144.875 C603.557292,150.604167 610.822917,156.229167 619.46875,161.75 C610.822917,167.270833 603.557292,172.895833 597.671875,178.625 C591.786458,184.354167 587.072917,189.510417 583.53125,194.09375 Z M490.09375,326.59375 C496.96875,306.697917 504.416667,291.697917 512.4375,281.59375 C520.458333,271.489583 530.25,262.84375 541.8125,255.65625 L541.8125,255.65625 L556.65625,246.4375 L541.8125,237.375 C530.145833,230.083333 520.276042,221.359375 512.203125,211.203125 C504.130208,201.046875 496.760417,186.177083 490.09375,166.59375 C483.635417,185.552083 476.291667,200.265625 468.0625,210.734375 C459.833333,221.203125 449.885417,230.083333 438.21875,237.375 L438.21875,237.375 L423.375,246.4375 L438.21875,255.65625 C450.197917,263.15625 460.197917,272.088542 468.21875,282.453125 C476.239583,292.817708 483.53125,307.53125 490.09375,326.59375 Z M490.09375,276.28125 C487.177083,272.010417 483.427083,267.244792 478.84375,261.984375 C474.260417,256.723958 468.791667,251.541667 462.4375,246.4375 C468.6875,241.4375 474.104167,236.385417 478.6875,231.28125 C483.270833,226.177083 487.072917,221.385417 490.09375,216.90625 C493.114583,221.385417 496.890625,226.203125 501.421875,231.359375 C505.953125,236.515625 511.291667,241.541667 517.4375,246.4375 C511.1875,251.541667 505.796875,256.723958 501.265625,261.984375 C496.734375,267.244792 493.010417,272.010417 490.09375,276.28125 Z"/>
  </g>
</svg>
