<svg xmlns="http://www.w3.org/2000/svg" xmlns:xlink="http://www.w3.org/1999/xlink" width="1200" height="628" viewBox="0 0 1200 628">
  <defs>
    <rect id="communication-a" width="1104" height="532" x="48" y="48" rx="24"/>
  </defs>
  <g fill="none" fill-rule="evenodd">
    <rect width="1200" height="628" fill="#FFF"/>
    <path fill="#FF006C" d="M80,580 L1120,580 C1120,588.836556 1112.83656,596 1104,596 L96,596 C87.163444,596 80,588.836556 80,580 L80,580 L80,580 Z" opacity=".5"/>
    <mask id="communication-b" fill="#fff">
      <use xlink:href="#communication-a"/>
    </mask>
    <use fill="#FF006C" xlink:href="#communication-a"/>
    <g fill-rule="nonzero" mask="url(#communication-b)">
      <g transform="translate(111 218)">
        <path fill="#062CFF" d="M969,102 L949,102 L949,192 L819,192 L819,212 C819,217.522847 823.477153,222 829,222 L939,222 L979,262 L979,112 C979,106.477153 974.522847,102 969,102 Z"/>
        <path fill="#FFF" d="M927,10 C927,4.4771525 924.522847,1.42108547e-14 919,1.42108547e-14 L10,1.54888574 C4.4771525,1.54888574 0,6.02603824 0,11.5488857 L0,213.548886 L40,173.548886 L919,172 C924.522847,172 929,167.522847 929,162 L927,10 Z"/>
        <path fill="#FF006C" d="M68.32,131.28 C76.256,131.28 83.3813333,129.573333 89.696,126.16 L89.696,126.16 L89.696,106.32 C86.7946667,107.941333 83.8933333,109.306667 80.992,110.416 C78.0906667,111.525333 75.0613333,112.08 71.904,112.08 C61.92,112.08 56.928,102.949333 56.928,84.688 C56.928,75.8986667 58.1013333,69.008 60.448,64.016 C62.7946667,59.024 66.1866667,56.528 70.624,56.528 C73.6106667,56.528 76.4053333,57.04 79.008,58.064 C81.6106667,59.088 84.1493333,60.4533333 86.624,62.16 L86.624,62.16 L93.024,43.728 C89.2693333,41.5946667 85.3226667,39.9946667 81.184,38.928 C77.0453333,37.8613333 72.9706667,37.328 68.96,37.328 C61.4506667,37.328 55.008,39.312 49.632,43.28 C44.256,47.248 40.1386667,52.7946667 37.28,59.92 C34.4213333,67.0453333 32.992,75.2586667 32.992,84.56 C32.992,99.3226667 35.9146667,110.8 41.76,118.992 C47.6053333,127.184 56.4586667,131.28 68.32,131.28 Z M130.272,131.28 C137.354667,131.28 143.114667,129.594667 147.552,126.224 C151.989333,122.853333 155.232,118.373333 157.28,112.784 C159.328,107.194667 160.352,101.072 160.352,94.416 C160.352,86.6506667 159.093333,80.0586667 156.576,74.64 C154.058667,69.2213333 150.56,65.0826667 146.08,62.224 C141.6,59.3653333 136.416,57.936 130.528,57.936 C123.616,57.936 117.92,59.4933333 113.44,62.608 C108.96,65.7226667 105.632,70.032 103.456,75.536 C101.28,81.04 100.192,87.3333333 100.192,94.416 C100.192,101.157333 101.322667,107.322667 103.584,112.912 C105.845333,118.501333 109.216,122.96 113.696,126.288 C118.176,129.616 123.701333,131.28 130.272,131.28 Z M130.4,113.744 C127.669333,113.744 125.728,112.101333 124.576,108.816 C123.424,105.530667 122.848,100.773333 122.848,94.544 C122.848,88.0586667 123.424,83.2586667 124.576,80.144 C125.728,77.0293333 127.669333,75.472 130.4,75.472 C133.130667,75.472 135.050667,77.0506667 136.16,80.208 C137.269333,83.3653333 137.824,88.1013333 137.824,94.416 C137.824,100.816 137.269333,105.637333 136.16,108.88 C135.050667,112.122667 133.130667,113.744 130.4,113.744 Z M193.376,130 L193.376,98.512 C193.376,91.0026667 193.888,85.4773333 194.912,81.936 C195.936,78.3946667 197.898667,76.624 200.8,76.624 C204.554667,76.624 206.432,81.4026667 206.432,90.96 L206.432,90.96 L206.432,130 L228.704,130 L228.704,96.464 C228.704,89.7226667 229.194667,84.7306667 230.176,81.488 C231.157333,78.2453333 233.098667,76.624 236,76.624 C237.962667,76.624 239.413333,77.776 240.352,80.08 C241.290667,82.384 241.76,86.0106667 241.76,90.96 L241.76,90.96 L241.76,130 L264.16,130 L264.16,83.92 C264.16,75.0453333 262.453333,68.496 259.04,64.272 C255.626667,60.048 250.549333,57.936 243.808,57.936 C239.968,57.936 236.682667,58.768 233.952,60.432 C231.221333,62.096 229.002667,64.4213333 227.296,67.408 L227.296,67.408 L226.272,67.408 C224.821333,64.592 222.794667,62.3093333 220.192,60.56 C217.589333,58.8106667 214.154667,57.936 209.888,57.936 C205.365333,57.936 201.610667,58.8106667 198.624,60.56 C195.637333,62.3093333 193.418667,64.7626667 191.968,67.92 L191.968,67.92 L191.072,67.92 L188.256,59.216 L171.104,59.216 L171.104,130 L193.376,130 Z M299.104,130 L299.104,98.512 C299.104,91.0026667 299.616,85.4773333 300.64,81.936 C301.664,78.3946667 303.626667,76.624 306.528,76.624 C310.282667,76.624 312.16,81.4026667 312.16,90.96 L312.16,90.96 L312.16,130 L334.432,130 L334.432,96.464 C334.432,89.7226667 334.922667,84.7306667 335.904,81.488 C336.885333,78.2453333 338.826667,76.624 341.728,76.624 C343.690667,76.624 345.141333,77.776 346.08,80.08 C347.018667,82.384 347.488,86.0106667 347.488,90.96 L347.488,90.96 L347.488,130 L369.888,130 L369.888,83.92 C369.888,75.0453333 368.181333,68.496 364.768,64.272 C361.354667,60.048 356.277333,57.936 349.536,57.936 C345.696,57.936 342.410667,58.768 339.68,60.432 C336.949333,62.096 334.730667,64.4213333 333.024,67.408 L333.024,67.408 L332,67.408 C330.549333,64.592 328.522667,62.3093333 325.92,60.56 C323.317333,58.8106667 319.882667,57.936 315.616,57.936 C311.093333,57.936 307.338667,58.8106667 304.352,60.56 C301.365333,62.3093333 299.146667,64.7626667 297.696,67.92 L297.696,67.92 L296.8,67.92 L293.984,59.216 L276.832,59.216 L276.832,130 L299.104,130 Z M402.784,131.28 C410.549333,131.28 416.181333,127.952 419.68,121.296 L419.68,121.296 L420.832,121.296 L423.52,130 L440.544,130 L440.544,59.216 L418.272,59.216 L418.272,93.008 C418.272,99.0666667 417.845333,103.845333 416.992,107.344 C416.138667,110.842667 413.92,112.592 410.336,112.592 C408.288,112.592 406.858667,111.397333 406.048,109.008 C405.237333,106.618667 404.832,103.034667 404.832,98.256 L404.832,98.256 L404.832,59.216 L382.432,59.216 L382.432,105.296 C382.432,113.829333 384.309333,120.293333 388.064,124.688 C391.818667,129.082667 396.725333,131.28 402.784,131.28 Z M475.616,130 L475.616,98 C475.616,90.32 476.106667,84.8373333 477.088,81.552 C478.069333,78.2666667 480.096,76.624 483.168,76.624 C485.557333,76.624 487.157333,77.8186667 487.968,80.208 C488.778667,82.5973333 489.184,86.1386667 489.184,90.832 L489.184,90.832 L489.184,130 L511.584,130 L511.584,83.92 C511.584,75.3866667 509.728,68.9226667 506.016,64.528 C502.304,60.1333333 497.333333,57.936 491.104,57.936 C487.008,57.936 483.594667,58.7893333 480.864,60.496 C478.133333,62.2026667 475.914667,64.72 474.208,68.048 L474.208,68.048 L473.312,68.048 L470.496,59.216 L453.344,59.216 L453.344,130 L475.616,130 Z M535.52,52.304 C539.189333,52.304 542.069333,51.4506667 544.16,49.744 C546.250667,48.0373333 547.296,45.3066667 547.296,41.552 C547.296,37.712 546.272,34.9386667 544.224,33.232 C542.176,31.5253333 539.274667,30.672 535.52,30.672 C531.68,30.672 528.757333,31.5253333 526.752,33.232 C524.746667,34.9386667 523.744,37.712 523.744,41.552 C523.744,45.3066667 524.789333,48.0373333 526.88,49.744 C528.970667,51.4506667 531.850667,52.304 535.52,52.304 Z M546.528,130 L546.528,59.216 L524.256,59.216 L524.256,130 L546.528,130 Z M587.36,131.28 C591.2,131.28 594.72,130.789333 597.92,129.808 C601.12,128.826667 604.042667,127.397333 606.688,125.52 L606.688,125.52 L606.688,107.344 C601.909333,111.184 597.088,113.104 592.224,113.104 C588.469333,113.104 585.504,111.610667 583.328,108.624 C581.152,105.637333 580.064,101.072 580.064,94.928 C580.064,88.784 581.152,84.112 583.328,80.912 C585.504,77.712 588.341333,76.112 591.84,76.112 C593.632,76.112 595.466667,76.4533333 597.344,77.136 C599.221333,77.8186667 601.013333,78.672 602.72,79.696 L602.72,79.696 L608.48,63.312 C605.493333,61.6053333 602.336,60.2826667 599.008,59.344 C595.68,58.4053333 592.096,57.936 588.256,57.936 C581.514667,57.936 575.861333,59.472 571.296,62.544 C566.730667,65.616 563.274667,69.9466667 560.928,75.536 C558.581333,81.1253333 557.408,87.5893333 557.408,94.928 C557.408,107.472 560.010667,116.666667 565.216,122.512 C570.421333,128.357333 577.802667,131.28 587.36,131.28 Z M632.288,131.28 C636.981333,131.28 640.714667,130.426667 643.488,128.72 C646.261333,127.013333 648.885333,124.325333 651.36,120.656 L651.36,120.656 L651.744,120.656 L655.712,130 L671.456,130 L671.456,83.536 C671.456,75.0026667 669.322667,68.6026667 665.056,64.336 C660.789333,60.0693333 655.029333,57.936 647.776,57.936 C642.314667,57.936 637.344,58.4906667 632.864,59.6 C628.384,60.7093333 624.352,62.288 620.768,64.336 L620.768,64.336 L626.656,79.952 C632.970667,76.4533333 638.261333,74.704 642.528,74.704 C646.88,74.704 649.056,77.6053333 649.056,83.408 L649.056,83.408 L649.056,84.944 L639.584,85.328 C631.562667,85.6693333 625.418667,87.696 621.152,91.408 C616.885333,95.12 614.752,100.773333 614.752,108.368 C614.752,112.549333 615.392,116.389333 616.672,119.888 C617.952,123.386667 619.893333,126.16 622.496,128.208 C625.098667,130.256 628.362667,131.28 632.288,131.28 Z M642.144,114.512 C638.816,114.512 637.152,112.122667 637.152,107.344 C637.152,101.882667 639.882667,98.9813333 645.344,98.64 L645.344,98.64 L649.184,98.384 L649.184,104.4 C649.184,107.386667 648.48,109.818667 647.072,111.696 C645.664,113.573333 644.021333,114.512 642.144,114.512 Z M706.912,131.28 C710.325333,131.28 713.333333,130.917333 715.936,130.192 C718.538667,129.466667 721.077333,128.506667 723.552,127.312 L723.552,127.312 L723.552,110.544 C721.76,111.226667 720.074667,111.802667 718.496,112.272 C716.917333,112.741333 715.402667,112.976 713.952,112.976 C710.538667,112.976 708.832,110.672 708.832,106.064 L708.832,106.064 L708.832,76.624 L722.528,76.624 L722.528,59.216 L708.832,59.216 L708.832,45.008 L693.856,45.008 L688.608,59.856 L679.264,65.872 L679.264,76.624 L686.56,76.624 L686.56,106.704 C686.56,115.408 688.202667,121.68 691.488,125.52 C694.773333,129.36 699.914667,131.28 706.912,131.28 Z M744.032,52.304 C747.701333,52.304 750.581333,51.4506667 752.672,49.744 C754.762667,48.0373333 755.808,45.3066667 755.808,41.552 C755.808,37.712 754.784,34.9386667 752.736,33.232 C750.688,31.5253333 747.786667,30.672 744.032,30.672 C740.192,30.672 737.269333,31.5253333 735.264,33.232 C733.258667,34.9386667 732.256,37.712 732.256,41.552 C732.256,45.3066667 733.301333,48.0373333 735.392,49.744 C737.482667,51.4506667 740.362667,52.304 744.032,52.304 Z M755.04,130 L755.04,59.216 L732.768,59.216 L732.768,130 L755.04,130 Z M796,131.28 C803.082667,131.28 808.842667,129.594667 813.28,126.224 C817.717333,122.853333 820.96,118.373333 823.008,112.784 C825.056,107.194667 826.08,101.072 826.08,94.416 C826.08,86.6506667 824.821333,80.0586667 822.304,74.64 C819.786667,69.2213333 816.288,65.0826667 811.808,62.224 C807.328,59.3653333 802.144,57.936 796.256,57.936 C789.344,57.936 783.648,59.4933333 779.168,62.608 C774.688,65.7226667 771.36,70.032 769.184,75.536 C767.008,81.04 765.92,87.3333333 765.92,94.416 C765.92,101.157333 767.050667,107.322667 769.312,112.912 C771.573333,118.501333 774.944,122.96 779.424,126.288 C783.904,129.616 789.429333,131.28 796,131.28 Z M796.128,113.744 C793.397333,113.744 791.456,112.101333 790.304,108.816 C789.152,105.530667 788.576,100.773333 788.576,94.544 C788.576,88.0586667 789.152,83.2586667 790.304,80.144 C791.456,77.0293333 793.397333,75.472 796.128,75.472 C798.858667,75.472 800.778667,77.0506667 801.888,80.208 C802.997333,83.3653333 803.552,88.1013333 803.552,94.416 C803.552,100.816 802.997333,105.637333 801.888,108.88 C800.778667,112.122667 798.858667,113.744 796.128,113.744 Z M859.104,130 L859.104,98 C859.104,90.32 859.594667,84.8373333 860.576,81.552 C861.557333,78.2666667 863.584,76.624 866.656,76.624 C869.045333,76.624 870.645333,77.8186667 871.456,80.208 C872.266667,82.5973333 872.672,86.1386667 872.672,90.832 L872.672,90.832 L872.672,130 L895.072,130 L895.072,83.92 C895.072,75.3866667 893.216,68.9226667 889.504,64.528 C885.792,60.1333333 880.821333,57.936 874.592,57.936 C870.496,57.936 867.082667,58.7893333 864.352,60.496 C861.621333,62.2026667 859.402667,64.72 857.696,68.048 L857.696,68.048 L856.8,68.048 L853.984,59.216 L836.832,59.216 L836.832,130 L859.104,130 Z"/>
      </g>
    </g>
  </g>
</svg>
