<svg xmlns="http://www.w3.org/2000/svg" width="29" height="35" viewBox="0 0 29 35">
  <g fill="none" fill-rule="evenodd" transform="translate(-3 -1)">
    <polygon points="0 0 36 0 36 36 0 36"/>
    <path fill="#FFF" fill-rule="nonzero" d="M16.5,35.385 L16.5,29.985 C8.985,29.595 3,23.355 3,15.75 C3,7.89 9.39,1.5 17.25,1.5 C25.11,1.5 31.5,7.89 31.5,15.75 C31.5,23.175 26.34,30.645 18.645,34.35 L16.5,35.385 Z M17.25,4.5 C11.04,4.5 6,9.54 6,15.75 C6,21.96 11.04,27 17.25,27 L19.5,27 L19.5,30.45 C24.96,27 28.5,21.33 28.5,15.75 C28.5,9.54 23.46,4.5 17.25,4.5 Z M15.75,21.75 L18.75,21.75 L18.75,24.75 L15.75,24.75 L15.75,21.75 Z M18.75,19.5 L15.75,19.5 C15.75,14.625 20.25,15 20.25,12 C20.25,10.35 18.9,9 17.25,9 C15.6,9 14.25,10.35 14.25,12 L11.25,12 C11.25,8.685 13.935,6 17.25,6 C20.565,6 23.25,8.685 23.25,12 C23.25,15.75 18.75,16.125 18.75,19.5 Z"/>
  </g>
</svg>
