<svg xmlns="http://www.w3.org/2000/svg" xmlns:xlink="http://www.w3.org/1999/xlink" width="1200" height="628" viewBox="0 0 1200 628">
  <defs>
    <rect id="diversity-a" width="1104" height="532" x="48" y="48" rx="24"/>
  </defs>
  <g fill="none" fill-rule="evenodd">
    <rect width="1200" height="628" fill="#FFF"/>
    <path fill="#FF006C" d="M80,580 L1120,580 C1120,588.836556 1112.83656,596 1104,596 L96,596 C87.163444,596 80,588.836556 80,580 L80,580 L80,580 Z" opacity=".5"/>
    <mask id="diversity-b" fill="#fff">
      <use xlink:href="#diversity-a"/>
    </mask>
    <use fill="#FF006C" xlink:href="#diversity-a"/>
    <g fill-rule="nonzero" mask="url(#diversity-b)">
      <g transform="translate(169 211)">
        <path fill="#FFF" d="M17.1008,80.4864 C20.0362667,80.4864 22.3744,79.9061333 24.1152,78.7456 C25.856,77.5850667 27.5456,75.8101333 29.184,73.4208 L29.184,73.4208 L30.0032,73.4208 L33.0752,79.4624 L47.104,79.4624 L47.104,1.6384 L29.184,1.6384 L29.184,18.5344 C29.184,20.0362667 29.2352,21.7941333 29.3376,23.808 C29.44,25.8218667 29.5594667,27.9210667 29.696,30.1056 L29.696,30.1056 L29.2864,30.1056 C26.4192,24.576 22.3232,21.8112 16.9984,21.8112 C11.8784,21.8112 7.76533333,24.3712 4.6592,29.4912 C1.55306667,34.6112 -1.13686838e-13,41.8133333 -1.13686838e-13,51.0976 C-1.13686838e-13,60.3136 1.536,67.5157333 4.608,72.704 C7.68,77.8922667 11.8442667,80.4864 17.1008,80.4864 Z M23.552,66.1504 C21.9136,66.1504 20.5994667,64.9216 19.6096,62.464 C18.6197333,60.0064 18.1248,56.1834667 18.1248,50.9952 C18.1248,46.1482667 18.6197333,42.5130667 19.6096,40.0896 C20.5994667,37.6661333 21.9477333,36.4544 23.6544,36.4544 C25.8389333,36.4544 27.392,37.5466667 28.3136,39.7312 C29.2352,41.9157333 29.696,45.2608 29.696,49.7664 L29.696,49.7664 L29.696,52.5312 C29.696,57.3098667 29.2181333,60.7744 28.2624,62.9248 C27.3066667,65.0752 25.7365333,66.1504 23.552,66.1504 Z M66.3552,17.3056 C69.2906667,17.3056 71.5946667,16.6229333 73.2672,15.2576 C74.9397333,13.8922667 75.776,11.7077333 75.776,8.704 C75.776,5.632 74.9568,3.41333333 73.3184,2.048 C71.68,0.682666667 69.3589333,4.97379915e-14 66.3552,4.97379915e-14 C63.2832,4.97379915e-14 60.9450667,0.682666667 59.3408,2.048 C57.7365333,3.41333333 56.9344,5.632 56.9344,8.704 C56.9344,11.7077333 57.7706667,13.8922667 59.4432,15.2576 C61.1157333,16.6229333 63.4197333,17.3056 66.3552,17.3056 Z M75.1616,79.4624 L75.1616,22.8352 L57.344,22.8352 L57.344,79.4624 L75.1616,79.4624 Z M116.4288,79.4624 L133.5296,22.8352 L114.9952,22.8352 L108.7488,51.0976 C108.270933,53.2821333 107.895467,55.2789333 107.6224,57.088 C107.349333,58.8970667 107.178667,60.5525333 107.1104,62.0544 L107.1104,62.0544 L106.7008,62.0544 C106.496,58.7093333 105.949867,54.9888 105.0624,50.8928 L105.0624,50.8928 L99.328,22.8352 L80.6912,22.8352 L97.5872,79.4624 L116.4288,79.4624 Z M161.792,80.4864 C169.028267,80.4864 175.0016,79.1210667 179.712,76.3904 L179.712,76.3904 L179.712,62.6688 C176.981333,64.2389333 174.4384,65.3653333 172.0832,66.048 C169.728,66.7306667 167.150933,67.072 164.352,67.072 C158.0032,67.072 154.8288,63.5221333 154.8288,56.4224 L154.8288,56.4224 L182.784,56.4224 L182.784,47.7184 C182.784,39.3216 180.7872,32.9216 176.7936,28.5184 C172.8,24.1152 167.287467,21.9136 160.256,21.9136 C152.8832,21.9136 147.165867,24.4053333 143.104,29.3888 C139.042133,34.3722667 137.0112,41.7109333 137.0112,51.4048 C137.0112,61.0304 139.127467,68.2837333 143.36,73.1648 C147.592533,78.0458667 153.736533,80.4864 161.792,80.4864 Z M166.5024,44.544 L154.8288,44.544 C154.897067,40.9941333 155.4944,38.4853333 156.6208,37.0176 C157.7472,35.5498667 159.1296,34.816 160.768,34.816 C162.542933,34.816 163.9424,35.6352 164.9664,37.2736 C165.9904,38.912 166.5024,41.3354667 166.5024,44.544 L166.5024,44.544 Z M208.7936,79.4624 L208.7936,51.2 C208.7936,47.0357333 209.646933,44.1002667 211.3536,42.3936 C213.060267,40.6869333 215.2448,39.8336 217.9072,39.8336 C219.3408,39.8336 220.501333,39.8848 221.3888,39.9872 C222.276267,40.0896 223.061333,40.2432 223.744,40.448 L223.744,40.448 L225.1776,22.4256 C223.5392,22.016 221.9008,21.8112 220.2624,21.8112 C218.4192,21.8112 216.695467,22.3061333 215.0912,23.296 C213.486933,24.2858667 212.087467,25.5488 210.8928,27.0848 C209.698133,28.6208 208.725333,30.208 207.9744,31.8464 L207.9744,31.8464 L207.0528,31.8464 L204.3904,22.8352 L190.8736,22.8352 L190.8736,79.4624 L208.7936,79.4624 Z M246.0672,80.4864 C252.8256,80.4864 257.877333,78.8821333 261.2224,75.6736 C264.567467,72.4650667 266.24,67.9253333 266.24,62.0544 C266.24,57.4805333 265.198933,53.8794667 263.1168,51.2512 C261.034667,48.6229333 258.116267,46.3189333 254.3616,44.3392 C251.835733,42.9738667 249.975467,41.9157333 248.7808,41.1648 C247.586133,40.4138667 246.801067,39.7824 246.4256,39.2704 C246.050133,38.7584 245.8624,38.1952 245.8624,37.5808 C245.8624,35.8741333 246.920533,35.0208 249.0368,35.0208 C250.743467,35.0208 252.689067,35.4304 254.8736,36.2496 C257.058133,37.0688 259.140267,38.0586667 261.12,39.2192 L261.12,39.2192 L265.4208,26.624 C262.5536,25.0538667 259.754667,23.8592 257.024,23.04 C254.293333,22.2208 251.357867,21.8112 248.2176,21.8112 C242.141867,21.8112 237.380267,23.2618667 233.9328,26.1632 C230.485333,29.0645333 228.7616,33.1776 228.7616,38.5024 C228.7616,42.7349333 229.6832,46.2506667 231.5264,49.0496 C233.3696,51.8485333 236.066133,54.1354667 239.616,55.9104 C242.2784,57.2757333 244.2752,58.3509333 245.6064,59.136 C246.9376,59.9210667 247.808,60.6037333 248.2176,61.184 C248.6272,61.7642667 248.832,62.3957333 248.832,63.0784 C248.832,65.1946667 247.330133,66.2528 244.3264,66.2528 C242.0736,66.2528 239.5648,65.8261333 236.8,64.9728 C234.0352,64.1194667 231.389867,63.0101333 228.864,61.6448 L228.864,61.6448 L228.864,77.312 C231.662933,78.4725333 234.478933,79.2917333 237.312,79.7696 C240.145067,80.2474667 243.063467,80.4864 246.0672,80.4864 Z M283.2384,17.3056 C286.173867,17.3056 288.477867,16.6229333 290.1504,15.2576 C291.822933,13.8922667 292.6592,11.7077333 292.6592,8.704 C292.6592,5.632 291.84,3.41333333 290.2016,2.048 C288.5632,0.682666667 286.242133,4.97379915e-14 283.2384,4.97379915e-14 C280.1664,4.97379915e-14 277.828267,0.682666667 276.224,2.048 C274.619733,3.41333333 273.8176,5.632 273.8176,8.704 C273.8176,11.7077333 274.653867,13.8922667 276.3264,15.2576 C277.998933,16.6229333 280.302933,17.3056 283.2384,17.3056 Z M292.0448,79.4624 L292.0448,22.8352 L274.2272,22.8352 L274.2272,79.4624 L292.0448,79.4624 Z M320.8192,80.4864 C323.549867,80.4864 325.956267,80.1962667 328.0384,79.616 C330.120533,79.0357333 332.151467,78.2677333 334.1312,77.312 L334.1312,77.312 L334.1312,63.8976 C332.6976,64.4437333 331.349333,64.9045333 330.0864,65.28 C328.823467,65.6554667 327.611733,65.8432 326.4512,65.8432 C323.720533,65.8432 322.3552,64 322.3552,60.3136 L322.3552,60.3136 L322.3552,36.7616 L333.312,36.7616 L333.312,22.8352 L322.3552,22.8352 L322.3552,11.4688 L310.3744,11.4688 L306.176,23.3472 L298.7008,28.16 L298.7008,36.7616 L304.5376,36.7616 L304.5376,60.8256 C304.5376,67.7888 305.851733,72.8064 308.48,75.8784 C311.108267,78.9504 315.221333,80.4864 320.8192,80.4864 Z M348.9792,104.0384 C354.9184,104.0384 359.560533,102.417067 362.9056,99.1744 C366.250667,95.9317333 369.0496,90.5557333 371.3024,83.0464 L371.3024,83.0464 L389.2224,22.8352 L370.8928,22.8352 L364.544,49.9712 C364.1344,51.6096 363.8272,53.1114667 363.6224,54.4768 C363.4176,55.8421333 363.281067,57.1050667 363.2128,58.2656 L363.2128,58.2656 L362.8032,58.2656 C362.666667,55.6714667 362.222933,52.8384 361.472,49.7664 L361.472,49.7664 L355.1232,22.8352 L336.384,22.8352 L354.4064,78.6432 L354.0992,79.7696 C353.0752,83.3877333 352.085333,85.8453333 351.1296,87.1424 C350.173867,88.4394667 348.535467,89.088 346.2144,89.088 C345.463467,89.088 344.695467,89.0197333 343.9104,88.8832 C343.125333,88.7466667 342.391467,88.6101333 341.7088,88.4736 L341.7088,88.4736 L341.7088,103.2192 C342.7328,103.492267 343.842133,103.697067 345.0368,103.8336 C346.231467,103.970133 347.5456,104.0384 348.9792,104.0384 Z M423.2192,17.3056 C426.154667,17.3056 428.458667,16.6229333 430.1312,15.2576 C431.803733,13.8922667 432.64,11.7077333 432.64,8.704 C432.64,5.632 431.8208,3.41333333 430.1824,2.048 C428.544,0.682666667 426.222933,4.97379915e-14 423.2192,4.97379915e-14 C420.1472,4.97379915e-14 417.809067,0.682666667 416.2048,2.048 C414.600533,3.41333333 413.7984,5.632 413.7984,8.704 C413.7984,11.7077333 414.634667,13.8922667 416.3072,15.2576 C417.979733,16.6229333 420.283733,17.3056 423.2192,17.3056 Z M432.0256,79.4624 L432.0256,22.8352 L414.208,22.8352 L414.208,79.4624 L432.0256,79.4624 Z M457.6256,80.4864 C464.384,80.4864 469.435733,78.8821333 472.7808,75.6736 C476.125867,72.4650667 477.7984,67.9253333 477.7984,62.0544 C477.7984,57.4805333 476.757333,53.8794667 474.6752,51.2512 C472.593067,48.6229333 469.674667,46.3189333 465.92,44.3392 C463.394133,42.9738667 461.533867,41.9157333 460.3392,41.1648 C459.144533,40.4138667 458.359467,39.7824 457.984,39.2704 C457.608533,38.7584 457.4208,38.1952 457.4208,37.5808 C457.4208,35.8741333 458.478933,35.0208 460.5952,35.0208 C462.301867,35.0208 464.247467,35.4304 466.432,36.2496 C468.616533,37.0688 470.698667,38.0586667 472.6784,39.2192 L472.6784,39.2192 L476.9792,26.624 C474.112,25.0538667 471.313067,23.8592 468.5824,23.04 C465.851733,22.2208 462.916267,21.8112 459.776,21.8112 C453.700267,21.8112 448.938667,23.2618667 445.4912,26.1632 C442.043733,29.0645333 440.32,33.1776 440.32,38.5024 C440.32,42.7349333 441.2416,46.2506667 443.0848,49.0496 C444.928,51.8485333 447.624533,54.1354667 451.1744,55.9104 C453.8368,57.2757333 455.8336,58.3509333 457.1648,59.136 C458.496,59.9210667 459.3664,60.6037333 459.776,61.184 C460.1856,61.7642667 460.3904,62.3957333 460.3904,63.0784 C460.3904,65.1946667 458.888533,66.2528 455.8848,66.2528 C453.632,66.2528 451.1232,65.8261333 448.3584,64.9728 C445.5936,64.1194667 442.948267,63.0101333 440.4224,61.6448 L440.4224,61.6448 L440.4224,77.312 C443.221333,78.4725333 446.037333,79.2917333 448.8704,79.7696 C451.703467,80.2474667 454.621867,80.4864 457.6256,80.4864 Z M24.064,182.8864 C29.7301333,182.8864 34.3381333,181.538133 37.888,178.8416 C41.4378667,176.145067 44.032,172.561067 45.6704,168.0896 C47.3088,163.618133 48.128,158.72 48.128,153.3952 C48.128,147.182933 47.1210667,141.909333 45.1072,137.5744 C43.0933333,133.239467 40.2944,129.928533 36.7104,127.6416 C33.1264,125.354667 28.9792,124.2112 24.2688,124.2112 C18.7392,124.2112 14.1824,125.457067 10.5984,127.9488 C7.0144,130.440533 4.352,133.888 2.6112,138.2912 C0.8704,142.6944 -1.13686838e-13,147.729067 -1.13686838e-13,153.3952 C-1.13686838e-13,158.788267 0.904533333,163.720533 2.7136,168.192 C4.52266667,172.663467 7.2192,176.2304 10.8032,178.8928 C14.3872,181.5552 18.8074667,182.8864 24.064,182.8864 Z M24.1664,168.8576 C21.9818667,168.8576 20.4288,167.543467 19.5072,164.9152 C18.5856,162.286933 18.1248,158.481067 18.1248,153.4976 C18.1248,148.309333 18.5856,144.469333 19.5072,141.9776 C20.4288,139.485867 21.9818667,138.24 24.1664,138.24 C26.3509333,138.24 27.8869333,139.502933 28.7744,142.0288 C29.6618667,144.554667 30.1056,148.343467 30.1056,153.3952 C30.1056,158.5152 29.6618667,162.372267 28.7744,164.9664 C27.8869333,167.560533 26.3509333,168.8576 24.1664,168.8576 Z M72.9088,182.8864 C79.1210667,182.8864 83.6266667,180.224 86.4256,174.8992 L86.4256,174.8992 L87.3472,174.8992 L89.4976,181.8624 L103.1168,181.8624 L103.1168,125.2352 L85.2992,125.2352 L85.2992,152.2688 C85.2992,157.115733 84.9578667,160.938667 84.2752,163.7376 C83.5925333,166.536533 81.8176,167.936 78.9504,167.936 C77.312,167.936 76.1685333,166.980267 75.52,165.0688 C74.8714667,163.157333 74.5472,160.290133 74.5472,156.4672 L74.5472,156.4672 L74.5472,125.2352 L56.6272,125.2352 L56.6272,162.0992 C56.6272,168.925867 58.1290667,174.097067 61.1328,177.6128 C64.1365333,181.128533 68.0618667,182.8864 72.9088,182.8864 Z M131.2768,181.8624 L131.2768,153.6 C131.2768,149.435733 132.130133,146.500267 133.8368,144.7936 C135.543467,143.086933 137.728,142.2336 140.3904,142.2336 C141.824,142.2336 142.984533,142.2848 143.872,142.3872 C144.759467,142.4896 145.544533,142.6432 146.2272,142.848 L146.2272,142.848 L147.6608,124.8256 C146.0224,124.416 144.384,124.2112 142.7456,124.2112 C140.9024,124.2112 139.178667,124.706133 137.5744,125.696 C135.970133,126.685867 134.570667,127.9488 133.376,129.4848 C132.181333,131.0208 131.208533,132.608 130.4576,134.2464 L130.4576,134.2464 L129.536,134.2464 L126.8736,125.2352 L113.3568,125.2352 L113.3568,181.8624 L131.2768,181.8624 Z"/>
        <path fill="#002CFF" d="M188.2112,182.8864 C194.9696,182.8864 200.021333,181.282133 203.3664,178.0736 C206.711467,174.865067 208.384,170.325333 208.384,164.4544 C208.384,159.880533 207.342933,156.279467 205.2608,153.6512 C203.178667,151.022933 200.260267,148.718933 196.5056,146.7392 C193.979733,145.373867 192.119467,144.315733 190.9248,143.5648 C189.730133,142.813867 188.945067,142.1824 188.5696,141.6704 C188.194133,141.1584 188.0064,140.5952 188.0064,139.9808 C188.0064,138.274133 189.064533,137.4208 191.1808,137.4208 C192.887467,137.4208 194.833067,137.8304 197.0176,138.6496 C199.202133,139.4688 201.284267,140.458667 203.264,141.6192 L203.264,141.6192 L207.5648,129.024 C204.6976,127.453867 201.898667,126.2592 199.168,125.44 C196.437333,124.6208 193.501867,124.2112 190.3616,124.2112 C184.285867,124.2112 179.524267,125.661867 176.0768,128.5632 C172.629333,131.464533 170.9056,135.5776 170.9056,140.9024 C170.9056,145.134933 171.8272,148.650667 173.6704,151.4496 C175.5136,154.248533 178.210133,156.535467 181.76,158.3104 C184.4224,159.675733 186.4192,160.750933 187.7504,161.536 C189.0816,162.321067 189.952,163.003733 190.3616,163.584 C190.7712,164.164267 190.976,164.795733 190.976,165.4784 C190.976,167.594667 189.474133,168.6528 186.4704,168.6528 C184.2176,168.6528 181.7088,168.226133 178.944,167.3728 C176.1792,166.519467 173.533867,165.410133 171.008,164.0448 L171.008,164.0448 L171.008,179.712 C173.806933,180.872533 176.622933,181.691733 179.456,182.1696 C182.289067,182.647467 185.207467,182.8864 188.2112,182.8864 Z M234.496,182.8864 C237.226667,182.8864 239.633067,182.596267 241.7152,182.016 C243.797333,181.435733 245.828267,180.667733 247.808,179.712 L247.808,179.712 L247.808,166.2976 C246.3744,166.843733 245.026133,167.304533 243.7632,167.68 C242.500267,168.055467 241.288533,168.2432 240.128,168.2432 C237.397333,168.2432 236.032,166.4 236.032,162.7136 L236.032,162.7136 L236.032,139.1616 L246.9888,139.1616 L246.9888,125.2352 L236.032,125.2352 L236.032,113.8688 L224.0512,113.8688 L219.8528,125.7472 L212.3776,130.56 L212.3776,139.1616 L218.2144,139.1616 L218.2144,163.2256 C218.2144,170.1888 219.528533,175.2064 222.1568,178.2784 C224.785067,181.3504 228.898133,182.8864 234.496,182.8864 Z M272.9984,181.8624 L272.9984,153.6 C272.9984,149.435733 273.851733,146.500267 275.5584,144.7936 C277.265067,143.086933 279.4496,142.2336 282.112,142.2336 C283.5456,142.2336 284.706133,142.2848 285.5936,142.3872 C286.481067,142.4896 287.266133,142.6432 287.9488,142.848 L287.9488,142.848 L289.3824,124.8256 C287.744,124.416 286.1056,124.2112 284.4672,124.2112 C282.624,124.2112 280.900267,124.706133 279.296,125.696 C277.691733,126.685867 276.292267,127.9488 275.0976,129.4848 C273.902933,131.0208 272.930133,132.608 272.1792,134.2464 L272.1792,134.2464 L271.2576,134.2464 L268.5952,125.2352 L255.0784,125.2352 L255.0784,181.8624 L272.9984,181.8624 Z M316.7232,182.8864 C323.959467,182.8864 329.9328,181.521067 334.6432,178.7904 L334.6432,178.7904 L334.6432,165.0688 C331.912533,166.638933 329.3696,167.765333 327.0144,168.448 C324.6592,169.130667 322.082133,169.472 319.2832,169.472 C312.9344,169.472 309.76,165.922133 309.76,158.8224 L309.76,158.8224 L337.7152,158.8224 L337.7152,150.1184 C337.7152,141.7216 335.7184,135.3216 331.7248,130.9184 C327.7312,126.5152 322.218667,124.3136 315.1872,124.3136 C307.8144,124.3136 302.097067,126.805333 298.0352,131.7888 C293.973333,136.772267 291.9424,144.110933 291.9424,153.8048 C291.9424,163.4304 294.058667,170.683733 298.2912,175.5648 C302.523733,180.445867 308.667733,182.8864 316.7232,182.8864 Z M321.4336,146.944 L309.76,146.944 C309.828267,143.394133 310.4256,140.885333 311.552,139.4176 C312.6784,137.949867 314.0608,137.216 315.6992,137.216 C317.474133,137.216 318.8736,138.0352 319.8976,139.6736 C320.9216,141.312 321.4336,143.735467 321.4336,146.944 L321.4336,146.944 Z M363.6224,181.8624 L363.6224,156.2624 C363.6224,150.1184 364.014933,145.732267 364.8,143.104 C365.585067,140.475733 367.2064,139.1616 369.664,139.1616 C371.575467,139.1616 372.855467,140.117333 373.504,142.0288 C374.152533,143.940267 374.4768,146.773333 374.4768,150.528 L374.4768,150.528 L374.4768,181.8624 L392.3968,181.8624 L392.3968,144.9984 C392.3968,138.171733 390.912,133.000533 387.9424,129.4848 C384.9728,125.969067 380.996267,124.2112 376.0128,124.2112 C372.736,124.2112 370.005333,124.893867 367.8208,126.2592 C365.636267,127.624533 363.861333,129.6384 362.496,132.3008 L362.496,132.3008 L361.7792,132.3008 L359.5264,125.2352 L345.8048,125.2352 L345.8048,181.8624 L363.6224,181.8624 Z M420.7616,206.4384 C430.114133,206.4384 436.9408,204.032 441.2416,199.2192 C445.5424,194.4064 447.6928,187.460267 447.6928,178.3808 L447.6928,178.3808 L447.6928,125.2352 L432.128,125.2352 L430.7968,132.3008 L429.9776,132.3008 C428.612267,129.4336 426.990933,127.368533 425.1136,126.1056 C423.236267,124.842667 420.795733,124.2112 417.792,124.2112 C412.535467,124.2112 408.354133,126.8224 405.248,132.0448 C402.141867,137.2672 400.5888,144.554667 400.5888,153.9072 C400.5888,162.986667 402.1248,170.0864 405.1968,175.2064 C408.2688,180.3264 412.330667,182.8864 417.3824,182.8864 C420.522667,182.8864 423.048533,182.186667 424.96,180.7872 C426.871467,179.387733 428.475733,177.322667 429.7728,174.592 L429.7728,174.592 L430.3872,174.592 C430.1824,175.752533 430.0288,177.0496 429.9264,178.4832 C429.824,179.9168 429.7728,181.1456 429.7728,182.1696 L429.7728,182.1696 L429.7728,182.8864 C429.7728,186.094933 428.885333,188.416 427.1104,189.8496 C425.335467,191.2832 422.912,192 419.84,192 C416.768,192 413.917867,191.6416 411.2896,190.9248 C408.661333,190.208 405.845333,189.098667 402.8416,187.5968 L402.8416,187.5968 L402.8416,202.4448 C407.7568,205.1072 413.730133,206.4384 420.7616,206.4384 Z M424.2432,168.3456 C422.4,168.3456 421.0176,167.185067 420.096,164.864 C419.1744,162.542933 418.7136,158.958933 418.7136,154.112 C418.7136,143.872 420.522667,138.752 424.1408,138.752 C426.461867,138.752 428.066133,139.895467 428.9536,142.1824 C429.841067,144.469333 430.2848,148.036267 430.2848,152.8832 L430.2848,152.8832 L430.2848,155.648 C430.2848,160.017067 429.841067,163.2256 428.9536,165.2736 C428.066133,167.3216 426.496,168.3456 424.2432,168.3456 Z M476.0576,182.8864 C478.788267,182.8864 481.194667,182.596267 483.2768,182.016 C485.358933,181.435733 487.389867,180.667733 489.3696,179.712 L489.3696,179.712 L489.3696,166.2976 C487.936,166.843733 486.587733,167.304533 485.3248,167.68 C484.061867,168.055467 482.850133,168.2432 481.6896,168.2432 C478.958933,168.2432 477.5936,166.4 477.5936,162.7136 L477.5936,162.7136 L477.5936,139.1616 L488.5504,139.1616 L488.5504,125.2352 L477.5936,125.2352 L477.5936,113.8688 L465.6128,113.8688 L461.4144,125.7472 L453.9392,130.56 L453.9392,139.1616 L459.776,139.1616 L459.776,163.2256 C459.776,170.1888 461.090133,175.2064 463.7184,178.2784 C466.346667,181.3504 470.459733,182.8864 476.0576,182.8864 Z M514.4576,181.8624 L514.4576,156.2624 C514.4576,150.528 514.8672,146.244267 515.6864,143.4112 C516.5056,140.578133 518.212267,139.1616 520.8064,139.1616 C523.741867,139.1616 525.2096,142.9504 525.2096,150.528 L525.2096,150.528 L525.2096,181.8624 L543.232,181.8624 L543.232,144.9984 C543.232,138.171733 541.713067,133.000533 538.6752,129.4848 C535.637333,125.969067 531.694933,124.2112 526.848,124.2112 C520.977067,124.2112 516.778667,126.8736 514.2528,132.1984 L514.2528,132.1984 L513.3312,132.1984 C514.082133,128.034133 514.4576,123.0848 514.4576,117.3504 L514.4576,117.3504 L514.4576,104.0384 L496.64,104.0384 L496.64,181.8624 L514.4576,181.8624 Z"/>
      </g>
    </g>
    <g fill="#002CFF" fill-rule="nonzero" mask="url(#diversity-b)">
      <g transform="translate(781 85)">
        <path d="M403.072848,458.384106 L403.072848,434.154097 C355.925178,433.756884 307.784228,431.472907 258.649999,427.302168 C209.51577,423.131429 165.049954,417.868353 125.252553,411.512941 C85.455152,405.157529 62.6759406,400.457172 56.9149191,397.41187 C51.1538976,394.366568 46.3199371,391.288166 42.4130374,388.176662 C38.5061378,385.065158 34.4999102,378.24633 30.3943547,367.720179 C26.2887992,357.194027 24.2360214,346.767179 24.2360214,336.439634 C24.2360214,318.432633 29.9639336,292.713074 41.4197579,259.280958 C52.8755822,225.848841 67.4105732,194.104881 85.0247308,164.049078 C102.638888,133.993274 122.140277,110.425287 143.528897,93.3451169 C164.917517,76.2649466 189.08732,60.4757194 216.038305,45.9774352 C242.989291,31.4791511 265.205644,24.2300091 282.687364,24.2300091 C291.693099,24.2300091 299.639336,26.2491765 306.526074,30.2875113 C313.412812,34.3258462 318.644085,41.7073927 322.219891,52.4321508 L322.219891,52.4321508 L328.775536,72.0942073 L333.344622,86.5924914 L334.139246,90.1674108 C334.40412,90.5646241 334.536558,91.0942417 334.536558,91.7562638 C334.536558,94.007139 333.543278,95.6952954 331.556719,96.820733 C329.57016,97.9461705 327.451163,98.5088893 325.19973,98.5088893 C322.550984,98.5088893 320.034676,96.3904186 317.650805,92.1534771 C315.266934,87.9165356 313.280375,83.0837743 311.691128,77.655193 L311.691128,77.655193 L303.546235,56.60289 C303.016486,55.5436547 302.188753,54.3520149 301.063036,53.0279707 C299.937319,51.7039265 298.381181,51.0419043 296.394622,51.0419043 C294.143189,51.0419043 292.355285,51.6046231 291.030913,52.7300607 C289.70654,53.8554983 289.044354,55.345048 289.044354,57.1987099 C289.176791,58.2579453 289.243009,58.9530685 289.243009,59.2840796 C289.243009,59.6150906 289.375447,60.045405 289.640321,60.5750227 L289.640321,60.5750227 L305.930106,101.885202 C306.062543,102.41482 306.128762,103.143044 306.128762,104.069875 C306.128762,106.32075 305.102373,107.975805 303.049595,109.035041 C300.996818,110.094276 299.043368,110.623894 297.189246,110.623894 C294.5405,110.623894 292.587051,109.663962 291.328897,107.744098 C290.070742,105.824234 287.057794,99.2371136 282.290053,87.9827378 L282.290053,87.9827378 L273.151881,66.5332216 C272.754569,65.4739862 272.059273,64.4809531 271.065993,63.5541221 C270.072714,62.6272912 268.715232,62.1638757 266.993547,62.1638757 C264.742114,62.1638757 262.921101,62.8258978 261.53051,64.149942 C260.139918,65.4739862 259.444623,67.0628393 259.444623,68.9165012 C259.444623,70.6377587 259.57706,71.6307918 259.841934,71.8956007 L259.841934,71.8956007 L278.51559,113.20578 C278.648027,113.602993 278.714246,114.000207 278.714246,114.39742 L278.714246,114.39742 L278.714246,115.390453 C278.714246,117.508924 277.853404,119.130878 276.131719,120.256315 C274.410035,121.381753 272.423475,121.944472 270.172042,121.944472 C268.053045,121.944472 266.496907,121.447955 265.503628,120.454922 C264.510348,119.461889 263.417741,117.839935 262.225805,115.58906 L262.225805,115.58906 L258.252687,108.042008 C256.66344,105.261515 255.074192,102.216213 253.484945,98.9061026 L253.484945,98.9061026 L248.717203,89.9688042 C247.127956,86.7910981 245.505599,83.4809875 243.850133,80.0384726 C242.194667,76.5959576 239.910124,74.8747002 236.996504,74.8747002 C235.142382,74.8747002 233.453807,75.4043178 231.930779,76.4635532 C230.40775,77.5227886 229.646236,78.9792372 229.646236,80.8328991 C229.646236,82.1569433 229.778673,83.1830776 230.043547,83.9113019 C230.308422,84.6395262 230.573296,85.202245 230.838171,85.5994583 L230.838171,85.5994583 L250.703762,125.717998 C251.233511,126.777233 251.498386,127.704064 251.498386,128.498491 C251.498386,130.616961 250.505106,132.338219 248.518547,133.662263 C246.531988,134.986307 244.412992,135.648329 242.161558,135.648329 C239.64525,135.648329 237.658691,134.589094 236.201881,132.470623 C234.745071,130.352153 231.566576,125.122178 226.666397,116.780699 L226.666397,116.780699 L213.356451,93.7423302 C210.707705,95.7283965 208.919802,97.780665 207.992741,99.8991357 C207.06568,102.017606 206.60215,104.202279 206.60215,106.453155 C206.60215,109.89567 207.429883,113.702297 209.085349,117.873036 C210.740814,122.043775 211.568547,125.651796 211.568547,128.697097 C211.568547,135.184914 209.946191,140.712799 206.701478,145.280751 C203.456764,149.848704 198.126164,152.13268 190.709677,152.13268 C186.868996,152.13268 183.028315,151.603062 179.187634,150.543827 C175.346953,149.484591 171.57249,148.954974 167.864247,148.954974 C164.553315,148.954974 161.838351,150.04731 159.719354,152.231983 C157.600358,154.416656 156.408422,156.965441 156.143548,159.878339 L156.143548,159.878339 L144.422849,289.568469 L144.422849,290.958715 C144.422849,294.666039 145.681003,297.545835 148.197311,299.598104 C150.713619,301.650372 153.825895,302.676507 157.534139,302.676507 C171.307616,302.676507 182.697221,294.765343 191.702956,278.943014 C200.708691,263.120686 214.482168,249.483031 233.023386,238.030048 C251.564605,226.577066 273.68163,220.850574 299.374461,220.850574 C320.564425,220.850574 340.26447,226.41156 358.474595,237.533532 C376.684721,248.655503 391.550805,262.822776 403.072848,280.035351 L403.072848,280.035351 L403.072848,241.902877 C389.431808,227.6032 373.737991,216.481229 355.991396,208.536963 C338.244801,200.592698 319.107615,196.620565 298.579837,196.620565 C270.900447,196.620565 246.267114,202.578764 224.679838,214.495162 C203.092562,226.41156 185.081092,243.888944 170.645429,266.927313 L170.645429,266.927313 L179.38629,175.369656 C183.75672,176.031678 187.994712,176.495093 192.100268,176.759902 C196.205824,177.024711 200.24516,177.157115 204.218279,177.157115 C217.462006,177.157115 230.374641,175.733768 242.956182,172.887073 C255.537723,170.040378 266.331361,166.564762 275.337096,162.460225 C278.118278,164.446291 281.660975,166.134447 285.965187,167.524694 C290.269398,168.91494 295.666217,169.610063 302.155644,169.610063 C313.54525,169.610063 327.550491,166.531661 344.171369,160.374855 C360.792248,154.21805 369.102687,142.798168 369.102687,126.115211 C369.102687,121.481056 368.374282,116.648295 366.917471,111.616927 C365.460661,106.585559 363.672758,102.150011 361.553762,98.3102827 L361.553762,98.3102827 L358.375267,92.9479036 C351.753403,65.9374017 345.462633,46.3084463 339.502955,34.0610373 C333.543278,21.8136284 325.597042,13.0749366 315.664246,7.84496195 C305.73145,2.61498732 294.739156,1.56319402e-13 282.687364,1.56319402e-13 C261.762275,1.56319402e-13 236.400537,7.91116416 206.60215,23.7334925 C176.803763,39.5558208 150.68051,56.5035867 128.232392,74.5767902 C105.784274,92.6499937 85.3889333,116.648295 67.0463707,146.571694 C48.703808,176.495093 32.9437723,210.258221 19.7662634,247.861076 C6.58875445,285.463932 1.42108547e-13,314.857713 1.42108547e-13,336.042421 C1.42108547e-13,353.519804 4.33732077,370.897885 13.0119623,388.176662 C21.6866038,405.455439 36.8506719,417.17323 58.5041664,423.330035 C80.1576609,429.486841 124.855241,436.702882 192.596908,444.978158 C260.338574,453.253435 330.497221,457.722084 403.072848,458.384106 L403.072848,458.384106 Z M309.108601,143.989808 C305.26792,143.989808 302.552956,142.765067 300.963708,140.315585 C299.374461,137.866104 298.579837,135.383521 298.579837,132.867837 C298.579837,131.146579 299.44068,129.094311 301.162364,126.711031 C302.884049,124.327751 313.743905,118.700564 333.741934,109.829467 L333.741934,109.829467 L342.68145,105.857335 C343.211199,107.446188 344.105151,109.266749 345.363305,111.319017 C346.621459,113.371286 347.250536,116.18488 347.250536,119.759799 C347.250536,123.599527 346.058601,126.744132 343.67473,129.193614 C341.290859,131.643096 338.77455,133.397454 336.125805,134.45669 L336.125805,134.45669 L323.809138,139.421855 C319.306271,141.275517 316.160886,142.500258 314.372982,143.096078 C312.585079,143.691898 310.830285,143.989808 309.108601,143.989808 Z"/>
        <path d="M362.050634,380.18543 C382.943573,380.18543 398.712453,375.288207 409.357273,365.493761 C420.002093,355.699315 425.324503,343.720971 425.324503,329.558731 C425.324503,327.705728 424.76251,326.249797 423.638522,325.190938 C422.514535,324.132079 421.093022,323.602649 419.373983,323.602649 C417.52271,323.602649 414.31604,325.323295 409.753974,328.764587 C405.191909,332.205879 395.737193,335.911886 381.389826,339.882607 C367.04246,343.853329 349.819009,345.838689 329.719472,345.838689 C322.182146,345.838689 314.810112,345.540885 307.603371,344.945277 C300.396629,344.349669 294.677518,343.720971 290.446036,343.059184 L290.446036,343.059184 L286.875724,342.662112 L285.68562,342.662112 C284.231048,342.662112 282.875652,343.191542 281.619431,344.250401 C280.36321,345.30926 279.735099,346.765191 279.735099,348.618194 C279.735099,349.412339 279.93345,350.272662 280.330151,351.199163 C280.726853,352.125665 281.321905,352.919809 282.115308,353.581596 L282.115308,353.581596 L289.255932,358.346462 C296.925492,363.640758 307.537254,368.604159 321.091217,373.236668 C334.645181,377.869176 348.29832,380.18543 362.050634,380.18543 Z"/>
      </g>
    </g>
  </g>
</svg>
