<?xml version="1.0" encoding="UTF-8" standalone="no"?>
<svg
   xmlns:dc="http://purl.org/dc/elements/1.1/"
   xmlns:cc="http://creativecommons.org/ns#"
   xmlns:rdf="http://www.w3.org/1999/02/22-rdf-syntax-ns#"
   xmlns:svg="http://www.w3.org/2000/svg"
   xmlns="http://www.w3.org/2000/svg"
   id="svg20886"
   preserveAspectRatio="xMidYMid meet"
   viewBox="0 0 11635.823 14488.022"
   height="1448.8022"
   width="1163.5823"
   version="1.0">
  <metadata
     id="metadata20892">
    <rdf:RDF>
      <cc:Work
         rdf:about="">
        <dc:format>image/svg+xml</dc:format>
        <dc:type
           rdf:resource="http://purl.org/dc/dcmitype/StillImage" />
        <dc:title></dc:title>
      </cc:Work>
    </rdf:RDF>
  </metadata>
  <defs
     id="defs20890" />
  <path
     d="m 8594,14470.205 c -44,-27 -71,-108 -84,-256 -7,-66 -22,-165 -35,-220 -13,-55 -33,-167 -45,-250 -12,-82 -34,-209 -50,-280 -16,-72 -43,-227 -60,-345 -17,-118 -37,-253 -45,-300 -50,-297 -64,-385 -70,-465 -4,-49 -15,-130 -25,-180 -37,-179 -42,-239 -41,-528 1,-300 -7,-421 -54,-793 -13,-105 -29,-213 -35,-240 -6,-26 -15,-109 -20,-184 -6,-74 -19,-184 -30,-245 -35,-184 -69,-345.9999 -90,-424.9999 -10,-41 -31,-149 -46,-240 -30,-184 -35,-356 -49,-1630 -6,-534 -9,-618 -27,-715 -41,-236 -47,-286 -57,-460 -8,-136 -19,-220 -45,-345 -18,-91 -37,-200 -41,-243 -7,-75 -8,-77 -35,-77 -15,0 -49,7 -76,15 -27,8 -61,15 -75,15 -15,0 -31,6 -37,13 -6,7 -12,96 -15,207 -9,337 -27,722 -36,780 -6,30 -15,112 -21,182 -6,69 -15,152 -20,185 -6,32 -15,138 -20,236 -6,97 -14,207 -20,245 -5,37 -10,110 -10,163 0,66 -14,179 -44,360 -24,145 -49,313 -55,373 -7,60 -23,168 -37,240 -14,77 -24,168 -24,221 0,94 -15,225 -65,555 -29,193.9999 -46,294.9999 -60,349.9999 -8,30 -17,98 -21,150 -3,52 -18,136 -32,185 -15,53 -28,135 -33,200 -4,61 -13,135 -19,165 -8,39 -12,254 -12,725 1,543 -2,686 -14,754 -15,87 -15,80 16,396 5,55 11,192 11,305 1,113 2,261 3,330 1,158 -26,378 -66,542 -28,114 -29,131 -18,170 18,64 24,118 12,118 -15,0 -111,-109 -133,-152 -25,-48 -24,-75 2,-83 20,-7 21,-11 13,-119 -4,-61 -8,-154 -10,-206 5.852,-56.418 2.0309,-29.458 14,-155 l 7,-29 c 5,-16 3,-120 -4,-230 -6,-111 -11,-246 -10,-301 2,-55 2,-253 1,-440 -3,-589 9,-1547 20,-1620 5,-38 13,-124 18,-190 5,-87 15,-142 34,-199 18,-54 29,-115 35,-195 5,-64 19,-159 31,-211 12,-52 25,-125.9999 30,-164.9999 5,-38 20,-140 33,-225 39,-246 48,-325 57,-485 5,-82 15,-179 23,-215 14,-64 31,-178 42,-295 3,-33 24,-166 46,-295 24,-143 44,-297 50,-395 5,-88 14,-232 19,-320 9,-146 25,-299 66,-632 8,-67 20,-220 25,-340 5,-120 14,-317 20,-438 17,-330 17,-338 -33,-403 -23,-29 -92,-106 -154,-172 -109,-115 -192,-223 -266,-345 -49,-80 -128,-177 -252,-310 -56,-60 -135,-153 -176,-205 -107,-137 -320,-378 -320,-361 0,4 5,12 11,18 5,5 11,39 12,75 2,75 -11,106 -111,261 -83,130 -98,166 -114,275 -21.4844,87.2277 -16.893,76.5359 -36,204 l -6,42 c -3,22 -8,75 -12,116 -3,41 -13,94 -21,117 -12,34 -13,54 -5,110 6,37 14,176 17,308 3,132 15,328 27,435 11,107 23,283 28,390 4,107 17,258 29,335 20,134 39,271 60,435 15,115 60,362 71,390 32,80 150,893 170,1173 6,78 13,151 16,162 2,11 9,88 14,170 5,83 20,229 34,325 14,96 34,260.9999 46,364.9999 12,105 28,217 37,250 8,33 19,100 24,150 5,49 19,128 31,175 21,83 22,108 30,970 4,487 10,946 13,1020 2,74 2,157 -1,183 l -6,48 -29,-30 c -22,-24 -32,-47 -41,-101 -8,-44 -17,-70 -25,-70 -7,0 -13,-4 -13,-9 0,-9 -90,-51 -125,-57 -19,-3 -24,2 -34,40 -9,39 -13,43 -35,39 -34,-7 -40,-49 -31,-241 7,-170 19,-254 41,-289 19,-30 19,-346 0,-463 -8,-47 -17,-128 -21,-180 -3,-52 -10,-115 -16,-140 -5,-25 -15,-90 -23,-145 -8,-55 -23,-147 -34,-205 -11,-58 -25,-163 -31,-235 -13,-147 -22,-227 -57,-470 -13,-93 -29,-217 -35,-275 -6,-57 -12,-108 -15,-111 -15,-25 -36,-261.9999 -44,-493.9999 -6,-169 -17,-326 -30,-420 -11,-82 -25,-204 -30,-270 -41,-520 -39,-503 -104,-811 -14,-67 -32,-182 -41,-255 -8,-74 -24,-186 -35,-249 -11,-63 -25,-146 -31,-185 -5,-38 -19,-126 -29,-195 -11,-69 -24,-170 -30,-225 -7,-55 -16,-119 -21,-143 -5,-24 -14,-130 -19,-235 -7,-142 -15,-211 -30,-267 -17,-62 -22,-116 -28,-305 l -7,-230 -24,45 c -13,25 -36,61 -50,80 -15,19 -32,46 -39,60 -12,24 -23,39 -122,165 -54,68 -53,67 -80,127 -12,27 -26,50 -31,54 -5,3 -23,31 -40,62 -16,31 -47,86 -69,122 -22,36 -59,103 -83,150 -96,186 -151,263 -217,302 -101,61 -297,217 -455,362 -49,46 -107,99 -129,118 l -38,34 10,75 c 13,91 56,329 83,464 12,55 27,141 34,191 7,50 23,124 35,165 12,41 30,106 40,144 11,39 30,111 44,160 16,55 30,140 36,220 6,72 15,164 21,205 5,41 15,113 20,160 15,118 35,234 52,305 8,33 20,96 27,140 6,44 19,116 30,160 10,44 26,139 35,209.9999 8,72 22,168 30,215 8,47 22,137 30,200 15,107 26,164 61,316 8,33 14,100 14,150 0,49 7,125 14,169 56,329 84,516 96,640 6,61 19,151 30,200 10,50 23,151 30,225 6,74 18,200 26,280 20,191 30,288 43,445 7,72 18,188 26,258 18,153 20,701 4,817 -6,41 -10,95 -10,119 1,24 -4,59 -11,78 -10,27 -16,33 -33,28 -11,-3 -34,-8 -52,-12 -20,-3 -34,-13 -38,-27 -4,-11 -6,-192 -5,-401 1,-296 -2,-407 -14,-500 -8,-66 -27,-228 -41,-360 -13,-132 -32,-296 -40,-365 -8,-69 -24,-208 -35,-310 -11,-102 -27,-212 -35,-245 -8,-33 -21,-122 -30,-197 -8,-76 -17,-143 -20,-150 -3,-7 -16,-88 -29,-179 -14,-91 -35,-206 -46,-255 -12,-49 -25,-146 -30,-215 -5,-70 -19,-162 -30,-205 -21,-79 -63,-329 -100,-589 -11,-77 -30,-186.9999 -41,-244.9999 -12,-58 -32,-163 -44,-235 -13,-71 -30,-155 -38,-186 -9,-31 -21,-105 -27,-165 -6,-60 -17,-137 -25,-171 -8,-34 -17,-97 -20,-140 -12,-158 -25,-259 -41,-313 -8,-30 -19,-68 -24,-85 -5,-16 -18,-66 -30,-110 -12,-44 -30,-105 -40,-135 -10,-30 -24,-96 -30,-145 -6,-50 -18,-117 -27,-150 -8,-33 -23,-112 -34,-175 -10,-63 -27,-164 -38,-225 -12,-60 -21,-116 -21,-123 0,-7 -33,11 -72,40 -82,60 -90,66 -208,145 -97,65 -107,72 -147,94 -16,9 -76,52 -134,96 -57,43 -135,99 -173,122 -38,24 -102,69 -142,100 -40,31 -93,71 -118,90 -25,18 -63,50 -85,70 -21,20 -65,54 -97,76 -33,22 -115,94 -184,161 -126,121 -174,160 -395,314 -66,46 -147,110 -180,141 -33,31 -89,76 -125,100 -36,23 -85,59 -110,79 -25,19 -65,49 -90,65 -116,76 -244,178 -335,268 -68,67 -141,126 -228,184 -71,46 -188,135 -261,196 -133,113.9999 -237,193.9999 -426,332.9999 -58,43 -127,98 -155,124 -27,25 -59,52 -70,60 -11,8 -35,32 -52,53 l -33,38 v -35 c 0,-32 9,-43 93,-118 52,-46 140,-117 197,-158 123,-89 374,-286.9999 474,-373.9999 39,-34 113,-88 164,-121 116,-74 192,-136 294,-237 70,-69 248,-205 485,-368 45,-31 114,-87 155,-124 40,-38 95,-84 123,-102 232,-157 301,-211 450,-349 72,-66 147,-131 168,-145 20,-14 37,-30 37,-37 0,-11 65,-63 255,-208 33,-25 98,-70 145,-101 47,-31 142,-98 211,-150 69,-51 140,-101 157,-111 76,-45 163,-101 230,-150 39,-30 94,-65 120,-78 26,-13 79,-50 117,-82 84,-70 135,-107 155,-115 8,-4 101,-77 205,-163 105,-86 210,-171 235,-188 135,-92 300,-259 300,-304 0,-7 4,-13 8,-13 4,0 15,-15 23,-32 29,-61 90,-173 124,-228 18,-30 45,-77 60,-105 15,-27 32,-56 38,-63 5,-7 21,-36 34,-64 13,-28 38,-68 56,-89 18,-21 46,-56 62,-79 17,-22 40,-54 53,-69 12,-16 22,-33 22,-39 0,-6 16,-30 37,-54 20,-23 44,-61 54,-84 10,-22 27,-51 37,-65 10,-13 31,-46 47,-74 15,-27 43,-68 62,-91 18,-23 33,-46 33,-53 0,-6 11,-33 24,-59 14,-26 36,-73 50,-105 14,-32 39,-79 56,-103 16,-25 30,-48 30,-51 0,-10 47,-78 107,-157 29,-37 53,-73 53,-78 0,-6 27,-51 60,-100 33,-49 60,-91 60,-93 0,-3 14,-27 30,-53 40,-65 38,-75 -5,-25 -35,41 -123,93 -157,93 -10,0 -25,-12 -34,-26 -16,-24 -16,-29 5,-92 13,-37 29,-77 37,-89 16,-26 17,-33 6,-33 -5,0 -14,12 -21,28 -22,47 -102,162 -158,226 -29,33 -56,72 -60,86 -9,37 -102,158 -203,263 -49,50 -99,106 -111,122 -13,17 -57,70 -99,119 -41,49 -100,122 -130,162 -95,124 -182,224 -197,224 -36,0 -22,-34 48,-116 41,-47 97,-116 124,-153 83,-113 214,-268 327,-388 76,-81 123,-142 166,-216 33,-56 75,-115 92,-132 46,-43 175,-240 207,-315 l 15,-35 -48,46 c -27,25 -75,58 -107,74 -54,28 -58,28 -75,12 -13,-13 -17,-32 -15,-76 2,-67 17,-103 68,-157 60,-63 32,-48 -46,25 -41,38 -99,104 -129,146 -131,185 -193,258 -330,390 -80,77 -183,180 -230,230 -225,237 -328,336 -373,360 -89,46 -106,28 -44,-48 57,-70 116,-176 138,-251 31,-101 26,-122 -50,-202 -42,-43 -47,-46 -84,-40 -21,4 -50,14 -65,23 -42,27 -162,124 -162,132 0,3 -18,33 -40,66 -22,33 -40,66 -40,74 0,24 -175,231 -196,231 -30,0 -22,-33 19,-78 56,-61 127,-152 127,-163 0,-15 -77,-89 -92,-89 -33,0 -134,94 -257,241 -71,85 -177,205 -235,267 -59,63 -115,126 -124,140 -9,15 -53,74 -97,133 -44,59 -113,170 -153,247 -41,77 -80,148 -88,158 -79,104 -114,160 -114,185 0,7 -6,20 -14,28 -7,9 -26,45 -41,81 -15,36 -38,85 -50,110 -13,25 -26,56 -30,70 -24,85 -58,130 -167,222 -120,102 -305,252 -450,366 -80,63 -220,141 -253,142 -6,0 -35,16 -65,35 -32,21 -63,34 -73,31 -16,-4 -140,72 -197,120 -9,7 -110,56 -225,109 -116,52 -282,131 -370,175 -331,164 -543,262 -640,296 -55,19 -123,51 -151,70 -39,27 -250,124 -270,124 -2,0 -4,-11 -4,-25 0,-15 6,-25 15,-25 25,0 188,-74 238,-109 26,-18 87,-46 135,-62 93,-31 366,-157 598,-276 77,-39 202,-99 277,-132 75,-33 172,-79 216,-101 44,-22 87,-40 94,-40 8,0 34,-15 58,-33 95,-73 202,-139 271,-168 40,-17 78,-35 83,-39 6,-4 29,-13 52,-19 60,-16 280,-176 483,-351 52,-45 131,-113 176,-150 72,-61 84,-77 109,-137 15,-37 36,-86 45,-108 59,-133 73,-162 83,-180 6,-11 17,-33 26,-50 8,-16 21,-43 30,-60 8,-16 36,-59 62,-95 26,-36 82,-130 125,-210 78,-147 220,-347 329,-465 107,-116 144,-161 150,-186 3,-14 -1,-82 -11,-150 -19,-142 -15,-410 10,-629 8,-69 18,-262 21,-430 4,-168 13,-363 21,-435 27,-254 54,-532 64,-674 6,-79 17,-185 25,-235 8,-50 21,-156 29,-236 18,-164 51,-427 66,-512 6,-32 14,-84 20,-115 30,-175 52,-249 130,-443 31,-74 45,-127 51,-182 4,-44 22,-119 42,-175 19,-54 40,-123 47,-153 7,-30 20,-81.99998 30,-114.99998 10,-33 28,-98 40,-145 13,-47 50,-165 81,-263 38,-117 61,-203 65,-252 4,-42 10,-78 14,-80 5,-3 6,-14 3,-24 -3,-11 6,-44 20,-75 l 25,-54.000004 39,9 c 21,5 68,9 105,10 l 67,1 -5,36.000004 c -2,20 -8,52 -13,72 -5,19 -12,69 -15,112 -8,91 -41,225 -91,369 -34,98 -78,250 -130,453.99998 -13,50 -35,122 -50,160 -15,39 -31,107 -36,152 -7,63 -23,119 -72,245 -35,90 -69,188 -75,218 -6,30 -14,64 -18,76 -6,24 -4,24 136,48 118,19 710,15 820,-7 47,-9 153,-21 235,-26 112,-8 171,-17 235,-36 151,-47 183,-54 320,-72 151,-19 447,-23 631,-9 l 116,9 12,-36 c 7,-20 32,-64 56,-96 24,-33 53,-77 64,-99 11,-22 43,-70 71,-106 64,-85 70,-98 70,-139 0,-41 51,-146 114,-237 83,-118 93,-135 105,-170 10,-30.99998 33,-69.99998 123,-203.99998 15,-23 33,-57 39,-76 6,-19 24,-53 38,-75 47,-71 111,-328 111,-445 0,-38 4,-80 10,-94 9,-25.000004 11,-26.000004 42,-13 31,13 33,17 36,69 2,42 7,58 20,63 9,4 67,9 129,11 125,5 119,7 143,-70 32,-104.000004 47,-63 54,144 2,63 11,147 20,185 8,39 20,108 26,154 7,48 22,105 35,130 12,25 28,73 35,106 20,103 94,291.99998 128,327.99998 12,12 28,40 36,62 14,39 79,176 117,245 57,105 90,198 130,365 l 10,40 472,-3 c 717,-4 910,-8 937,-15 24,-7 93,-15 295,-38 49,-5 155,-23 234,-39 84,-17 175,-30 218,-30 40,0 73,-3 73,-7 0,-3 -14,-61 -30,-129 -20,-79 -33,-168 -39,-251 -6,-84 -16,-148 -29,-188 -12,-33 -26,-98 -32,-144 -5,-47 -21,-125.99998 -34,-174.99998 -14,-50 -32,-129 -41,-175 -9,-46 -32,-119 -50,-162 -50,-115 -125,-347 -130,-399 -3,-25 -8,-65 -13,-90.000004 -4,-25 -6,-55 -4,-68 3,-20.0000004 9,-22.00000038 53,-21.00000038 32,1.99999998 49,6.99999998 49,15.00000038 0,7 7,20 16,28 8,9 31,62.000004 51,118.000004 19,57 43,121 53,143 15,35 65,163 106,276 7,19 26,107 43,195 16,87 39,179 50,204 11,24.99998 21,52.99998 21,61.99998 0,9 16,65 35,124 28,86 36,130 41,223 3,64 12,141 20,171 53,217 65,261 82,301 17,40 30,91 92,349 11,47 20,98 20,113 0,31 9,51 80,177 27,47 51,101 55,120 7,37 26,98 43,140 80,192 138,396 158,550 9,69 25,150 36,180 67,187 98,286 113,356 9,43 23,99 31,123 8,25 26,106 38,180 13,75 33,168 45,206 12,40 26,124 31,195 6,69 15,165 20,213 15,128 -1,764 -25,1022 -8,83 -19,227 -24,320 -6,99 -20,224 -35,300 -14,72 -30,164 -36,205 -6,41 -15,89 -20,105 -18,57 -78,410 -95,555 -9,80 -25,199 -35,265 -10,66 -21,156 -25,200 -3,44 -10,114 -15,155 -6,41 -14,119 -20,173 -5,54 -21,148 -35,208 -14,61 -30,152 -34,202 -5,51 -17,112 -26,137 -36,97 -55,169 -71,265 -9,55 -22,109 -29,120 -7,11 -17,56 -23,100 -30,204 -52,378 -52,401 0,14 -13,85 -29,157 -28,128 -62,400.9999 -61,501.9999 0,28 -11,104 -25,170 -13,66 -27,160 -31,210 -3,49 -14,135 -24,190 -10,55 -24,154 -30,220 -7,66 -25,189 -42,274 -16,85 -34,212 -38,283 -5,71 -12,133 -16,139 -7,13 -33,533 -44,884 -5,196 -12,275 -30,365 -25,132 -24,270 3,425 9,50 24,140 33,200 9,61 22,151 30,200 17,112 18,346 2,416 -11,46 -16,53 -48,66 -19,7 -47,20 -62,29 -33,18 -31,32 -29,-196 3,-166 -15,-312 -48,-410 -10,-31 -22,-89 -25,-130 -4,-41 -13,-97 -21,-125 -34,-128 -47,-378 -23,-490 5,-27 13,-180 17,-340 11,-416 29,-781 46,-925 8,-69 17,-162 20,-207 3,-45 16,-135 29,-200 13,-65 27,-154 31,-198 4,-44 17,-152 30,-240 13,-88 27,-198 30,-245 7,-103 23,-218 36,-262 5,-18 14,-91 19,-163 17,-259.9999 32,-381.9999 60,-504.9999 15,-69 31,-159 34,-200 17,-199 115,-559 196,-720 30,-59 33,-73 36,-180 2,-63 8,-144 13,-180 5,-36 14,-96 20,-135 11,-74 46,-398 56,-525 4,-41 15,-129 25,-195 11,-66 24,-167 30,-225 14,-123 50,-353 85,-530 56,-283 85,-492 95,-676 6,-104 15,-227 21,-274 6,-47 13,-269 15,-495 6,-490 -8,-737 -50,-870 -14,-44 -34,-132 -45,-195 -33,-186 -115,-493 -158,-590 -34,-76 -42,-111 -52,-220 -12,-122 -38,-239 -78,-348 l -16,-43 c -80.478,-12.9375 -139.969,-15.6015 -209,-6 -65,10 -211,82 -319,157 -57,40 -117,80 -132,89 -16,9 -86,51 -155,95 -70,43 -161,98 -202,121 -41,23 -100,59 -130,79 -30,20 -100,60 -155,88 -162,83 -267,169 -537,443 -137,137 -248,254 -248,259 0,6 10,21 23,35 26,28 70,137 87,216 7,28 18,66 25,85 64,170 114,414 114,563 0,55 -5.2083,168.1905 4.7917,179.1905 -7.9028,160.1601 -26.934,247.3587 -21.3691,424.9464 -10.0536,94.7143 -12.4226,143.8631 -16.4226,185.8631 -7,77 -28,671 -36,1067 -7,320 -23,749 -34,915 -2,39 -11,95 -20,125 -17,60 -46,316 -46,407 0,31 -4,93 -10,137 -10,87 -42,351 -60,506 -6,52 -15,160 -20,240 -4,80 -19,213 -33,295 -57,338.9999 -62,414.9999 -62,913.9999 v 463 l 27,28 c 29,31 34,55 42,215 7,117 24,193 60,255 22,39 26,58 27,135 2,160 15,277 47,410 16,72 33,157 37,190 4,33 18,126 31,206 14,80 24,150 23,155 -1,5 1,16 5,25 4,9 6,34 4,54 -3,35 -6,39 -45,50 l -41,12 -12,-43 c -7,-24 -14,-44 -16,-44 -6,0 -120,70 -142,88 -18,14 -25,34 -32,87 -6,39 -20,97 -32,130 l -23,60 -7,-70 c -4,-38 -11,-115 -16,-170 -7,-69 -18,-121 -36,-164 -28,-65 -66,-288 -66,-387 0,-29 -7,-87 -15,-130 -8,-44 -19,-154 -24,-246 -7,-104 -16,-181 -25,-203 -27,-63 -46,-193 -46,-309 0,-61 -5,-129 -10,-151 -20,-83 -23,-362 -6,-545 11,-117 18,-316 22,-600 3,-335.9999 8,-459.9999 24,-589.9999 42,-358 50,-468 50,-705 0,-132 4,-319 10,-415 21,-368 32,-506 41,-554 6,-28 14,-116 19,-196 6,-101 18,-187 39,-281 l 31,-137 6,-588 c 3,-324 6,-612 7,-640 -10.7541,-271.9329 -5.2047,-355.4052 2,-533 6,-156 5,-195.1012 2.8393,-213.6786 -7.373,-55.8496 -7.9094,-61.067 -17.8393,-102.3214 -5,-22 -16,-76 -25,-120 -9,-44 -30,-123 -45,-175 -16,-52 -34,-123 -40,-158 -6,-35 -15,-73 -19,-85 -9,-24 -3,-31 -80,95 -22,37 -69,105 -103,152 -35,46 -90,130 -123,185 -33,56 -83,134 -110,174 -66,94 -99,151 -156,267 -25,52 -78,138 -117,190 -115.6051,155.9247 -62.1869,86.042 -93.5043,128.1031 -11,32 -4.0515,69.0749 1.3129,98.416 4.9089,26.8496 4.3877,67.0466 5.1914,103.4809 0.4066,18.4346 4,167 35,293 33,133 49,246 60,417 11,176 22,257 45,348 8,31 20,93 25,139 10,74 23,709 36,1678 6,433 26,625 99,910 18,72 38,164 45,205 6,40.9999 20,117.9999 30,169.9999 10,52 21,145 25,205 3,61 15,162 25,225 11,63 33,236 50,385 27,240 30,301 30,565 0,304 14,483 45,586 8,27 20,101 25,164 11,119 41,321 66,447 7,39 30,181 49,315 20,134 47,293 61,353 14,61 36,187 50,280 13,94 31,193 38,220 32,114 58,374 46,466 -6,43 -13,58 -41,81 -39,33 -72,35 -115,9 z M 7536,5889.2051 c 49,-11 103,-20 120,-20 40,0 56,-19 90,-104 15,-39 59,-111 100,-166 40,-54 96,-147 126,-206 30,-60 101,-181 159,-269 57,-88 127,-197 154,-242 27,-46 68,-107 92,-135 24,-29 62,-84 85,-123 115,-194 167,-255 347,-403 51,-42 173,-157 270,-256 97,-98 201,-202 231,-231 91,-88 250,-197 352,-243 25,-11 77,-40 114,-65 38,-24 107,-66 154,-92 47,-27 96,-56 110,-65 14,-10 68,-44 120,-76 152,-92 201,-124 271,-176 82,-59 222,-125 357,-167 56,-17 102,-33 102,-34 0,-1 -9,-31 -20,-65 -11,-35 -20,-91 -20,-125 0,-51 -44,-272 -57,-287 -2,-2 -18,3 -36,13 -34,17 -184,68 -277,93 -30,8 -130,19 -222,24 -116,7 -210,20 -310,41 -115,25 -181,32 -333,39 -113,4 -239,16 -310,29 -75,13 -163,21 -235,21 -63,0 -175,9 -248,20 -73,11 -208,25 -300,30 -92,6 -214,15 -272,20 -58,6 -152,10 -210,10 -105,0 -172,6 -415,35 -165,20 -594,35 -975,35 -314,0 -433,-4 -545,-19 -38,-5 -113,-14 -165,-20 -52,-6 -153,-18 -224,-26 -70,-9 -196,-20 -280,-25 -304,-19 -484,-31 -596,-40 -189,-14 -489,-48 -580,-66 -47,-9 -97,-18 -111,-21 l -27,-5 -4,129 c -5,115 -3,130 13,148 7.7261,14.9519 9.6586,12.5104 50,29 2,2 47,23 99,46 111,48 151,71 280,155 52,34 115,74 140,88 113,63 391,282 602,474 44,39 100,87 124,105 109,79 289,236 337,291 57,66 187,199 258,262 24,22 81,85 127,140 45,55 121,143 168,195 47,52 115,133 152,180 36,47 113,137 172,200 139,151 199,224 246,301 21,35 58,91 81,124 24,33 68,94 98,136 30,42 87,112 125,155 38,44 85,100 102,126 18,26 45,52 60,59 15,6 33,17 39,25 15,19 38,18 145,-6 z m -2779,-677 c 65,-71 161,-168 213,-218 232,-220 335,-333 452,-497 76,-107 161,-203 212,-240 39,-28 64,-70 65,-113 1,-11 -20,-44 -45,-73 -41,-47 -225,-205 -321,-275 -21,-16 -58,-47 -83,-71 -52,-49 -296,-257 -355,-302 -112,-86 -267,-194 -319,-223 -33,-18 -98,-58 -145,-91 -116.2707,-64.6977 -194.5466,-103.4555 -291.5758,-143.473 -91.6738,-27.4184 -62.3865,-21.4841 -114.4242,-45.527 -6,6 -23,157 -30,264 -7,109 -41,449 -56,560 -11,77 -19,225 -38,655 -9,196 -28,398 -53,560 -17,106 -22,250 -9,263 7,7 33,-12 83,-58 79,-73 101,-85 154,-85 25,0 44,9 73,35 44,40 46,39 94,-45 45,-77 198,-185 276,-196 49,-6 50,-6 106,47 58,55 95,121 95,170 0,37 -54,186 -80,222 -12,15 -16,27 -11,27 5,0 63,-57 128,-127 z m 1203,-826 c 0,-2 -12,-14 -27,-28 l -28,-24 24,28 c 23,25 31,32 31,24 z m 1500,-1783 c 91,-8 232,-23 314,-34 81,-11 189,-20 240,-20 144,1 585,-29 761,-51 88,-11 210,-19 270,-19 66,0 160,-9 235,-21 79,-13 202,-24 335,-29 163,-5 238,-13 335,-32 79,-17 178,-28 269,-32 165,-7 267,-20 331,-41 25,-8 83,-24 129,-35 47,-11 87,-22 89,-25 2,-2 -4,-54 -14,-116 -20,-127 -47,-190 -84,-200 -55,-15 -162,-8 -305,20 -82,17 -213,37 -290,46 -77,9 -171,21 -210,28 -68,11 -348,17 -680,14 -349,-4 -594,0 -680,11 -140,18 -459,0 -670,-37 -249,-43 -256,-44 -571,-25 -285,16 -450,16 -960,-2 -277,-10 -463,15 -763,102 -61,17 -108,24 -174,24 -50,0 -150,10 -221,21 -115,19 -158,21 -346,16 -122,-3 -258,0 -315,6 -88,9 -114,8 -224,-12 -68,-12 -126,-20 -128,-17 -2,2 -7,51 -10,110 -2.6735,49.3307 -9.6234,114.4412 0.1837,131.3258 26.9021,49.3969 116.8163,57.6742 766.8163,115.6742 194,17 380,28 488,29 57,0 133,4 170,10 126,17 237,31 337,40 55,5 132,15 170,21 189,30 1083,32 1405,3 z m 477,-773 c -3,-42 -16,-110 -30,-151 -78,-232 -107,-311 -134,-365 -17,-33 -43,-96 -58,-140 -81.5581,-205.96128 -60.2786,-143.5883 -116.6858,-287.61588 -31.7881,58.8187 -30.9671,70.1765 -57.977,122.97598 -14,19 -30.3372,84.6399 -44.3372,97.6399 -16,15 -11.8991,30.5057 -32,68 -33.3117,49.4336 -59.2251,110.6751 -83,158 -27,56 -57,108 -66,116 -30,25 -108,132 -120,164 -6,17 -22,54 -36,81 -42,82 -83,185 -76,191 3,4 68,1 144,-5 219,-18 438,-14 551,8 123,25 145,28 156,23 5,-3 6,-39 3,-81 z"
     id="path13441"
     style="fill:#020202;stroke:none" />
  <path
     d="m 8776,13018.205 c -9,-94 -7,-137 7,-146 41,-25 64,-122 36,-150 -6,-6 -15,-49 -20,-94 -5,-46 -25,-136 -43,-199 -45,-151 -43,-137 -66,-425 -11,-137 -29,-297 -39,-355 -24,-133 -40,-272 -41,-377 -1,-46 -2,-111 -3,-145 -1,-35 4,-126 10,-203 8,-95 9,-172 3,-240 -18,-190 -9,-332 29,-484 10,-39 20,-256.9999 27,-540.9999 5,-247 21,-466 38,-530 23,-87 36,-258 36,-469 0,-108 4,-248 10,-311 5,-63 12,-214 15,-335 3,-121 11,-263 16,-315 6,-52 14,-133 19,-180 5,-47 14,-128 19,-180 6,-52 15,-110 22,-128 8,-25 9,-36 0,-45 -22,-22 -5,-463 35,-882 3,-42 1,-100 -6,-145 -16.7381,-131.2619 -12.1607,-193.9047 -6,-281 -1.0476,-66.1012 0.2679,-86.1607 1,-123 -5.5298,-61.5179 -20,-142 0,-311 11,-93 12,-149 6,-195 -5,-36 -14,-108 -21,-160 -6,-52 -20,-129 -31,-170 -11,-41 -29,-113 -40,-160 -12,-47 -32,-123 -46,-170 l -25,-85 67,-62 c 37,-35 71,-63 75,-63 4,0 20,33 34,72 15,40 33,82 41,94 19,30 45,122 45,163 0,20 9,70 20,111 32,119 70,309 70,350 -5.1782,48.9192 -0.4381,58.5125 13.9941,140.0536 18.2678,76.0952 18.0059,71.9464 15.0059,242.9464 -3,106 -8,169 -16,178 -6,8 -14,60 -16,119 -3,58 -9,231 -16,385 -6,154 -18,330 -26,390 -8,61 -20,221 -27,357 -11,228 -10,255 6,337 15,75 17,116 12,248 -10,228 -34,569 -51,708 -8,66 -17,149 -20,185 -8,100 -34,264 -60,380 -13,58 -26,141 -29,185 -3,44 -13,105 -21,135 -17,57 -25,205 -44,750 -6,156.9999 -15,300.9999 -21,319.9999 -30,101 -42,227 -35,350 3,69 10,215 14,325 7,178 11,209 35,285 15,47 33,119 41,160 33,191 85,500 91,550 4,30 15,66 26,80 14,19 20,56 28,160 11,143 33,339 53,480 l 12,85 h 45 45 v 49 c 0,49 0,49 -42,61 l -41,12 -12,-43 c -7,-24 -14,-44 -16,-44 -6,0 -120,70 -142,88 -18,14 -25,34 -32,87 -8,57 -46,185 -55,185 -1,0 -5,-28 -9,-61 z"
     id="path17389"
     style="fill:#6c6c6c;stroke:none" />
  <path
     d="m 6377,12968.205 c -20,-22 -30,-47 -39,-99 -8,-45 -17,-70 -25,-70 -7,0 -13,-4 -13,-9 0,-9 -90,-51 -125,-57 -19,-3 -24,2 -34,40 -9,38 -13,43 -35,39 -28,-6 -36,-35 -35,-127 1,-51 2,-56 9,-32 5,16 15,33 22,37 26,16 36,-25 37,-153 2,-137 9,-197 38,-298 24,-87 22,-305 -7,-540 -42,-347 -51,-410 -65,-444 -8,-20 -15,-55 -15,-78 0,-24 -5,-62 -10,-85 -22,-95 -31,-189 -40,-418 -6,-132 -15,-269 -20,-305 -6,-36 -17,-114 -25,-175 -7,-60 -20,-162 -29,-224.9999 -8,-63 -18,-182 -21,-265 -4,-82 -13,-235 -21,-340 -7,-104 -18,-275 -24,-379 -6,-104 -17,-237 -25,-295 -17,-127 -42,-350 -50,-443 -3,-37 -19,-132 -35,-212 -16,-79 -34,-193 -40,-252 -6,-60 -17,-138 -25,-174 -18,-82 -42,-227 -51,-305 -3,-33 -14,-98 -24,-145 -10,-47 -21,-116 -25,-155 -4,-38 -22,-134 -41,-212 -19,-79 -34,-160 -34,-182 0,-21 -10,-70 -22,-107 -22,-67 -23,-79 -21,-475 l 1,-407 31,-42 c 17,-24 31,-48 31,-54 0,-26 132,-276 142,-270 13,8 5,341 -13,522 -10,101 -9,154 2,285 8,91 13,244 11,347 -2,138 1,211 13,285 9,55 18,159 20,230 2,88 11,168 28,250 14,66 33,172 42,235 9,63 23,147 30,185 8,39 20,117 25,175 6,58 24,175 41,260 17,85 34,202 39,260 5,58 16,157 24,220 9,63 20,149 25,190 6,41 13,109 16,150 3,41 14,138 25,215 11,77 24,203 30,280 6,77 19,174 29,216 10,42 24,119 30,170 21,163 41,287.9999 81,488.9999 77,388 84,445 84,675 0,116 -4,323 -8,460 -7,210 -6,270 9,375 9,71 18,215 20,336 3,179 13,480 20,564 1,14 3,53 3,87 2,57 5,65 38,97 40,38 51,85 37,148 l -8,37 z"
     id="path17399"
     style="fill:#6c6c6c;stroke:none" />
  <path
     d="m 8075,1930.2051 -40,-6 -11,-75 c -28,-184 -150,-590 -211,-705 -12,-22 -35,-67 -52,-100 -16,-33 -44,-79.99998 -60,-104.99998 -17,-25 -31,-49 -31,-54 0,-16 -51,-115 -66,-127 -11,-9 -31,25 -108,185 -52,107.99998 -104,209.99998 -116,224.99998 -11,16 -20,38 -20,50 0,11 -36,64 -81,117 -45,54 -93,123 -109,158 -15,33 -51,104 -80,156 -29,52 -69,127 -89,165 l -36,70 -104,3 c -58,1 -110,1 -117,-2 -17,-7 22,-94 82,-188 112,-173 132,-207 162,-268 17,-36 64,-103 106,-150 53,-60 75,-93 76,-112 0,-33 54,-152 102,-227.99998 19,-30 42,-75 52,-100 10,-25 41,-90 71,-146 29,-56 62,-128 73,-160 26,-76 56,-247 48,-272 -9,-27 -43,-35 -56,-14 -8,13 -10,-4 -8,-60 2,-43 8,-82 13,-87 6,-6.000004 22,-5.000004 43,4 30,13 32,17 32,68 0,43 4,56 18,62 9,4 67,9 128,11 125,5 124,5 144,-69 12,-43 25,-65 35,-55 7,6 22,113 18,125 -3,7 -10,10 -18,7 -21,-8 -42,34 -54,108 -6,38 -16,97 -22,132 -19,111 17,230 114,384 41,66 71,138.99998 138,336.99998 23,66 51,136 64,156 13,20 30,60 39,89 16,52 60,170 97,260 11,25 24,68 29,97 5,29 16,68 24,87 l 15,36 -97,-1 c -53,-1 -115,-5 -137,-8 z"
     id="path20593"
     style="fill:#6c6c6c;stroke:none" />
</svg>
