<svg xmlns="http://www.w3.org/2000/svg" xmlns:xlink="http://www.w3.org/1999/xlink" width="1200" height="628" viewBox="0 0 1200 628">
  <defs>
    <rect id="for-activists-by-activists-a" width="1104" height="532" x="48" y="48" rx="24"/>
  </defs>
  <g fill="none" fill-rule="evenodd">
    <rect width="1200" height="628" fill="#FFF"/>
    <path fill="#FF006C" d="M80,580 L1120,580 C1120,588.836556 1112.83656,596 1104,596 L96,596 C87.163444,596 80,588.836556 80,580 L80,580 L80,580 Z" opacity=".5"/>
    <mask id="for-activists-by-activists-b" fill="#fff">
      <use xlink:href="#for-activists-by-activists-a"/>
    </mask>
    <use fill="#FF006C" xlink:href="#for-activists-by-activists-a"/>
    <path fill="#FFF" fill-rule="nonzero" d="M169.192,303 L169.192,276.888 L184.744,276.888 L184.744,262.776 L169.192,262.776 L169.192,248.568 L186.088,248.568 L186.088,234.456 L151.912,234.456 L151.912,303 L169.192,303 Z M215.08,303.96 C220.392,303.96 224.712,302.696 228.04,300.168 C231.368,297.64 233.8,294.28 235.336,290.088 C236.872,285.896 237.64,281.304 237.64,276.312 C237.64,270.488 236.696,265.544 234.808,261.48 C232.92,257.416 230.296,254.312 226.936,252.168 C223.576,250.024 219.688,248.952 215.272,248.952 C210.088,248.952 205.816,250.12 202.456,252.456 C199.096,254.792 196.6,258.024 194.968,262.152 C193.336,266.28 192.52,271 192.52,276.312 C192.52,281.368 193.368,285.992 195.064,290.184 C196.76,294.376 199.288,297.72 202.648,300.216 C206.008,302.712 210.152,303.96 215.08,303.96 Z M215.176,290.808 C213.128,290.808 211.672,289.576 210.808,287.112 C209.944,284.648 209.512,281.08 209.512,276.408 C209.512,271.544 209.944,267.944 210.808,265.608 C211.672,263.272 213.128,262.104 215.176,262.104 C217.224,262.104 218.664,263.288 219.496,265.656 C220.328,268.024 220.744,271.576 220.744,276.312 C220.744,281.112 220.328,284.728 219.496,287.16 C218.664,289.592 217.224,290.808 215.176,290.808 Z M262.504,303 L262.504,276.504 C262.504,272.6 263.304,269.848 264.904,268.248 C266.504,266.648 268.552,265.848 271.048,265.848 C272.392,265.848 273.48,265.896 274.312,265.992 C275.144,266.088 275.88,266.232 276.52,266.424 L276.52,266.424 L277.864,249.528 C276.328,249.144 274.792,248.952 273.256,248.952 C271.528,248.952 269.912,249.416 268.408,250.344 C266.904,251.272 265.592,252.456 264.472,253.896 C263.352,255.336 262.44,256.824 261.736,258.36 L261.736,258.36 L260.872,258.36 L258.376,249.912 L245.704,249.912 L245.704,303 L262.504,303 Z M312.616,303.96 C316.136,303.96 318.936,303.32 321.016,302.04 C323.096,300.76 325.064,298.744 326.92,295.992 L326.92,295.992 L327.208,295.992 L330.184,303 L341.992,303 L341.992,268.152 C341.992,261.752 340.392,256.952 337.192,253.752 C333.992,250.552 329.672,248.952 324.232,248.952 C320.136,248.952 316.408,249.368 313.048,250.2 C309.688,251.032 306.664,252.216 303.976,253.752 L303.976,253.752 L308.392,265.464 C313.128,262.84 317.096,261.528 320.296,261.528 C323.56,261.528 325.192,263.704 325.192,268.056 L325.192,268.056 L325.192,269.208 L318.088,269.496 C312.072,269.752 307.464,271.272 304.264,274.056 C301.064,276.84 299.464,281.08 299.464,286.776 C299.464,289.912 299.944,292.792 300.904,295.416 C301.864,298.04 303.32,300.12 305.272,301.656 C307.224,303.192 309.672,303.96 312.616,303.96 Z M320.008,291.384 C317.512,291.384 316.264,289.592 316.264,286.008 C316.264,281.912 318.312,279.736 322.408,279.48 L322.408,279.48 L325.288,279.288 L325.288,283.8 C325.288,286.04 324.76,287.864 323.704,289.272 C322.648,290.68 321.416,291.384 320.008,291.384 Z M372.232,303.96 C375.112,303.96 377.752,303.592 380.152,302.856 C382.552,302.12 384.744,301.048 386.728,299.64 L386.728,299.64 L386.728,286.008 C383.144,288.888 379.528,290.328 375.88,290.328 C373.064,290.328 370.84,289.208 369.208,286.968 C367.576,284.728 366.76,281.304 366.76,276.696 C366.76,272.088 367.576,268.584 369.208,266.184 C370.84,263.784 372.968,262.584 375.592,262.584 C376.936,262.584 378.312,262.84 379.72,263.352 C381.128,263.864 382.472,264.504 383.752,265.272 L383.752,265.272 L388.072,252.984 C385.832,251.704 383.464,250.712 380.968,250.008 C378.472,249.304 375.784,248.952 372.904,248.952 C367.848,248.952 363.608,250.104 360.184,252.408 C356.76,254.712 354.168,257.96 352.408,262.152 C350.648,266.344 349.768,271.192 349.768,276.696 C349.768,286.104 351.72,293 355.624,297.384 C359.528,301.768 365.064,303.96 372.232,303.96 Z M412.168,303.96 C414.728,303.96 416.984,303.688 418.936,303.144 C420.888,302.6 422.792,301.88 424.648,300.984 L424.648,300.984 L424.648,288.408 C423.304,288.92 422.04,289.352 420.856,289.704 C419.672,290.056 418.536,290.232 417.448,290.232 C414.888,290.232 413.608,288.504 413.608,285.048 L413.608,285.048 L413.608,262.968 L423.88,262.968 L423.88,249.912 L413.608,249.912 L413.608,239.256 L402.376,239.256 L398.44,250.392 L391.432,254.904 L391.432,262.968 L396.904,262.968 L396.904,285.528 C396.904,292.056 398.136,296.76 400.6,299.64 C403.064,302.52 406.92,303.96 412.168,303.96 Z M440.008,244.728 C442.76,244.728 444.92,244.088 446.488,242.808 C448.056,241.528 448.84,239.48 448.84,236.664 C448.84,233.784 448.072,231.704 446.536,230.424 C445,229.144 442.824,228.504 440.008,228.504 C437.128,228.504 434.936,229.144 433.432,230.424 C431.928,231.704 431.176,233.784 431.176,236.664 C431.176,239.48 431.96,241.528 433.528,242.808 C435.096,244.088 437.256,244.728 440.008,244.728 Z M448.264,303 L448.264,249.912 L431.56,249.912 L431.56,303 L448.264,303 Z M486.952,303 L502.984,249.912 L485.608,249.912 L479.752,276.408 C479.304,278.456 478.952,280.328 478.696,282.024 C478.44,283.72 478.28,285.272 478.216,286.68 L478.216,286.68 L477.832,286.68 C477.64,283.544 477.128,280.056 476.296,276.216 L476.296,276.216 L470.92,249.912 L453.448,249.912 L469.288,303 L486.952,303 Z M516.52,244.728 C519.272,244.728 521.432,244.088 523,242.808 C524.568,241.528 525.352,239.48 525.352,236.664 C525.352,233.784 524.584,231.704 523.048,230.424 C521.512,229.144 519.336,228.504 516.52,228.504 C513.64,228.504 511.448,229.144 509.944,230.424 C508.44,231.704 507.688,233.784 507.688,236.664 C507.688,239.48 508.472,241.528 510.04,242.808 C511.608,244.088 513.768,244.728 516.52,244.728 Z M524.776,303 L524.776,249.912 L508.072,249.912 L508.072,303 L524.776,303 Z M548.776,303.96 C555.112,303.96 559.848,302.456 562.984,299.448 C566.12,296.44 567.688,292.184 567.688,286.68 C567.688,282.392 566.712,279.016 564.76,276.552 C562.808,274.088 560.072,271.928 556.552,270.072 C554.184,268.792 552.44,267.8 551.32,267.096 C550.2,266.392 549.464,265.8 549.112,265.32 C548.76,264.84 548.584,264.312 548.584,263.736 C548.584,262.136 549.576,261.336 551.56,261.336 C553.16,261.336 554.984,261.72 557.032,262.488 C559.08,263.256 561.032,264.184 562.888,265.272 L562.888,265.272 L566.92,253.464 C564.232,251.992 561.608,250.872 559.048,250.104 C556.488,249.336 553.736,248.952 550.792,248.952 C545.096,248.952 540.632,250.312 537.4,253.032 C534.168,255.752 532.552,259.608 532.552,264.6 C532.552,268.568 533.416,271.864 535.144,274.488 C536.872,277.112 539.4,279.256 542.728,280.92 C545.224,282.2 547.096,283.208 548.344,283.944 C549.592,284.68 550.408,285.32 550.792,285.864 C551.176,286.408 551.368,287 551.368,287.64 C551.368,289.624 549.96,290.616 547.144,290.616 C545.032,290.616 542.68,290.216 540.088,289.416 C537.496,288.616 535.016,287.576 532.648,286.296 L532.648,286.296 L532.648,300.984 C535.272,302.072 537.912,302.84 540.568,303.288 C543.224,303.736 545.96,303.96 548.776,303.96 Z M592.168,303.96 C594.728,303.96 596.984,303.688 598.936,303.144 C600.888,302.6 602.792,301.88 604.648,300.984 L604.648,300.984 L604.648,288.408 C603.304,288.92 602.04,289.352 600.856,289.704 C599.672,290.056 598.536,290.232 597.448,290.232 C594.888,290.232 593.608,288.504 593.608,285.048 L593.608,285.048 L593.608,262.968 L603.88,262.968 L603.88,249.912 L593.608,249.912 L593.608,239.256 L582.376,239.256 L578.44,250.392 L571.432,254.904 L571.432,262.968 L576.904,262.968 L576.904,285.528 C576.904,292.056 578.136,296.76 580.6,299.64 C583.064,302.52 586.92,303.96 592.168,303.96 Z M625.576,303.96 C631.912,303.96 636.648,302.456 639.784,299.448 C642.92,296.44 644.488,292.184 644.488,286.68 C644.488,282.392 643.512,279.016 641.56,276.552 C639.608,274.088 636.872,271.928 633.352,270.072 C630.984,268.792 629.24,267.8 628.12,267.096 C627,266.392 626.264,265.8 625.912,265.32 C625.56,264.84 625.384,264.312 625.384,263.736 C625.384,262.136 626.376,261.336 628.36,261.336 C629.96,261.336 631.784,261.72 633.832,262.488 C635.88,263.256 637.832,264.184 639.688,265.272 L639.688,265.272 L643.72,253.464 C641.032,251.992 638.408,250.872 635.848,250.104 C633.288,249.336 630.536,248.952 627.592,248.952 C621.896,248.952 617.432,250.312 614.2,253.032 C610.968,255.752 609.352,259.608 609.352,264.6 C609.352,268.568 610.216,271.864 611.944,274.488 C613.672,277.112 616.2,279.256 619.528,280.92 C622.024,282.2 623.896,283.208 625.144,283.944 C626.392,284.68 627.208,285.32 627.592,285.864 C627.976,286.408 628.168,287 628.168,287.64 C628.168,289.624 626.76,290.616 623.944,290.616 C621.832,290.616 619.48,290.216 616.888,289.416 C614.296,288.616 611.816,287.576 609.448,286.296 L609.448,286.296 L609.448,300.984 C612.072,302.072 614.712,302.84 617.368,303.288 C620.024,303.736 622.76,303.96 625.576,303.96 Z M663.016,316.344 C664.424,312.824 665.688,308.744 666.808,304.104 C667.928,299.464 668.84,294.776 669.544,290.04 L669.544,290.04 L669.064,288.984 L653.416,288.984 C653.224,291.416 652.936,294.264 652.552,297.528 C652.168,300.792 651.736,304.088 651.256,307.416 C650.776,310.744 650.28,313.72 649.768,316.344 L649.768,316.344 L663.016,316.344 Z" mask="url(#for-activists-by-activists-b)"/>
    <path fill="#002CFF" fill-rule="nonzero" d="M1094.9375,186.3125 C1096.9375,186.3125 1098.46875,185.3125 1099.53125,183.3125 C1100.59375,181.3125 1105.875,172.5625 1115.375,157.0625 C1124.875,141.5625 1131.6875,131.09375 1135.8125,125.65625 C1139.9375,120.21875 1142,116.0625 1142,113.1875 C1142,109.8125 1139.4375,107.375 1134.3125,105.875 C1129.1875,104.375 1126.125,103.4375 1125.125,103.0625 L1125.125,103.0625 L1117.8125,100.4375 C1115.3125,99.6875 1112.8125,99 1110.3125,98.375 C1107.8125,97.75 1105.3125,97.4375 1102.8125,97.4375 C1097.1875,97.4375 1094,107.59375 1093.25,127.90625 C1092.5,148.21875 1091.875,159.6875 1091.375,162.3125 C1090.875,164.9375 1090.625,170.125 1090.625,177.875 C1090.625,179.375 1090.875,181.15625 1091.375,183.21875 C1091.875,185.28125 1093.0625,186.3125 1094.9375,186.3125 Z M1071.6875,525.125 C1086.0625,525.125 1097.90625,523.34375 1107.21875,519.78125 C1116.53125,516.21875 1126,511.15625 1135.625,504.59375 C1145.25,498.03125 1154.09375,489.8125 1162.15625,479.9375 C1170.21875,470.0625 1176.28125,458.34375 1180.34375,444.78125 C1184.40625,431.21875 1186.4375,418.6875 1186.4375,407.1875 C1186.4375,389.6875 1182.59375,370.34375 1174.90625,349.15625 C1167.21875,327.96875 1155.4375,310.71875 1139.5625,297.40625 C1123.6875,284.09375 1108.4375,277.4375 1093.8125,277.4375 L1093.8125,277.4375 L1091,277.4375 C1090.375,274.9375 1089.96875,271.84375 1089.78125,268.15625 C1089.59375,264.46875 1088.25,258.0625 1085.75,248.9375 L1085.75,248.9375 L1081.25,232.4375 L1073.9375,207.6875 C1071.4375,198.3125 1068.375,188.875 1064.75,179.375 C1061.125,169.875 1057.75,160.78125 1054.625,152.09375 C1051.5,143.40625 1046.28125,136.59375 1038.96875,131.65625 C1031.65625,126.71875 1023.4375,124.25 1014.3125,124.25 C1001.5625,124.25 991.28125,128.4375 983.46875,136.8125 C975.65625,145.1875 971.75,156.375 971.75,170.375 C971.75,177.25 972.65625,182.9375 974.46875,187.4375 C976.28125,191.9375 977.1875,194.5625 977.1875,195.3125 C977.1875,195.9375 976.8125,196.25 976.0625,196.25 C974.6875,196.25 970.90625,194.5 964.71875,191 C958.53125,187.5 949.625,182.1875 938,175.0625 L938,175.0625 L903.875,154.25 C885.625,143.25 872.78125,135.65625 865.34375,131.46875 C857.90625,127.28125 850.1875,125.1875 842.1875,125.1875 C831.9375,125.1875 822.4375,129.21875 813.6875,137.28125 C804.9375,145.34375 800.5625,155.125 800.5625,166.625 C800.5625,168.25 800.6875,169.875 800.9375,171.5 C801.1875,173.125 801.5,174.8125 801.875,176.5625 C793.25,179.1875 786.09375,184.3125 780.40625,191.9375 C774.71875,199.5625 771.875,207.625 771.875,216.125 C771.875,220.625 772.65625,224.90625 774.21875,228.96875 C775.78125,233.03125 777.8125,236.875 780.3125,240.5 C775.6875,244.25 771.84375,249.0625 768.78125,254.9375 C765.71875,260.8125 764.1875,266.875 764.1875,273.125 C764.1875,279.875 765.90625,286.1875 769.34375,292.0625 C772.78125,297.9375 777.125,302.875 782.375,306.875 C780.25,310.5 778.4375,314.34375 776.9375,318.40625 C775.4375,322.46875 774.6875,326.75 774.6875,331.25 C774.6875,338.625 776.65625,345.375 780.59375,351.5 C784.53125,357.625 789.625,362.53125 795.875,366.21875 C802.125,369.90625 808.84375,372.34375 816.03125,373.53125 C823.21875,374.71875 830.4375,375.75 837.6875,376.625 L837.6875,376.625 L857.1875,379.25 L876.875,381.6875 C883.125,382.4375 888.71875,383.15625 893.65625,383.84375 C898.59375,384.53125 902.25,385.125 904.625,385.625 C906.5,405.375 917.03125,426.71875 936.21875,449.65625 C955.40625,472.59375 976.09375,490.90625 998.28125,504.59375 C1020.46875,518.28125 1044.9375,525.125 1071.6875,525.125 Z M1067.75,285.6875 C1053.75,272.9375 1041.65625,263.21875 1031.46875,256.53125 C1021.28125,249.84375 1011.75,246.125 1002.875,245.375 C1005.125,242.375 1007.09375,239.5625 1008.78125,236.9375 C1010.46875,234.3125 1011.3125,230.8125 1011.3125,226.4375 C1011.3125,225.0625 1011.21875,223.53125 1011.03125,221.84375 C1010.84375,220.15625 1010.4375,218.4375 1009.8125,216.6875 L1009.8125,216.6875 L1002.5,196.8125 C999.375,188.6875 997.28125,182.875 996.21875,179.375 C995.15625,175.875 994.625,172.8125 994.625,170.1875 C994.625,163.6875 996.3125,158.25 999.6875,153.875 C1003.0625,149.5 1007.9375,147.3125 1014.3125,147.3125 C1020.8125,147.3125 1025.5,148.96875 1028.375,152.28125 C1031.25,155.59375 1034.46875,163.03125 1038.03125,174.59375 C1041.59375,186.15625 1045.1875,197.1875 1048.8125,207.6875 L1048.8125,207.6875 L1056.6875,236.75 C1059.8125,244.125 1062.4375,251.71875 1064.5625,259.53125 C1066.6875,267.34375 1067.75,275.125 1067.75,282.875 L1067.75,282.875 L1067.75,285.6875 Z M907.25,362.75 C903.25,361.875 899.875,361.25 897.125,360.875 L897.125,360.875 L887.9375,359.9375 C884.9375,359.6875 881.25,359.25 876.875,358.625 L876.875,358.625 L847.8125,354.875 L833.9375,353 L820.25,350.9375 C814.5,349.9375 809.3125,347.625 804.6875,344 C800.0625,340.375 797.75,336.125 797.75,331.25 C797.75,326 799.65625,321.375 803.46875,317.375 C807.28125,313.375 811.875,311.375 817.25,311.375 C818.125,311.5 818.9375,311.5625 819.6875,311.5625 L819.6875,311.5625 L821.9375,311.9375 L848.75,317.375 C855.25,318.75 862.3125,320.15625 869.9375,321.59375 C877.5625,323.03125 885.1875,324.4375 892.8125,325.8125 C893.1875,328.8125 893.96875,331.65625 895.15625,334.34375 C896.34375,337.03125 897.6875,338.375 899.1875,338.375 C902.0625,338.375 903.65625,333.9375 903.96875,325.0625 C904.28125,316.1875 906.59375,302.59375 910.90625,284.28125 C915.21875,265.96875 921.9375,248.375 931.0625,231.5 L931.0625,231.5 L932.75,228.125 C933.375,226.625 933.6875,225.1875 933.6875,223.8125 C933.6875,222.8125 933.40625,222.09375 932.84375,221.65625 C932.28125,221.21875 931.6875,221 931.0625,221 C928.6875,221 926.25,222.3125 923.75,224.9375 C921.25,227.5625 919.75,229.0625 919.25,229.4375 C914.625,227.1875 909.5625,224.6875 904.0625,221.9375 C898.5625,219.1875 893.375,216.5 888.5,213.875 L888.5,213.875 L870.6875,204.6875 L854.375,196.0625 C846.625,191.9375 840.90625,188.78125 837.21875,186.59375 C833.53125,184.40625 830.3125,181.46875 827.5625,177.78125 C824.8125,174.09375 823.4375,170.4375 823.4375,166.8125 C823.4375,162.1875 825.40625,157.90625 829.34375,153.96875 C833.28125,150.03125 837.5625,148.0625 842.1875,148.0625 C844.0625,148.0625 846,148.3125 848,148.8125 C850,149.3125 852.125,150.25 854.375,151.625 L854.375,151.625 L876.125,164.1875 L898.25,177.5 L936.3125,200.9375 C941.8125,204.4375 947,207.8125 951.875,211.0625 C957.875,213.6875 966.1875,217.6875 976.8125,223.0625 C987.4375,228.4375 992.75,232.625 992.75,235.625 C992.75,237.375 992.25,239.0625 991.25,240.6875 C990.25,242.3125 989.5625,244 989.1875,245.75 C983.5625,246.625 978.625,248.5 974.375,251.375 C970.125,254.25 966.6875,257.9375 964.0625,262.4375 C954.1875,262.4375 945.875,266.09375 939.125,273.40625 C932.375,280.71875 929,288.9375 929,298.0625 L929,298.0625 L929,299.9375 C923.25,303.1875 919.03125,307.625 916.34375,313.25 C913.65625,318.875 912.3125,324.5 912.3125,330.125 C912.3125,333.5 912.6875,336.8125 913.4375,340.0625 C914.1875,343.3125 915.1875,346.5 916.4375,349.625 C914.9375,350.875 913.28125,352.65625 911.46875,354.96875 C909.65625,357.28125 908.25,359.875 907.25,362.75 Z M898.8125,266.75 L884,262.0625 C878.25,260.3125 872.25,258.375 866,256.25 L866,256.25 L846.875,249.6875 C825,242.1875 812.15625,237.40625 808.34375,235.34375 C804.53125,233.28125 801.34375,230.4375 798.78125,226.8125 C796.21875,223.1875 794.9375,219.625 794.9375,216.125 C794.9375,211.75 796.8125,207.5625 800.5625,203.5625 C804.3125,199.5625 808.875,197.5625 814.25,197.5625 C817.125,197.5625 820.375,198.40625 824,200.09375 C827.625,201.78125 830.3125,203 832.0625,203.75 L832.0625,203.75 L898.8125,233.9375 C903.9375,236.3125 908.125,238.1875 911.375,239.5625 C908.875,243.5625 906.53125,247.9375 904.34375,252.6875 C902.15625,257.4375 900.3125,262.125 898.8125,266.75 L898.8125,266.75 Z M1132.25,251.375 C1143.625,251.375 1156.9375,250.53125 1172.1875,248.84375 C1187.4375,247.15625 1195.9375,245.75 1197.6875,244.625 C1199.4375,243.5 1200.3125,241.8125 1200.3125,239.5625 C1200.3125,237.9375 1200.125,236.3125 1199.75,234.6875 L1199.75,234.6875 L1198.8125,230.5625 C1198.5625,228.5625 1198.25,226.625 1197.875,224.75 L1197.875,224.75 L1196.75,219.5 C1195.75,216.625 1194.3125,213.9375 1192.4375,211.4375 C1190.5625,208.9375 1189.0625,207.6875 1187.9375,207.6875 C1184.0625,207.6875 1179.1875,209.625 1173.3125,213.5 C1167.4375,217.375 1161.0625,221.375 1154.1875,225.5 C1147.3125,229.625 1140.28125,233.65625 1133.09375,237.59375 C1125.90625,241.53125 1122.3125,244.75 1122.3125,247.25 C1122.3125,250 1125.625,251.375 1132.25,251.375 Z M891.5,312.875 L824.75,297.6875 C815.875,295.6875 809.34375,294.125 805.15625,293 C800.96875,291.875 796.9375,289.28125 793.0625,285.21875 C789.1875,281.15625 787.25,277.0625 787.25,272.9375 C787.375,272.3125 787.4375,271.75 787.4375,271.25 L787.4375,271.25 L787.8125,269.5625 C789.1875,265.4375 791.46875,261.84375 794.65625,258.78125 C797.84375,255.71875 801.8125,254.1875 806.5625,254.1875 C807.5625,254.1875 808.625,254.25 809.75,254.375 C810.875,254.5 812.0625,254.75 813.3125,255.125 L813.3125,255.125 L825.875,259.0625 C831.875,261.0625 838.8125,263.25 846.6875,265.625 L846.6875,265.625 L871.0625,272.9375 C879.5625,275.5625 887.5,277.9375 894.875,280.0625 C893.75,285.3125 892.90625,290.59375 892.34375,295.90625 C891.78125,301.21875 891.5,306.875 891.5,312.875 L891.5,312.875 Z M1078.0625,503 L1071.3125,503 C1060.8125,503 1050.84375,501.75 1041.40625,499.25 C1031.96875,496.75 1024.5625,493.9375 1019.1875,490.8125 L1019.1875,490.8125 L1012.0625,486.875 C994.1875,476.625 977.625,462.875 962.375,445.625 C947.125,428.375 937.28125,415.03125 932.84375,405.59375 C928.40625,396.15625 926.1875,387.625 926.1875,380 C926.1875,375 926.84375,371.40625 928.15625,369.21875 C929.46875,367.03125 931.125,365.9375 933.125,365.9375 C935,365.9375 936.59375,367.25 937.90625,369.875 C939.21875,372.5 942.53125,377.875 947.84375,386 C953.15625,394.125 959.9375,402.59375 968.1875,411.40625 C976.4375,420.21875 981.875,424.625 984.5,424.625 C986.25,424.625 987.78125,424 989.09375,422.75 C990.40625,421.5 991.0625,420 991.0625,418.25 C991.0625,416 987.125,411.375 979.25,404.375 C971.375,397.375 961.9375,385.09375 950.9375,367.53125 C939.9375,349.96875 934.4375,337.625 934.4375,330.5 C934.4375,327.25 935.5,324.28125 937.625,321.59375 C939.75,318.90625 941.875,317.5625 944,317.5625 C944.75,317.5625 945.40625,317.71875 945.96875,318.03125 C946.53125,318.34375 947.0625,318.6875 947.5625,319.0625 L947.5625,319.0625 L948.6875,320.75 C952.6875,326 960.03125,335.03125 970.71875,347.84375 C981.40625,360.65625 990.28125,371 997.34375,378.875 C1004.40625,386.75 1008.40625,390.96875 1009.34375,391.53125 C1010.28125,392.09375 1011.375,392.375 1012.625,392.375 C1014.75,392.375 1016.34375,391.71875 1017.40625,390.40625 C1018.46875,389.09375 1019,387.6875 1019,386.1875 C1019,385.0625 1018.53125,383.8125 1017.59375,382.4375 C1016.65625,381.0625 1015.5,379.625 1014.125,378.125 L1014.125,378.125 L1005.6875,369.125 C1000.6875,363.625 995.71875,357.96875 990.78125,352.15625 C985.84375,346.34375 980.4375,339.8125 974.5625,332.5625 L974.5625,332.5625 L956,310.0625 C954.75,308.1875 953.625,306.1875 952.625,304.0625 C951.625,301.9375 951.125,299.75 951.125,297.5 C951.125,294.375 952.53125,291.40625 955.34375,288.59375 C958.15625,285.78125 961.125,284.375 964.25,284.375 C967.375,284.375 970.1875,285.1875 972.6875,286.8125 C975.1875,288.4375 986.375,300.125 1006.25,321.875 C1026.125,343.625 1036.96875,356 1038.78125,359 C1040.59375,362 1042.875,363.5 1045.625,363.5 C1047.25,363.5 1048.6875,362.96875 1049.9375,361.90625 C1051.1875,360.84375 1051.8125,359.4375 1051.8125,357.6875 C1051.8125,356.3125 1051.21875,354.71875 1050.03125,352.90625 C1048.84375,351.09375 1047.375,349.125 1045.625,347 L1045.625,347 L1042.625,343.8125 C1034.875,334.3125 1026.03125,324.15625 1016.09375,313.34375 C1006.15625,302.53125 998,294 991.625,287.75 L991.625,287.75 L983.75,280.0625 C982.875,278.5625 982.4375,277.1875 982.4375,275.9375 C982.4375,273.6875 983.84375,271.625 986.65625,269.75 C989.46875,267.875 992.8125,266.9375 996.6875,266.9375 C999.9375,266.9375 1003.625,267.65625 1007.75,269.09375 C1011.875,270.53125 1016.875,273.25 1022.75,277.25 L1022.75,277.25 L1027.25,280.4375 C1031.5,283.5625 1037.5,288.5 1045.25,295.25 C1053,302 1060.6875,309.1875 1068.3125,316.8125 L1068.3125,316.8125 L1081.4375,330.875 L1082.9375,332.9375 C1090.9375,341.9375 1097.625,350.28125 1103,357.96875 C1108.375,365.65625 1111.875,371 1113.5,374 C1115.125,377 1117.1875,378.5 1119.6875,378.5 C1121.4375,378.5 1122.90625,377.84375 1124.09375,376.53125 C1125.28125,375.21875 1125.875,373.75 1125.875,372.125 C1125.875,368.875 1120.75,360.34375 1110.5,346.53125 C1100.25,332.71875 1092.9375,323.84375 1088.5625,319.90625 C1084.1875,315.96875 1082,312.125 1082,308.375 C1082,305.75 1082.96875,303.625 1084.90625,302 C1086.84375,300.375 1089.875,299.5625 1094,299.5625 C1103.875,299.5625 1115.15625,305.25 1127.84375,316.625 C1140.53125,328 1149.78125,341.75 1155.59375,357.875 C1161.40625,374 1164.3125,390.4375 1164.3125,407.1875 C1164.3125,421.4375 1161.28125,435.5625 1155.21875,449.5625 C1149.15625,463.5625 1138.375,475.96875 1122.875,486.78125 C1107.375,497.59375 1092.4375,503 1078.0625,503 L1078.0625,503 Z M807.5,462.5 C810.625,462.5 814.1875,460.6875 818.1875,457.0625 C822.1875,453.4375 825.5,450.84375 828.125,449.28125 C830.75,447.71875 833.5625,445.4375 836.5625,442.4375 C839.5625,439.4375 845.5625,434.25 854.5625,426.875 C863.5625,419.5 869.28125,414.53125 871.71875,411.96875 C874.15625,409.40625 875.375,407.3125 875.375,405.6875 C875.375,404.5625 874.96875,403.71875 874.15625,403.15625 C873.34375,402.59375 872.5,402.3125 871.625,402.3125 C865.875,402.3125 859.96875,403.15625 853.90625,404.84375 C847.84375,406.53125 835.875,409.3125 818,413.1875 C800.125,417.0625 790.15625,419.96875 788.09375,421.90625 C786.03125,423.84375 785,426.125 785,428.75 C785,430 787.1875,435.9375 791.5625,446.5625 C795.9375,457.1875 801.25,462.5 807.5,462.5 Z M900.5,536.1875 C903.125,536.1875 904.9375,535.34375 905.9375,533.65625 C906.9375,531.96875 907.4375,529.375 907.4375,525.875 C907.4375,523.75 907.65625,521.46875 908.09375,519.03125 C908.53125,516.59375 909,513.125 909.5,508.625 L909.5,508.625 L910.8125,496.0625 C911.4375,490.5625 912.03125,484.75 912.59375,478.625 C913.15625,472.5 913.4375,466.5 913.4375,460.625 L913.4375,460.625 L913.4375,457.0625 C913.4375,455.6875 913.25,454.1875 912.875,452.5625 C912.5,450.9375 911.5625,450.125 910.0625,450.125 C907.5625,450.125 903.15625,453.8125 896.84375,461.1875 C890.53125,468.5625 883.375,478.0625 875.375,489.6875 L875.375,489.6875 L871.4375,494.5625 C867.4375,499.5625 864.4375,503.90625 862.4375,507.59375 C860.4375,511.28125 859.4375,514.375 859.4375,516.875 C859.4375,519.75 861.59375,522.59375 865.90625,525.40625 C870.21875,528.21875 876.59375,530.71875 885.03125,532.90625 C893.46875,535.09375 898.625,536.1875 900.5,536.1875 Z" mask="url(#for-activists-by-activists-b)"/>
    <path fill="#FFF" fill-rule="nonzero" d="M278.872,400.96 C283.864,400.96 287.8,398.528 290.68,393.664 C293.56,388.8 295,382.016 295,373.312 C295,364.736 293.576,358.032 290.728,353.2 C287.88,348.368 284.088,345.952 279.352,345.952 C274.296,345.952 270.392,348.544 267.64,353.728 L267.64,353.728 L267.16,353.728 C267.288,351.616 267.4,349.712 267.496,348.016 C267.592,346.32 267.64,344.832 267.64,343.552 L267.64,343.552 L267.64,327.04 L250.936,327.04 L250.936,400 L264.184,400 L266.776,394.816 L267.64,394.816 C269.304,396.992 270.936,398.56 272.536,399.52 C274.136,400.48 276.248,400.96 278.872,400.96 Z M273.208,387.424 C271.16,387.424 269.72,386.384 268.888,384.304 C268.056,382.224 267.64,378.912 267.64,374.368 L267.64,374.368 L267.64,371.488 C267.64,367.328 268.088,364.304 268.984,362.416 C269.88,360.528 271.224,359.584 273.016,359.584 C276.344,359.584 278.008,364.096 278.008,373.12 C278.008,382.656 276.408,387.424 273.208,387.424 Z M308.632,423.04 C314.2,423.04 318.552,421.52 321.688,418.48 C324.824,415.44 327.448,410.4 329.56,403.36 L329.56,403.36 L346.36,346.912 L329.176,346.912 L323.224,372.352 C322.84,373.888 322.552,375.296 322.36,376.576 C322.168,377.856 322.04,379.04 321.976,380.128 L321.976,380.128 L321.592,380.128 C321.464,377.696 321.048,375.04 320.344,372.16 L320.344,372.16 L314.392,346.912 L296.824,346.912 L313.72,399.232 L313.432,400.288 C312.472,403.68 311.544,405.984 310.648,407.2 C309.752,408.416 308.216,409.024 306.04,409.024 C305.336,409.024 304.616,408.96 303.88,408.832 C303.144,408.704 302.456,408.576 301.816,408.448 L301.816,408.448 L301.816,422.272 C302.776,422.528 303.816,422.72 304.936,422.848 C306.056,422.976 307.288,423.04 308.632,423.04 Z M380.536,400.96 C384.056,400.96 386.856,400.32 388.936,399.04 C391.016,397.76 392.984,395.744 394.84,392.992 L394.84,392.992 L395.128,392.992 L398.104,400 L409.912,400 L409.912,365.152 C409.912,358.752 408.312,353.952 405.112,350.752 C401.912,347.552 397.592,345.952 392.152,345.952 C388.056,345.952 384.328,346.368 380.968,347.2 C377.608,348.032 374.584,349.216 371.896,350.752 L371.896,350.752 L376.312,362.464 C381.048,359.84 385.016,358.528 388.216,358.528 C391.48,358.528 393.112,360.704 393.112,365.056 L393.112,365.056 L393.112,366.208 L386.008,366.496 C379.992,366.752 375.384,368.272 372.184,371.056 C368.984,373.84 367.384,378.08 367.384,383.776 C367.384,386.912 367.864,389.792 368.824,392.416 C369.784,395.04 371.24,397.12 373.192,398.656 C375.144,400.192 377.592,400.96 380.536,400.96 Z M387.928,388.384 C385.432,388.384 384.184,386.592 384.184,383.008 C384.184,378.912 386.232,376.736 390.328,376.48 L390.328,376.48 L393.208,376.288 L393.208,380.8 C393.208,383.04 392.68,384.864 391.624,386.272 C390.568,387.68 389.336,388.384 387.928,388.384 Z M440.152,400.96 C443.032,400.96 445.672,400.592 448.072,399.856 C450.472,399.12 452.664,398.048 454.648,396.64 L454.648,396.64 L454.648,383.008 C451.064,385.888 447.448,387.328 443.8,387.328 C440.984,387.328 438.76,386.208 437.128,383.968 C435.496,381.728 434.68,378.304 434.68,373.696 C434.68,369.088 435.496,365.584 437.128,363.184 C438.76,360.784 440.888,359.584 443.512,359.584 C444.856,359.584 446.232,359.84 447.64,360.352 C449.048,360.864 450.392,361.504 451.672,362.272 L451.672,362.272 L455.992,349.984 C453.752,348.704 451.384,347.712 448.888,347.008 C446.392,346.304 443.704,345.952 440.824,345.952 C435.768,345.952 431.528,347.104 428.104,349.408 C424.68,351.712 422.088,354.96 420.328,359.152 C418.568,363.344 417.688,368.192 417.688,373.696 C417.688,383.104 419.64,390 423.544,394.384 C427.448,398.768 432.984,400.96 440.152,400.96 Z M480.088,400.96 C482.648,400.96 484.904,400.688 486.856,400.144 C488.808,399.6 490.712,398.88 492.568,397.984 L492.568,397.984 L492.568,385.408 C491.224,385.92 489.96,386.352 488.776,386.704 C487.592,387.056 486.456,387.232 485.368,387.232 C482.808,387.232 481.528,385.504 481.528,382.048 L481.528,382.048 L481.528,359.968 L491.8,359.968 L491.8,346.912 L481.528,346.912 L481.528,336.256 L470.296,336.256 L466.36,347.392 L459.352,351.904 L459.352,359.968 L464.824,359.968 L464.824,382.528 C464.824,389.056 466.056,393.76 468.52,396.64 C470.984,399.52 474.84,400.96 480.088,400.96 Z M507.928,341.728 C510.68,341.728 512.84,341.088 514.408,339.808 C515.976,338.528 516.76,336.48 516.76,333.664 C516.76,330.784 515.992,328.704 514.456,327.424 C512.92,326.144 510.744,325.504 507.928,325.504 C505.048,325.504 502.856,326.144 501.352,327.424 C499.848,328.704 499.096,330.784 499.096,333.664 C499.096,336.48 499.88,338.528 501.448,339.808 C503.016,341.088 505.176,341.728 507.928,341.728 Z M516.184,400 L516.184,346.912 L499.48,346.912 L499.48,400 L516.184,400 Z M554.872,400 L570.904,346.912 L553.528,346.912 L547.672,373.408 C547.224,375.456 546.872,377.328 546.616,379.024 C546.36,380.72 546.2,382.272 546.136,383.68 L546.136,383.68 L545.752,383.68 C545.56,380.544 545.048,377.056 544.216,373.216 L544.216,373.216 L538.84,346.912 L521.368,346.912 L537.208,400 L554.872,400 Z M584.44,341.728 C587.192,341.728 589.352,341.088 590.92,339.808 C592.488,338.528 593.272,336.48 593.272,333.664 C593.272,330.784 592.504,328.704 590.968,327.424 C589.432,326.144 587.256,325.504 584.44,325.504 C581.56,325.504 579.368,326.144 577.864,327.424 C576.36,328.704 575.608,330.784 575.608,333.664 C575.608,336.48 576.392,338.528 577.96,339.808 C579.528,341.088 581.688,341.728 584.44,341.728 Z M592.696,400 L592.696,346.912 L575.992,346.912 L575.992,400 L592.696,400 Z M616.696,400.96 C623.032,400.96 627.768,399.456 630.904,396.448 C634.04,393.44 635.608,389.184 635.608,383.68 C635.608,379.392 634.632,376.016 632.68,373.552 C630.728,371.088 627.992,368.928 624.472,367.072 C622.104,365.792 620.36,364.8 619.24,364.096 C618.12,363.392 617.384,362.8 617.032,362.32 C616.68,361.84 616.504,361.312 616.504,360.736 C616.504,359.136 617.496,358.336 619.48,358.336 C621.08,358.336 622.904,358.72 624.952,359.488 C627,360.256 628.952,361.184 630.808,362.272 L630.808,362.272 L634.84,350.464 C632.152,348.992 629.528,347.872 626.968,347.104 C624.408,346.336 621.656,345.952 618.712,345.952 C613.016,345.952 608.552,347.312 605.32,350.032 C602.088,352.752 600.472,356.608 600.472,361.6 C600.472,365.568 601.336,368.864 603.064,371.488 C604.792,374.112 607.32,376.256 610.648,377.92 C613.144,379.2 615.016,380.208 616.264,380.944 C617.512,381.68 618.328,382.32 618.712,382.864 C619.096,383.408 619.288,384 619.288,384.64 C619.288,386.624 617.88,387.616 615.064,387.616 C612.952,387.616 610.6,387.216 608.008,386.416 C605.416,385.616 602.936,384.576 600.568,383.296 L600.568,383.296 L600.568,397.984 C603.192,399.072 605.832,399.84 608.488,400.288 C611.144,400.736 613.88,400.96 616.696,400.96 Z M660.088,400.96 C662.648,400.96 664.904,400.688 666.856,400.144 C668.808,399.6 670.712,398.88 672.568,397.984 L672.568,397.984 L672.568,385.408 C671.224,385.92 669.96,386.352 668.776,386.704 C667.592,387.056 666.456,387.232 665.368,387.232 C662.808,387.232 661.528,385.504 661.528,382.048 L661.528,382.048 L661.528,359.968 L671.8,359.968 L671.8,346.912 L661.528,346.912 L661.528,336.256 L650.296,336.256 L646.36,347.392 L639.352,351.904 L639.352,359.968 L644.824,359.968 L644.824,382.528 C644.824,389.056 646.056,393.76 648.52,396.64 C650.984,399.52 654.84,400.96 660.088,400.96 Z M693.496,400.96 C699.832,400.96 704.568,399.456 707.704,396.448 C710.84,393.44 712.408,389.184 712.408,383.68 C712.408,379.392 711.432,376.016 709.48,373.552 C707.528,371.088 704.792,368.928 701.272,367.072 C698.904,365.792 697.16,364.8 696.04,364.096 C694.92,363.392 694.184,362.8 693.832,362.32 C693.48,361.84 693.304,361.312 693.304,360.736 C693.304,359.136 694.296,358.336 696.28,358.336 C697.88,358.336 699.704,358.72 701.752,359.488 C703.8,360.256 705.752,361.184 707.608,362.272 L707.608,362.272 L711.64,350.464 C708.952,348.992 706.328,347.872 703.768,347.104 C701.208,346.336 698.456,345.952 695.512,345.952 C689.816,345.952 685.352,347.312 682.12,350.032 C678.888,352.752 677.272,356.608 677.272,361.6 C677.272,365.568 678.136,368.864 679.864,371.488 C681.592,374.112 684.12,376.256 687.448,377.92 C689.944,379.2 691.816,380.208 693.064,380.944 C694.312,381.68 695.128,382.32 695.512,382.864 C695.896,383.408 696.088,384 696.088,384.64 C696.088,386.624 694.68,387.616 691.864,387.616 C689.752,387.616 687.4,387.216 684.808,386.416 C682.216,385.616 679.736,384.576 677.368,383.296 L677.368,383.296 L677.368,397.984 C679.992,399.072 682.632,399.84 685.288,400.288 C687.944,400.736 690.68,400.96 693.496,400.96 Z" mask="url(#for-activists-by-activists-b)"/>
  </g>
</svg>
