<svg xmlns="http://www.w3.org/2000/svg" xmlns:xlink="http://www.w3.org/1999/xlink" width="1200" height="628" viewBox="0 0 1200 628">
  <defs>
    <rect id="funding-a" width="1104" height="532" x="48" y="48" rx="24"/>
  </defs>
  <g fill="none" fill-rule="evenodd">
    <rect width="1200" height="628" fill="#FFF"/>
    <path fill="#FF006C" d="M80,580 L1120,580 C1120,588.836556 1112.83656,596 1104,596 L96,596 C87.163444,596 80,588.836556 80,580 L80,580 L80,580 Z" opacity=".5"/>
    <mask id="funding-b" fill="#fff">
      <use xlink:href="#funding-a"/>
    </mask>
    <use fill="#FF006C" xlink:href="#funding-a"/>
    <polygon fill="#062CFF" fill-rule="nonzero" points="241 313.829 386.77 316.834 386.77 324.347 241 322.845" mask="url(#funding-b)"/>
    <path fill="#FFF" fill-rule="nonzero" d="M393.336,389.92 C404.984,389.92 413.432,384.928 418.68,374.944 L420.408,374.944 L424.44,388 L449.976,388 L449.976,281.824 L416.568,281.824 L416.568,332.512 C416.568,341.6 415.928,348.768 414.648,354.016 C413.368,359.264 410.04,361.888 404.664,361.888 C401.592,361.888 399.448,360.096 398.232,356.512 C397.016,352.928 396.408,347.552 396.408,340.384 L396.408,281.824 L362.808,281.824 L362.808,350.944 C362.808,363.744 365.624,373.44 371.256,380.032 C376.888,386.624 384.248,389.92 393.336,389.92 Z M502.584,388 L502.58492,339.298812 C502.614347,328.145699 503.350041,320.155429 504.792,315.328 C506.264,310.4 509.304,307.936 513.912,307.936 C517.496,307.936 519.896,309.728 521.112,313.312 C522.328,316.896 522.936,322.208 522.936,329.248 L522.936,329.248 L522.936,388 L556.536,388 L556.536,318.88 C556.536,306.08 553.752,296.384 548.184,289.792 C542.616,283.2 535.16,279.904 525.816,279.904 C519.672,279.904 514.552,281.184 510.456,283.744 C506.36,286.304 503.032,290.08 500.472,295.072 L500.472,295.072 L499.128,295.072 L494.904,281.824 L469.176,281.824 L469.176,388 L502.584,388 Z M603.96,389.92 C609.464,389.92 613.848,388.832 617.112,386.656 C620.376,384.48 623.544,381.152 626.616,376.672 L626.616,376.672 L628.152,376.672 L633.912,388 L660.216,388 L660.216,242.08 L626.616,242.08 L626.616,273.76 C626.616,276.576 626.712,279.872 626.904,283.648 C627.096,287.424 627.32,291.36 627.576,295.456 L627.576,295.456 L626.808,295.456 C621.432,285.088 613.752,279.904 603.768,279.904 C594.168,279.904 586.456,284.704 580.632,294.304 C574.808,303.904 571.896,317.408 571.896,334.816 C571.896,352.096 574.776,365.6 580.536,375.328 C586.296,385.056 594.104,389.92 603.96,389.92 Z M616.056,363.04 C612.984,363.04 610.52,360.736 608.664,356.128 C606.808,351.52 605.88,344.352 605.88,334.624 C605.88,325.536 606.808,318.72 608.664,314.176 C610.52,309.632 613.048,307.36 616.248,307.36 C620.344,307.36 623.256,309.408 624.984,313.504 C626.712,317.6 627.576,323.872 627.576,332.32 L627.576,332.32 L627.576,337.504 C627.576,346.464 626.68,352.96 624.888,356.992 C623.096,361.024 620.152,363.04 616.056,363.04 Z M696.312,271.456 C701.816,271.456 706.136,270.176 709.272,267.616 C712.408,265.056 713.976,260.96 713.976,255.328 C713.976,249.568 712.44,245.408 709.368,242.848 C706.296,240.288 701.944,239.008 696.312,239.008 C690.552,239.008 686.168,240.288 683.16,242.848 C680.152,245.408 678.648,249.568 678.648,255.328 C678.648,260.96 680.216,265.056 683.352,267.616 C686.488,270.176 690.808,271.456 696.312,271.456 Z M712.824,388 L712.824,281.824 L679.416,281.824 L679.416,388 L712.824,388 Z M766.008,388 L766.00892,339.298812 C766.038347,328.145699 766.774041,320.155429 768.216,315.328 C769.688,310.4 772.728,307.936 777.336,307.936 C780.92,307.936 783.32,309.728 784.536,313.312 C785.752,316.896 786.36,322.208 786.36,329.248 L786.36,329.248 L786.36,388 L819.96,388 L819.96,318.88 C819.96,306.08 817.176,296.384 811.608,289.792 C806.04,283.2 798.584,279.904 789.24,279.904 C783.096,279.904 777.976,281.184 773.88,283.744 C769.784,286.304 766.456,290.08 763.896,295.072 L763.896,295.072 L762.552,295.072 L758.328,281.824 L732.6,281.824 L732.6,388 L766.008,388 Z M873.144,434.08 C890.68,434.08 903.48,429.568 911.544,420.544 C919.608,411.52 923.64,398.496 923.64,381.472 L923.64,381.472 L923.64,281.824 L894.456,281.824 L891.96,295.072 L890.424,295.072 C887.864,289.696 884.824,285.824 881.304,283.456 C877.784,281.088 873.208,279.904 867.576,279.904 C857.72,279.904 849.88,284.8 844.056,294.592 C838.232,304.384 835.32,318.048 835.32,335.584 C835.32,352.608 838.2,365.92 843.96,375.52 C849.72,385.12 857.336,389.92 866.808,389.92 C872.696,389.92 877.432,388.608 881.016,385.984 C884.6,383.36 887.608,379.488 890.04,374.368 L890.04,374.368 L891.192,374.368 C890.808,376.544 890.52,378.976 890.328,381.664 C890.136,384.352 890.04,386.656 890.04,388.576 L890.04,388.576 L890.04,389.92 C890.04,395.936 888.376,400.288 885.048,402.976 C881.72,405.664 877.176,407.008 871.416,407.008 C865.656,407.008 860.312,406.336 855.384,404.992 C850.456,403.648 845.176,401.568 839.544,398.752 L839.544,398.752 L839.544,426.592 C848.76,431.584 859.96,434.08 873.144,434.08 Z M879.672,362.656 C876.216,362.656 873.624,360.48 871.896,356.128 C870.168,351.776 869.304,345.056 869.304,335.968 C869.304,316.768 872.696,307.168 879.48,307.168 C883.832,307.168 886.84,309.312 888.504,313.6 C890.168,317.888 891,324.576 891,333.664 L891,333.664 L891,338.848 C891,347.04 890.168,353.056 888.504,356.896 C886.84,360.736 883.896,362.656 879.672,362.656 Z" mask="url(#funding-b)"/>
    <polygon fill="#062CFF" fill-rule="nonzero" points="241 298.802 386.77 301.5 386.77 309.321 241 307.818" mask="url(#funding-b)"/>
    <path fill="#062CFF" fill-rule="nonzero" d="M335.37061,410 L335.37061,402.674453 C329.273105,402.674453 324.770333,402.06399 321.862292,400.843066 C317.078096,398.870803 314.685998,395.067153 314.685998,389.432117 C314.685998,388.399027 314.779806,387.365937 314.967421,386.332847 C315.155037,385.299757 315.389556,384.172749 315.67098,382.951825 L354.648105,239.117518 C356.055222,233.764234 357.954829,230.242336 360.346927,228.551825 C362.739025,226.861314 367.171442,226.016058 373.644177,226.016058 C395.501386,226.016058 410.088494,231.040633 417.405499,241.089781 C421.626848,246.912652 423.831331,256.727007 424.018946,270.532847 L431.758087,271.80073 L444,217 L290.624307,217 L290.624307,224.466423 C299.348429,225.217762 305.023799,226.203893 307.650416,227.424818 C310.277033,228.645742 311.590342,231.557178 311.590342,236.159124 C311.590342,238.413139 311.168207,241.559367 310.323937,245.59781 C309.854898,247.570073 309.292052,249.871046 308.635397,252.50073 L273.316774,381.965693 C271.253004,389.66691 268.579482,394.83236 265.296211,397.462044 C262.012939,400.091727 256.900416,401.829197 249.958641,402.674453 L249.958641,410 L335.37061,410 Z" mask="url(#funding-b)"/>
  </g>
</svg>
