<svg xmlns="http://www.w3.org/2000/svg" xmlns:xlink="http://www.w3.org/1999/xlink" width="1200" height="628" viewBox="0 0 1200 628">
  <defs>
    <rect id="join-a" width="1104" height="532" x="48" y="48" rx="24"/>
  </defs>
  <g fill="none" fill-rule="evenodd">
    <rect width="1200" height="628" fill="#FFF"/>
    <path fill="#FF006C" d="M80,580 L1120,580 C1120,588.836556 1112.83656,596 1104,596 L96,596 C87.163444,596 80,588.836556 80,580 L80,580 L80,580 Z" opacity=".5"/>
    <mask id="join-b" fill="#fff">
      <use xlink:href="#join-a"/>
    </mask>
    <use fill="#FF006C" xlink:href="#join-a"/>
    <g mask="url(#join-b)">
      <g transform="translate(182 224)">
        <path stroke="#062CFF" stroke-linecap="square" stroke-width="32" d="M825.418021,195.920834 C713.614196,190.693055 630.464265,190.693055 575.968226,195.920834 C521.472188,201.148613 453.599758,211.513006 372.350937,227.014014"/>
        <path fill="#FFF" fill-rule="nonzero" d="M4.224,197.008 C12.928,197.008 20.48,195.344 26.88,192.016 C33.28,188.688 38.176,183.056 41.568,175.12 C44.96,167.184 46.656,156.304 46.656,142.48 L46.656,142.48 L46.656,16.912 L12.096,16.912 L12.096,144.592 C12.096,153.68 11.232,160.016 9.504,163.6 C7.776,167.184 4.096,168.976 -1.536,168.976 C-3.584,168.976 -5.504,168.784 -7.296,168.4 C-9.088,168.016 -10.816,167.568 -12.48,167.056 L-12.48,167.056 L-12.48,195.088 C-10.048,195.6 -7.456,196.048 -4.704,196.432 C-1.952,196.816 1.024,197.008 4.224,197.008 Z M109.44,155.92 C120.064,155.92 128.704,153.392 135.36,148.336 C142.016,143.28 146.88,136.56 149.952,128.176 C153.024,119.792 154.56,110.608 154.56,100.624 C154.56,88.976 152.672,79.088 148.896,70.96 C145.12,62.832 139.872,56.624 133.152,52.336 C126.432,48.048 118.656,45.904 109.824,45.904 C99.456,45.904 90.912,48.24 84.192,52.912 C77.472,57.584 72.48,64.048 69.216,72.304 C65.952,80.56 64.32,90 64.32,100.624 C64.32,110.736 66.016,119.984 69.408,128.368 C72.8,136.752 77.856,143.44 84.576,148.432 C91.296,153.424 99.584,155.92 109.44,155.92 Z M109.632,129.616 C105.536,129.616 102.624,127.152 100.896,122.224 C99.168,117.296 98.304,110.16 98.304,100.816 C98.304,91.088 99.168,83.888 100.896,79.216 C102.624,74.544 105.536,72.208 109.632,72.208 C113.728,72.208 116.608,74.576 118.272,79.312 C119.936,84.048 120.768,91.152 120.768,100.624 C120.768,110.224 119.936,117.456 118.272,122.32 C116.608,127.184 113.728,129.616 109.632,129.616 Z M187.776,37.456 C193.28,37.456 197.6,36.176 200.736,33.616 C203.872,31.056 205.44,26.96 205.44,21.328 C205.44,15.568 203.904,11.408 200.832,8.848 C197.76,6.288 193.408,5.008 187.776,5.008 C182.016,5.008 177.632,6.288 174.624,8.848 C171.616,11.408 170.112,15.568 170.112,21.328 C170.112,26.96 171.68,31.056 174.816,33.616 C177.952,36.176 182.272,37.456 187.776,37.456 Z M204.288,154 L204.288,47.824 L170.88,47.824 L170.88,154 L204.288,154 Z M257.472,154 L257.47292,105.298812 C257.502347,94.1456993 258.238041,86.1554286 259.68,81.328 C261.152,76.4 264.192,73.936 268.8,73.936 C272.384,73.936 274.784,75.728 276,79.312 C277.216,82.896 277.824,88.208 277.824,95.248 L277.824,95.248 L277.824,154 L311.424,154 L311.424,84.88 C311.424,72.08 308.64,62.384 303.072,55.792 C297.504,49.2 290.048,45.904 280.704,45.904 C274.56,45.904 269.44,47.184 265.344,49.744 C261.248,52.304 257.92,56.08 255.36,61.072 L255.36,61.072 L254.016,61.072 L249.792,47.824 L224.064,47.824 L224.064,154 L257.472,154 Z M401.28,155.92 C406.4,155.92 410.912,155.376 414.816,154.288 C418.72,153.2 422.528,151.76 426.24,149.968 L426.24,149.968 L426.24,124.816 C423.552,125.84 421.024,126.704 418.656,127.408 C416.288,128.112 414.016,128.464 411.84,128.464 C406.72,128.464 404.16,125.008 404.16,118.096 L404.16,118.096 L404.16,73.936 L424.704,73.936 L424.704,47.824 L404.16,47.824 L404.16,26.512 L381.696,26.512 L373.824,48.784 L359.808,57.808 L359.808,73.936 L370.752,73.936 L370.752,119.056 C370.752,132.112 373.216,141.52 378.144,147.28 C383.072,153.04 390.784,155.92 401.28,155.92 Z M481.536,155.92 C492.16,155.92 500.8,153.392 507.456,148.336 C514.112,143.28 518.976,136.56 522.048,128.176 C525.12,119.792 526.656,110.608 526.656,100.624 C526.656,88.976 524.768,79.088 520.992,70.96 C517.216,62.832 511.968,56.624 505.248,52.336 C498.528,48.048 490.752,45.904 481.92,45.904 C471.552,45.904 463.008,48.24 456.288,52.912 C449.568,57.584 444.576,64.048 441.312,72.304 C438.048,80.56 436.416,90 436.416,100.624 C436.416,110.736 438.112,119.984 441.504,128.368 C444.896,136.752 449.952,143.44 456.672,148.432 C463.392,153.424 471.68,155.92 481.536,155.92 Z M481.728,129.616 C477.632,129.616 474.72,127.152 472.992,122.224 C471.264,117.296 470.4,110.16 470.4,100.816 C470.4,91.088 471.264,83.888 472.992,79.216 C474.72,74.544 477.632,72.208 481.728,72.208 C485.824,72.208 488.704,74.576 490.368,79.312 C492.032,84.048 492.864,91.152 492.864,100.624 C492.864,110.224 492.032,117.456 490.368,122.32 C488.704,127.184 485.824,129.616 481.728,129.616 Z M571.392,155.92 C576.896,155.92 581.28,154.832 584.544,152.656 C587.808,150.48 590.976,147.152 594.048,142.672 L594.048,142.672 L595.584,142.672 L601.344,154 L627.648,154 L627.648,8.08 L594.048,8.08 L594.048,39.76 C594.048,42.576 594.144,45.872 594.336,49.648 C594.528,53.424 594.752,57.36 595.008,61.456 L595.008,61.456 L594.24,61.456 C588.864,51.088 581.184,45.904 571.2,45.904 C561.6,45.904 553.888,50.704 548.064,60.304 C542.24,69.904 539.328,83.408 539.328,100.816 C539.328,118.096 542.208,131.6 547.968,141.328 C553.728,151.056 561.536,155.92 571.392,155.92 Z M583.488,129.04 C580.416,129.04 577.952,126.736 576.096,122.128 C574.24,117.52 573.312,110.352 573.312,100.624 C573.312,91.536 574.24,84.72 576.096,80.176 C577.952,75.632 580.48,73.36 583.68,73.36 C587.776,73.36 590.688,75.408 592.416,79.504 C594.144,83.6 595.008,89.872 595.008,98.32 L595.008,98.32 L595.008,103.504 C595.008,112.464 594.112,118.96 592.32,122.992 C590.528,127.024 587.584,129.04 583.488,129.04 Z M668.352,155.92 C675.392,155.92 680.992,154.64 685.152,152.08 C689.312,149.52 693.248,145.488 696.96,139.984 L696.96,139.984 L697.536,139.984 L703.488,154 L727.104,154 L727.104,84.304 C727.104,71.504 723.904,61.904 717.504,55.504 C711.104,49.104 702.464,45.904 691.584,45.904 C683.392,45.904 675.936,46.736 669.216,48.4 C662.496,50.064 656.448,52.432 651.072,55.504 L651.072,55.504 L659.904,78.928 C669.376,73.68 677.312,71.056 683.712,71.056 C690.24,71.056 693.504,75.408 693.504,84.112 L693.504,84.112 L693.504,86.416 L679.296,86.992 C667.264,87.504 658.048,90.544 651.648,96.112 C645.248,101.68 642.048,110.16 642.048,121.552 C642.048,127.824 643.008,133.584 644.928,138.832 C646.848,144.08 649.76,148.24 653.664,151.312 C657.568,154.384 662.464,155.92 668.352,155.92 Z M683.136,130.768 C678.144,130.768 675.648,127.184 675.648,120.016 C675.648,111.824 679.744,107.472 687.936,106.96 L687.936,106.96 L693.696,106.576 L693.696,115.6 C693.696,120.08 692.64,123.728 690.528,126.544 C688.416,129.36 685.952,130.768 683.136,130.768 Z M760.32,200.08 C771.456,200.08 780.16,197.04 786.432,190.96 C792.704,184.88 797.952,174.8 802.176,160.72 L802.176,160.72 L835.776,47.824 L801.408,47.824 L789.504,98.704 C788.736,101.776 788.16,104.592 787.776,107.152 C787.392,109.712 787.136,112.08 787.008,114.256 L787.008,114.256 L786.24,114.256 C785.984,109.392 785.152,104.08 783.744,98.32 L783.744,98.32 L771.84,47.824 L736.704,47.824 L770.496,152.464 L769.92,154.576 C768,161.36 766.144,165.968 764.352,168.4 C762.56,170.832 759.488,172.048 755.136,172.048 C753.728,172.048 752.288,171.92 750.816,171.664 C749.344,171.408 747.968,171.152 746.688,170.896 L746.688,170.896 L746.688,198.544 C748.608,199.056 750.688,199.44 752.928,199.696 C755.168,199.952 757.632,200.08 760.32,200.08 Z"/>
      </g>
    </g>
  </g>
</svg>
