<svg xmlns="http://www.w3.org/2000/svg" width="300" height="300" viewBox="0 0 300 300">
  <g fill="none" fill-rule="evenodd">
    <path fill="#020202" fill-rule="nonzero" d="M108.8,299.831725 C108.9,299.756725 108.4,298.056725 107.725,296.031725 C107.05,294.006725 106.15,291.056725 105.75,289.481725 C105.35,287.906725 104.525,284.856725 103.9,282.731725 C103.3,280.606725 102.1,276.131725 101.275,272.806725 C100.45,269.506725 99,264.431725 98.025,261.556725 C96.75,257.706725 96.025,254.981725 95.25,251.106725 C94.7,248.231727 93.95,245.131727 93.625,244.231727 C91.825,239.306727 90.3,235.381727 88.625,231.481727 C87.625,229.081727 86.675,226.806727 86.525,226.456727 C86.375,226.031727 85.25,225.056727 83.45,223.806727 C81.9,222.706727 79.65,220.956727 78.475,219.956727 C77.275,218.931727 75.875,217.881727 75.35,217.606727 C74.8,217.356727 73.775,216.756727 73.075,216.306727 C72.35,215.856727 71.1,215.156727 70.325,214.731727 C68.125,213.606727 64.525,211.231727 62.175,209.381727 C61,208.481727 59.925,207.731727 59.775,207.731727 C59.6,207.731727 58.95,207.981727 58.3,208.256727 C57.65,208.556727 56.675,209.006727 56.1,209.231727 C55.525,209.481727 54.175,210.231727 53.1,210.931727 C52,211.606727 49.725,212.881727 48.025,213.731727 C46.325,214.606727 43.95,216.031727 42.775,216.906727 C41.6,217.806727 39.575,219.056727 38.25,219.731727 C36.9,220.431727 34.625,221.956727 33,223.231727 C31.425,224.506727 29.4,226.056727 28.5,226.731727 C27.6,227.406727 26.4,228.531727 25.8,229.206727 C24.65,230.581727 23.85,230.831727 22.85,230.131727 C22.4,229.806727 22.3,229.406727 22.175,226.756727 C22,223.456727 22,223.406727 18.9,216.306727 C17.975,214.206727 16.7,211.631727 16.025,210.556727 C13.55,206.556727 10.375,201.781727 8.775,199.631727 C7.875,198.431727 6.5,196.381727 5.75,195.081727 C3.825,191.831727 0.525,187.181727 0.225,187.356727 C0.1,187.456727 0,166.806727 0,131.506727 C0,81.9817275 0.05,75.4817275 0.375,75.4817275 C0.575,75.4817275 1.65,74.6567275 2.75,73.6317275 C4.225,72.2817275 5.05,71.7067275 5.825,71.5317275 C6.4,71.3817275 7.925,70.6317275 9.2,69.8567275 C10.45,69.1067275 11.55,68.4817275 11.65,68.4817275 C11.75,68.4817275 12.775,67.7817275 13.975,66.9067275 C15.15,66.0317275 16.975,64.7067275 18,63.9817275 C19.025,63.2317275 20.225,62.3567275 20.625,62.0567275 C22,60.9817275 24.65,59.2817275 25.275,59.1067275 C26.925,58.6067275 28.3,57.5817275 29.375,56.0817275 C30.725,54.2067275 32.975,51.9067275 35.35,50.0317275 C36.325,49.2567275 38.15,47.7067275 39.375,46.6067275 C40.625,45.5067275 42.325,43.9817275 43.175,43.2567275 C44.05,42.5067275 45.025,41.4317275 45.35,40.8567275 C45.95,39.8567275 47.35,38.7067275 48.375,38.3817275 C48.65,38.2817275 49.2,37.7567275 49.575,37.1817275 C50.6,35.7317275 50.9,36.1817275 43.5,28.2317275 C42.275,26.9317275 40.675,25.1817275 39.95,24.3317265 C39.225,23.5067265 37.475,21.5317265 36.05,19.9567265 C34.65,18.3567265 32.9,16.2817265 32.175,15.3067265 C31.45,14.3317265 29,11.7817265 26.725,9.6317265 C23.825,6.9067265 22.05,4.9817265 20.85,3.3067265 C19.9,1.9817264 18.925,0.6817264 18.675,0.4317264 C18.275,0.00672641091 18.3,-0.0182735891 20.05,0.00672641091 L21.875,0.00672641091 L23.25,1.8817264 C24.025,2.9317265 26.475,5.4817265 28.95,7.8067265 C31.325,10.0317265 33.875,12.6567265 34.6,13.6067265 C35.325,14.5817265 36.775,16.2567265 37.775,17.3567265 C38.8,18.4567265 40.7,20.6067265 42,22.0817265 C43.3,23.5817265 45,25.4567275 45.75,26.2067275 C46.5,26.9817275 48.375,28.9817275 49.875,30.6567275 C51.975,33.0067275 52.775,33.7317275 53.25,33.7317275 C54.3,33.7567275 54.75,34.3317275 55.125,36.1067275 C55.325,37.0317275 55.675,38.1067275 55.925,38.4817275 C56.175,38.8567275 57.2,40.5317275 58.2,42.2067275 C59.225,43.8567275 60.3,45.3567275 60.6,45.5567275 C60.9,45.7567275 61.775,46.4817275 62.525,47.1567275 C63.25,47.8317275 64.225,48.5317275 64.675,48.7067275 C65.1,48.8817275 66.325,49.9567275 67.425,51.1067275 C69.65,53.4817275 70.225,54.1817275 71.75,56.5067275 C72.675,57.9067275 73.175,58.3567275 74.725,59.2567275 C77.15,60.6817275 79.4,62.8817275 80.75,65.2067275 C81.325,66.2317275 82.725,68.0817275 83.85,69.3067275 C89.525,75.5817275 94.175,81.7817275 96.65,86.3817275 C99.55,91.7817275 101.4,94.5317275 104.725,98.4817275 C105.75,99.7317275 107.025,101.656727 107.8,103.106727 C108.625,104.731727 109.725,106.331727 110.95,107.731727 C113.05,110.156727 114.075,111.656727 116.9,116.581727 C118.725,119.806727 119.025,120.181727 121,121.831727 C126.325,126.256727 128.625,128.631727 130.075,131.181727 C132.36762,135.532962 133.610997,137.56488 135.5,140.731727 C138.45,145.681727 139.925,149.506727 139.625,151.431727 C139.375,153.106727 138.525,154.606727 136.25,157.431727 C134.6,159.506727 134.275,160.031727 134.475,160.406727 C134.6,160.656727 137.375,163.456727 140.65,166.606727 C143.925,169.781727 147.775,173.581727 149.225,175.081727 C150.825,176.706727 152.7,178.356727 153.95,179.181727 C155.1,179.931727 157,181.431727 158.175,182.456727 C160.275,184.331727 162.15,185.731727 164.925,187.531727 C165.725,188.056727 167.6,189.581727 169.1,190.956727 C170.825,192.531727 172.5,193.806727 173.725,194.456727 C174.775,195.031727 176.925,196.456727 178.5,197.656727 C180.075,198.831727 182.375,200.331727 183.625,200.981727 C184.85,201.631727 186.725,202.631727 187.75,203.206727 C188.775,203.756727 189.7,204.231727 189.775,204.231727 C189.85,204.231727 190,203.531727 190.075,202.706727 C190.15,201.806727 190.4,200.881727 190.675,200.506727 C190.925,200.156727 191.35,199.431727 191.625,198.906727 C191.9,198.381727 192.5,197.581727 192.925,197.156727 C193.375,196.706727 193.75,196.281727 193.75,196.181727 C193.75,196.106727 193.375,195.581727 192.9,195.031727 C191.4,193.206727 189.2,189.706727 188.85,188.531727 C188.375,186.981727 188.4,184.981727 188.925,183.956727 C189.15,183.506727 189.975,182.481727 190.725,181.706727 C192,180.406727 192.275,180.256727 194,179.856727 C196.65,179.256727 196.6,179.281727 196.275,178.906727 C195.675,178.156727 194,174.681727 193.6,173.331727 C193.075,171.481727 193.2,168.006727 193.875,166.731727 C194.8,164.931727 196.025,163.756727 197.85,162.831727 L199.65,161.956727 L202.525,162.056727 C204.1,162.131727 205.75,162.256727 206.2,162.356727 C206.625,162.456727 207,162.481727 207,162.431727 C207,162.356727 206.325,160.931727 205.5,159.256727 C203.875,155.956727 203.5,154.631727 203.5,151.956727 C203.5,151.031727 203.4,150.206727 203.275,150.106727 C203.15,150.031727 202.175,149.856727 201.125,149.731727 C198.75,149.431727 195.225,148.356727 194.175,147.581727 C193.725,147.281727 192.6,146.581727 191.625,146.031727 C189.35,144.731727 186.5,142.081727 185.125,140.006727 C184.525,139.106727 183.25,137.406727 182.325,136.231727 C181.375,135.056727 180.325,133.606727 179.975,132.981727 C178.675,130.706727 178.175,129.831727 177.6,128.856727 C177.275,128.306727 176.725,127.056727 176.375,126.106727 C176,125.131727 175.5,124.006727 175.225,123.581727 C174.95,123.131727 174.575,121.781727 174.375,120.581727 C174.15,119.356727 173.875,117.806727 173.75,117.106727 C173.5,115.681727 173.625,112.406727 173.975,110.731727 C174.125,110.106727 174.35,108.831727 174.525,107.856727 C174.675,106.906727 175.2,104.881727 175.675,103.356727 C177,99.2067275 177.825,98.0817275 182.725,93.6317275 C189.4,87.5817275 192.05,86.0317275 198.75,84.2817275 C202,83.4317275 202.3,83.4067275 206.75,83.3817275 L211.375,83.3567275 L217.5,85.1567275 C224.45,87.2067275 226.8,88.1817275 228.7,89.8317275 C229.45,90.4567275 230.675,91.4067275 231.45,91.9067275 C234.4,93.8567275 237.9,97.8317275 240.05,101.731727 C240.925,103.331727 241.925,106.456727 242.5,109.456727 C242.775,110.881727 243.025,112.106727 243.075,112.156727 C243.325,112.381727 243.95,111.856727 245,110.556727 C245.625,109.781727 246.625,108.581727 247.25,107.906727 C248.475,106.556727 252.525,103.756727 253.35,103.681727 C253.65,103.656727 254.675,103.631727 255.625,103.606727 C256.6,103.606727 258.125,103.481727 259.05,103.381727 C260.125,103.231727 260.85,103.256727 261.05,103.406727 C261.225,103.556727 262.175,103.906727 263.125,104.181727 C265.05,104.781727 266.875,106.231727 267.175,107.431727 C267.25,107.806727 267.55,108.256727 267.8,108.431727 C268.325,108.806727 269.175,110.356727 269.75,111.981727 C269.95,112.606727 270.875,114.281727 271.775,115.731727 C274.025,119.306727 274.6,120.531727 275.1,122.731727 C275.625,125.056727 276.6,127.206727 280.3,134.106727 C282.75,138.606727 283.2,139.406727 284.875,141.981727 C286.55,144.581727 289.075,149.006727 289.5,150.081727 C289.95,151.306727 291.675,153.581727 294.3,156.381727 C297.25,159.556727 299.3,161.481727 299.725,161.481727 C299.925,161.481727 300,162.881727 300,166.481727 L300,171.456727 L299.325,170.831727 C298.925,170.456727 298.125,169.906727 297.5,169.556727 C294.275,167.731727 292.5,166.356727 290.25,163.931727 C287.925,161.431727 285.8,158.831727 284.9,157.406727 C284.675,157.006727 283.85,155.956727 283.075,155.056727 C282.3,154.156727 281.225,152.681727 280.7,151.806727 C280.15,150.906727 279.15,149.481727 278.45,148.656727 C277.65,147.681727 276.95,146.431727 276.5,145.231727 C275.65,142.981727 273.775,138.631727 272.05,134.856727 C270.875,132.306727 270.4,131.181727 268.25,125.556727 C267.825,124.431727 266.875,122.506727 266.125,121.281727 C265.375,120.056727 264.4,118.331727 263.95,117.481727 C263.375,116.356727 262.775,115.631727 261.825,114.956727 C261.1,114.406727 260.4,113.756727 260.275,113.506727 C260.125,113.256727 259.675,112.931727 259.3,112.781727 C258.325,112.456727 256.05,112.681727 255.125,113.206727 C254.475,113.556727 252.525,116.031727 252.5,116.531727 C252.5,116.606727 252.775,117.031727 253.125,117.431727 C253.875,118.306727 253.925,119.181727 253.3,120.006727 C253.05,120.331727 252.225,121.631727 251.5,122.856727 C250.75,124.106727 249.525,125.731727 248.75,126.531727 C247.625,127.631727 247.375,128.031727 247.575,128.356727 C247.725,128.631727 247.675,128.906727 247.375,129.231727 C247.075,129.581727 247,129.956727 247.15,130.956727 C247.275,132.006727 247.25,132.256727 246.9,132.381727 C246.675,132.456727 246.5,132.681727 246.5,132.856727 C246.5,133.031727 247.9,134.456727 249.6,136.006727 C252.425,138.556727 254.275,139.906727 258.4,142.481727 C262.075,144.756727 267.55,149.631727 270.3,153.081727 C273.725,157.356727 276.3,161.581727 277.875,165.481727 C278.225,166.381727 279.125,168.056727 279.85,169.231727 C281.6,172.031727 283.8,176.356727 284.725,178.856727 C285.125,179.956727 285.825,181.706727 286.275,182.731727 C286.725,183.756727 287.45,185.731727 287.9,187.106727 C288.325,188.481727 289.1,190.681727 289.575,191.981727 C290.05,193.281727 290.75,195.356727 291.15,196.556727 C292.2,199.931727 292.775,200.656727 295.275,201.881727 C296.425,202.456727 297.975,203.131727 298.7,203.381727 L300,203.856727 L300,205.231727 C300,205.981727 299.9,206.481727 299.8,206.306727 C299.7,206.156727 298.9,205.756727 298,205.406727 C295.35,204.406727 292.65,203.081727 291.775,202.331727 C290.75,201.481727 289.975,199.806727 288.975,196.256727 C288.55,194.806727 287.825,192.656727 287.375,191.481727 C286.925,190.306727 286.175,188.231727 285.75,186.856727 C285.3,185.481727 284.625,183.681727 284.25,182.856727 C283.875,182.031727 283.325,180.581727 283.025,179.606727 C282.25,177.206727 280.075,172.781727 278.15,169.631727 C277.25,168.206727 275.775,165.556727 274.875,163.756727 C273.95,161.931727 272.95,160.156727 272.625,159.781727 C272.325,159.406727 271.75,158.606727 271.375,157.981727 C269.15,154.381727 263.175,148.306727 258.95,145.356727 C257.475,144.331727 256.175,143.481727 256.05,143.481727 C255.425,143.481727 251,140.081727 248.15,137.406727 C243.625,133.156727 241.225,131.231727 240.45,131.231727 C239.7,131.231727 237.5,130.481727 236.05,129.756727 C234.55,128.981727 233.275,126.906727 232.875,124.531727 C232.625,123.131727 232.375,122.506727 231.9,122.031727 C231.275,121.406727 231.25,121.381727 230.075,121.756727 C229,122.081727 228.825,122.256727 228.45,123.231727 C227.95,124.581727 227.9,126.531727 228.35,127.731727 C228.55,128.206727 229,129.456727 229.375,130.481727 C230.075,132.381727 232.3,135.956727 234,137.906727 C234.5,138.481727 235.3,139.656727 235.75,140.531727 C237.25,143.356727 238.45,144.906727 241.825,148.281727 C245.525,152.006727 249.275,156.356727 250.025,157.806727 C250.375,158.481727 250.625,158.706727 250.825,158.531727 C251.275,158.181727 254.375,157.631727 254.85,157.806727 C255.075,157.906727 255.25,158.081727 255.25,158.231727 C255.25,158.681727 253.225,159.481727 252.1,159.481727 L251.075,159.481727 L251.175,160.806727 C251.25,161.631727 251.6,162.706727 252.15,163.756727 C253.025,165.456727 253.275,166.856727 252.7,166.681727 C252.375,166.556727 250.9,164.756727 250.675,164.181727 C250.575,163.931727 250.475,163.931727 250.325,164.131727 C250.225,164.306727 249.85,164.481727 249.525,164.506727 C249.075,164.581727 248.8,164.956727 248.325,166.181727 C247.3,168.706727 246.55,168.031727 247.375,165.331727 L247.75,164.106727 L247.075,163.531727 C246.15,162.806727 243.725,161.406727 243.575,161.556727 C243.525,161.631727 243.9,162.556727 244.45,163.631727 C245,164.731727 245.575,166.056727 245.75,166.606727 C245.925,167.156727 246.15,167.731727 246.275,167.856727 C246.6,168.306727 247.875,173.931727 248.875,179.331727 C249.1,180.556727 249.425,181.856727 249.625,182.256727 C249.825,182.631727 250,183.556727 250,184.281727 C250,185.581727 250.375,188.031727 251.1,191.756727 C251.4,193.306727 252.25,201.731727 252.25,203.231727 C252.25,203.456727 252.025,203.881727 251.75,204.181727 C251.475,204.481727 251.25,204.931727 251.25,205.231727 C251.25,206.381727 250.4,205.381727 250.125,203.881727 C249.925,202.906727 249.525,202.681727 249.325,203.481727 C249.175,204.081727 248.75,204.156727 248.75,203.581727 C248.75,202.856727 248.175,203.381727 247.875,204.381727 L247.6,205.356727 L247.275,204.731727 C247.075,204.381727 246.9,204.081727 246.875,204.031727 C246.675,203.781727 245.5,204.856727 245.5,205.256727 C245.5,205.531727 245.325,205.731727 245.125,205.731727 C244.85,205.731727 244.75,205.431727 244.75,204.606727 C244.75,202.731727 244.675,202.831727 240.925,208.406727 C236.175,215.506727 231.45,221.031727 229.875,221.356727 C229.525,221.431727 228.975,221.531727 228.625,221.606727 C228.275,221.681727 227.75,222.031727 227.45,222.356727 C227.15,222.706727 226.475,223.106727 225.95,223.256727 L225,223.506727 L226.175,224.881727 C228,226.956727 232.075,230.031727 235.125,231.606727 C236.65,232.406727 238.225,233.256727 238.65,233.506727 C239.8,234.206727 244.125,235.581727 248.925,236.781727 L253.125,237.856727 L258.125,237.881727 C260.875,237.881727 264.4,238.031727 265.975,238.181727 C268.6,238.431727 268.9,238.531727 269.725,239.231727 C270.225,239.631727 271.125,240.256727 271.75,240.581727 C275.8,242.731727 279.25,245.206727 284.875,250.031725 C287.65,252.381725 291.45,255.181725 296.3,258.406725 L299.975,260.856725 L300,262.381725 L300,263.931725 L298.075,261.931725 C296.7,260.506725 295.725,259.731725 294.75,259.306725 C291.9,258.031725 286.7,254.306725 280.95,249.456727 C279.4,248.156727 277.8,246.856727 277.375,246.556727 C275.925,245.556727 271.85,243.031727 270.625,242.356727 C269.95,241.981727 269.075,241.406727 268.725,241.056727 C268.15,240.531727 267.675,240.406727 265.35,240.156727 C263.85,239.981727 260.875,239.881727 258.75,239.931727 C254.3,240.006727 252.85,239.806727 247.5,238.456727 C241.8,236.981727 239.075,236.056727 237.25,235.006727 C236.35,234.481727 234.825,233.631727 233.85,233.156727 C232.875,232.656727 230.95,231.381727 229.6,230.331727 C226.675,228.056727 222.25,223.706727 222.25,223.106727 C222.25,222.556727 221.375,222.831727 218.775,224.206727 L217.675,224.781727 L219.4,226.531727 C220.35,227.481727 222.075,229.081727 223.25,230.056727 C225.925,232.306727 241.425,247.981727 244.45,251.481725 C245.675,252.931725 248.475,255.856725 250.675,257.981725 C255.025,262.206725 266.2,272.606725 268,274.106725 C268.625,274.606725 272,277.931725 275.5,281.456725 C280.225,286.181725 282.25,288.406725 283.3,290.006725 C284.1,291.181725 285.275,292.756725 285.925,293.481725 C287.5,295.231725 292.2,299.481725 292.85,299.731725 C293.175,299.881725 292.45,299.956725 290.8,299.956725 L288.25,299.981725 L285.55,297.281725 C284.075,295.806725 282.175,293.581725 281.3,292.356725 C278.85,288.831725 277.825,287.631725 275.9,285.931725 C274.925,285.056725 272.775,282.956725 271.125,281.256725 C269.475,279.556725 267,277.181725 265.625,276.006725 C264.25,274.831725 261.225,272.056725 258.875,269.856725 C256.55,267.656725 253.85,265.206725 252.875,264.431725 C251,262.906725 243.375,255.081725 240.75,251.981725 C238.4,249.206727 223.975,234.731727 221.5,232.656727 C220.325,231.681727 217.725,229.306727 215.725,227.381727 C213.725,225.431727 210.475,222.356727 208.475,220.531727 C204.975,217.281727 204.775,217.131727 201.625,215.656727 C197.65,213.806727 196.275,212.881727 193.375,210.131727 C191.45,208.281727 190.85,207.856727 189.2,207.231727 C187.25,206.481727 186.575,206.131727 183.375,204.256727 C182.425,203.681727 181.5,203.231727 181.325,203.231727 C181.175,203.231727 179.625,202.156727 177.9,200.856727 C176.175,199.581727 174.225,198.206727 173.575,197.831727 C170.85,196.281727 169.775,195.506727 167.4,193.256727 C166,191.981727 163.65,190.081727 162.125,189.081727 C160.625,188.081727 158.425,186.406727 157.25,185.356727 C156.075,184.306727 154.125,182.756727 152.875,181.906727 C151.225,180.806727 149.05,178.831727 144.6,174.381727 C141.3,171.056727 137.75,167.581727 136.725,166.606727 C135.675,165.656727 134.35,164.306727 133.775,163.606727 L132.725,162.356727 L132.175,163.106727 C131.875,163.531727 130.425,165.106727 128.975,166.606727 C127.525,168.131727 125.025,170.906727 123.4,172.781727 C120.2,176.556727 116.75,179.856727 112.75,183.006727 C111.325,184.156727 108.975,186.281727 107.55,187.756727 C105.6,189.781727 104,191.131727 101.15,193.081727 C98.3,195.081727 97.225,195.981727 96.8,196.731727 C96.15,197.906727 94.825,198.831727 93.25,199.231727 C91.75,199.631727 88.3,202.181727 88.275,202.906727 C88.25,203.456727 90.375,209.831727 91.225,211.756727 C91.95,213.356727 93.075,214.681727 95.375,216.656727 C96.475,217.581727 100.325,221.281727 103.925,224.856727 C107.525,228.431727 111.3,232.156727 112.3,233.106727 C113.3,234.081727 114.775,235.606727 115.575,236.556727 C116.375,237.481727 117.95,239.006727 119.075,239.956727 C121.325,241.831727 124.025,244.556727 125.95,246.856727 C127.65,248.881727 131.525,252.831725 133.425,254.431725 C134.275,255.156725 137.5,258.381725 140.6,261.631725 C143.7,264.856725 147.075,268.156725 148.1,268.981725 C149.1,269.781725 150.425,271.056725 151.025,271.831725 C151.725,272.731725 152.175,273.106725 152.275,272.906725 C152.375,272.756725 152.575,271.531725 152.725,270.231725 C152.875,268.931725 153.35,266.056725 153.775,263.856725 C154.5,260.181725 154.55,259.581725 154.425,256.231725 C154.35,254.231725 154.125,251.831725 153.925,250.856725 C153.725,249.906727 153.475,248.681727 153.4,248.181727 L153.225,247.256727 L151.8,247.281727 C150.325,247.306727 147.425,246.556727 145.625,245.656727 C144.325,245.031727 143,243.781727 139.7,240.056727 C138.65,238.856727 138.15,238.056727 137.725,236.781727 C137.425,235.856727 136.825,234.431727 136.375,233.606727 C135.05,231.156727 134.25,227.056727 134.25,222.631727 C134.25,220.031727 134.35,219.256727 135.025,216.881727 C136.025,213.356727 136.475,212.331727 138.025,210.106727 C139.975,207.256727 145.15,203.506727 149.175,201.981727 C152.15,200.881727 159.7,200.606727 162.65,201.506727 C168.5,203.281727 174.425,208.481727 177.125,214.181727 C179.425,218.981727 180.55,227.631727 179.4,231.406727 L178.925,232.956727 L180.775,235.106727 C183.5,238.306727 185.6,240.881727 187.175,242.981727 C187.95,244.006727 190.25,246.781727 192.25,249.106727 C194.25,251.456725 197,254.706725 198.375,256.356725 C200.7,259.206725 210.05,268.731725 210.475,268.731725 C210.6,268.731725 211.45,269.731725 212.35,270.956725 C213.25,272.181725 214.65,273.731725 215.45,274.406725 C216.225,275.056725 219.35,278.006725 222.375,280.956725 C225.4,283.881725 228.825,287.031725 230,287.956725 C231.175,288.856725 233.375,290.781725 234.875,292.256725 C237.8,295.031725 241.65,298.506725 242.85,299.431725 L243.575,299.981725 L235.025,299.981725 C230.35,299.981725 226.5,299.881725 226.5,299.781725 C226.5,299.656725 224.85,298.156725 222.825,296.431725 C216.725,291.231725 212.925,287.081725 207.775,279.906725 C206.9,278.681725 205.225,276.656725 204.05,275.406725 C202.875,274.131725 200.975,271.881725 199.85,270.356725 C198.725,268.856725 197.45,267.281725 197,266.856725 C196.55,266.456725 194.5,264.256725 192.425,261.981725 C190.35,259.706725 187.375,256.581725 185.825,255.006725 C184.275,253.431725 182.3,251.156725 181.45,249.906727 C178.75,246.056727 177.425,244.356727 175.6,242.381727 L173.85,240.456727 L173.175,240.981727 C172.8,241.281727 172.5,241.631727 172.5,241.756727 C172.5,241.856727 173.2,243.881727 174.075,246.206727 C176,251.331725 177.025,252.981725 179.9,255.481725 C182.975,258.181725 186.5,262.506725 188.65,266.231725 C190.275,269.081725 193.025,272.731725 195.025,274.756725 C197.225,276.956725 197.85,278.106725 198.725,281.506725 C199.375,284.031725 200.85,287.906725 201.85,289.731725 C203.375,292.506725 205.3,296.506725 205.675,297.681725 C205.9,298.456725 206.25,299.306725 206.45,299.556725 C206.8,299.956725 206.725,299.981725 205.2,299.981725 L203.575,299.981725 L202.625,297.931725 C202.125,296.781725 201.1,294.781725 200.35,293.456725 C198.45,290.056725 196.6,285.581725 195.875,282.706725 C195.1,279.506725 194.875,279.106725 192.325,276.406725 C191.15,275.131725 190,273.831725 189.8,273.481725 C189.575,273.131725 188.875,272.181725 188.225,271.356725 C187.575,270.531725 186.75,269.306725 186.375,268.606725 C184.175,264.656725 181.225,260.906725 177.925,257.931725 C173.925,254.306725 173.45,253.556725 171,246.856727 C170.15,244.531727 169,241.606727 168.45,240.356727 C167.125,237.406727 165.45,232.931727 164.125,228.731727 C163.55,226.881727 162.65,224.356727 162.15,223.131727 C161.65,221.906727 161.25,220.756727 161.25,220.581727 C161.25,220.381727 161.15,220.231727 161.025,220.231727 C160.925,220.231727 160.75,220.981727 160.65,221.931727 C160.55,222.856727 160.35,223.881727 160.175,224.231727 C159.725,225.131727 157.425,226.256727 155.75,226.406727 C154.375,226.531727 154.375,226.531727 153.3,225.381727 C152.7,224.756727 152.15,224.231727 152.05,224.206727 C151.95,224.206727 151.5,224.156727 151.025,224.081727 C150.2,223.981727 150.2,223.981727 150.375,224.781727 C150.475,225.231727 150.65,226.056727 150.75,226.606727 C150.85,227.156727 151.225,228.406727 151.6,229.356727 C151.975,230.331727 152.675,232.131727 153.125,233.356727 C153.575,234.606727 154.2,236.131727 154.475,236.756727 C155.05,238.056727 155.625,241.256727 156,245.606727 C156.175,247.256727 156.45,249.281727 156.65,250.106725 C157.25,252.481725 157.4,259.956725 156.925,262.106725 C156.55,263.806725 155.825,268.056725 155.25,272.106725 C154.875,274.581725 152.825,282.856725 152.325,283.806725 C152.025,284.431725 151.875,284.481725 151.2,284.356725 C150.6,284.206725 150.45,284.256725 150.55,284.506725 C150.625,284.706725 151.15,286.031725 151.725,287.481725 C153.45,291.881725 153.5,291.981725 154.1,291.906725 C154.55,291.856725 154.625,292.006725 154.7,292.856725 C154.8,294.656725 155.025,295.481725 155.35,295.481725 C155.55,295.481725 155.825,295.981725 155.975,296.606725 C156.175,297.431725 156.425,297.806725 156.85,297.981725 C157.55,298.231725 157.675,298.406725 157.85,299.306725 L157.975,299.981725 L153.35,299.981725 L148.725,299.981725 L147.45,298.806725 C146.775,298.131725 145.6,296.756725 144.875,295.731725 C143.5,293.756725 141,288.656725 141,287.806725 C141,287.531725 140.55,285.956725 139.975,284.331725 C139.425,282.681725 138.85,281.031725 138.75,280.606725 C138.125,278.406725 137.75,276.656725 137.75,276.006725 C137.75,275.381725 137.575,275.206725 136.575,274.706725 C134.7,273.831725 132.55,272.506725 130.4,270.906725 C129.325,270.081725 128.025,269.181725 127.5,268.881725 C126.975,268.581725 125.675,267.556725 124.625,266.606725 C123.55,265.631725 122.15,264.456725 121.5,263.981725 C116.7,260.381725 115.275,259.181725 112.625,256.356725 C107.175,250.556725 105.025,248.381727 104.875,248.506727 C104.8,248.581727 105.475,250.506725 106.35,252.781725 C107.225,255.031725 108.3,258.131725 108.75,259.631725 C110.1,264.206725 111.6,268.156725 113.475,272.206725 C115.9,277.381725 116.225,278.206725 119.75,288.731725 C121.45,293.756725 123.025,298.331725 123.275,298.931725 L123.725,299.981725 L116.2,299.981725 C112.05,299.981725 108.725,299.906725 108.8,299.831725 Z M175.725,227.806727 C176.25,225.956727 175.95,222.706727 175.325,223.331727 C175,223.631727 174.9,228.731727 175.225,228.731727 C175.35,228.731727 175.6,228.306727 175.725,227.806727 Z M157.95,220.331727 C157.975,218.981727 157.875,217.081727 157.7,216.106727 C157.375,214.381727 157.35,214.356727 156.25,213.806727 C155.625,213.506727 154.875,213.256727 154.575,213.256727 C152.743387,213.877135 151.763283,216.881107 151.75,218.306727 L151.75,219.856727 L153.45,221.531727 C155.525,223.581727 156.1,223.831727 157.125,223.256727 C157.875,222.831727 157.875,222.806727 157.95,220.331727 Z M217.6,217.256727 C217.675,217.131727 217.45,216.956727 217.05,216.856727 C216.375,216.706727 214.875,216.081727 213.25,215.281727 C211.325,214.331727 210.575,211.706727 211.9,210.456727 C212.45,209.931727 212.825,209.856727 214.75,209.781727 C216.3,209.706727 217.4,209.806727 218.375,210.106727 C220.25,210.631727 220.65,210.506727 220.125,209.506727 C219.925,209.081727 219.375,208.481727 218.95,208.156727 C218.125,207.531727 214.45,205.631727 212.725,204.906727 C212.25,204.706727 211.45,204.206727 210.975,203.806727 C210.4,203.306727 209.55,202.906727 208.375,202.631727 C207.425,202.381727 205.55,201.881727 204.25,201.481727 C202.95,201.106727 201.35,200.706727 200.7,200.631727 C199.375,200.481727 197.475,199.606727 196.3,198.631727 C195.05,197.556727 194.7,197.731727 193.075,200.381727 C192.375,201.531727 192.15,202.181727 192.05,203.381727 C191.9,205.456727 192.425,206.356727 195.325,209.131727 C197.5,211.231727 197.975,211.531727 201.525,213.281727 C205.65,215.306727 206.55,215.656727 210.7,216.731727 C213.4,217.431727 217.325,217.731727 217.6,217.256727 Z M220.7,214.481727 C220.75,213.606727 220.675,212.806727 220.55,212.681727 C220.1,212.231727 216.6,211.481727 214.925,211.481727 C213.05,211.481727 212.7,211.756727 213.2,212.856727 C213.55,213.631727 216.4,214.981727 218.25,215.256727 C219.025,215.356727 219.725,215.631727 219.875,215.831727 C220.325,216.556727 220.625,216.081727 220.7,214.481727 Z M224,203.481727 C224,203.356727 223.225,203.031727 222.275,202.731727 C220.65,202.256727 218.675,201.006727 217.7,199.856727 C217.05,199.106727 217.15,198.331727 218.075,197.356727 C218.725,196.631727 219.15,196.406727 220.5,196.156727 C223.05,195.706727 224.425,195.806727 226,196.581727 C226.75,196.981727 227.675,197.581727 228.075,197.931727 L228.75,198.581727 L228.75,197.906727 C228.75,196.606727 227.725,195.906727 221,192.581727 C219.7,191.931727 218.225,191.156727 217.725,190.831727 C216.75,190.231727 211.85,188.531727 209.125,187.856727 C207.075,187.331727 201.2,184.506727 200.125,183.506727 C199.1,182.581727 197,181.231727 196.525,181.231727 C196.325,181.231727 195.475,181.406727 194.65,181.631727 C192.025,182.356727 190.025,184.781727 190.35,186.831727 C190.675,188.831727 193.875,193.631727 196.65,196.256727 C198.35,197.856727 199.775,198.581727 201.75,198.831727 C202.5,198.931727 204.15,199.331727 205.375,199.706727 C207.975,200.531727 213.525,201.831727 216.25,202.231727 C217.275,202.381727 219.15,202.756727 220.375,203.081727 C222.875,203.731727 224,203.856727 224,203.481727 Z M227,200.206727 C227,199.656727 226.825,199.156727 226.575,198.931727 C225.75,198.231727 224.125,197.631727 223.125,197.631727 C221.725,197.631727 219.775,198.106727 219.325,198.556727 C219,198.856727 219.125,199.031727 220.225,199.831727 C220.925,200.356727 222.35,201.031727 223.425,201.381727 C224.5,201.706727 225.475,202.106727 225.6,202.231727 C226.025,202.656727 226.975,201.231727 227,200.206727 Z M225.75,189.006727 C225.75,188.906727 225.025,188.431727 224.125,187.981727 C221.925,186.831727 221.675,186.506727 221.55,184.631727 C221.45,183.081727 221.45,183.056727 222.275,182.556727 C223.45,181.856727 227.075,180.931727 227.925,181.106727 C228.3,181.206727 229.15,181.456727 229.8,181.681727 C230.45,181.906727 231.05,182.006727 231.15,181.931727 C231.425,181.631727 230.5,180.281727 229.7,179.781727 C229.25,179.506727 228.025,178.981727 227,178.606727 C225.975,178.256727 224.425,177.556727 223.575,177.081727 C222.725,176.606727 221.925,176.231727 221.825,176.256727 C221.525,176.331727 220.325,175.806727 220.15,175.506727 C220.075,175.381727 219.2,174.756727 218.25,174.131727 C217.15,173.406727 216.5,172.806727 216.5,172.531727 C216.5,172.281727 216.225,171.806727 215.875,171.481727 C215.525,171.156727 215.25,170.781727 215.25,170.631727 C215.25,170.356727 214.275,169.531727 211,167.006727 C208.85,165.331727 208,164.881727 205.675,164.256727 C201.125,163.031727 197.675,164.031727 195.85,167.131727 C194.525,169.381727 194.825,172.031727 196.8,175.956727 C197.7,177.756727 198.55,179.006727 199.5,179.956727 C200.25,180.731727 201.025,181.681727 201.25,182.056727 C201.925,183.306727 206.575,185.556727 210.475,186.506727 C211.625,186.781727 213.8,187.406727 215.325,187.906727 C217.775,188.706727 218.375,188.806727 221.025,188.831727 C222.65,188.856727 224.025,188.931727 224.1,188.981727 C224.3,189.181727 225.75,189.231727 225.75,189.006727 Z M230.225,186.806727 C230.375,186.281727 230.5,185.631727 230.5,185.356727 C230.5,185.056727 230.625,184.706727 230.75,184.581727 C231.125,184.206727 230.4,183.681727 228.825,183.131727 C227.525,182.681727 227.475,182.681727 225.375,183.256727 L223.225,183.806727 L223.3,184.706727 C223.375,185.481727 223.525,185.656727 224.75,186.331727 C226.275,187.156727 227.95,187.681727 229.175,187.706727 C229.9,187.731727 230,187.631727 230.225,186.806727 Z M226.5,174.031727 C226.5,173.931727 225.65,173.106727 224.6,172.231727 C222.4,170.381727 221.75,169.481727 221.75,168.206727 C221.75,166.581727 223.5,165.481727 226.1,165.481727 C227.575,165.481727 230.55,166.706727 231.675,167.806727 C232.125,168.231727 232.55,168.506727 232.65,168.406727 C232.925,168.131727 231.95,165.706727 231.075,164.531727 C230.6,163.881727 229.65,162.806727 229,162.106727 C227.675,160.681727 226.35,158.906727 224.775,156.356727 C223.35,154.081727 220.475,150.256727 218.8,148.431727 C217.15,146.681727 215.55,145.981727 213.05,145.981727 C209.575,145.981727 206.95,147.406727 205.825,149.906727 C204.9,151.881727 205.15,154.206727 206.625,157.481727 C208.775,162.256727 210.15,164.081727 213.25,166.231727 C214,166.756727 215.4,167.906727 216.375,168.806727 C217.6,169.956727 218.425,170.531727 219.15,170.706727 C219.7,170.856727 220.9,171.456727 221.775,172.056727 C222.65,172.656727 223.825,173.306727 224.375,173.481727 C224.925,173.656727 225.475,173.881727 225.625,174.006727 C225.9,174.281727 226.5,174.306727 226.5,174.031727 Z M232.175,171.831727 C232.75,170.831727 232.95,169.481727 232.5,169.481727 C232.375,169.481727 232.25,169.681727 232.25,169.956727 C232.25,170.206727 231.975,170.931727 231.625,171.581727 C230.9,172.931727 230.875,173.056727 231.325,172.931727 C231.475,172.856727 231.875,172.381727 232.175,171.831727 Z M229.725,171.356727 C230.3,170.656727 230.725,169.906727 230.7,169.631727 C230.6,168.981727 227.425,167.231727 226,167.056727 C224.8,166.906727 223,167.481727 223,167.981727 C223,168.781727 223.925,169.981727 225.325,170.981727 C226.775,172.031727 228.15,172.756727 228.55,172.656727 C228.625,172.631727 229.175,172.056727 229.725,171.356727 Z M249.4,161.456727 C249.6,161.106727 248.2,158.431727 246.95,156.856727 C246.4,156.181727 244.775,154.331727 243.325,152.781727 C240.225,149.481727 240.225,149.481727 239.575,152.781727 L239.15,154.931727 L239.975,156.606727 C240.925,158.506727 241.85,159.231727 243.4,159.231727 C244.125,159.231727 244.75,159.456727 245.625,160.056727 C247.225,161.131727 247.25,161.131727 248.125,161.431727 C249.15,161.756727 249.2,161.781727 249.4,161.456727 Z M226.775,151.706727 C227.8,150.006727 227.85,149.881727 228.85,147.681727 L229.5,146.231727 L228.125,146.231727 C227.25,146.231727 226.3,146.431727 225.45,146.806727 C224.7,147.131727 223.525,147.606727 222.8,147.831727 C222.075,148.081727 221.5,148.381727 221.55,148.506727 C221.75,149.031727 225.4,153.481727 225.6,153.406727 C225.725,153.356727 226.25,152.606727 226.775,151.706727 Z M213.25,141.381727 C213.25,141.181727 213.15,140.956727 213.025,140.881727 C212.625,140.631727 211.95,137.681727 212.225,137.406727 C212.65,136.981727 213.125,137.606727 213.625,139.231727 C214,140.456727 214.025,140.781727 213.75,141.106727 C213.25,141.706727 213.55,141.781727 215.5,141.506727 C217.475,141.231727 217.725,141.131727 217.375,140.631727 C216.375,139.281727 216.2,138.856727 216.1,137.556727 L215.975,136.106727 L216.45,136.681727 C216.725,136.981727 217.025,137.681727 217.125,138.206727 C217.2,138.756727 217.5,139.381727 217.775,139.631727 C218.025,139.856727 218.25,140.206727 218.25,140.406727 C218.25,140.581727 218.325,140.731727 218.425,140.731727 C218.575,140.731727 221.8,139.481727 221.95,139.356727 C221.975,139.331727 221.675,138.881727 221.25,138.356727 C220.7,137.656727 220.5,137.156727 220.5,136.431727 C220.5,135.881727 220.6,135.481727 220.725,135.531727 C220.875,135.581727 221.275,136.206727 221.675,136.956727 C222.675,138.881727 222.925,138.956727 224.325,137.956727 C224.95,137.481727 225.475,136.956727 225.475,136.806727 C225.5,136.631727 225,135.806727 224.375,134.956727 C223.325,133.531727 222.95,132.481727 223.475,132.481727 C223.75,132.481727 225.65,134.981727 226.05,135.856727 C226.2,136.206727 226.45,136.481727 226.625,136.481727 C227.075,136.481727 229.625,134.881727 229.625,134.581727 C229.625,134.431727 228.75,133.481727 227.675,132.481727 C226.075,130.981727 225.675,130.731727 225.375,130.981727 C225.15,131.181727 224.675,131.231727 224.175,131.131727 C222.75,130.856727 221.7,129.281727 222.25,128.231727 C222.925,126.981727 225.75,128.181727 225.75,129.756727 C225.75,130.306727 225.875,130.481727 226.225,130.481727 C226.475,130.481727 226.975,130.731727 227.35,131.006727 C227.725,131.306727 228.075,131.481727 228.15,131.406727 C228.225,131.331727 227.95,130.456727 227.55,129.431727 C227.15,128.431727 226.75,127.281727 226.65,126.906727 C226.45,126.056727 226.9,123.406727 227.425,122.356727 C227.95,121.356727 228.075,119.656727 227.6,119.831727 C227.4,119.906727 227.25,119.806727 227.25,119.631727 C227.25,119.431727 227.4,119.231727 227.6,119.156727 C227.775,119.081727 228.05,118.581727 228.175,118.056727 C228.375,117.231727 228.5,117.106727 229.2,117.031727 C229.925,116.956727 230,117.031727 230,117.581727 C230,117.931727 229.875,118.231727 229.725,118.231727 C229.575,118.231727 229.525,118.406727 229.6,118.631727 C229.7,118.856727 229.625,119.206727 229.475,119.381727 C229.075,119.881727 229.625,120.481727 230.475,120.431727 C232.35,120.306727 232.975,120.481727 233.85,121.356727 C234.35,121.831727 234.8,122.231727 234.875,122.231727 C234.95,122.231727 235,121.581727 235,120.781727 L235,119.331727 L234.025,119.431727 C232.725,119.556727 230.2,119.031727 230.325,118.656727 C230.4,118.456727 231.15,118.381727 232.7,118.406727 L235,118.456727 L235,116.981727 C235,115.956727 234.9,115.481727 234.7,115.481727 C234.525,115.481727 233.45,115.606727 232.325,115.756727 C231.2,115.931727 230.1,115.981727 229.85,115.881727 C228.95,115.531727 230.1,115.006727 232.425,114.681727 L234.725,114.381727 L234.575,113.606727 C234.275,111.956727 231.675,105.681727 230.25,103.131727 C228.125,99.3067275 225.95,97.2817275 221.85,95.2567275 C219.775,94.2067275 219.4,94.1067275 214.625,93.2317275 C213.125,92.9567275 211.225,92.6067275 210.425,92.4317275 C208.675,92.1067275 203.825,92.3067275 201.475,92.8317275 C195.425,94.1567275 189.025,99.5067275 185.75,105.956727 C185.075,107.306727 184.25,109.981727 184.25,110.806727 C184.25,111.181727 185.9,111.731727 187.025,111.731727 C187.575,111.731727 188.5,112.381727 188.5,112.756727 C188.5,112.981727 186.35,112.806727 185.075,112.481727 L184.25,112.281727 L184.25,113.881727 L184.25,115.481727 L185.2,115.506727 C186.35,115.531727 187.8,116.031727 187.95,116.481727 C188.05,116.731727 187.7,116.781727 186.15,116.631727 C184.35,116.481727 184.225,116.481727 184.325,116.906727 C184.4,117.156727 184.6,118.106727 184.75,119.056727 C185.075,120.806727 185.225,121.006727 185.775,120.331727 C186.525,119.406727 188.75,118.831727 188.75,119.556727 C188.75,119.981727 185.875,121.331727 185.5,121.106727 C185.3,120.981727 185.25,121.081727 185.325,121.381727 C185.4,121.656727 185.625,122.481727 185.85,123.231727 C186.375,125.131727 187.875,127.331727 189.825,129.056727 C192.35,131.281727 195.825,133.881727 195.925,133.606727 C196.225,132.756727 196.7,132.106727 197.075,132.031727 C197.625,131.931727 197.625,132.606727 197.1,133.606727 L196.7,134.356727 L198.05,135.531727 C198.775,136.181727 199.45,136.731727 199.525,136.731727 C199.625,136.731727 199.9,136.306727 200.125,135.806727 C200.775,134.406727 201,134.181727 201.4,134.506727 C201.8,134.831727 201.475,135.831727 200.725,136.631727 L200.225,137.181727 L200.925,137.681727 C201.8,138.281727 203.15,138.981727 203.475,138.981727 C203.725,138.981727 203.775,138.831727 204.25,137.056727 C204.6,135.706727 205.25,135.581727 205.25,136.856727 C205.25,137.356727 205.1,138.131727 204.9,138.581727 L204.55,139.431727 L205.8,139.956727 C207.675,140.731727 207.925,140.681727 208.1,139.381727 C208.275,138.306727 208.825,137.481727 209.175,137.831727 C209.25,137.906727 209.225,138.581727 209.075,139.331727 L208.85,140.706727 L210.1,141.206727 C211.65,141.806727 213.25,141.906727 213.25,141.381727 Z M224.75,129.606727 C224.75,129.131727 223.95,128.706727 223.525,128.981727 C223.325,129.081727 223.25,129.356727 223.325,129.581727 C223.525,130.081727 224.75,130.131727 224.75,129.606727 Z M247,127.206727 C247,127.056727 247.375,126.406727 247.85,125.756727 C248.3,125.131727 249.3,123.606727 250.05,122.356727 C250.8,121.131727 251.6,119.806727 251.85,119.406727 L252.3,118.731727 L251.175,117.656727 C249.15,115.756727 247.875,114.981727 246.95,115.131727 C246.275,115.256727 245.925,115.131727 245.15,114.506727 C244.6,114.081727 244.125,113.781727 244.05,113.856727 C243.975,113.931727 243.7,114.581727 243.45,115.281727 C242.825,117.081727 242.475,125.481727 243.025,125.481727 C243.225,125.481727 244.05,125.931727 244.875,126.481727 C246.4,127.506727 247,127.706727 247,127.206727 Z M229.05,118.856727 C229.05,118.731727 228.925,118.581727 228.775,118.531727 C228.625,118.481727 228.5,118.631727 228.5,118.856727 C228.5,119.081727 228.625,119.231727 228.775,119.181727 C228.925,119.131727 229.05,118.981727 229.05,118.856727 Z"/>
    <path fill="#020202" fill-rule="nonzero" d="M211.05 136.256728C210.025 135.306728 210 134.881728 211.025 135.106728 211.575 135.231728 211.875 135.181728 212.05 134.956728 212.225 134.681728 212.325 134.681728 212.425 134.931728 212.475 135.081728 212.875 135.231728 213.275 135.231728 213.675 135.231728 214 135.356728 214 135.481728 214 135.631728 213.675 135.731728 213.25 135.731728 212.625 135.731728 212.5 135.831728 212.5 136.356728 212.5 137.181728 212.05 137.156728 211.05 136.256728zM212 136.006728C212 135.706727 211.5 135.381728 211.325 135.556728 211.15 135.731728 211.475 136.231728 211.775 136.231728 211.9 136.231728 212 136.131728 212 136.006728zM204.425 135.031728C203.775 134.356728 203.55 133.731728 203.95 133.731728 204.075 133.731728 204.425 134.006728 204.725 134.331727 205.2 134.831727 205.4 134.906728 205.75 134.681727 206.375 134.281728 207 134.581727 206.825 135.206727 206.625 136.006728 205.275 135.906728 204.425 135.031728zM218.75 134.806728C218.75 133.531728 218.275 133.006728 217.825 133.781728 217.5 134.331728 217.5 134.331728 217.55 133.606728 217.65 132.556728 218.375 132.481728 218.95 133.456728 219.175 133.881728 219.55 134.256728 219.775 134.281728 220.1 134.331728 220.05 134.506728 219.475 135.056728L218.75 135.756728 218.75 134.806728zM210.8 133.931727C210.35 133.481727 210.45 132.781727 210.975 132.481727 211.775 132.081727 212.4 132.181727 213.25 132.906727 214 133.531727 214.025 133.581727 213.6 133.906727 213.05 134.306727 211.2 134.331727 210.8 133.931727zM212.75 133.356728C212.75 133.106728 212.5 132.981728 212.025 132.981728 211.225 132.981728 210.775 133.356728 211.3 133.556728 211.975 133.831728 212.75 133.731728 212.75 133.356728zM205.925 133.806727C204.6 133.606728 204.45 131.731728 205.75 131.731728 206.175 131.731728 207.5 133.056727 207.5 133.481728 207.5 133.656728 206.775 134.056727 206.675 133.956727 206.65 133.931727 206.3 133.856728 205.925 133.806727zM206.5 132.856728C206.175 132.456727 205.5 132.356728 205.5 132.681727 205.5 133.031728 205.8 133.231728 206.325 133.231728 206.725 133.231728 206.75 133.156728 206.5 132.856728zM219.35 133.106727C218.875 132.381727 218.95 131.756727 219.575 131.381727 220.4 130.856727 221.425 131.956727 221.15 133.056727 220.925 133.956727 219.925 133.981727 219.35 133.106727zM220.575 132.831728C220.8 132.581728 220.475 131.981728 220.1 131.981728 219.9 131.981728 219.75 132.131728 219.75 132.306728 219.75 132.856728 220.225 133.181728 220.575 132.831728zM198.75 132.231727C198.6 131.956727 198.325 131.731727 198.15 131.731727 197.575 131.731727 197.125 131.006727 197.475 130.656727 197.7 130.431727 197.95 130.456727 198.55 130.806727 199.525 131.356727 199.75 131.156727 199.025 130.381727 197.925 129.206727 198.975 128.156727 200.15 129.256727 200.85 129.906727 200.925 130.606727 200.35 130.931727 200.075 131.081727 200.025 131.206727 200.225 131.331727 200.625 131.606727 200.55 132.406727 200.1 132.581727 199.425 132.856727 199.025 132.756727 198.75 132.231727zM200 132.031728C200 131.706728 199.7 131.481728 199.45 131.631728 199.2 131.781728 199.425 132.231728 199.775 132.231728 199.9 132.231728 200 132.131728 200 132.031728zM200.15 129.756728C200.05 129.606728 199.8 129.481728 199.6 129.481728 199.3 129.481728 199.275 129.581728 199.525 130.006728 199.7 130.356728 199.875 130.456728 200.05 130.281728 200.2 130.131728 200.225 129.906728 200.15 129.756728zM192.5 130.406727C192.5 130.231728 193.8 128.906727 195.4 127.481728 197 126.031728 198.55 124.631727 198.85 124.331727 199.15 124.056727 199.775 123.531728 200.25 123.181727 200.725 122.831727 202.025 121.706727 203.125 120.656728 204.225 119.606728 205.725 118.331727 206.45 117.806727 207.175 117.281728 207.825 116.606728 207.9 116.306727 208.175 115.256727 208.925 114.881727 210.5 114.906728 211.325 114.931727 212.05 114.856728 212.125 114.731728 212.2 114.606728 212.925 114.081727 213.7 113.556727 214.475 113.056727 215.175 112.556727 215.25 112.481728 215.975 111.731728 216.25 111.681727 216.75 112.256727 217.425 113.081727 217.375 113.456727 216.575 113.806727 215.725 114.181727 213.1 115.981728 212.325 116.706727 212 117.006727 211.75 117.406728 211.75 117.581727 211.75 118.531728 209.75 119.256727 208.5 118.731728 207.775 118.431727 207.725 118.456727 204.8 121.131727 200.85 124.756727 198.8 126.506727 198 126.981728 196.15 128.006728 194.45 129.331727 194.25 129.831727 193.95 130.656727 192.5 131.131728 192.5 130.406727zM189.625 128.256728C189.4 127.881728 190.725 126.806728 192.15 126.181728 192.875 125.856728 193.525 125.406728 193.575 125.181728 193.65 124.906728 193.85 124.806728 194.225 124.906728 194.85 125.056728 194.925 124.681728 194.375 124.231728 194.15 124.056728 194 123.656728 194.05 123.381728 194.1 122.956728 194.275 122.856728 194.9 122.906728 195.5 122.956728 195.725 122.856728 195.825 122.481728 195.9 122.206728 196.125 121.906728 196.35 121.831728 196.875 121.631728 197.75 122.381728 197.75 123.031728 197.75 123.381728 197.55 123.481728 196.9 123.481728 196.15 123.481728 196.075 123.556728 196.175 124.081728 196.275 124.531728 196.175 124.731728 195.775 124.856728 195.45 124.956728 195.275 125.181728 195.3 125.431728 195.375 125.831728 195.275 125.856728 194.25 125.556728 194 125.481728 193.775 125.706728 193.6 126.181728 193.4 126.681728 192.875 127.156728 191.875 127.681728 190.35 128.531728 189.875 128.631728 189.625 128.256728zM195.75 123.981728C195.75 123.681728 194.875 123.206728 194.65 123.406728 194.45 123.631728 195 124.231728 195.4 124.231728 195.6 124.231728 195.75 124.131728 195.75 123.981728zM197.25 122.756728C197.25 122.456728 196.75 122.131728 196.575 122.306728 196.4 122.481728 196.725 122.981728 197.025 122.981728 197.15 122.981728 197.25 122.881728 197.25 122.756728zM187.5 124.906728C187.5 124.731728 187.9 124.206728 188.375 123.731728 189.05 123.081728 189.325 122.956728 189.55 123.181728 189.775 123.406728 189.65 123.681728 189 124.356728 188.125 125.256728 187.5 125.481728 187.5 124.906728zM191.125 121.056728C190.35 120.856728 189.5 120.206728 189.5 119.831728 189.5 119.556728 189.825 119.631728 190.75 120.106728 191.45 120.456728 191.95 120.856728 191.875 120.981728 191.8 121.131728 191.7 121.206728 191.675 121.206728 191.65 121.181728 191.4 121.106728 191.125 121.056728zM192.225 120.606728C192.125 120.481728 192 120.031728 191.9 119.606728 191.65 118.631728 191.3 118.231728 190.85 118.406728 190.65 118.481728 190.5 118.381728 190.5 118.131728 190.5 117.906728 190.675 117.731728 190.875 117.731728 191.325 117.731728 192.25 118.606728 192.25 119.031728 192.25 119.256728 192.325 119.256728 192.55 119.031728 192.725 118.856728 193.025 118.731728 193.225 118.731728 193.5 118.731728 193.475 118.856728 193.075 119.306728 192.775 119.606728 192.5 120.081728 192.45 120.356728 192.4 120.631728 192.3 120.756728 192.225 120.606728zM192.625 117.581728C192.1 116.781728 192.4 116.056728 193.15 116.181728 193.775 116.306728 193.8 116.331728 193.825 117.256728 193.875 118.331728 193.225 118.506728 192.625 117.581728zM193.6 117.256727C193.775 117.006727 193.15 116.406727 192.925 116.631727 192.75 116.831727 193 117.481727 193.25 117.481727 193.375 117.481727 193.525 117.381727 193.6 117.256727zM224.925 116.556728C224.85 116.431728 224.875 116.181728 225.025 115.981728 225.275 115.531728 225.325 114.131728 225.075 113.881728 224.975 113.806728 224.75 113.981728 224.575 114.281728 224.275 114.856728 224.275 114.856728 224.25 114.331728 224.25 114.031728 224.425 113.631728 224.65 113.456728 225 113.181728 225.1 113.206728 225.4 113.606728 225.6 113.856728 225.75 114.331728 225.75 114.656728 225.75 115.231728 226.1 115.431728 226.35 115.031728 226.6 114.631728 226.2 112.981728 225.85 112.981728 225.375 112.981728 225.4 112.356728 225.9 111.956728 226.25 111.681728 226.35 111.681728 226.625 112.056728 227.075 112.656728 227.275 112.581728 227.1 111.856728 226.925 111.131728 227.15 111.056728 227.8 111.656728 228.225 112.031728 228.375 112.006728 230.35 111.131728 232.4 110.206728 233.125 110.131728 232.85 110.831728 232.65 111.381728 230.4 112.481728 229.15 112.631728 228.05 112.781728 227.925 112.881728 227.375 113.956728 226.725 115.206728 225.125 116.881728 224.925 116.556728zM227.2 113.256728C227.275 113.056728 227.175 112.956728 226.975 113.031728 226.8 113.081728 226.6 113.281728 226.55 113.456728 226.475 113.656728 226.575 113.756728 226.775 113.681728 226.95 113.631728 227.15 113.431728 227.2 113.256728zM189.875 114.606728C189.475 114.281728 189.2 113.956727 189.275 113.881727 189.35 113.806727 189.725 114.031728 190.125 114.356728 190.55 114.681727 190.825 114.981728 190.75 115.056727 190.675 115.131727 190.3 114.931727 189.875 114.606728zM190.5 113.081728C190.5 112.256728 190.8 111.956728 191.125 112.481728 191.4 112.906728 191.7 112.756728 191.8 112.181728 191.85 111.756728 192.05 111.606728 192.5 111.606728 193.025 111.606728 193.125 111.731728 193.125 112.356728 193.125 112.956728 193 113.131728 192.55 113.181728 192.225 113.231728 192 113.406728 192.075 113.556728 192.15 113.756728 191.875 113.881728 191.35 113.906728 190.55 113.931728 190.5 113.906728 190.5 113.081728zM192.85 112.531728C192.9 112.431728 192.875 112.181728 192.75 111.981728 192.575 111.706728 192.45 111.681728 192.225 111.906728 192.075 112.056728 192.025 112.306728 192.1 112.456728 192.3 112.781728 192.675 112.806728 192.85 112.531728zM222 109.856727C222 109.006727 221.9 108.731727 221.6 108.731727 221.325 108.731727 221.25 108.881727 221.375 109.231727 221.475 109.506727 221.425 109.731727 221.275 109.731727 221.125 109.731727 221 109.381727 221 108.956727 221 108.206727 221.05 108.181727 221.775 108.331727 222.5 108.481727 222.55 108.431727 222.4 107.856727 222.275 107.406727 222.35 107.231727 222.625 107.231727 222.825 107.231727 223 107.006727 223 106.731727 223 106.156727 223.425 106.106727 224.075 106.581727 224.525 106.931727 224.625 107.506727 224.325 107.831727 224.225 107.931727 224.125 108.206727 224.125 108.431727 224.125 108.656727 224 108.831727 223.85 108.806727 223.7 108.781727 223.575 108.906727 223.575 109.081727 223.575 109.456727 222.475 110.981727 222.2 110.981727 222.1 110.981727 222 110.481727 222 109.856727zM223.175 109.556728C223.225 109.406728 223.075 109.231728 222.85 109.131728 222.325 108.931728 222.2 109.056728 222.4 109.581728 222.575 110.031728 223.025 110.006728 223.175 109.556728zM223.3 107.856728C223.3 107.731728 223.175 107.581728 223.025 107.531728 222.875 107.481728 222.75 107.631728 222.75 107.856728 222.75 108.081728 222.875 108.231728 223.025 108.181728 223.175 108.131728 223.3 107.981728 223.3 107.856728zM193.05 109.206728C192.6 108.756728 192.3 108.356728 192.375 108.281728 192.45 108.206728 192.925 108.556728 193.45 109.056728 193.95 109.556728 194.25 109.981728 194.1 109.981728 193.95 109.981728 193.475 109.631728 193.05 109.206728zM188.05 109.256728C186.775 108.756728 186 108.131728 186 107.606728 186 107.081728 186.25 107.131728 187.65 107.906728 189.025 108.631728 189.75 109.206728 189.75 109.531728 189.75 109.806728 189.3 109.756728 188.05 109.256728zM193.85 108.706728C193.75 108.531728 193.775 108.356728 193.9 108.306728 194.7 108.031728 194.85 107.756728 194.575 107.156728 194.25 106.431728 194.375 106.231728 195.15 106.231728 195.875 106.231728 196.25 107.181728 195.675 107.581728 195.475 107.756728 195.275 108.081728 195.225 108.356728 195.1 108.931728 194.15 109.156728 193.85 108.706728zM195.5 107.031728C195.5 106.706728 195.2 106.481728 194.95 106.631728 194.7 106.781728 194.925 107.231728 195.275 107.231728 195.4 107.231728 195.5 107.131728 195.5 107.031728zM228.05 108.081728C228.1 107.806728 228.575 107.556728 229.325 107.356728 230.65 107.006728 231.025 107.256728 230.35 108.006728 229.775 108.631728 227.925 108.706728 228.05 108.081728zM193.425 107.806728C193.175 107.581728 193.2 107.231728 193.475 107.231728 193.6 107.231728 193.75 107.406728 193.85 107.606728 193.975 107.981728 193.725 108.106728 193.425 107.806728zM216.85 106.081728C217.25 104.531728 216.25 103.906728 215.65 105.306728 215.325 106.006728 215.3 106.031728 215.275 105.531728 215.25 104.681728 215.7 103.981728 216.25 103.981728 216.575 103.981728 216.75 103.806728 216.75 103.481728 216.75 103.206728 216.925 102.981728 217.125 102.981728 217.325 102.981728 217.5 102.756728 217.5 102.481728 217.5 102.106728 217.675 101.981728 218.2 101.981728 218.575 101.981728 219.025 102.106728 219.2 102.281728 219.675 102.756728 219.55 103.506728 219 103.656728 218.625 103.756728 218.525 103.931728 218.65 104.281728 218.75 104.631728 218.7 104.731728 218.525 104.631728 218.05 104.331728 217.25 104.731728 217.25 105.256728 217.25 105.681728 217.325 105.706728 217.775 105.481728 218.6 105.031728 218.625 105.381728 217.85 106.081728 216.925 106.881728 216.65 106.881728 216.85 106.081728zM219 102.856728C219 102.606728 218.75 102.481728 218.325 102.481728 217.65 102.506728 217.65 102.506728 218.1 102.856728 218.725 103.331728 219 103.331728 219 102.856728zM188.65 105.106728C187.575 103.881728 187.375 103.231728 188 103.231728 188.225 103.231728 191.25 106.156728 191.25 106.356728 191.25 106.431728 190.925 106.481728 190.525 106.481728 189.975 106.481728 189.55 106.181728 188.65 105.106728zM225 105.331728C225 104.406728 227.45 102.831728 228 103.381728 228.3 103.681728 228.075 103.981728 226.775 104.931728 225.525 105.806728 225 105.931728 225 105.331728zM197 104.756728C196.525 104.356728 196.2 103.956728 196.275 103.856728 196.375 103.781728 196.6 103.856728 196.8 104.056728 196.975 104.256728 197.375 104.531728 197.7 104.706728 198.225 104.981728 198.475 105.481728 198.075 105.481728 197.95 105.481728 197.475 105.131728 197 104.756728zM197.725 103.731727C197.575 103.331727 197.35 102.981727 197.225 102.981727 196.9 102.981727 196.95 102.481727 197.35 102.106727 197.55 101.906727 198.15 101.781727 198.9 101.806727 200.325 101.856727 200.525 102.256727 199.875 103.631727 199.55 104.331727 199.325 104.481727 198.725 104.481727 198.125 104.481727 197.925 104.331727 197.725 103.731727zM198.25 102.606728C198.25 102.406728 198.075 102.231728 197.875 102.231728 197.675 102.231728 197.5 102.406728 197.5 102.606728 197.5 102.806728 197.675 102.981728 197.875 102.981728 198.075 102.981728 198.25 102.806728 198.25 102.606728zM203.725 104.306727C203.7 104.181727 203.675 104.006727 203.625 103.856727 203.6 103.731727 203.55 103.356727 203.55 103.056727 203.5 102.381727 203.075 102.281727 202.925 102.931727 202.825 103.331727 202.825 103.331727 202.625 102.931727 202.375 102.306727 202.65 101.731727 203.2 101.731727 203.575 101.731727 203.65 101.581727 203.575 101.131727 203.475 100.681727 203.575 100.481727 203.975 100.356727 204.275 100.281727 204.5 99.9817275 204.5 99.7317275 204.5 99.2067275 205.5 98.8067275 205.975 99.1067275 206.375 99.3317275 206.3 100.531727 205.85 101.481727 205.475 102.206727 205.35 102.281727 204.625 102.156727 203.9 102.031727 203.825 102.081727 203.95 102.631727 204.05 103.131727 204.15 103.206727 204.725 103.056727L205.375 102.906727 204.625 103.681727C203.825 104.531727 203.775 104.581727 203.725 104.306727zM205.2 101.431728C205.05 101.031728 204.3 100.581728 204.1 100.806728 203.875 101.031728 204.475 101.731728 204.925 101.731728 205.125 101.731728 205.25 101.606728 205.2 101.431728zM210.5 103.756728C210.5 102.506728 209.85 102.031728 209.7 103.181728L209.6 103.856728 209.325 103.231728C209.15 102.781728 209.15 102.481728 209.35 102.156728 209.725 101.556728 210.3 101.731728 210.7 102.556728 211.125 103.456728 211.5 103.206728 211.5 101.981728 211.5 101.056728 211 100.331728 210.8 100.931728 210.675 101.331728 210.25 101.306728 210.25 100.931728 210.25 100.581728 211.825 99.2317275 212.225 99.2317275 212.375 99.2317275 212.5 99.4067275 212.5 99.6067275 212.5 99.8067275 212.625 99.9817275 212.775 99.9817275 213.2 99.9817275 212.85 101.781728 212.375 102.031728 212.175 102.156728 212 102.456728 212 102.706728 212 103.081728 210.975 104.231728 210.625 104.231728 210.55 104.231728 210.5 104.006728 210.5 103.756728zM212.5 100.381728C212.5 99.9317275 212.075 99.6567275 211.75 99.8567275 211.55 99.9817275 211.575 100.131728 211.775 100.381728 212.15 100.831728 212.5 100.831728 212.5 100.381728zM191.225 102.006727C190.25 101.056727 190 100.481727 190.525 100.481727 190.85 100.481727 193.25 102.481727 193.25 102.781727 193.25 103.306727 192.1 102.881727 191.225 102.006727L191.225 102.006727zM222.875 102.731728C222.7 102.456728 224.65 99.9817275 225.025 99.9817275 225.65 99.9817275 225.475 100.806728 224.625 101.856728 223.7 102.956728 223.175 103.231728 222.875 102.731728zM195.475 100.931728C194.875 100.431728 193.5 98.5567275 193.5 98.2567275 193.5 97.6317275 194.275 98.0567275 195.225 99.2067275 196.475 100.706727 196.65 101.881728 195.475 100.931728zM218.75 100.181728C218.75 99.6817275 221 96.9567275 221.25 97.1067275 221.7 97.3817275 221.5 97.9067275 220.475 99.2067275 219.5 100.431728 218.75 100.856728 218.75 100.181728zM214.5 99.1317275C214.5 98.6817275 215.725 95.4317275 216 95.1317275 216.125 95.0067275 216.4 94.9817275 216.6 95.0567275 216.95 95.2067275 216.9 95.4567275 216.35 97.0317275 215.975 98.0317275 215.575 99.0067275 215.45 99.1817275 215.1 99.5817275 214.5 99.5567275 214.5 99.1317275zM198.25 97.6817275C197.425 96.2067275 197.325 95.7317275 197.875 95.7317275 198.3 95.7317275 199.4 97.3567275 199.65 98.3317275 199.925 99.5067275 199.075 99.0817275 198.25 97.6817275zM202.3 97.6567275C201.85 97.1317275 201.45 94.6817275 201.75 94.3817275 202.15 93.9817275 202.475 94.5067275 202.775 96.0817275 203.05 97.6067275 202.825 98.3067275 202.3 97.6567275zM210.675 97.8067275C210.375 97.5317275 210.5 95.3817275 210.825 94.7567275 210.975 94.4067275 211.275 94.1067275 211.45 94.0317275 211.725 93.9567275 211.75 94.2317275 211.625 95.3817275 211.35 97.9067275 211.175 98.3317275 210.675 97.8067275zM206.25 95.7317275C206.25 94.4067275 206.3 94.2067275 206.7 94.2817275 207.05 94.3567275 207.125 94.6317275 207.125 95.7317275 207.125 96.8317275 207.05 97.1067275 206.7 97.1817275 206.3 97.2567275 206.25 97.0567275 206.25 95.7317275zM299.8 247.656728C299.775 247.331727 299.625 247.231728 299.275 247.356728 298.95 247.456727 298.625 247.281728 298.175 246.756728 297.775 246.256728 297.475 246.106728 297.325 246.256728 297.15 246.431727 296.8 246.206727 296.275 245.581727 295.525 244.656728 295.5 244.631728 295.125 245.106728 294.775 245.581727 294.725 245.581727 293.9 244.681728 293.425 244.181727 292.825 243.731728 292.575 243.681727 292.325 243.631728 291.75 243.056727 291.325 242.381728 290.875 241.731728 290.5 241.331727 290.5 241.506728 290.5 242.106728 289.325 240.656728 288.5 239.056727 287.6 237.306727 287.25 237.081727 287.25 238.281728L287.25 239.056727 286.7 238.531728C286.375 238.256728 285.9 237.581727 285.625 237.056727 285.35 236.531728 284.55 235.106728 283.825 233.906728 283.1 232.706727 282.5 231.631728 282.5 231.506728 282.5 231.381728 281.95 230.431727 281.25 229.381728 280.575 228.331727 280 227.356728 280 227.231728 280 226.906728 281.9 227.181727 282.75 227.606728 283.6 228.031728 286.675 230.806727 288.1 232.406728 288.75 233.106728 290.35 234.581727 291.7 235.656728 296.65 239.656728 299.8 242.306727 299.9 242.581727 299.975 242.756728 299.975 244.056727 299.925 245.506728 299.9 246.931727 299.825 247.906728 299.8 247.656728zM159.8 241.706727C159.925 241.331727 162.025 240.156727 162.225 240.356728 162.45 240.606728 161.15 241.706727 160.4 241.881727 159.85 242.006727 159.7 241.981728 159.8 241.706727zM157.65 239.156727C156.8 238.531727 157.325 238.056727 159.05 237.906727 159.925 237.831727 160.925 237.681727 161.325 237.581727 161.875 237.456727 162 237.506728 162 237.906727 162 238.181727 161.775 238.606728 161.5 238.856728 160.825 239.481728 158.325 239.656727 157.65 239.156727zM252.975 181.306728C252.6 180.331727 252.9 177.456727 253.65 174.806728 254 173.606728 254.375 172.506728 254.475 172.356728 254.7 172.081727 255.9 169.906728 257.125 167.581727 257.65 166.581727 258.075 165.281728 258.35 163.706727 259 160.006728 259 160.031728 259.3 160.581727 259.825 161.506728 258.7 166.881728 257.45 169.356728 255.95 172.381728 254.475 176.981728 254.325 179.106728 254.125 181.881728 253.55 182.806728 252.975 181.306728z"/>
    <path fill="#424242" fill-rule="nonzero" d="M110.95 295.681725C110.175 293.306725 109.25 290.156725 108.9 288.681725 108.55 287.206725 107.7 284.056725 107.025 281.681725 106.35 279.306725 105.1 274.656725 104.275 271.356725 103.45 268.056725 102.225 263.731725 101.525 261.731725 99.775 256.606727 99.425 255.256725 98.25 249.481727 97.55 245.956727 96.95 243.706727 96.325 242.231727 95.85 241.056727 94.725 238.306727 93.875 236.106727 93 233.906727 91.775 230.931727 91.125 229.481727 90.475 228.031727 89.25 225.031727 88.375 222.831727 86.575 218.206727 86.075 217.181727 84.7 215.156727 84.15 214.356727 83.425 213.056727 83.075 212.281727 82.725 211.506727 81.95 209.756727 81.35 208.431727 79.825 205.081727 79.85 205.081727 82.075 204.881727 83.05 204.781727 84.325 204.681727 84.85 204.656727L85.85 204.606727 86.375 207.131727C87.125 210.531727 87.75 212.556727 89.75 217.856727 90.675 220.331727 92.125 224.431727 92.95 226.981727 93.775 229.531727 95.3 233.581727 96.375 235.981727 97.425 238.381727 99 242.381727 99.875 244.856727 100.75 247.331727 101.925 250.531725 102.5 251.981725 103.1 253.431725 104.6 257.756725 105.875 261.606727 107.3 265.931725 108.825 269.981725 109.875 272.231725 112.75 278.431725 113.2 279.581725 116.525 289.431725 118.3 294.706725 119.875 299.231725 120 299.506725 120.25 299.956725 120.125 299.981725 116.325 299.981725L112.375 299.981725 110.95 295.681725zM226.875 296.231725C219.35 289.956725 216.225 286.631725 210.6 279.056725 209.05 276.956725 206.8 274.256725 205.6 273.056725 204.425 271.856725 202.775 269.856725 201.925 268.606725 200.425 266.456725 197.575 263.331725 189.375 254.981725 185.45 250.956725 183.7 248.881727 181.65 245.806727 181 244.806727 179.4 242.831727 178.1 241.431727 176.8 240.006727 175.75 238.731727 175.75 238.581727 175.75 238.231727 177.5 235.581727 177.675 235.656727 177.725 235.681727 178.3 236.381727 178.95 237.181727 179.6 237.981727 181.025 239.781727 182.125 241.156727 183.225 242.531727 184.8 244.531727 185.625 245.631727 186.45 246.706727 188.2 248.831727 189.525 250.356725 190.825 251.856725 193.35 254.856725 195.1 256.981725 196.875 259.106725 200.25 262.831725 202.625 265.231725 205 267.631725 208 270.806725 209.3 272.281725 210.6 273.756725 212.275 275.481725 213.025 276.131725 213.775 276.781725 216 278.906725 218 280.856725 224.125 286.806725 226.55 289.056725 228.5 290.581725 229.525 291.406725 231.5 293.156725 232.875 294.456725 234.25 295.781725 236.15 297.581725 237.125 298.431725L238.875 299.981725 235.125 299.981725 231.375 299.981725 226.875 296.231725zM148.75 243.431727C148.275 243.306727 147.8 243.106728 147.675 243.006728 147.575 242.906728 147.575 241.981728 147.65 240.956727 147.8 239.306727 147.925 239.006728 148.65 238.306727 149.65 237.281728 150.125 237.281728 151.325 238.256728 152.2 238.981728 152.55 239.731728 152 239.731728 151.6 239.731728 150.275 241.956727 150.1 242.906728 150.025 243.356728 149.875 243.731728 149.775 243.706727 149.7 243.706727 149.225 243.581727 148.75 243.431727zM143.95 240.681727C143 239.656728 142.975 239.581727 143.125 238.231728 143.35 236.406728 143.7 235.306727 144.45 234.181727 145.475 232.606728 146.025 232.856728 147.8 235.631728 147.9 235.781728 147.5 236.406728 146.875 237.056727 145.725 238.281728 145.375 239.281728 145.55 240.856728 145.7 242.056727 145.175 242.006728 143.95 240.681727zM140.225 235.481727L139.65 233.731727 140.175 233.056727C140.45 232.656727 141.025 232.156727 141.425 231.906727 142.325 231.406727 144.75 230.706727 144.75 230.981727 144.75 231.081727 144.35 231.481727 143.875 231.831727 142.9 232.581727 141.925 234.306727 141.475 236.081727 141.325 236.706727 141.1 237.231727 140.975 237.231727 140.875 237.231727 140.525 236.456727 140.225 235.481727zM138.625 230.981728C139.325 229.606728 140.6 228.406728 142.125 227.681727 143.925 226.831727 144.15 226.831727 144.35 227.556727 144.675 228.756728 144.55 228.931727 143.325 229.131728 141.875 229.331727 140.1 230.206727 139.275 231.081727 138.45 231.956727 138.15 231.906728 138.625 230.981728zM137.525 227.556727C137.55 226.506727 140.375 224.106727 142.175 223.581727 142.925 223.356727 143.7 223.256727 143.9 223.331727 144.4 223.531727 144.35 224.456727 143.825 224.656727 142.125 225.256727 139.675 226.556727 138.825 227.331727 138.275 227.831727 137.75 228.231727 137.65 228.231727 137.575 228.231727 137.5 227.931727 137.525 227.556727zM25.05 223.306728C24.75 221.506728 22.3 215.656727 19.875 210.856728L18.475 208.131728 20.425 206.281727C23.85 203.056728 27.525 201.006728 34.05 198.781728 36.4 197.956727 47.425 192.756728 48.35 192.006728 48.75 191.706727 54.975 188.356728 57.5 187.106728 59.775 185.981728 60.6 185.581727 64.125 184.031728 65.375 183.481728 67.5 182.481728 68.875 181.781728 70.25 181.081727 72.45 180.156727 73.75 179.731728 77.9 178.306728 82.8 175.531728 86.525 172.506728 87.275 171.906727 89.25 170.756728 90.925 169.956727 94 168.506728 96.775 166.856728 99.775 164.681728 100.675 164.031727 101.975 163.181727 102.65 162.806727 104.525 161.781728 111.45 156.681727 114.45 154.131728 117.975 151.131728 125.325 143.931727 127.925 140.931727 129.075 139.581727 130.1 138.481728 130.2 138.50631 130.3 138.50631 131.425 140.256728 132.675 142.406728 134.325 145.181727 135.225 147.031728 135.8 148.756728L136.6 151.206727 136.1 152.106728C135.85 152.606728 135.025 153.756728 134.275 154.681728 133.55 155.606728 131.925 157.706727 130.675 159.356728 129.425 161.006728 127.5 163.306728 126.375 164.481728 125.275 165.656728 123.525 167.631728 122.5 168.856728 118.375 173.831727 115.375 176.756728 110.625 180.531727 109.25 181.631728 106.825 183.831727 105.25 185.431727 102.975 187.756728 101.575 188.881728 98.5 190.956727 94.625 193.581727 90.975 196.206727 88.625 198.106728 87.95 198.656727 86.475 199.631728 85.375 200.281727L83.375 201.431727 78.5 201.556728C74.775 201.631728 72.7 201.831727 69.675 202.331727 67.525 202.706727 65.65 202.956727 65.55 202.881728 65.45 202.831727 64.2 203.031728 62.75 203.356728 59.65 204.031727 54.375 206.281727 51.35 208.181728 50.225 208.881728 48.1 210.056728 46.6 210.806728 45.1 211.556727 42.75 212.981728 41.375 213.981728 40 214.956727 37.8 216.331727 36.475 217.006728 35.075 217.731728 32.925 219.156727 31.35 220.431728 28.2 222.956727 25.575 224.981728 25.45 224.981728 25.4 224.981728 25.225 224.231728 25.05 223.306728zM137.125 222.906727C137.05 222.331727 137.075 221.356728 137.175 220.731728 137.375 219.631727 137.425 219.606728 138.5 219.431727 139.125 219.306727 140.3 219.156727 141.125 219.081727 142.575 218.931727 142.65 218.956727 142.95 219.581727 143.1 219.931727 143.525 220.281727 143.875 220.381727 144.825 220.631727 144.625 220.981728 143.5 220.981728 142.125 220.981728 139.975 221.856728 138.525 223.006727L137.275 223.981728 137.125 222.906727zM215.925 223.056727C215.625 222.706727 214.25 219.881727 214.25 219.606727 214.25 219.556727 215.175 219.481727 216.325 219.431727 222.575 219.106727 225.35 215.256727 222.875 210.306727 221.75 208.056727 220.525 206.731727 218.625 205.706727 215.75 204.181727 216.025 204.056727 220 205.006727 223.5 205.856727 224.25 205.831727 226.375 204.831727 227.85 204.131727 229.65 202.331727 230.35 200.881727 230.9 199.706727 230.875 197.631727 230.25 196.356727 229.7 195.231727 228.625 194.356727 225.95 192.881727 225 192.356727 224.25 191.856727 224.25 191.731727 224.25 191.631727 224.775 191.681727 225.425 191.881727 227.45 192.481727 229.15 192.331727 231.175 191.381727 232.8 190.581727 233 190.431727 233.6 189.131727 234.45 187.331727 234.6 186.056727 234.275 183.631727 233.825 180.456727 232.475 178.681727 229.575 177.431727 228.85 177.106727 228.25 176.781727 228.25 176.681727 228.25 176.581727 228.875 176.381727 229.65 176.231727 231.35 175.881727 233.325 174.356727 234.175 172.731727 234.725 171.731727 234.775 171.356727 234.7 169.231727 234.6 166.131727 233.825 164.431727 231.25 161.606727 230.25 160.506727 228.775 158.631727 228 157.456727L226.55 155.306727 227.3 153.831727C227.725 153.031727 228.25 152.081727 228.5 151.731727 228.75 151.381727 229.3 150.381727 229.75 149.481727 230.2 148.581727 230.6 147.831727 230.625 147.781727 230.65 147.731727 231.15 147.956727 231.7 148.231727 232.675 148.731727 236.775 149.731727 237.95 149.731727 238.6 149.731727 238.6 149.656727 238.125 151.856727 237.575 154.506727 237.65 155.531727 238.525 157.306727 238.95 158.156727 239.675 159.356727 240.1 159.981727 241.475 161.981727 243.125 165.756727 243.475 167.856727 244.025 170.931727 244.25 171.806727 244.85 172.931727 245.625 174.381727 246.775 177.331727 247.55 179.756727 248.05 181.356727 248.125 182.106727 248.125 185.356727 248.125 189.006727 248.075 189.181727 247.2 191.856727 246.7 193.381727 246.075 195.106727 245.8 195.731727 245.55 196.356727 245.25 197.281727 245.15 197.781727 244.925 198.981727 243.075 202.331727 241.525 204.306727 240.875 205.156727 240 206.356727 239.625 206.981727 238.5 208.831727 235.475 212.731727 234.125 214.106727 233.45 214.806727 232.15 215.856727 231.25 216.431727 229.075 217.856727 224.7 220.056727 223 220.606727 222.25 220.831727 220.475 221.581727 219.075 222.256727 217.65 222.931727 216.475 223.481727 216.425 223.481727 216.375 223.481727 216.15 223.281727 215.925 223.056727zM144.55 217.256728C144 216.506728 143.9 216.481728 142.175 216.481728 141.175 216.481728 139.95 216.606728 139.425 216.756728 138.875 216.906728 138.4 216.956727 138.325 216.881728 138.15 216.706727 139.2 213.756728 139.575 213.256728 139.8 213.006728 140.3 212.956727 141.675 213.081727 143.275 213.206727 143.675 213.331727 144.75 214.156728 146.1 215.181727 146.175 215.431727 145.4 217.306727L145.125 218.031728 144.55 217.256728zM145.15 211.831728C144.175 211.156728 143.7 210.981728 142.725 210.981728 142.05 210.981728 141.5 210.881728 141.5 210.756728 141.5 210.406728 144.025 208.481728 144.475 208.481728 144.975 208.481728 145.125 208.606728 146.475 210.031728 147.525 211.156728 147.55 211.231728 147.25 211.956728 147.075 212.381728 146.8 212.731728 146.65 212.706728 146.5 212.681728 145.825 212.306728 145.15 211.831728zM147.9 207.881727L146.675 206.831727 147.6 206.256727 148.525 205.681727 149.375 206.356728C150.4 207.106728 150.425 207.356728 149.675 208.281727L149.125 208.956727 147.9 207.881727z"/>
    <path fill="#424242" fill-rule="nonzero" d="M15.075 203.031728C14.1 201.531728 12.6 199.356728 11.725 198.206728 10.825 197.056728 9.125 194.356728 7.925 192.231728 6.55 189.781728 5.1 187.606728 4.025 186.356728 3.075 185.281728 1.8 183.431728 1.15 182.281728L0 180.156728.025 144.881728.025 109.606728 4.05 107.606728C6.25 106.506728 9.2 104.856728 10.6 103.956728 14.025 101.706728 15.425 100.956728 18.6 99.6067275 25.075 96.8567275 35.8 91.0567275 39.2 88.4567275 44.5 84.4567275 50.925 78.7567275 57.25 72.4817275 58.85 70.9067275 61.1 68.7067275 62.275 67.6067275 63.425 66.5067275 65.025 64.9067275 65.8 64.0567275 66.9 62.8567275 67.325 62.5567275 67.725 62.6567275 68.1 62.7567275 68.625 62.5067275 69.425 61.8817275 70.05 61.3817275 70.7 60.9817275 70.825 60.9817275 71.75 60.9817275 76.125 64.0817275 76.9 65.2817275 77.2 65.7317275 77.975 66.9567275 78.625 67.9817275 79.275 69.0067275 80.575 70.6567275 81.5 71.6067275 86.15 76.4067275 90.9 82.8567275 94.325 88.9817275 96.75 93.3317275 98.825 96.4067275 101.65 99.8817275 103.3 101.931728 104.425 103.631728 105.275 105.306728 106.15 107.106728 106.925 108.256728 108.15 109.531728 109.95 111.456728 111.55 113.806728 114.025 118.206728 115.95 121.631728 116.775 122.606728 120.075 125.306728 123.725 128.331728 126.2 131.006728 127.45 133.331728 128.35 134.981728 128.45 135.356728 128.2 135.706728 124.475 140.531728 113.025 151.731728 109 154.481728 108.525 154.806728 106.9 156.006728 105.375 157.131728 103.875 158.256728 102.075 159.481728 101.375 159.856728 100.7 160.231728 99.225 161.181728 98.125 161.981728 94.8 164.356728 92.65 165.656728 89.425 167.206728 87.75 168.006728 86.025 168.931728 85.6 169.256728 85.175 169.581728 83.95 170.506728 82.925 171.306728 80.525 173.156728 75.625 175.756728 72.425 176.856728 71.075 177.331728 67.875 178.731728 65.3 179.931728 62.725 181.156728 59.55 182.656728 58.25 183.231728 55.95 184.281728 52.15 186.256728 47.75 188.756728 43.35 191.231728 35.525 194.981728 32.625 195.981728 29.125 197.206728 24.2 199.506728 22.25 200.806728 21.5 201.331728 19.975 202.631728 18.85 203.756728L16.825 205.756728 15.075 203.031728zM151.625 205.231727C151.15 204.706727 151.275 204.606727 152.575 204.381727 153.675 204.181727 153.75 204.456727 152.775 205.181727 152.075 205.681727 152.05 205.681727 151.625 205.231727zM228.775 197.831728C228.775 197.556728 228.85 197.481728 228.925 197.681728 229 197.856728 228.975 198.081728 228.9 198.156728 228.825 198.256728 228.75 198.106728 228.775 197.831728zM296.225 166.131728C290.7 161.406728 286.1 156.481728 283.2 152.131728 282.625 151.306728 281.35 149.631728 280.35 148.456728 279.125 146.956728 278.425 145.856728 278.125 144.956727 277.875 144.206727 277.325 142.881728 276.875 141.981728 276.45 141.081728 276 140.031728 275.9 139.631728 275.8 139.231728 274.95 137.256728 274.025 135.256728 273.075 133.256728 272.175 131.181728 272 130.656728 271.85 130.131728 271.375 129.081728 270.975 128.281728 270.575 127.506728 270.25 126.631728 270.25 126.331728 270.25 125.281728 266 117.381728 263.575 113.881728 262.475 112.281728 262.25 112.106728 260.75 111.531728 259.4 111.031728 258.825 110.956728 257.35 111.056728 256.4 111.131728 255.175 111.356728 254.7 111.556728 253.7 111.981728 252.075 113.956728 251.85 115.056728 251.75 115.431728 251.625 115.731728 251.525 115.731728 251.45 115.731728 250.825 115.281728 250.125 114.731728 248.75 113.631728 246.625 112.481728 245.95 112.481728 245.7 112.481728 245.5 112.406728 245.5 112.331728 245.5 112.081728 248.675 108.506728 249.45 107.881728 249.825 107.581728 250.875 106.856728 251.775 106.281728 253.35 105.256728 253.475 105.231728 255.525 105.231728 256.675 105.231728 258.075 105.106728 258.625 104.981728 260.75 104.456728 265.75 106.756728 265.75 108.256728 265.75 108.481728 266.025 109.031728 266.375 109.506728 266.7 109.981728 267.425 111.281728 267.95 112.381728 268.5 113.506728 269.425 115.131728 270.025 116.006728 271.925 118.806728 272.975 120.956728 273.625 123.381728 274.15 125.406728 276.375 130.506728 278.275 134.106728 280.125 137.531728 281.5 139.906728 283.025 142.156728 284.7 144.631728 285.65 146.256728 287.875 150.481728 288.475 151.656728 289.625 153.406728 290.375 154.356728 292.25 156.731728 297.25 161.806728 298.775 162.906728L300 163.781728 300 166.506728C300 168.006728 299.95 169.231728 299.925 169.231728 299.875 169.231728 298.2 167.831728 296.225 166.131728zM235.6 147.731728C234.325 147.481728 232.975 147.106728 232.55 146.881728 232.125 146.656728 231.6 146.481728 231.4 146.481728 230.875 146.481728 231.975 143.456727 232.925 142.281728L233.65 141.381728 234.45 142.631728C235.8 144.756728 236.775 146.081727 237.65 146.981728 239 148.406728 239 148.406728 235.6 147.731728zM219.475 146.306728C216.8 143.481728 210.25 143.306728 206.5 145.981728L205.725 146.531728 203.925 145.981728C201.5 145.256728 198.9 144.131728 197.325 143.156728 194.775 141.581728 191.875 139.531728 191.375 138.981728 191.1 138.681728 190.025 137.731728 189 136.906728 184.35 133.131728 182.675 131.256728 180.825 127.706728 180.125 126.381728 179.4 125.031728 179.2 124.706728 178.975 124.381728 178.275 122.581728 177.625 120.731728L176.425 117.381728 176.7 112.481728C177 107.081728 177.575 104.006728 178.525 102.656728 180.325 100.081728 183.35 97.0817275 188.45 92.7817275 192.9 89.0317275 199.425 86.6567275 206.3 86.3317275L209.625 86.1817275 213 87.1817275C214.85 87.7317275 217.625 88.5317275 219.125 88.9567275 223.225 90.1067275 225.9 91.2817275 227.25 92.5567275 227.875 93.1567275 229.1 94.1567275 230 94.7817275 232.75 96.7067275 235.775 100.306728 237.45 103.656728 238.175 105.106728 238.925 107.581728 239.525 110.606728 240 113.006728 240.05 113.831728 239.9 117.106728 239.6 124.156728 239.425 126.681728 239.25 126.981728 239.025 127.331728 237.875 126.806728 237.2 126.056728 236.8 125.606728 236.8 125.506728 237.25 124.006728 238.125 121.206728 237.7 114.606728 236.4 110.831728 235.425 108.006728 233.525 103.456728 232.7 101.981728 231.7 100.206728 229.725 97.7067275 228.7 96.9317275 227.55 96.0567275 222.675 93.2817275 221.05 92.5567275 218.925 91.6317275 213.2 90.3317275 209.65 89.9817275 205.5 89.5567275 201.075 89.7817275 198.925 90.5067275 194.725 91.9067275 192.625 93.4567275 188.15 98.3067275 185.075 101.681728 184.65 102.281728 183.4 104.806728 182.65 106.356728 181.9 108.106728 181.775 108.731728 181.4 110.331728 181.45 112.631728 181.875 114.906728 182.075 115.981728 182.425 117.881728 182.625 119.106728 182.975 121.331728 183.7 123.706728 184.725 126.106728 185.475 127.806728 188 130.331728 192.725 134.056728 194.85 135.731728 196.975 137.481728 197.475 137.956728 198.425 138.856728 202.875 141.106728 205.425 141.956728 207.6 142.681728 211.125 143.081728 212.825 142.756728 213.55 142.631728 215 142.581728 216.05 142.656728 218.1 142.806728 219.8 142.406728 221.3 141.381728 221.75 141.081728 223.025 140.456728 224.125 139.981728 226.125 139.106728 229.35 137.131728 229.975 136.381728 230.15 136.156728 230.4 135.981728 230.5 135.981728 230.85 135.981728 232.775 139.256728 232.7 139.681728 232.575 140.381728 229.45 142.581728 227.5 143.331728 226.475 143.731728 225.25 144.356728 224.775 144.681728 224.325 145.031728 223.075 145.681728 222 146.131728L220.05 146.931728 219.475 146.306728z"/>
    <path fill="#424242" fill-rule="nonzero" d="M281.6 136.931728C281.5 136.756728 281.525 136.731728 281.7 136.831728 281.875 136.931728 282 137.056728 282 137.131728 282 137.331728 281.775 137.231728 281.6 136.931728zM243.4 130.556728C242.625 129.906728 242 129.306728 242 129.231728 242 129.156728 242.15 128.581728 242.325 127.906728L242.625 126.731728 243.95 127.706728C244.675 128.256728 245.5 128.781728 245.775 128.856728 246.05 128.956728 246.25 129.106728 246.2 129.181728 246.15 129.281728 245.85 129.881728 245.55 130.556728 245.25 131.206728 244.975 131.731728 244.9 131.731728 244.85 131.731728 244.175 131.206728 243.4 130.556728zM0 92.4817275L0 78.8317275 1.375 78.2567275C2.2 77.9067275 3.425 77.0567275 4.475 76.0817275 5.65 75.0067275 6.575 74.3567275 7.325 74.1317275 9 73.6317275 13.425 70.9567275 17.125 68.2067275 18.225 67.4067275 20.425 66.0817275 22 65.2817275 23.575 64.5067275 25.425 63.3817275 26.075 62.7817275 26.75 62.1817275 28.05 61.2067275 28.975 60.6067275 30.025 59.8817275 30.925 59.0567275 31.425 58.2567275 32.7 56.3317275 34.65 54.3317275 37.875 51.6817275 39.525 50.3317275 42.175 48.0817275 43.75 46.7067275 45.325 45.3067275 47.6 43.4567275 48.775 42.5817275 50.35 41.4067275 51.05 40.7067275 51.375 39.9817275 52.05 38.4817275 52.375 38.3317275 52.775 39.2817275 52.95 39.7317275 53.35 40.4567275 53.675 40.8817275 53.975 41.2817275 54.8 42.7817275 55.475 44.1817275 56.55 46.3067275 56.925 46.8567275 57.95 47.5817275 59.15 48.4567275 66.075 55.5817275 67.325 57.2567275 68.15 58.3567275 68.15 58.5817275 67.45 58.9067275 66.35 59.4067275 64.3 61.1317275 62.725 62.8817275 61.85 63.8567275 59.85 65.7567275 58.325 67.0817275 56.775 68.4067275 55.15 69.9317275 54.725 70.4817275 53.05 72.5567275 42.55 81.9067275 37.125 86.1317275 34.65 88.0817275 23.05 94.3067275 17.475 96.6817275 13.6 98.3567275 12.525 98.9317275 9.75 100.756727 8.45 101.631728 5.725 103.206727 3.7 104.256727L0 106.156727 0 92.4817275z"/>
    <g transform="translate(156.725 214.5)">
      <polygon fill="#353564" points=".063 0 .063 .313 .063 .313"/>
      <polygon fill="#E9E9FF" points=".063 0 .063 0 .063 .313 .063 .313"/>
      <polygon fill="#D7D7FF" points=".063 0 .063 .313 .063 .313"/>
      <polygon fill="#8686BF" points=".063 0 .063 0 .063 .313 .063 .313"/>
    </g>
  </g>
</svg>
