<?xml version="1.0" encoding="UTF-8" standalone="no"?>
<svg
   xmlns:dc="http://purl.org/dc/elements/1.1/"
   xmlns:cc="http://creativecommons.org/ns#"
   xmlns:rdf="http://www.w3.org/1999/02/22-rdf-syntax-ns#"
   xmlns:svg="http://www.w3.org/2000/svg"
   xmlns="http://www.w3.org/2000/svg"
   id="svg24902"
   preserveAspectRatio="xMidYMid meet"
   viewBox="0 0 14550.42 9701.3863"
   height="970.13867"
   width="1455.042"
   version="1.0">
  <metadata
     id="metadata24908">
    <rdf:RDF>
      <cc:Work
         rdf:about="">
        <dc:format>image/svg+xml</dc:format>
        <dc:type
           rdf:resource="http://purl.org/dc/dcmitype/StillImage" />
        <dc:title></dc:title>
      </cc:Work>
    </rdf:RDF>
  </metadata>
  <defs
     id="defs24906" />
  <g
     style="fill:#000000;stroke:none"
     transform="translate(-273.58113,-275.95899)"
     id="layer101">
    <path
       d="m 767.52734,18.302734 c -11.91504,0.08066 -23.32226,0.726563 -26.38476,1.601563 -1.6,0.4 -4.90078,1.799609 -7.30078,3.099609 -2.3,1.3 -5.79961,2.400391 -7.59961,2.400391 -4.3,0 -8.00039,2.900388 -9.90039,7.900391 -1.2,2.9 -2.7,4.399997 -6,6 -2.4,1.1 -4.99844,2.099609 -5.89844,2.099609 -2.5,0 -14.70039,11.900388 -17.90039,17.400391 -2.2,3.9 -2.90039,6.399218 -2.90039,10.699218 0,4.300001 -0.5,6.200391 -2.5,8.900391 -3,4.1 -4.5,8.899218 -4.5,14.699219 0,2.3 -0.40039,4.401169 -0.90039,4.701172 -0.4,0.3 -0.80039,3.998832 -0.90039,8.298832 -0.1,5.8 0.40078,8.7 1.80078,11.5 1,2 1.99922,6.20078 2.19922,9.30078 0.2,3.4 0.80156,5.89922 1.60156,6.19922 0.6,0.3 1.19922,1.10078 1.19922,1.80078 0,0.8 1.8,3.5 4,6 4.5,5.2 5,8.20078 2,12.30078 -7.3,10.1 -3.10078,24.8 7.69922,26.5 6.1,1 13.20156,-2.3 8.60156,-4 -3.3,-1.1 -6.30078,-4.60078 -6.30078,-7.30078 0,-1.7 1.3,-3.9 4,-6.5 2.2,-2.1 4.20039,-3.70039 4.40039,-3.40039 2,2 12.09883,22.40039 12.79883,25.90039 3.8,18.7 3.20156,27.3 -2.39844,37 -6,10.4 -8.70078,13.09961 -13.80078,14.09961 -2.5,0.4 -6.90039,1.30078 -9.90039,1.80078 -2.9,0.6 -8.1,1.9 -11.5,3 -8.3,2.7 -15.99961,4.1 -29.09961,5 -10.7,0.7 -11.3,0.89961 -21.5,6.09961 -5.8,2.9 -13.99922,7.09922 -18.19922,9.19922 -5.8,2.9 -9.30039,5.60156 -13.90039,10.60156 -11,12.1 -13.50117,20 -15.20117,48.5 l -1.09961,19.69922 H 513.04297 443.8418 l -6.79883,-2.90039 c -36.7,-15.5 -79.50039,-17.3 -116.90039,-5 -29.4,9.7 -56.80039,28.50039 -76.40039,52.40039 -37.9,46 -48.30039,108.29999 -27.40039,164.5 11.6,31.3 33.60156,59.10078 62.10156,78.80078 4.2,2.9 8.79922,5.89961 10.19922,6.59961 12.8,6.7 18.99961,9.49922 28.09961,12.69922 40.5,14.3 85.99961,12.30078 124.59961,-5.69922 20,-9.2 35.30078,-20.29961 51.30078,-37.09961 11.8,-12.3 19.10078,-22.50078 26.80078,-37.30078 17.9,-34.1 23.09922,-72.90039 15.19922,-111.40039 -8.4,-41.00001 -33.00039,-77.8 -68.40039,-102.5 l -5.90039,-4.09961 h 61 61.10156 l 0.69922,8.69922 c 1.1,12.7 -0.2,55.90078 -2,68.80078 -0.8,6.1 -2.60039,16.4 -3.90039,23 -1.4,6.6 -3.19961,17 -4.09961,23 -1,6.1 -3.29961,17.70039 -5.09961,25.90039 -1.9,8.2 -3.90039,18.8 -4.40039,23.5 -0.6,4.7 -2.4,13.99961 -4,20.59961 -1.6,6.7 -3.4,17.9 -4,25.5 -0.6,7.4 -1.59961,15.5 -2.09961,18 -0.6,2.5 -1.40039,16.10078 -1.90039,30.30078 -0.5,14.2 -1.19961,26.29844 -1.59961,26.89844 -0.4,0.6 -1.1,13.30117 -1.5,28.20117 -0.4,14.9 -1.20078,30.29961 -1.80078,34.09961 -0.5,3.9 -1.19961,10.80039 -1.59961,15.40039 l -0.69922,8.29883 -13.20117,-0.59961 c -7.2,-0.4 -22.09961,-1.29961 -33.09961,-2.09961 -11,-0.8 -28.3,-1.9 -38.5,-2.5 -10.2,-0.6 -19.50078,-1.29961 -20.80078,-1.59961 -1.3,-0.2 -3.89883,-0.20078 -5.79883,0.19922 -4.6,0.9 -2.79961,3.10117 2.90039,3.70117 2.3,0.2 -22.9,0.4 -56,0.5 l -60.30078,0.19922 -4.09961,-8.19922 c -20.9,-41.8 -57.40039,-72.50039 -101.90039,-85.90039 -32,-9.6 -67.80078,-9.00039 -99.80078,1.59961 -36.10001,12 -65.799221,35.09961 -87.199222,67.59961 -32.600001,49.5 -35.5000009,114.6996 -7.5,167.59961 8.5,16.1 17.299218,28.00039 30.199219,40.90039 46.200002,46.2 117.201173,60.70039 178.201173,36.40039 44.7,-17.8 79.99961,-54.4 95.59961,-99 10.6,-30.6 12.20039,-65 4.40039,-95.5 -1.6,-6.6 -3.29961,-12.99922 -3.59961,-14.19922 l -0.5,-2.30078 56.29883,0.0996 c 31,0.1 54.9,0.40078 53,0.80078 -3.1,0.5 -3.29922,0.7 -1.69922,2 1.9,1.6 -1.90039,1.69961 69.09961,-2.90039 16,-1.1 32.30078,-2.2 36.30078,-2.5 6.4,-0.4 7.19922,-0.29922 7.19922,1.30078 0,3.1 -3.8,22.59922 -5,25.69922 -1.6,4.3 -8.6,33.80039 -12,50.90039 -4.3,21.5 -4,40.59882 1,60.29883 2.5,9.7 6.79922,17.1 14.19922,24.5 6.6,6.6 10.40156,7.80039 16.10156,5.40039 4.7,-1.9 4.79883,-4.1 0.79883,-18 -4.5,-15.7 -5.40039,-21.39883 -4.90039,-33.29883 0.5,-10.5 2.80117,-19.30078 5.20117,-19.30078 0.5,0 0.69883,6.90039 0.29883,16.40039 -0.4,13.3 -0.29961,16.89922 0.90039,19.19922 1.8,3.4 3.1,4.40039 6,4.40039 2.3,0 6.50117,-4.20078 8.20117,-8.30078 1.7,-4 8.89961,-32.89883 10.09961,-40.79883 1.6,-9.69998 1.39961,-33.90039 -0.40039,-44.90039 -0.8,-5.2 -1.5,-12.49961 -1.5,-16.09961 0,-4.2 -0.79922,-9.3 -2.19922,-13.5 -2.58047,-7.83039 -3.01752,-22.92992 -1.25195,-32.1543 1.36075,-3.78869 3.38211,-10.08181 4.90429,-16.22461 1.68871,-6.65323 5.54565,-14.87642 7.54688,-26.7207 0.5,-4 1.60039,-9.2 2.40039,-11.5 0.8,-2.4 1.69961,-5.90078 2.09961,-7.80078 0.8,-4.5 5.3,-19.9 6.5,-22.5 0.5,-1.1 3,-8.7 5.5,-17 2.5,-8.2 5.7,-18.50078 7,-22.80078 6.1,-19.90001 6.79922,-25.8 6.19922,-55.5 -0.3,-15.7 -0.1,-29 0.5,-31.5 0.5,-2.3 2.30039,-12.09922 3.90039,-21.69922 2.2,-13.1 3.70039,-19 5.90039,-23.5 4,-8.4 15,-34.2 15,-35.5 0,-2 2.00039,-1.00078 2.40039,1.19922 2.4,11.9 5.19961,21.60117 7.59961,26.70117 7.5,15.4 9.19922,24.89961 8.69922,48.09961 -0.3,17.1 -0.4,17.59961 -3,21.59961 -1.5,2.2 -4.59883,9.9 -6.79883,17 -3.7,11.8 -4.00078,13.50039 -3.30078,19.40039 1.4,12.4 0.60078,23.80039 -2.19922,30.40039 -1.5,3.4 -3.69961,9.29961 -5.09961,13.09961 -1.3,3.9 -3.30078,7.9 -4.30078,9 -1.1,1.3 -2.40039,5.6 -3.40039,12 -0.9,5.5 -2.29961,13.4 -3.09961,17.5 -0.8,4.1 -3.5,18.3 -6,31.5 -6.7,35.4 -7.49961,39.3 -9.59961,47 -2.5,9 -8.4,43.60039 -10,58.40039 -1.4,13.4 -0.70039,38.09961 1.59961,51.59961 0.8,5 2.4,15.30039 3.5,22.90039 2.7,18.7 5.7,35.19883 8,44.29883 1.1,4 2.39961,11.30156 3.09961,16.10156 0.6,4.8 1.70039,10.49922 2.40039,12.69922 0.8,2.2 1.60039,6.3 1.90039,9 0.7,5.9 4.7,18.70078 6.5,20.80078 1.55304,1.91846 3.5139,9.2697 4.75781,17.38672 1.42601,0.003 2.85128,0.0265 4.27734,0.0469 -0.64271,-3.4125 -1.40379,-6.88757 -1.93554,-8.63476 -0.6,-2.3 -0.80039,-4.59883 -0.40039,-5.29883 0.5,-0.7 4.10078,-0.9 11.80078,-0.5 11.6,0.6 19.19961,-0.002 36.09961,-2.60156 5.5,-0.9 15.50078,-2.09922 22.30078,-2.69922 7,-0.6 13.59922,-1.7 15.19922,-2.5 1.6,-0.8 3.80078,-1.5 4.80078,-1.5 1.8,0 1.9,1.29921 2.5,21.19922 0.0256,0.80669 0.0343,1.32155 0.0586,2.10156 1.44851,-0.0121 2.89707,-0.0119 4.34571,-0.0156 -0.0537,-5.18335 -0.0569,-10.54028 -0.006,-14.78515 0.1,-8.2 0.20117,-19.3 0.20117,-24.5 0,-5.2 0.49961,-13 1.09961,-17.5 0.6,-4.4 1.49961,-11.50078 2.09961,-15.80078 1.7,-12.9 2.90078,-33.39883 3.80078,-65.29883 1.1,-37.3 1.10039,-37.20078 11.40039,-39.30078 5.5,-1.2 6.99922,-1.19922 7.69922,-0.19922 1.2,2 2.39961,40.19961 2.09961,66.59961 -0.4,31 2.59961,70.7 6.09961,82.5 0.6,1.9 1.40078,12.7 1.80078,24 0.0534,1.65659 0.1136,3.06055 0.16992,4.58203 0.8183,0.007 1.63683,0.0215 2.45508,0.0273 0.73503,5.9e-4 1.47005,-0.006 2.20508,-0.006 -0.0558,-1.3327 -0.10194,-2.64602 -0.13086,-3.90429 -0.4,-13.1 -0.2,-15.89844 1,-16.39844 0.8,-0.3 5.10156,0.49883 9.60156,1.79883 7.6,2.2 9.79922,2.40039 32.19922,2.40039 26.5,-0.1 27.39922,-0.19961 48.69922,-7.09961 7.6,-2.4 14.1,-4.40039 14.5,-4.40039 1.1,0 0.50078,17.39961 -0.69922,22.59961 -0.20834,0.95836 -0.55015,2.74066 -0.92188,4.78906 0.42741,0.0408 0.90536,0.0918 1.42188,0.15039 1.4672,-0.0116 2.77449,0.0327 3.96484,0.11914 0.20872,-1.14451 0.40109,-2.14874 0.53516,-2.6582 0.9,-3.6 2.1,-22.8 2.5,-40.5 0.1,-5.9 1.30078,-15.1 2.80078,-22.5 1.4,-6.9 3.29922,-16.8 4.19922,-22 2.7,-15 4.49961,-24.29922 5.09961,-25.19922 1.6,-2.5 3.60078,-20.50078 5.30078,-47.30078 2.3,-35.1 1.79922,-46.8 -2.80078,-70 -1.6,-8.2 -3.19961,-18.6 -3.59961,-23 -0.4,-4.4 -1.7,-16.1 -3,-26 -1.4,-9.9 -2.69961,-20.2 -3.09961,-23 -0.3,-2.7 -1.5,-8.1 -2.5,-12 -1.1,-3.8 -1.90039,-8.1 -1.90039,-9.5 0,-1.4 -0.69961,-4.50039 -1.59961,-6.90039 -0.8,-2.5 -1.90039,-6.5 -2.40039,-9 -2.5,-12.5 -4.20039,-19.59961 -4.90039,-20.59961 -0.5,-0.5 -1.09883,-3 -1.29883,-5.5 -0.3,-2.5 -1.2,-6.1 -2,-8 -2.9,-6.7 -3.80156,-9.10078 -7.60156,-20.80078 -4.8,-14.4 -5.99961,-19.09883 -6.59961,-26.29883 -0.2,-3.4 -2.09961,-9.9 -4.59961,-16 -3.7,-9.1 -4.09922,-11.00039 -3.69922,-16.40039 0.4,-5.3 2.1,-17.4 3,-21.5 0.2,-0.8 0.69922,-3.3 1.19922,-5.5 0.4,-2.2 1.4,-4.9 2,-6 0.7,-1.1 1.8,-5.1 2.5,-9 0.6,-3.8 1.79961,-9.7 2.59961,-13 1.9,-8 4.1,-23.09922 5,-33.19922 0.40001,-4.6001 1.00039,-8.30078 1.40039,-8.30078 0.4,0 1.30039,2.80078 1.90039,6.30078 0.7,3.4 1.89922,7.19844 2.69922,8.39844 0.8,1.2 1.40039,2.8 1.40039,3.5 0,0.7 0.80039,3.50078 1.90039,6.30078 3.3,8.9 4.19961,11.9 5.59961,19.5 0.8,4.1 2.1,10.7 3,14.5 2.8,12.6 3.5,22.5 4.5,59.5 0.9,35.9 1.39961,42.1 4.59961,57 5.7,26.8 9.60039,41.1 14.90039,55.5 4.1,11.1 10,29.5 15.5,48 2.3,7.7 4.99961,16.9 6.09961,20.5 2.8,9.2 4.00117,43.40078 1.70117,48.30078 -5,10.4 -8.30039,34.89922 -7.40039,55.19922 0.6,13.4 2.1,20.20078 9,38.80078 3,8.4 4.09922,9.69922 7.69922,9.69922 2.2,0 3.40039,-0.79922 4.90039,-3.19922 1.8,-2.9 2,-5.1 2,-20 0,-9.2 0.40039,-16.90117 0.90039,-17.20117 2.9,-1.8 5.89922,9.10039 6.69922,23.90039 0.7,12 -0.7,19.40039 -6,32.40039 -1.4,3.6 -2.59961,7.8 -2.59961,9.5 0,3.9 4.4,8.59961 8,8.59961 3.3,0 10.20039,-6.6 12.90039,-12.5 1.1,-2.2 4.2,-8.90078 7,-14.80078 10.9,-23.20001 14.29922,-50.09922 9.19922,-72.19922 -1.3,-5.5 -2.79922,-14.7 -3.19922,-20.5 -0.8,-10.2 -2.20117,-15.9 -10.20117,-43.5 -5.1,-17.1 -9.39883,-38.2 -10.79883,-51.5 -1.1,-11.6 -2.10039,-34.1 -3.40039,-81 -0.4,-15.3 -1.49961,-31.3 -2.59961,-40 -1.1,-8 -2.4,-18.8 -3,-24 -1.1,-10.8 -2.09961,-14.5 -9.09961,-35.5 l -5,-15 -0.90039,-18.5 c -1,-22.5 -2.30078,-35.2 -4.30078,-44.5 -3,-13.9 -3.99961,-28.2 -4.09961,-55.5 0,-17.8 -0.60078,-34.7 -1.80078,-48 -1,-11.3 -2.19922,-25.9 -2.69922,-32.5 -1.3,-19.1 -4.10078,-25.19961 -15.80078,-35.09961 -7.3,-6.3 -11.89883,-8.8 -18.79883,-10.5 -2.7,-0.6 -5.60039,-1.70039 -6.40039,-2.40039 -1,-0.8 -5.5,-1.30039 -13,-1.40039 -19.6,-0.1 -42.39961,-1.29922 -43.59961,-2.19922 -0.6,-0.5 -4.20039,-2.00039 -7.90039,-3.40039 -7.6,-2.9 -14.70039,-5.90078 -18.40039,-7.80078 -1.4,-0.6 -4.39922,-3.99844 -6.69922,-7.39844 -5.5,-8.1 -6.3,-13.70117 -4,-28.20117 1,-5.8 2.39961,-11.29961 3.09961,-12.09961 2.2,-2.6 12.3,-25.29961 13,-29.09961 0.7,-4.4 4.00039,-8.90039 6.40039,-8.90039 2.3,0 9.30039,-7.49922 11.90039,-12.69922 2.5,-5 4.69883,-19.70156 3.79883,-25.60156 -0.9,-6.2 -3.8,-8.39961 -11,-8.59961 -5.4,-0.1 -5.49961,-0.0988 -5.09961,2.70117 0.2,1.5 0.40039,3.7 0.40039,5 0.1,3 2.89961,2.79961 4.09961,-0.40039 0.8,-2 1.60078,-2.50117 3.80078,-2.20117 2.5,0.3 2.7,0.60078 3,5.80078 0.6,10.4 -3.40039,24.39961 -8.40039,29.09961 -2.1,2 -2.60039,2.10039 -3.40039,0.90039 -0.5,-0.8 -1,-2.69922 -1,-4.19922 0,-3.3 -1.69961,-4.50156 -3.59961,-2.60156 -0.9,0.9 -1.70078,5.5 -2.30078,13.5 -1.1,13.9 -3.39922,20.80117 -10.19922,30.70117 -4,6 -9.00117,9.89883 -17.20117,13.79883 -2.1,1 -7.5,4.20156 -12,7.10156 -4.5,2.9 -8.79844,5.69961 -9.39844,6.09961 -0.7,0.4 -5.4,-1.30078 -10.5,-3.80078 -14,-6.7 -27.90039,-19.19961 -32.40039,-29.09961 -1,-2.2 -3.60078,-6.60039 -5.80078,-9.90039 -3.3,-5 -3.99922,-7 -4.69922,-14 -1.1,-9.5 -1.60039,-11.19961 -3.90039,-14.59961 -2.3,-3.4 -3.10039,-11.09961 -1.40039,-14.09961 1.6,-2.9 1.80078,-9.09961 0.30078,-10.59961 -1.5,-1.5 1.29922,-5.70117 5.69922,-8.20117 2,-1.2 3.40039,-2.800004 3.40039,-4.000004 0,-2 0.79961,-2.399609 6.59961,-3.599609 3.5,-0.7 21.70117,2.000781 25.20117,3.800781 3.4,1.6 5.19883,0.0992 8.79883,-7.300781 3.2,-6.6 3.00078,-8.900391 -0.69922,-6.900391 -1.9,1 -8.80078,1 -13.30078,0 -2.7,-0.6 -2.7,-0.699218 -1,-2.199218 2.5,-2.200003 9.30039,-2.900782 12.40039,-1.300782 1.4,0.7 5.79961,1.600391 9.59961,1.900391 6.6,0.7 7.09961,0.9 6.59961,3 -0.3,2 2.50039,9.099609 4.90039,12.099609 0.6,0.7 2.20117,0.800782 4.70117,0.300782 12.9,-2.800003 20.09922,-3.900391 26.69922,-3.900391 9.3,0 9.5,-0.800391 2,-7.900391 -3,-2.8 -5.20039,-5.70039 -4.90039,-6.40039 0.2,-0.7 2.90039,-2.49961 5.90039,-4.09961 6.1,-3.000002 11.2,-8.30039 12,-12.40039 0.3,-1.5 1,-4.098828 1.5,-5.798828 0.6,-1.700003 1,-4.1 1,-5.5 0,-3.300003 -3.50078,-8.800782 -6.30078,-9.800782 -1.2,-0.5 -4.6,-3.60039 -7.5,-6.90039 -4.4,-5.100001 -7,-6.899219 -15.5,-11.199219 -10.1,-4.9 -10.49922,-4.999609 -19.69922,-5.099609 -1.7,-0.0125 -3.4131,-0.01328 -5.11524,-0.002 z m 29.30469,63.533204 c 0.85826,-0.0661 1.01602,0.605859 0.50977,2.068359 -0.4,0.9 -1.89844,1.5 -3.89844,1.5 h -3.30078 l 3.40039,-2.099609 c 1.53125,-0.918753 2.62153,-1.41731 3.28906,-1.46875 z m -12.86523,4.134765 c 1.59375,-0.0469 2.17617,0.158203 1.57617,0.533203 -0.8,0.5 -3.40039,0.80078 -5.90039,0.800782 -5.3,-0.100003 -4.39961,-0.601172 2.40039,-1.201172 0.75,-0.075 1.39258,-0.117193 1.92383,-0.132813 z M 724.64258,186.4043 c 0.4,0 1.99961,1.1 3.59961,2.5 6.9,6.1 18.20039,14.29922 22.40039,16.19922 7.5,3.5 10.09961,3.70039 16.09961,0.90039 6.4,-3 14.69961,-7.60039 18.59961,-10.40039 1.5,-1 4.80078,-3.19922 7.30078,-4.69922 3.9,-2.4 4.3,-2.49961 2.5,-0.59961 -1.6,1.9 -2.00078,4.09922 -2.30078,12.69922 -0.5,13.1 2.10078,22.60039 7.80078,28.90039 3.5,3.8 3.60078,4.2 2.80078,8 -6.3,28.4 -7.50039,31.99922 -13.40039,41.19922 -1.8,2.9 -5.10078,6.40117 -7.30078,7.70117 -4.1,2.6 -10.19961,3.6 -18.09961,3 -20.8,-1.7 -32.59922,-10.1 -42.69922,-30.5 -2.8,-5.8 -6.10078,-13.70117 -7.30078,-17.70117 -2.1,-7 -2.20039,-7.3 -0.40039,-10 8.6,-13.1 11.00117,-21.99961 10.20117,-38.09961 -0.2,-5 -0.10078,-9.09961 0.19922,-9.09961 z m -19.2832,51.45312 c 2.48735,-0.0529 4.2832,1.40352 4.2832,3.94727 0,3.1 4.09961,14.60039 9.09961,25.40039 9.2,20 28.50117,31.3 51.20117,30 5.9,-0.3 7.99883,-0.90039 11.79883,-3.40039 7.5,-4.8 12.19961,-10.5 17.09961,-20.5 5.1,-10.4 6.90039,-15.80039 9.40039,-26.90039 0.9,-4.1 1.80039,-7.70078 1.90039,-7.80078 0.2,-0.2 2.29922,0.90156 4.69922,2.60156 2.4,1.6 7.70078,4.39961 11.80078,6.09961 7.2,3.1 8.3,3.29961 26.5,4.09961 10.5,0.5 20.6,0.9 22.5,1 h 3.5 v 50.30078 50.19922 l -2.90039,12.40039 c -1.8,7.9 -2.5,13.00039 -2,13.90039 1.1,1.7 0.10039,14.59922 -2.59961,33.69922 -1.1,7.7 -2.4,18.7 -3,24.5 -0.6,5.8 -1.9,14.70039 -3,19.90039 -1.1,5.2 -2,10.89883 -2,12.79883 0,3.4 -3.19922,14.50156 -7.69922,26.60156 -2.2,5.9 -2.50156,8.4 -2.60156,20 0,14.1 1,18.6 5.5,25 2,2.8 2.30078,4.39922 2.30078,13.19922 0.1,9.5 0.3,10.30039 3.5,15.90039 1.8,3.2 4.79961,10.2 6.59961,15.5 2.7,7.8 3.40039,11.09922 3.40039,17.69922 0,7.6 -0.19922,8.20078 -2.19922,8.80078 -7,2 -83.30078,0.89922 -91.30078,-1.30078 -10.8,-3 -60.3,-3.59883 -109.5,-1.29883 -9.6,0.5 -18.10078,0.59844 -18.80078,0.39844 -1.9,-0.7 -0.39844,-9.39922 3.10156,-18.19922 2.9,-7 3.09883,-8.7 3.79883,-25.5 0.4,-9.9 1.00039,-19.8 1.40039,-22 1,-5.8 4.20078,-14.30039 6.80078,-17.90039 2.7,-3.8 4.59961,-15.39961 4.59961,-28.59961 0.1,-13.1 -4.40078,-34.89961 -9.30078,-45.59961 -3.6,-7.7 -8.69961,-25.20039 -10.09961,-34.40039 -0.4,-2.5 -1.1,-4.9 -1.5,-5.5 -0.4,-0.5 -1.1,-3.2 -1.5,-6 -0.3,-2.7 -1.9,-10.4 -3.5,-17 -6.4,-26.8 -6.99922,-30.5 -5.69922,-32.5 0.9,-1.6 0.89844,-2.39961 -0.10156,-4.09961 -0.7,-1.2 -1.09922,-2.40117 -0.69922,-2.70117 0.3,-0.3 3.60078,-0.79844 7.30078,-0.89844 3.7,-0.2 16.19922,-1.00078 27.69922,-1.80078 11.6,-0.8 29.90039,-1.99961 40.90039,-2.59961 10.9,-0.7 19,-1.6 18,-2 -1.1,-0.3 -7.70039,-0.90078 -14.90039,-1.30078 -7.1,-0.4 -18.8,-1.09961 -26,-1.59961 -7.1,-0.5 -22.40078,-1.39961 -33.80078,-2.09961 l -20.89844,-1.20117 -1.10156,-2.59961 c -0.7,-1.7 -1.09961,-10.79961 -1.09961,-26.09961 0,-25.3 0.40117,-28.00078 7.70117,-49.80078 l 2.19922,-6.69922 8.09961,-0.59961 c 4.5,-0.3 8.59961,-0.90117 9.09961,-1.20117 0.5,-0.3 3.9,-1.09922 7.5,-1.69922 7.2,-1.1 25.50078,-6.8 30.80078,-9.5 1.3125,-0.6875 2.58615,-1.02283 3.7168,-1.04688 z m 180.67382,11.85547 c 0.53322,-0.0766 1.65899,0.76719 2.70899,1.99219 1.1,1.5 2.90039,2.69922 3.90039,2.69922 3.9,0 14.80078,6 20.80078,11.5 9.2,8.4 11.49922,14.1 12.69922,31 0.4,5 1.29922,17.1 2.19922,27 0.9,10.6 1.80078,37.6 2.30078,66 0.6,40 1.00039,49.2 2.40039,55.5 0.9,4.1 2.1,7.9 2.5,8.5 1.5,2 3.2,14.3 4,29 0.8,13.4 1.3,16.1 4.5,25.5 5.8,16.7 9.3,30 10,37.5 0.4,3.9 1.49961,13.3 2.59961,21 1.3,9.6 2.2,25.3 3,50 1.2,44.5 1.8,57.2 3,65.5 0.5,3.6 1.4,11 2,16.5 0.6,5.5 1.69961,12.5 2.59961,15.5 0.8,3 2.10039,8.7 2.90039,12.5 0.9,3.9 2.60039,10.6 3.90039,15 5,16.6 9.5,37.3 10,45.5 0.3,4.7 1.49883,12.4 2.79883,17 1.9,7 2.30078,11 2.30078,23 0,12.7 -0.40039,15.9 -2.90039,26 -3,11.9 -13.49921,36.50078 -18.19922,42.80078 -2.6,3.3 -3.90078,3.79883 -6.30078,2.29883 -1.2,-0.8 -0.89883,-2.20039 1.70117,-8.90039 6.1,-15.3 7.49922,-23.69922 6.19922,-37.19922 -1.3,-13.2 -3.19922,-20.40039 -6.69922,-25.40039 -5.6,-7.9 -8.10117,-7.29922 -10.70117,2.80078 -1.3,4.7 -1.50039,8.99961 -0.90039,20.09961 0.4,10.9 0.30078,14.4 -0.69922,15 -1.7,1.1 -2.2,0.0996 -7.5,-15.90039 -4.4,-12.9 -4.80078,-15.09883 -5.30078,-26.29883 -0.5,-12.4 1.1,-34.20078 3,-42.30078 0.6,-2.5 2.20156,-6.50039 3.60156,-8.90039 3.2,-5.6 3.89883,-15.59961 2.29883,-35.09961 -0.9,-11.4 -1.69961,-15.70078 -5.59961,-27.80078 -2.4,-7.8 -5.39961,-18 -6.59961,-22.5 -2.1,-8.4 -3.10039,-11.39922 -12.90039,-39.69922 -5.7,-16.5 -10,-32.09922 -12.5,-45.69922 -0.8,-3.9 -1.80039,-8.8 -2.40039,-11 -2,-7.8 -3.09961,-21.50078 -3.59961,-47.80078 -0.8,-37.7 -1.90078,-52.2 -4.80078,-64.5 -1.4,-5.8 -2.79961,-12.5 -3.09961,-15 -0.7,-4.7 -3.59922,-14.3 -8.19922,-27 -1.5,-4.4 -2.70078,-9.89922 -2.80078,-13.19922 -0.2,-5 -0.59883,-6.2 -3.29883,-9 l -3.10156,-3.30078 0.90039,-12.5 c 1.3,-18.2 2.6,-29.4 4.5,-39 1.5,-7.3 1.80078,-15.49922 1.80078,-58.19922 0.1,-27.3 0.39883,-50.00039 0.79883,-50.40039 0.05,-0.05 0.11524,-0.0809 0.1914,-0.0918 z m -248.01953,4.87305 c 0.0668,-0.006 0.11016,-0.001 0.12891,0.0176 0.3,0.3 -0.70078,5.20039 -2.30078,10.90039 -5.1,18.1 -6.49883,29.10117 -5.79883,46.20117 0.3,8.4 0.79922,17.3 1.19922,20 l 0.59961,4.69922 h -4.29883 c -2.4,0 -8.80078,-0.5 -14.30078,-1 -9.8,-1 -14.59961,-0.60039 -14.59961,1.09961 0,0.5 1.10039,0.90039 2.40039,0.90039 1.4,0 2.79961,0.5 3.09961,1 0.4,0.6 -2.39961,1 -7.59961,1 h -8.20117 l 0.60156,-17.69922 c 0.4,-14.6 0.9,-19.50156 3,-27.10156 4.2,-15.8 10.59844,-22.59883 31.39844,-33.29883 7.40625,-3.75 13.67065,-6.6217 14.67187,-6.71875 z M 389.7168,331.34375 c 0.8019,-0.0239 0.47617,2.25352 -1.17383,5.75977 -5.1,11.2 -7,19.40078 -8,35.30078 -0.6,8.5 -0.70039,17.89922 -0.40039,20.69922 0.4,2.9 1,12.4 1.5,21 0.8,16 3.00039,26.20078 6.40039,30.80078 1.4,1.8 1.50039,-0.2 0.90039,-18.5 -0.6,-20.9 -0.40156,-23 3.89844,-43.5 1.5,-7.5 4.80117,-16.80039 6.70117,-18.90039 2.4,-2.7 8.49883,-5.59922 13.29883,-6.19922 4.9,-0.7 11.40078,1.79961 21.30078,8.09961 8.9,5.7 23.00039,19.1 28.40039,27 16.7,24.4 21.89922,36.30078 26.69922,60.80078 1.4,7.3 3.19961,14.99922 4.09961,17.19922 2,5.3 6.90078,24.6 9.30078,37 1.1,5.5 2.49922,18.39922 3.19922,28.69922 1.2,19.4 0.7,24.90078 -3.5,39.30078 -1.3,4.4 -7.7,11.5 -10.5,11.5 -0.9,0 -3.49922,0.99961 -5.69922,2.09961 -2.2,1.2 -7.1,3.20039 -11,4.40039 -10.9,3.5 -17,3.8 -23.5,1.5 -3,-1.1 -8.6,-2.29961 -12.5,-2.59961 -3.8,-0.3 -8.20078,-0.99961 -9.80078,-1.59961 -1.5,-0.6 -4.49922,-0.8 -6.69922,-0.5 -9,1.2 -23.80078,-6.20156 -31.30078,-15.60156 -8.4,-10.7 -9.29883,-17.69922 -7.79883,-62.69922 0.2,-3.4 2.79922,-22.99961 4.19922,-30.59961 1.1,-5.8 0.99961,-6.3 -1.90039,-12 -3.7,-7.1 -11.69961,-16.40039 -14.09961,-16.40039 -2.7,0 -4.49922,2.5 -10.19922,14 l -5.30078,10.40039 1.30078,10 c 3.1,25.9 4.19883,50.60039 2.79883,65.90039 -0.7,8.1 -4.69844,15.29961 -13.39844,24.09961 -9.9,10.2 -19.20078,14.69961 -30.80078,15.09961 -4.4,0.1 -11.1,1.00078 -15,1.80078 -10.2,2.3 -22.20078,2.19961 -29.30078,-0.40039 -3.1,-1.1 -7.89922,-2.69961 -10.69922,-3.59961 -11.4,-3.5 -17.20078,-8.50039 -20.80078,-17.90039 -2.1,-5.5 -2.19961,-7.30039 -2.09961,-27.90039 0.1,-15.8 0.70039,-24.7 1.90039,-31.5 2.2,-12.1 8.09961,-36.20039 10.09961,-40.90039 0.9,-2 2.2,-6.99961 3,-11.09961 0.8,-4.1 1.9,-10 2.5,-13 3.3,-17.1 9.79961,-31.8 22.59961,-51 13.5,-20.3 40.60156,-40.99922 52.10156,-39.69922 7.1,0.8 13.39844,4.59883 15.89844,9.79883 4,8.1 8.1,29.50039 9,47.90039 0.6,10.7 0.90039,12.6 1.40039,9 0.4,-2.5 0.80078,-7.29922 0.80078,-10.69922 0.1,-3.5 0.49961,-6.30078 1.09961,-6.30078 2,0 -0.0996,26.09961 -3.09961,38.59961 -1.3,5.7 -6.80117,13.2 -8.70117,12 -0.7,-0.4 -1.19883,-3.10039 -1.29883,-5.90039 -0.1,-3.8 -0.30078,-4.49922 -0.80078,-2.69922 -0.9,3.2 -1.39961,2.3 -4.09961,-7.5 -2,-7.2 -2.19922,-8.7 -1.19922,-15 1.4,-8.2 1.09883,-11.50039 -1.20117,-14.90039 -0.9,-1.4 -1.59961,-3.2 -1.59961,-4 0,-0.7 -0.7,-1.6 -1.5,-2 -2,-0.7 -1.89922,10e-4 0.30078,3.20117 2.2,3.2 3.39844,6.19922 2.39844,6.19922 -1,-0.1 -4.19961,-2 -8.09961,-5 -4,-3 -6.09922,-6.79922 -6.19922,-11.19922 -0.1,-2.7 -0.20117,-2.90156 -0.70117,-1.10156 l -0.69922,2.20117 -4.5,-3 c -2.4,-1.6 -4.80078,-3.50117 -5.30078,-4.20117 -0.6,-0.9 -0.7,-0.79922 -0.5,0.30078 0.3,0.8 2.40039,2.8 4.90039,4.5 2.4,1.8 5.30039,4.69922 6.40039,6.69922 1.8,3.3 5.90039,7.20078 12.90039,12.30078 l 2.69922,2 -1,8.30078 c -1.2,9.5 -0.39961,15.19922 3.40039,23.69922 1.4,3.2 2.39922,5.99922 2.19922,6.19922 -0.2,0.2 -2.39883,-2.89883 -4.79883,-6.79883 -2.4,-3.8 -5.79961,-9.00039 -7.59961,-11.40039 -1.8,-2.5 -4,-6.79922 -5,-9.69922 -1.7,-5.3 -8.6,-16.20117 -9.5,-15.20117 -0.3,0.3 -1.50117,-0.69922 -2.70117,-2.19922 -1.1,-1.5 -2.09961,-2.20117 -2.09961,-1.70117 0,0.5 1.19961,2.00039 2.59961,3.40039 4.3,4 9.69961,12.80039 9.09961,14.90039 -0.3,1 -0.19883,1.99922 0.20117,2.19922 0.4,0.2 1.79922,2.20039 3.19922,4.40039 1.3,2.3 4.70039,7.5 7.40039,11.5 7.3,10.8 7.00078,10.2 4.80078,9 -1.1,-0.5 -2.50117,-1.7 -3.20117,-2.5 -0.8,-0.9 -1.69961,-1.39961 -2.09961,-1.09961 -1.1,0.7 -8.8,-5.60039 -12.5,-10.40039 -1.8,-2.2 -4.3,-6.69883 -5.5,-9.79883 -2.3,-5.9 -5.50078,-10.30078 -7.30078,-10.30078 -0.6,0 -0.0984,1.00078 1.10156,2.30078 1.1,1.2 2.79922,3.9 3.69922,6 1.3,3.1 1.29965,3.69922 0.0996,3.69922 -0.8,0 -2.4,-1.19922 -3.5,-2.69922 -1.2,-1.6 -1.8,-2 -1.5,-1 0.5,1.2 -0.79922,0.69961 -4.69922,-1.90039 -2.9,-1.9 -6.5,-3.79961 -8,-4.09961 -1.5,-0.3 -3.8,-1.60039 -5,-2.90039 -1.2,-1.3 -2.70117,-2.40039 -3.20117,-2.40039 -0.5,0 0.80039,1.6 2.90039,3.5 2.2,1.9 4.8,3.5 6,3.5 1.1,0 4.59961,1.80039 7.59961,3.90039 3,2.2 6.70117,4.29922 8.20117,4.69922 1.5,0.3 3.29961,1.80078 4.09961,3.30078 0.7,1.4 2.3,3.60039 3.5,4.90039 1.2,1.3 2.00039,2.49922 1.90039,2.69922 -0.7,0.6 -12.50078,-1.59961 -16.30078,-3.09961 -2.2,-0.8 -5.19922,-1.40117 -6.69922,-1.20117 -2.1,0.2 -4.09961,-0.9 -8.59961,-5 -3.2,-2.8 -7,-6.29961 -8.5,-7.59961 -1.6,-1.4 -2.80078,-1.89922 -2.80078,-1.19922 0,0.6 1.8,2.29961 4,3.59961 3.7,2.3 11.10078,11 9.30078,11 -0.4,0 -2.10078,-0.9 -3.80078,-2 -1.6,-1.1 -3.89961,-2 -5.09961,-2 -1.1,0 -2.50117,-0.49922 -3.20117,-1.19922 -0.9,-0.9 -1.19922,-0.90156 -1.19922,-0.10156 0,0.7 -1.89922,1.40156 -4.19922,1.60156 -3,0.2 -2.20078,0.4 2.69922,0.5 7.4,0.2 11.09922,1.5 8.69922,3 -0.8,0.6 2.30156,0.99961 7.60156,1.09961 5.1,0.1 10.49844,0.7 12.39844,1.5 1.8,0.8 6.60156,1.79961 10.60156,2.09961 7.4,0.8 9.3,1.90078 4.5,2.80078 -1.6,0.2 -6.40078,1.39961 -10.80078,2.59961 -6.1,1.7 -9.3,2 -13.5,1.5 -9,-1.2 -14.29922,-0.10117 -18.19922,3.79883 -2.1,2.1 -3.90156,2.30156 -5.60156,0.60156 -0.9,-0.9 -1.19922,-0.9 -1.19922,0 0,0.7 -0.79922,1.19883 -1.69922,1.29883 -1.4,0 -1.50078,0.19961 -0.30078,0.59961 0.8,0.3 2.19922,1.2 3.19922,2 1.3,1.2 1.8,1.20156 2.5,0.10156 0.4,-0.7 2.5,-2.60156 4.5,-4.10156 4.5,-3.3 11.20156,-4.39883 17.10156,-2.79883 3,0.9 5,0.89922 7,0.19922 1.5,-0.6 2.69922,-0.69922 2.69922,-0.19922 0,1.3 -8.09961,9.09961 -11.09961,10.59961 -2.9,1.5 -3.90039,1.10039 -3.90039,-1.59961 0,-1 -1.19961,-2.70078 -2.59961,-3.80078 -3.6,-2.8 -5.60117,-2.69883 -2.20117,0.20117 1.4,1.2 3.20078,3.29961 3.80078,4.59961 1.2,2.3 0.90078,2.79961 -2.69922,6.09961 -2.1,2 -3.7,4.20078 -3.5,4.80078 0.2,0.6 1.69844,-0.50039 3.39844,-2.40039 1.7,-1.9 4.90156,-4.39961 7.10156,-5.59961 2.2,-1.1 6.89883,-4.90039 10.29883,-8.40039 7.7,-7.8 9.89961,-8.29961 9.09961,-2.09961 -0.3,2.3 -0.3,3.39844 0,2.39844 0.2,-0.9 0.80117,-1.49883 1.20117,-1.29883 0.4,0.3 0.49883,-1.00078 0.29883,-2.80078 -0.3,-3 -0.0984,-3.30039 3.60156,-4.40039 6.4,-1.9 7.39922,-1.49922 14.19922,5.30078 5.3,5.3 6.10078,6.5 4.30078,6.5 -1.2,0 -2.50078,-0.4 -2.80078,-1 -0.3,-0.5 -1.40078,-1 -2.30078,-1 -3,0 1.90117,2.60078 6.20117,3.30078 6.5,1 8.6,4.2 7,10.5 -0.5,1.9 -1.20078,2.19922 -3.30078,1.69922 -1.4,-0.3 -4.59961,-0.0996 -7.09961,0.40039 -2.5,0.5 -3.49922,0.9 -2.19922,1 2.7,0.1 2.09883,1.79961 -1.20117,3.09961 -1.4,0.6 -1.6,0.90039 -0.5,0.90039 0.9,0.1 2.40039,-0.80039 3.40039,-1.90039 1.3,-1.4 3.09922,-2 6.19922,-2 2.3,0 4.30078,0.40078 4.30078,0.80078 0,2.3 -3,4.29922 -7.5,5.19922 -9.7,1.8 -13.2,2.80039 -10.5,2.90039 1.4,0 5.2,-0.60078 8.5,-1.30078 3.3,-0.8 6.09922,-1.29922 6.19922,-1.19922 0.4,0.4 -12.49922,10.59922 -14.19922,11.19922 -0.8,0.4 -1.5,0.19961 -1.5,-0.40039 0,-0.6 -2.2,-2.59961 -5,-4.59961 -2.7,-1.9 -4.70078,-2.9 -4.30078,-2 0.3,0.8 2.3,2.4 4.5,3.5 5.9,3 4,3.3 -2.5,0.5 -4.8,-2.2 -6.29961,-3.59883 -10.59961,-9.79883 -4.8,-7.2 -10.69883,-12.80078 -13.29883,-12.80078 -0.7,0 -0.40078,0.59922 0.69922,1.19922 4.2,2.4 14.5,14.60117 14.5,17.20117 0,1.2 -12.80078,-5 -14.30078,-7 -1,-1.3 -2.29883,-2.40039 -2.79883,-2.40039 -0.6,0 0.4,1.39922 2,3.19922 1.7,1.8 2.89922,3.4 2.69922,3.5 -0.5,0.5 -10.79922,-1.69922 -14.69922,-3.19922 -2,-0.8 -5.30039,-2.50039 -7.40039,-3.90039 -2.5,-1.8 -5.00039,-2.50039 -7.40039,-2.40039 l -3.59961,0.10156 3.40039,0.39844 c 1.9,0.3 4.49883,1.2 5.79883,2 l 2.40039,1.60156 -3.79883,1.79883 c -4.6,2.1 -3.90156,2.5 0.89844,0.5 3.2,-1.4 3.80156,-1.29922 8.10156,0.80078 2.5,1.3 7.09961,2.7 10.09961,3 5.4,0.7 7.19922,2.09922 4.19922,3.19922 -0.8,0.3 -2.29922,1.80117 -3.19922,3.20117 -1.5,2.2 -1.10039,2.09844 2.59961,-1.10156 2.4,-2 4.80039,-3.69922 5.40039,-3.69922 1.4,0 13.99961,4.3 14.59961,5 0.3,0.3 2.5,1.20039 5,1.90039 4.2,1.2 4.3,1.39922 2.5,2.69922 -1.1,0.8 -4.5,2.2 -7.5,3 -9.8,2.8 -19.9,6.60039 -21,7.90039 -0.9,1 -1.80078,0.9 -4.80078,-0.5 -2,-1 -5.89922,-2.1 -8.69922,-2.5 -5.4,-0.8 -7.90039,-1.80039 -10.90039,-4.40039 -1,-0.9 -3,-1.69883 -4.5,-1.79883 -1.4,-0.1 -3.99961,-0.50078 -5.59961,-0.80078 -2.6,-0.6 -3.09961,-0.39961 -3.09961,1.40039 0,1.2 0.39883,2.09961 0.79883,2.09961 0.4,0 0.80078,-0.40039 0.80078,-0.90039 0,-2.2 3.2,-1.6 10.5,2 4.3,2.1 9,3.90039 10.5,3.90039 3.7,0 12.10039,2.99961 11.40039,4.09961 -0.6,1 2.29961,0.10078 5.09961,-1.69922 2.4,-1.6 18.50078,-7.40039 20.30078,-7.40039 0.7,0 0.99922,0.5 0.69922,1 -1.3,2.1 -8.1,5.70078 -16.5,8.80078 -8.7,3.1 -18.6,7.79961 -14,6.59961 l 2.5,-0.59961 -2.5,2.69922 c -5.1,5.5 -10.20039,8.90078 -13.40039,8.80078 -1.7,0 -6,-1.30117 -9.5,-2.70117 -3.4,-1.5 -6.80039,-2.49883 -7.40039,-2.29883 -0.7,0.3 0.10117,0.79922 1.70117,1.19922 1.6,0.4 4.8,1.79961 7,3.09961 4.5,2.6 9.50039,3.10078 12.90039,1.30078 1.2,-0.7 5.09883,-4.00078 8.79883,-7.30078 6.3,-6 7.70078,-6.79961 16.30078,-9.59961 2.2,-0.7 6.4,-2.7 9.5,-4.5 3.1,-1.8 5.8,-3.2 6,-3 0.2,0.2 -0.90039,2.5 -2.40039,5 -2.9,5 -6.5,7.6 -13.5,10 -2.9,1 -6.90039,3.8 -11.40039,8 -3.7,3.6 -8.69961,7.69961 -11.09961,9.09961 -4.2,2.4 -7.10078,6.99961 -6.30078,9.59961 0.3,0.7 1.00117,-0.29883 1.70117,-2.29883 0.8,-2.6 2.59961,-4.50078 6.09961,-6.80078 2.7,-1.8 7.5,-5.49883 10.5,-8.29883 3.1,-2.8 5.8,-4.90156 6,-4.60156 0.3,0.3 0.0996,2.60078 -0.40039,5.30078 -0.6,3.1 -0.49883,5.80078 0.20117,7.80078 0.8,2.5 0.69922,3.19844 -0.80078,4.39844 -1.2,0.8 -1.4,1.30078 -0.5,1.30078 0.9,0 0.80039,0.59922 -0.59961,2.19922 -1,1.2 -1.30117,1.80039 -0.70117,1.40039 0.9,-0.5 1.20039,0.0996 0.90039,2.09961 -0.2,1.5 -0.10035,2.20156 0.0996,1.60156 0.20002,-0.7 0.80078,-1.30078 1.30078,-1.30078 0.5,0 0.70039,-0.7 0.40039,-1.5 -0.4,-0.8 -0.30078,-2.29922 0.19922,-3.19922 0.4,-1 0.80078,-2.1 0.80078,-2.5 0.2,-1.7 1.5,-1.20156 3.5,1.39844 1.2,1.4 2.09961,3 2.09961,3.5 0,0.4 0.9,1.40156 2,2.10156 1.1,0.7 2,0.79883 2,0.29883 0,-0.5 -0.69961,-1.2 -1.59961,-1.5 -1,-0.4 -1.39961,-1.39961 -1.09961,-2.59961 0.4,-1.4 -0.002,-1.99961 -1.10156,-2.09961 -2,0 -6.09844,-4.89961 -6.39844,-7.59961 -0.1,-1 0.1,-4.10078 0.5,-6.80078 0.8,-5 0.9,-5.10039 6,-6.90039 6,-2.2 10.19922,-6.19922 14.19922,-13.69922 1.5,-3 4.09961,-6.40117 5.59961,-7.70117 l 2.90039,-2.39844 v 3 c 0,1.6 -0.9,4.1 -2,5.5 -1.1,1.4 -2,3.2 -2,4 0,0.9 -0.4,1.89922 -1,2.19922 -0.5,0.3 -1.49961,1.60078 -2.09961,2.80078 -0.9,2.1 -0.90039,1.99883 1.09961,-0.20117 2.9,-3.3 3.7,-1.79883 1.5,2.70117 -3,5.7 -2.9,5.99844 0,1.89844 2.1,-3 2.59961,-4.59961 2.09961,-7.09961 -0.5,-2.6 -0.0996,-3.8 1.90039,-6 1.8,-1.9 2.5,-3.79961 2.5,-6.59961 0,-3.6 0.40078,-4.20039 3.80078,-5.90039 5.4,-2.8 12.09922,-8.9 13.69922,-12.5 1.3,-3 1.3,-2.89961 1,2.90039 -0.3,6.1 -4.30078,17.40078 -7.30078,20.80078 -0.8,0.9 -1.19844,1.99844 -0.89844,2.39844 0.4,0.3 0.69922,0.1 0.69922,-0.5 0,-0.7 0.5,-1.19922 1,-1.19922 1.4,0 1.20078,7.29922 -0.19922,9.19922 -0.7,0.8 -2.80156,1.80117 -4.60156,2.20117 -2.2,0.4 -5.69844,2.69961 -9.89844,6.59961 -3.6,3.3 -7.10078,6 -7.80078,6 -2.4,0 -4.50039,3.59961 -4.40039,7.59961 0.1,3.4 0.20039,3.60039 0.90039,1.40039 0.7,-2.5 0.90078,-2.4 2.30078,2 0.4,1 0.59961,0.9 0.59961,-0.5 0.1,-1.1 -0.60039,-2.99922 -1.40039,-4.19922 -1.3,-1.8 -1.29922,-2.20156 0.30078,-3.60156 0.9,-0.8 2.7,-1.79922 4,-2.19922 1.2,-0.3 4.4,-2.8 7,-5.5 4.4,-4.5 9.79844,-7.69961 10.89844,-6.59961 0.3,0.2 -0.29961,1.8 -1.09961,3.5 -0.9,1.6 -1.59961,3.59883 -1.59961,4.29883 0,0.7 1.10039,-0.99883 2.40039,-3.79883 1.3,-2.8 2.9,-5.50078 3.5,-5.80078 0.6,-0.4 1.09961,-3.19922 1.09961,-6.19922 0,-3.8 0.90078,-7.60117 2.80078,-12.20117 1.6,-3.7 3.69922,-10.4 4.69922,-15 1,-4.5 2.30078,-8.09844 2.80078,-7.89844 0.6,0.2 3.39844,-4.50039 6.39844,-10.40039 4.6,-9.4 8.80039,-14.90039 11.40039,-14.90039 2.8,0 12.70039,11.7 16.90039,20 2.2,4.4 2.90039,6.69961 4.90039,16.09961 0.6,2.6 2.09961,7.5 3.59961,11 1.6,4.2 2.5,8.10039 2.5,11.90039 0,3.9 0.60078,6.49961 1.80078,8.09961 4.6,6.3 5.39883,9.00078 4.79883,14.80078 -0.3,3.1 -0.19922,7.19961 0.30078,9.09961 0.5,2 1,2.7 1,1.5 0.2,-1.9 0.2,-1.89922 1.5,-0.19922 2.5,3.2 2.50035,1.69922 -0.0996,-2.80078 -1.4,-2.5 -2.20039,-5.29922 -1.90039,-6.19922 0.6,-1.4 0.89883,-1.40117 2.79883,0.29883 l 2.20117,1.90039 -2.20117,-2.90039 c -1.20002,-1.6 -2.19922,-3.69961 -2.19922,-4.59961 0,-1 -0.7,-3.40078 -1.5,-5.30078 -2,-4.7 -2,-4.69922 1.5,-3.69922 1.6,0.5 5.20039,3.10039 7.90039,5.90039 2.6,2.7 6.5,5.6 8.5,6.5 3.5,1.4 4.69961,3.79961 2.59961,5.09961 -0.5,0.3 -0.90039,1.40078 -0.90039,2.30078 0.1,1.5 0.19961,1.5 0.59961,0 0.6,-2.5 2.10156,-2.2 2.60156,0.5 0.2,1.2 0.49961,0.39961 0.59961,-1.90039 0.1,-4.4 -1.50117,-6.60039 -5.70117,-7.90039 -1.3,-0.4 -4.69922,-3.09961 -7.69922,-6.09961 -3.5,-3.6 -6.39961,-5.6 -8.59961,-6 -1.9,-0.4 -3.89961,-1.09961 -4.59961,-1.59961 -1.4,-1.1 -1.50117,-10.10117 -0.20117,-9.20117 1.4,0.8 1.09961,-0.7 -0.40039,-2.5 -2.5,-2.9 -6.79844,-15.29922 -6.89844,-19.69922 -0.1,-5.4 0.79922,-6.70039 1.69922,-2.40039 0.7,3 6.00078,7.7 14.30078,12.5 3.1,1.9 3.19883,2.1 3.29883,9 0.1,5.9 0.20039,6.5 0.90039,3.5 0.5,-1.9 0.60078,-4.69922 0.30078,-6.19922 -0.3,-1.6 -0.10156,-2.80078 0.39844,-2.80078 1,0 7.30078,6.19922 7.30078,7.19922 0,0.4 1.59961,3.40078 3.59961,6.80078 3,5 4.60039,6.5 8.90039,8.5 2.8,1.4 5.90078,2.5 6.80078,2.5 1.2,0 1.69922,1.5 2.19922,6.5 0.7,6 0.49961,6.80039 -1.90039,9.90039 -1.8,2.5 -3.60039,3.59961 -6.40039,4.09961 -2.8,0.4 -3.79883,1.1 -3.79883,2.5 0,1.9 0.0996,1.9 2.09961,0 2.7,-2.5 3.89922,-2.5 3.19922,0 -0.3,1.1 -0.0996,2.29961 0.40039,2.59961 0.5,0.3 0.90039,-0.60039 0.90039,-1.90039 0,-1.3 1.19961,-3.39883 2.59961,-4.79883 l 2.70117,-2.40039 -0.60156,2.30078 c -0.3,1.2 -0.19922,1.99922 0.30078,1.69922 1.1,-0.7 2.10039,2.2 1.40039,4 -0.4,0.8 -0.10039,1.5 0.59961,1.5 1.1,0 1.19965,-5.3 0.0996,-7.5 -0.7,-1.3 -0.89922,-17.5 -0.19922,-17.5 1.2,0 7.89922,7.30039 7.69922,8.40039 -0.2,0.6 -0.10035,0.80039 0.0996,0.40039 0.8,-1.2 13.10156,7.69922 14.10156,10.19922 0.9,2.2 0.99961,2.30039 1.09961,0.40039 0.1,-2.1 -2.29961,-4.70117 -7.09961,-7.70117 -1.5,-0.9 -5.60156,-4.39922 -9.10156,-7.69922 -4.4,-4.1 -8.89883,-7.1 -14.29883,-9.5 -6.7,-3 -8.40078,-4.3 -10.80078,-8 -1.5,-2.5 -2.60039,-4.90039 -2.40039,-5.40039 0.1,-0.6 2.80078,0.6 5.80078,2.5 3,1.9 7.59961,4.10078 10.09961,4.80078 7,2.1 9.80117,3.79961 17.20117,10.59961 8.4,7.7 12.59922,8.69961 19.69922,4.59961 2.5,-1.4 5.29922,-2.59961 6.19922,-2.59961 0.9,0 2.7,-0.99922 4,-2.19922 1.3,-1.3 1.60156,-1.70039 0.60156,-0.90039 -2.6,2.1 -3.20078,0.79961 -1.30078,-2.90039 0.9,-1.7 1.50078,-3.59961 1.30078,-4.09961 -0.2,-0.5 -1.20078,1.29961 -2.30078,4.09961 -1.1,2.7 -2.50078,5 -3.30078,5 -0.7,0 -2.3,0.60039 -3.5,1.40039 -3.8,2.5 -10.09883,3.49961 -13.29883,2.09961 -3.1,-1.4 -12.50078,-10.5 -10.80078,-10.5 0.5,0 1.50117,0.49922 2.20117,1.19922 0.7,0.7 1.19922,0.80117 1.19922,0.20117 0,-1 -9,-5.2 -18.5,-8.5 -7.3,-2.5 -16.70078,-8.20117 -14.30078,-8.70117 1.8,-0.3 21.00078,6.50078 21.80078,7.80078 0.8,1.2 5.39961,2.39922 4.59961,1.19922 -0.79996,-1.3 6.60039,-4.19922 10.90039,-4.19922 2,0 6.09922,-1.40078 9.69922,-3.30078 9.1,-4.8 9.50117,-4.89961 11.70117,-2.59961 1.8,2 1.79883,2.00039 1.29883,-0.59961 -0.4,-2.4 -0.79961,-2.59961 -3.59961,-2.09961 -1.7,0.4 -4.29922,0.80039 -5.69922,0.90039 -1.4,0.1 -3.30078,1 -4.30078,2 -2.6,2.5 -4.50039,3.39961 -9.90039,4.09961 -2.6,0.4 -6.39844,1.39922 -8.39844,2.19922 -3.4,1.5 -3.90117,1.4 -9.20117,-1 -3.1,-1.3 -9.19961,-3.49883 -13.59961,-4.79883 -4.4,-1.3 -9.10039,-3.00117 -10.40039,-3.70117 l -2.40039,-1.29883 2.40039,-1.40039 c 1.3,-0.7 3.40117,-1.30039 4.70117,-1.40039 1.2,0 2.19922,-0.30078 2.19922,-0.80078 0,-0.8 5.00039,-2.69883 11.40039,-4.29883 2.7,-0.7 4.19922,-0.60078 5.19922,0.19922 1.2,0.9 1.30039,0.89961 0.90039,-0.40039 -0.5,-1.2 0.6,-1.59922 5.5,-2.19922 3.3,-0.4 8.09961,-1.7 10.59961,-3 2.6,-1.3 5.40078,-2.10078 6.30078,-1.80078 1.3,0.4 1.29922,0.3 0.19922,-0.5 -1.1,-0.8 -0.89883,-1.29922 1.20117,-2.69922 2.1,-1.3 3.99844,-1.59922 8.89844,-1.19922 3.5,0.3 5.20078,0.29965 3.80078,0.0996 -1.4,-0.3 -3.89922,-0.90039 -5.69922,-1.40039 -2.7,-0.7 -4.1,-0.30039 -9,2.59961 -5.9,3.6 -12.20156,5.90078 -18.60156,6.80078 l -3.69922,0.5 2.59961,-3.5 c 1.5,-1.9 2.20117,-3.40039 1.70117,-3.40039 -0.5,0 -1.4,1.00078 -2,2.30078 -0.7,1.4 -3.00039,2.89961 -6.40039,4.09961 -3,1.1 -6.00078,2.20039 -6.80078,2.40039 -2.3,0.9 2.50078,-6.6 7.80078,-12 2.5,-2.7 5.19961,-4.80039 6.09961,-4.90039 1,0 1.10078,-0.19961 0.30078,-0.59961 -2.1,-0.79998 -10.10078,6.59922 -14.80078,13.69922 -2.5,3.7 -5.29922,7.00078 -6.19922,7.30078 -1,0.3 -3.60078,1.19961 -5.80078,2.09961 -3.9,1.6 -3.90078,1.60035 -1.80078,-0.0996 1.2,-1 3.40078,-2.60156 4.80078,-3.60156 1.5,-1.1 2.39922,-2.09844 2.19922,-2.39844 -0.5,-0.5 -1.89922,0.59883 -7.69922,5.79883 -1.7,1.6 -3.70078,2.60117 -4.30078,2.20117 -0.9,-0.5 -10.29961,-7.4 -13.59961,-10 -1.4,-1.1 1.20039,-1.00117 6.40039,0.29883 3.3,0.7 6.9,1.30078 8,1.30078 2.4,-0.1 -2.90039,-1.6 -10.40039,-3 -6.6,-1.2 -7.09961,-1.5 -7.09961,-4 0,-2.7 7,-2.70035 9.5,0.0996 1,1.1 2.80039,2.00039 3.90039,1.90039 1.9,-0.1 1.79922,-0.20078 -0.30078,-0.80078 -3.3,-0.9 -3.90039,-3.09922 -0.90039,-3.19922 1.3,-0.1 0.30078,-0.5 -2.19922,-1 -2.5,-0.5 -5.69922,-0.70078 -7.19922,-0.30078 -2.4,0.5 -2.80117,0.20078 -3.70117,-3.19922 -0.9,-3.4 -0.80039,-4.09961 1.09961,-6.09961 1.2,-1.2 3.70156,-2.60039 5.60156,-2.90039 4.2,-0.8 9.6,-3.40039 7,-3.40039 -0.9,0 -2.00078,0.5 -2.30078,1 -0.3,0.6 -1.80078,1 -3.30078,1 -2.5,-0.1 -2.19922,-0.5 4.30078,-6.5 3.9,-3.5 7.9,-6.40039 9,-6.40039 4,0.1 15.90039,4.50039 16.90039,6.40039 1.6,2.7 8.4,8.69961 12.5,11.09961 4.2,2.3 8.30039,6.10039 9.90039,8.90039 1.1,2 1.09922,2.00078 1.19922,-0.19922 0,-1.2 -0.79922,-2.8 -1.69922,-3.5 -4.4,-3.3 -5.40117,-5.30117 -4.20117,-8.70117 0.6,-1.7 2.30078,-3.79922 3.80078,-4.69922 1.4,-0.8 1.79883,-1.3 0.79883,-1 -1,0.3 -2.19961,0.59961 -2.59961,0.59961 -0.4,0 -1.59922,1.6 -2.69922,3.5 -1,2 -2.59961,3.5 -3.59961,3.5 -2,0 -11.80078,-9.00039 -11.80078,-10.90039 0,-0.9 0.5,-0.89965 2,-0.0996 1.4,0.8 3.60078,0.70035 7.80078,-0.0996 7,-1.5 12.19961,-0.60039 16.09961,2.59961 1.6,1.4 3.4,2.5 4,2.5 0.6,0 1.09961,0.60078 1.09961,1.30078 0,0.8 1.00078,2.19883 2.30078,3.29883 1.9,1.6 1.99961,1.6 0.59961,0 -1.5,-1.6 -1.50078,-2.09961 0.19922,-5.59961 2.2,-4.6 2.50078,-6.69922 0.30078,-2.69922 -1.8,3.4 -2.79961,3.39965 -7.59961,0.0996 -4.8,-3.4 -8.90078,-4.20117 -16.30078,-3.20117 -5,0.7 -7.80039,0.3 -17.40039,-2 -6.3,-1.6 -11,-3.09844 -10.5,-3.39844 0.5,-0.3 4.00039,-0.90078 7.90039,-1.30078 3.8,-0.4 8.39961,-1.39961 10.09961,-2.09961 1.8,-0.8 7.40039,-1.4 12.40039,-1.5 5.4,-0.1 8.60078,-0.49961 7.80078,-1.09961 -2.4,-1.5 1.29922,-2.8 8.69922,-3 4.9,-0.1 5.70078,-0.3 2.80078,-0.5 -4.8,-0.5 -5.1,-0.9 -2.5,-3 0.9,-0.8 0.0996,-0.50039 -1.90039,0.59961 -2,1.2 -4.40078,2.09961 -5.30078,2.09961 -0.9,0 -2.99961,0.99922 -4.59961,2.19922 -4.5,3.3 -4.70039,1.50156 -0.40039,-3.89844 2.1,-2.6 2.90117,-4 1.70117,-3 -2.3,2 -4.80039,1.4 -3.90039,-1 0.3,-0.8 0.0996,-1.10078 -0.40039,-0.80078 -0.6,0.3 -0.70039,1.69961 -0.40039,3.09961 0.9,3.4 -2.69961,7.29961 -6.09961,6.59961 -1.4,-0.2 -4.89922,0.30078 -7.69922,1.30078 -6,2 -15.80078,3.5 -15.80078,2.5 0,-0.4 0.90039,-1.50039 1.90039,-2.40039 1.1,-1 2.49961,-3.09922 3.09961,-4.69922 0.7,-1.6 2,-2.90039 3,-2.90039 1,0 4.50039,-1.79961 7.90039,-4.09961 3.3,-2.2 7.59883,-4.5 9.29883,-5 1.8,-0.5 4.5,-2.00039 6,-3.40039 1.5,-1.4 3.8,-3 5,-3.5 1.7,-0.6 1.80156,-0.90039 0.60156,-0.90039 -1,-0.1 -3.2,1.20078 -5,2.80078 -1.8,1.6 -4.7,3.2 -6.5,3.5 -1.7,0.4 -5.00078,2.09922 -7.30078,3.69922 -2.2,1.6 -4.5,2.70039 -5,2.40039 -0.5,-0.3 -1.4,0.4 -2,1.5 -0.9,1.8 -4,2.9 -4,1.5 0,-1.4 3.99961,-8.19922 5.59961,-9.69922 1.1,-0.9 4.19961,-2.40078 7.09961,-3.30078 2.9,-0.9 5.70039,-2.29961 6.40039,-3.09961 0.6,-0.8 1.79961,-1.40039 2.59961,-1.40039 0.8,0 1.10078,-0.5 0.80078,-1 -0.4,-0.6 0.30039,-3.49961 1.40039,-6.59961 1.2,-3 2.1,-6.20117 2,-7.20117 0,-0.9 -0.80078,0.80078 -1.80078,3.80078 -1.3,4 -1.89883,5 -2.29883,3.5 -0.3,-1.1 -0.40117,-0.69922 -0.20117,0.80078 0.2,1.7 3.9e-4,2.59922 -0.59961,2.19922 -0.6,-0.3 -1,0.50078 -1,1.80078 0,3.1 -2.2,4.99961 -6,5.09961 -1.7,0.1 -3,0.39883 -3,0.79883 0,0.4 -1.49922,1.40156 -3.19922,2.10156 -1.8,0.8 -3.90117,2.19961 -4.70117,3.09961 -1.1,1.3 -1.60039,1.40039 -2.40039,0.40039 -0.6,-1 -0.79844,-0.90117 -0.39844,0.29883 0.9,2.7 -4.20117,14.10117 -8.20117,18.20117 -5.5,5.9 -11.30039,10.3 -10.40039,8 0.4,-1 -1,-3.9e-4 -3,2.09961 -2.1,2.2 -3.99922,3.70039 -4.19922,3.40039 -0.3,-0.3 2.29922,-4.70078 5.69922,-9.80078 7,-10.2 10.20039,-15.89922 10.40039,-17.69922 0.1,-0.7 0.20078,-2.00078 0.30078,-2.80078 0,-0.8 2.59922,-4.4 5.69922,-8 3,-3.7 6.2,-8.19961 7,-10.09961 0.8,-1.9 1.80117,-3.40039 2.20117,-3.40039 0.5,0 0.89844,-0.59922 0.89844,-1.19922 0,-0.7 0.40078,-2.20078 0.80078,-3.30078 1.1,-3 -2.80039,3.30078 -5.40039,8.80078 -1.5,3.2 -2.79922,4.59883 -3.69922,4.29883 -0.8,-0.3 -1.40039,-3.9e-4 -1.40039,0.59961 0,0.6 -1.50039,2.90117 -3.40039,5.20117 -1.8,2.3 -4.1,6.69883 -5,9.79883 -0.9,3.1 -2.70039,6.9 -3.90039,8.5 -1.3,1.5 -4,5.50078 -6,8.80078 -2.1,3.3 -4.59922,7.1 -5.69922,8.5 -2,2.4 -2.00035,2.3 0.0996,-3 3.8,-9.8 4.19961,-12.19922 3.59961,-23.19922 l -0.69922,-10.80078 3.80078,-1.90039 c 2.1,-1.1 5.39883,-3.79961 7.29883,-6.09961 5,-6.1 11.10039,-12.29922 13.40039,-13.69922 2,-1.2 2,-1.20156 0,-0.60156 -1.1,0.3 -3.39961,1.60039 -5.09961,2.90039 -1.7,1.3 -3.40078,2.00117 -3.80078,1.70117 -0.3,-0.4 -0.59961,0.0984 -0.59961,0.89844 0,2.6 -2.4,6.30039 -6,9.40039 -4.1,3.4 -7.99922,5.69961 -8.69922,5.09961 -0.2,-0.3 1.19961,-3.49922 3.09961,-7.19922 2.1,-3.9 3.59961,-8.09961 3.59961,-10.09961 0,-2.8 0.90078,-4.3 4.80078,-8 4.7,-4.6 3.2,-4.20078 -2.5,0.69922 -2.4,2 -3.1,3.5 -3.5,7.5 -0.3,3.3 -1.70156,7.10078 -4.10156,11.30078 -2.1,3.4 -3.69922,7.00039 -3.69922,7.90039 -0.1,1 -0.9,0.29922 -2,-1.80078 -1.1,-1.9 -1.9,-3 -2,-2.5 0,0.6 0.90039,2.39961 1.90039,4.09961 2.1,3.4 3.69922,12.00039 3.19922,17.40039 -0.1,1.9 -1.20039,6.7 -2.40039,10.5 -1.8,6 -2.19883,6.6 -2.79883,4.5 -0.4,-1.4 -0.70078,-3.50078 -0.80078,-4.80078 -0.1,-1.3 -1.29883,-3.5 -2.79883,-5 -1.5,-1.5 -2.10039,-1.9 -1.40039,-1 0.7,0.9 0.9,2.30039 0.5,2.90039 -0.4,0.7 -0.29961,0.9 0.40039,0.5 1.6,-0.9 1.89922,0.0996 2.69922,8.09961 0.6,6.3 0.5,7.40039 -1,7.90039 -1,0.4 -2.1,7.8e-4 -3,-1.19922 -0.7,-1.1 -2.50039,-3.20117 -3.90039,-4.70117 -7.8,-8.4 -10.20039,-19.79922 -11.40039,-54.19922 -0.5,-14.8 -0.79961,-29.7 -0.59961,-33 0.4,-9.8 5.40117,-26.3 9.70117,-32 0.8125,-1.0625 1.40894,-1.54968 1.77344,-1.56055 z m -47.3711,2.05664 c 2.35236,-0.41663 12.40352,19.28477 15.69727,31.10352 2.5,8.8 2.59922,10.80117 1.69922,38.70117 -0.1,1.7 -0.39883,3.19922 -0.79883,3.19922 -0.5,0 -0.90156,-7.80078 -1.10156,-17.30078 -0.3,-15.9 -0.49883,-18 -3.29883,-27 -2.8,-9 -6.30078,-16.79922 -9.30078,-20.69922 -1.9,-2.3 -3.69961,-7.20039 -3.09961,-7.90039 0.0594,-0.0562 0.12725,-0.0901 0.20312,-0.10352 z m 246.29688,15.00391 h 5.5 c 4.3,0 5.30039,0.30039 4.90039,1.40039 -0.9,2.4 2.39961,2.69922 18.59961,1.69922 8.5,-0.5 15.79922,-0.59883 16.19922,-0.29883 1.3,1.4 3.90039,10.89961 5.90039,21.59961 1.2,6.1 3.00117,14.69961 4.20117,19.09961 3.4,13.3 3.39844,17.80039 -0.10156,24.90039 -4.2,8.4 -8.09922,17.10039 -9.69922,21.40039 -0.7,2.1 -3.30078,7.99922 -5.80078,13.19922 -3.1,6.3 -5.09961,12.3 -6.09961,18 -6.8,37.5 -6.59961,35.10078 -6.59961,66.30078 0,29.1 0,29.29961 -3,41.59961 -1.7,6.8 -5.09961,18.7 -7.59961,26.5 -7.2,22.7 -10.30078,32.69961 -11.80078,39.09961 -4.09718,16.66806 -18.32063,64.45595 -19.85742,72.57617 -0.6812,2.54816 -1.14867,5.18863 -1.3418,6.72461 -0.7,6.5 0.89922,19.9 3.19922,26.5 0.7,2 1.60039,7.2 1.90039,11.5 0.3,4.2 1.29922,13.09922 2.19922,19.69922 2.3,17.7 1.40078,38 -2.69922,55 -5.9,25.2 -8.60078,32.29961 -11.30078,29.59961 -0.9,-0.9 -1.09844,-6.10039 -0.89844,-20.40039 0.2,-19.50001 -0.40156,-25.7 -2.60156,-26.5 -0.6,-0.2 -1.59961,0.7 -2.09961,2 -0.5,1.3 -2.19883,4.40039 -3.79883,6.90039 -5.1,7.6 -6.5,12.60039 -7,23.90039 -0.5,10.9 0.69961,18.3 5.59961,36 2.7,9.9 2.69961,10 -1.40039,10 -2.9,0 -4.40078,-0.80078 -7.80078,-4.30078 -8.8,-8.9 -13.49922,-20.3 -15.69922,-38 -1.5,-11.8 -1.2,-27.29883 0.5,-36.29883 2.7,-13.6 10.59961,-46.6 13.09961,-54.5 1.2,-4.1 2.80039,-10.7 3.40039,-14.5 1.7,-10.9 3.00078,-15.79961 4.30078,-16.59961 0.7,-0.4 4.99922,-0.80039 9.69922,-0.90039 9.8,-0.2 6.79922,-1.60078 -3.80078,-1.80078 l -6.39844,-0.0996 0.79883,-4.19922 c 0.4,-2.4 0.80039,-7.70078 0.90039,-11.80078 1,-31 2.70039,-66.4 3.40039,-71 0.6,-3 1.29961,-14.9 1.59961,-26.5 0.4,-11.5 1.3,-25.5 2,-31 0.8,-5.5 1.7,-14.3 2,-19.5 0.4,-5.2 1.79961,-14 3.09961,-19.5 1.4,-5.5 3.30039,-16.1 4.40039,-23.5 2.5,-17.3 3.69961,-23.5 5.59961,-28.5 0.9,-2.2 2.7,-11 4,-19.5 1.4,-8.5 3.4,-19.8 4.5,-25 4.4,-20.3 5.80039,-37.69922 5.90039,-70.19922 z m 53.59961,265.5 4,0.5 c 2.1,0.2 11.60039,0.29922 20.90039,0.19922 52.9,-0.7 103.4,-0.39883 109.5,0.70117 15.3,2.8 21.20039,3.09961 56.90039,3.09961 20.7,0.1 39.79961,-0.0992 42.59961,-0.19922 l 4.90039,-0.30078 2.69922,11.5 c 1.4,6.3 3.10117,13.5 3.70117,16 3.9,16.4 5.49961,24.7 7.59961,41.5 1.4,10.5 2.79922,23.1 3.19922,28 0.3,5 1.69961,14.4 3.09961,21 4.6,22.6 5.50039,31.8 4.90039,48.5 -1.4,38.4 -3.29922,60.5 -6.19922,70 -0.7,2.5 -2.50039,11 -3.90039,19 -1.5,8 -4,21.3 -5.5,29.5 -1.6,8.3 -3.49961,18.8 -4.09961,23.5 -0.7,4.7 -1.59961,8.99922 -2.09961,9.69922 -1,1.3 -22.4,8.50078 -32,10.80078 -4.6,1.1 -12.50117,1.5 -28.70117,1.5 -22.3,0 -22.90039,-0.0996 -38.40039,-4.09961 -6.2,-1.6 -7.09883,-4.20039 -9.79883,-27.90039 -0.5,-5.2 -1.40039,-25.2 -1.90039,-44.5 -1,-39.5 -2.6,-73.70078 -3.5,-78.80078 -0.9,-4.5 -6.00078,-7.7 -9.80078,-6 -1.3,0.6 -3.49844,0.90156 -4.89844,0.60156 -2.2,-0.4 -2.60039,-1.00156 -2.40039,-3.60156 0.1,-2.2 -0.40039,-3.19922 -1.40039,-3.19922 -1,0 -2.10078,2.3 -3.30078,7 -1,3.8 -2.19883,7.39961 -2.79883,8.09961 -1,1.3 -1.30078,5.40039 -2.80078,39.40039 -1.3,29.3 -2.8,49.10039 -4.5,60.40039 -0.8,5 -1.99961,14.49961 -2.59961,21.09961 -0.7,6.6 -1.50039,14.40078 -1.90039,17.30078 l -0.59961,5.39844 -5.90039,2.40039 c -7.1,2.9 -7.80039,2.90117 -7.40039,0.70117 0.3,-1.5 -0.39922,-1.80156 -4.19922,-1.60156 -2.5,0 -6.7,1.10039 -9.5,2.40039 -4.3,2 -6.70078,2.30039 -16.80078,2.40039 -10.1,0.1 -11.99883,0.30078 -12.79883,1.80078 -0.9,1.5 -2.80117,1.69961 -15.20117,1.59961 -16.4,-0.1 -21.49844,-0.9 -23.39844,-3.5 -1.8,-2.5 -3.20078,-7.50039 -4.30078,-15.90039 -0.5,-3.8 -1.40039,-8.3 -1.90039,-10 -0.5,-1.6 -1.49961,-7 -2.09961,-12 -0.6,-4.9 -2,-12.4 -3,-16.5 -2.1,-7.9 -4.59961,-22.2 -8.09961,-46 -1.2,-8 -2.5,-16.7 -3,-19.5 -1.6,-9.4 -2.19961,-42.6 -1.09961,-53.5 1.6,-14.7 5.79922,-38 9.69922,-54.5 1.9,-7.7 4.2,-18.3 5,-23.5 1.8,-10.6 7.4,-39.29922 10.5,-54.19922 1.2,-5.3 2.20039,-13.4 2.40039,-18 z m -512.01172,58.58203 c 1.92188,-0.10156 3.0625,1.90625 3.8125,6.21875 0.8,4.4 1.8,4.59922 4,1.19922 2,-3.1 7.8,-5.99922 10,-5.19922 1.3,0.5 1.59961,2.19961 1.59961,8.09961 v 7.59961 l 4,2 c 4.6,2.4 6.20078,4.90078 5.80078,9.30078 -0.2,2.6 -0.90156,3.39961 -4.10156,4.59961 -3.3,1.2 -5.19883,1.19965 -13.29883,0.0996 -10.9,-1.5 -13.40039,-0.59961 -15.40039,5.40039 -1.9,5.8 2.19961,19.19883 10.59961,34.79883 0.8,1.4 1.40039,4.1 1.40039,6 0,4.3 -2.69922,15.8 -4.19922,17.5 -3.1,3.7 -7.50039,0.80117 -22.40039,-14.79883 -8.7,-8.99998 -9.30039,-10.00039 -11.90039,-17.90039 -2.300006,-7.3 -2.700392,-10.3 -2.900392,-21.5 -0.100003,-10.9 0.200781,-13.70078 1.800781,-17.30078 l 2.000001,-4.39844 -3.201173,-5.80078 c -1.8,-3.1 -3.199219,-6.90078 -3.199219,-8.30078 0,-3.5 4.299996,-6.69922 9.000002,-6.69922 4,0 5.50039,1.30078 10.90039,9.30078 4.1,6.1 6.3,5.89844 7.5,-0.60156 0.6,-3.3 1.69883,-5.39922 3.79883,-7.19922 1.8,-1.5375 3.23555,-2.35703 4.38867,-2.41797 z m 75.3125,22.91797 c 3.4,0 8.79961,5.39961 10.09961,10.09961 2.1,7.1 1.80078,7.5 -8.19922,12.5 -10.2,4.9 -14.30078,8.3 -17.80078,14.5 l -2.19922,4.09961 2.79883,-0.59961 c 1.8,-0.4 5.10078,0.10039 8.80078,1.40039 3.3,1.1 8,2 10.5,2 6.7,0 17.89883,3.59961 23.29883,7.59961 7.5,5.3 8.30156,7.30039 8.10156,17.90039 -0.9,31.9 -0.80156,33.8 1.39844,41 1.2,3.9 2.90078,12.4 3.80078,19 0.9,6.6 1.99961,15.4 2.59961,19.5 0.5,4.2 0.70039,14.5 0.40039,23.5 -0.5,12.8 -1.09961,17.7 -3.09961,24.5 -5.5,18.8 -9.60117,25.69961 -17.20117,29.09961 -5.7,2.5 -10.29922,2.8 -29.69922,2 -16.2,-0.7 -20.7,-1.79883 -39.5,-9.79883 -19.4,-8.3 -40.69922,-26.30117 -49.69922,-42.20117 -1.4,-2.5 -3.30117,-5.49961 -4.20117,-6.59961 -0.9,-1.1 -2.2,-3.1 -3,-4.5 -7.400009,-12.9 -9.099612,-16.2 -10.599612,-20.5 -1,-2.7 -2.00039,-9.09922 -2.40039,-14.19922 -0.500003,-8.1 -0.898829,-9.5 -3.298829,-12 -7.5,-7.8 -10.000781,-24.7 -5.800781,-38.5 3.5,-11.4 1.4,-23.40156 -6,-35.10156 -4.4,-7 -3.7,-11.89922 2.5,-17.69922 2.1,-2 3.699219,-2.5 7.699219,-2.5 4.3,0 5.300781,0.40039 7.300781,2.90039 1.6,1.9 2.399219,4.6 2.699219,8.5 1,11.1 3.899993,16.20039 16.000003,27.90039 11.8,11.5 18.70156,16.5 22.10156,16 3.1,-0.4 10.59922,-11.4 10.69922,-15.5 0,-5.4 2.20039,-3.70156 4.90039,3.89844 1.6,4.2 7.89922,7.00117 14.19922,6.20117 8.2,-1.1 18.20117,-10.00078 18.20117,-16.30078 0,-3.4 -7.50039,-13.79922 -10.90039,-15.19922 -4.6,-1.7 -11.2,-1.00039 -16.5,1.59961 -7.6,3.9 -9.00078,5.7 -8.30078,10.5 0.4,2.7 0.3,4 -0.5,4 -0.6,0 -1.09961,-0.79922 -1.09961,-1.69922 -0.1,-1 -1,-3.40078 -2,-5.30078 -1.1,-1.9 -2.60039,-4.89922 -3.40039,-6.69922 -0.9,-1.7 -2.69922,-4.9 -4.19922,-7 -2.3,-3.4 -2.50117,-4.60078 -2.20117,-10.80078 0.6,-11.5 3.90156,-15.29961 10.60156,-12.59961 1.5,0.6 5.89922,1.19883 9.69922,1.29883 6.5,0.3 7.49961,0 12.09961,-3 7.5,-4.8 33.80078,-13.19922 41.30078,-13.19922 z m 17.23047,20.11328 c 1.07344,0.0492 2.23203,0.49961 3.76953,1.28711 4.8,2.5 5.5,3.99961 3.5,8.09961 -0.9,1.9 -2.7,4.40039 -4,5.40039 -3.2,2.5 -3,3.09961 1,3.09961 1.9,0 4.1,0.29961 5,0.59961 1.9,0.7 2.20039,6.40117 0.40039,8.20117 -1.5,1.5 -3.1,1.49965 -4.5,0.0996 -1.6,-1.6 -28.9,-8.90039 -33.5,-8.90039 -2.2,0 -2.30078,-1.89922 -0.30078,-4.69922 1.5,-2.2 12.49922,-6.30078 16.69922,-6.30078 1.1,0 3.80039,-1.6 5.90039,-3.5 2.6875,-2.4375 4.24219,-3.46875 6.03125,-3.38672 z m -64.56641,25.16211 c 3.94219,-0.225 4.63555,4.05 0.43555,10.125 -1.6,2.5 -3.99922,5.19961 -5.19922,6.09961 -2.7,1.8 -4.70117,1.90078 -5.20117,0.30078 -2.2,-7.2 -0.8,-11.30117 5,-14.70117 1.975,-1.175 3.65078,-1.74922 4.96484,-1.82422 z m -87.064452,0.94336 c 1.61523,0.0752 1.912107,0.73047 2.59961,2.48047 0.5,1.5 1.699997,4.10117 2.5,5.70117 1.9,4 1.80039,4.29961 -1.59961,6.09961 -2.8,1.4 -6.899218,1.70078 -11.699219,0.80078 -1.4,-0.3 -2.701171,-1.80039 -3.701171,-4.40039 -3.100003,-7.8 -2.098829,-9.30078 7.201171,-10.30078 2.2875,-0.2625 3.730078,-0.42598 4.699219,-0.38086 z m 94.699222,0.88086 c 0.6616,0.006 1.4875,0.0887 2.5,0.20117 6.6,0.7 9.30078,4 9.30078,11 0,2.9 -0.70039,6 -1.40039,7 -1.8,2.4 -2.39961,2.19883 -6.59961,-2.20117 -2.3,-2.4 -4.10039,-5.60039 -4.90039,-8.40039 -1.54375,-6.25625 -1.76731,-7.62722 1.09961,-7.59961 z m -6.09961,11.09961 c 0.7,-0.3 10.90039,9.20117 10.90039,10.20117 0,0.3 -0.79922,0.90039 -1.69922,1.40039 -5.2,2.8 -14.60078,1.79883 -16.80078,-1.70117 -0.6,-1 5.59961,-9.00039 7.59961,-9.90039 z M 884.71094,969.8457 c -0.006,0.0306 -0.0101,0.0571 -0.0156,0.0879 0.12229,0.006 0.21296,0.0215 0.35157,0.0176 l 0.82031,-0.01 c -0.48051,-0.0471 -0.85475,-0.0765 -1.15625,-0.0957 z"
       style="stroke-width:0.1"
       transform="matrix(9.9999997,0,0,9.9999997,273.57768,275.95899)"
       id="path16352" />
    <path
       id="path16354"
       d="m 2100,9330 c -25,-5 -65,-11 -90,-15 -88,-14 -198,-58 -266,-107 -24,-17 -95,-97 -156,-176 -62,-80 -129,-163 -149,-186 -42,-48 -62,-81 -124,-201 -26,-50 -53,-101 -61,-115 -21,-40 -8,-99 25,-112 90,-35 208,50 171,124 -12,22 -12,22 14,-3 25,-23 26,-29 17,-69 -6,-29 -23,-56 -49,-82 -34,-35 -46,-40 -99,-45 -40,-4 -80,-16 -119,-37 -58,-30 -59,-32 -67,-85 -8,-46 -6,-57 11,-80 17,-24 26,-26 108,-31 49,-3 100,-11 114,-19 37,-20 80,-63 80,-79 0,-22 33,10 69,67 21,32 32,64 36,106 5,52 3,67 -19,109 -40,76 -32,148 19,182 35,23 45,9 12,-17 -37,-28 -34,-55 13,-114 22,-27 40,-53 40,-57 0,-5 9,-17 20,-28 17,-17 20,-33 20,-120 0,-88 3,-107 26,-151 21,-42 28,-48 40,-39 7,7 14,20 14,29 0,37 78,81 142,81 37,0 104,-34 146,-74 l 34,-31 -4,55 c -3,30 -17,87 -32,125 -43,110 -46,124 -46,230 0,105 17,178 63,275 24,50 141,225 186,280 16,19 49,80 72,135 37,84 44,111 44,165 0,47 -5,73 -19,93 -18,26 -21,27 -105,26 -47,-1 -106,-5 -131,-9 z" />
    <path
       id="path16356"
       d="m 2497,9025 c -97,-36 -215,-143 -292,-266 -22,-35 -56,-82 -77,-106 -42,-49 -78,-137 -78,-193 0,-30 8,-48 31,-75 26,-30 38,-35 73,-35 23,0 52,-7 64,-16 26,-18 52,-74 52,-113 0,-14 4,-32 9,-40 7,-11 12,-8 26,12 23,35 46,117 40,139 -3,10 -8,28 -11,40 -6,20 -5,21 9,10 56,-47 11,-218 -96,-368 -44,-62 -77,-157 -77,-222 0,-27 4,-30 54,-41 57,-13 112,-8 156,14 14,7 49,18 79,25 87,21 160,104 161,184 0,35 -44,96 -69,96 -29,0 -108,58 -121,90 -23,55 3,163 50,205 25,23 25,19 0,-30 -40,-79 -20,-166 41,-180 25,-6 27,-3 42,52 8,32 19,92 22,133 4,41 23,136 41,210 39,153 45,275 19,374 -29,110 -61,132 -148,101 z" />
    <path
       id="path16358"
       d="m 2066,8317 c -20,-15 -19,-52 6,-142 9,-36 11,-38 19,-17 11,30 22,28 53,-9 28,-33 33,-58 14,-77 -18,-18 -26,-15 -43,19 -22,42 -27,33 -11,-21 16,-53 37,-62 73,-28 37,33 63,96 62,148 -1,45 -1,45 -8,10 -4,-19 -13,-46 -20,-59 l -13,-24 -24,29 c -29,36 -29,50 -4,92 23,37 28,39 46,15 7,-10 14,-13 14,-7 0,25 -58,74 -88,74 -17,0 -36,2 -44,5 -7,3 -22,-1 -32,-8 z m 88,-20 c 17,-13 17,-15 -3,-56 -12,-23 -27,-41 -34,-39 -18,6 -48,73 -41,92 7,19 53,21 78,3 z" />
    <path
       id="path16360"
       d="m 1227,8052 c -30,-33 -19,-90 26,-139 32,-36 82,-28 135,20 32,30 31,89 -4,116 -36,28 -133,30 -157,3 z" />
    <path
       id="path16362"
       d="m 1060,7635 c -32,-11 -35,-16 -32,-46 6,-71 90,-113 138,-68 26,25 32,70 11,88 -8,6 -29,17 -48,25 -28,11 -40,11 -69,1 z" />
    <path
       id="path16364"
       d="m 1247,7113 c -4,-3 -7,-17 -7,-30 0,-27 57,-60 84,-50 18,7 21,39 6,68 -11,19 -68,28 -83,12 z" />
    <path
       id="path16366"
       d="m 5121,5884 c 0,-11 3,-14 6,-6 3,7 2,16 -1,19 -3,4 -6,-2 -5,-13 z" />
    <path
       id="path16368"
       d="m 2861,5875 c -1,-24 25,-65 41,-65 6,0 2,10 -9,23 -12,12 -23,31 -26,42 -5,20 -5,20 -6,0 z" />
    <path
       id="path16370"
       d="m 5095,5830 c -10,-11 -14,-20 -9,-20 5,0 15,9 22,20 7,11 11,20 9,20 -2,0 -12,-9 -22,-20 z" />
    <path
       id="path16372"
       d="m 4660,5820 c -8,-5 -12,-12 -9,-15 4,-3 12,1 19,10 14,17 11,19 -10,5 z" />
    <path
       id="path16374"
       d="m 3320,5808 c 0,-4 4,-8 9,-8 6,0 12,4 15,8 3,5 -1,9 -9,9 -8,0 -15,-4 -15,-9 z" />
    <path
       id="path16376"
       d="m 2920,5806 c 0,-7 63,-36 68,-32 2,3 -10,12 -27,20 -31,16 -41,19 -41,12 z" />
    <path
       id="path16378"
       d="m 5016,5787 c -22,-12 -41,-29 -44,-37 -3,-11 -1,-11 9,2 8,10 31,24 52,33 20,8 37,17 37,20 0,10 -15,4 -54,-18 z" />
    <path
       id="path16380"
       d="m 2770,5783 c 0,-22 33,-82 49,-88 12,-5 12,-3 -2,12 -9,10 -23,34 -31,53 -8,19 -15,30 -16,23 z" />
    <path
       id="path16382"
       d="m 2841,5744 c 0,-11 3,-14 6,-6 3,7 2,16 -1,19 -3,4 -6,-2 -5,-13 z" />
    <path
       id="path16384"
       d="m 5140,5750 c 0,-7 3,-10 7,-7 3,4 3,10 0,14 -4,3 -7,0 -7,-7 z" />
    <path
       id="path16386"
       d="m 5180,5722 c -14,-20 -27,-41 -29,-46 -6,-15 34,30 47,53 22,38 9,32 -18,-7 z" />
    <path
       id="path16388"
       d="m 3360,5735 c -10,-13 -9,-15 8,-15 15,0 20,5 16,15 -4,8 -7,15 -9,15 -1,0 -8,-7 -15,-15 z" />
    <path
       id="path16390"
       d="m 2855,5710 c 3,-5 8,-10 11,-10 3,0 2,5 -1,10 -3,6 -8,10 -11,10 -3,0 -2,-4 1,-10 z" />
    <path
       id="path16392"
       d="m 3621,5681 c 23,-48 39,-42 30,12 -4,26 -6,28 -9,9 l -3,-22 -20,22 c -19,21 -18,20 2,-21 z" />
    <path
       id="path16394"
       d="m 4521,5704 c 0,-11 3,-14 6,-6 3,7 2,16 -1,19 -3,4 -6,-2 -5,-13 z" />
    <path
       id="path16396"
       d="m 3127,5695 c -4,-8 -3,-16 1,-19 4,-3 9,4 9,15 2,23 -3,25 -10,4 z" />
    <path
       id="path16398"
       d="m 5109,5693 c -13,-16 -12,-17 4,-4 16,13 21,21 13,21 -2,0 -10,-8 -17,-17 z" />
    <path
       id="path16400"
       d="m 4804,5677 c 3,-10 6,-23 6,-28 0,-5 13,0 30,12 29,22 35,40 8,23 -18,-12 -31,-12 -41,1 -5,6 -6,2 -3,-8 z" />
    <path
       id="path16402"
       d="m 2834,5658 c 2,-15 -2,-29 -8,-31 -6,-2 15,-10 47,-16 32,-7 61,-10 64,-7 4,3 -3,6 -15,6 -12,0 -22,4 -22,9 0,5 -8,7 -18,4 -20,-5 -37,10 -46,42 -3,13 -4,10 -2,-7 z" />
    <path
       id="path16404"
       d="m 3150,5660 c 0,-5 4,-10 9,-10 5,0 12,-10 14,-22 3,-14 4,-10 4,10 -1,19 -6,32 -14,32 -7,0 -13,-4 -13,-10 z" />
    <path
       id="path16406"
       d="m 5137,5637 c -5,-13 -58,-28 -109,-32 -3,0 -10,-4 -15,-8 -9,-10 52,0 109,17 28,8 35,15 29,24 -7,11 -9,11 -14,-1 z" />
    <path
       id="path16408"
       d="m 2950,5600 c 0,-6 7,-10 15,-10 8,0 15,2 15,4 0,2 -7,6 -15,10 -8,3 -15,1 -15,-4 z" />
    <path
       id="path16410"
       d="m 3633,5602 c -8,-5 -9,-13 -3,-22 7,-12 10,-12 16,3 8,21 3,29 -13,19 z" />
    <path
       id="path16412"
       d="m 4300,5520 c 0,-7 3,-10 7,-7 3,4 3,10 0,14 -4,3 -7,0 -7,-7 z" />
    <path
       id="path16414"
       d="m 4481,5480 c -14,-20 -21,-42 -19,-61 l 3,-31 30,34 c 28,30 28,31 3,9 -25,-22 -28,-22 -28,-6 0,10 9,33 21,51 26,42 20,44 -10,4 z" />
    <path
       id="path16416"
       d="m 2794,5478 -19,-23 23,19 c 12,11 22,21 22,23 0,8 -8,2 -26,-19 z" />
    <path
       id="path16418"
       d="m 2836,5484 c -4,-9 -4,-19 -1,-22 2,-3 7,3 11,12 4,9 4,19 1,22 -2,3 -7,-3 -11,-12 z" />
    <path
       id="path16420"
       d="m 4952,5483 c 1,-4 -4,-19 -11,-31 -7,-13 -10,-26 -8,-28 3,-3 12,8 20,25 9,18 11,33 6,37 -5,3 -8,2 -7,-3 z" />
    <path
       id="path16422"
       d="m 3020,5477 c 0,-4 7,-19 16,-32 9,-13 13,-29 10,-34 -13,-20 32,-32 81,-22 l 48,10 -52,-5 c -29,-2 -53,-1 -53,3 0,11 -49,90 -50,80 z" />
    <path
       id="path16424"
       d="m 2743,5453 c 4,-3 10,-3 14,0 3,4 0,7 -7,7 -7,0 -10,-3 -7,-7 z" />
    <path
       id="path16426"
       d="m 5223,5453 c 4,-3 10,-3 14,0 3,4 0,7 -7,7 -7,0 -10,-3 -7,-7 z" />
    <path
       id="path16428"
       d="m 3090,5445 c 0,-5 5,-17 10,-25 5,-8 10,-10 10,-5 0,6 -5,17 -10,25 -5,8 -10,11 -10,5 z" />
    <path
       id="path16430"
       d="m 4876,5425 c -9,-14 -26,-26 -39,-26 -12,-1 -1,-5 25,-10 38,-7 53,-6 71,6 17,11 31,12 55,6 20,-6 30,-6 27,0 -4,5 -15,9 -26,9 -10,0 -19,4 -19,10 0,5 -16,0 -36,-11 -48,-27 -71,-19 -48,16 9,14 14,25 11,25 -2,0 -12,-11 -21,-25 z" />
    <path
       id="path16432"
       d="m 3005,5413 c -31,-7 -40,-21 -11,-16 15,3 29,9 32,14 3,5 4,8 2,8 -2,-1 -12,-3 -23,-6 z" />
    <path
       id="path16434"
       d="m 4452,5360 c -6,-11 -12,-22 -12,-25 0,-11 20,6 30,26 14,25 -2,25 -18,-1 z" />
    <path
       id="path16436"
       d="m 2793,5313 c 4,-3 10,-3 14,0 3,4 0,7 -7,7 -7,0 -10,-3 -7,-7 z" />
    <path
       id="path16438"
       d="m 5183,5313 c 4,-3 10,-3 14,0 3,4 0,7 -7,7 -7,0 -10,-3 -7,-7 z" />
    <path
       id="path16440"
       d="m 3283,5273 c 4,-3 10,-3 14,0 3,4 0,7 -7,7 -7,0 -10,-3 -7,-7 z" />
    <path
       id="path16442"
       d="m 4688,5273 c 7,-3 16,-2 19,1 4,3 -2,6 -13,5 -11,0 -14,-3 -6,-6 z" />
    <path
       id="path16444"
       d="m 3176,5255 c -3,-8 -1,-15 4,-15 6,0 10,7 10,15 0,8 -2,15 -4,15 -2,0 -6,-7 -10,-15 z" />
    <path
       id="path16446"
       d="m 4793,5235 c -3,-9 -3,-18 -1,-21 3,-3 8,4 11,16 6,23 -1,27 -10,5 z" />
    <path
       id="path16448"
       d="m 3330,5230 c -7,-5 3,-9 26,-12 49,-6 53,-3 16,10 -16,5 -35,6 -42,2 z" />
    <path
       id="path16450"
       d="m 4610,5224 -35,-13 40,6 c 44,6 50,9 38,16 -4,2 -24,-2 -43,-9 z" />
    <path
       id="path16452"
       d="m 3083,5186 c 0,-7 22,-12 56,-12 31,-1 45,0 31,3 -14,2 -39,8 -56,12 -21,6 -31,5 -31,-3 z" />
    <path
       id="path16454"
       d="m 4888,5194 c -3,-3 -28,-9 -55,-14 -42,-7 -43,-8 -13,-8 31,-1 111,25 84,27 -6,1 -13,-2 -16,-5 z" />
    <path
       id="path16456"
       d="m 4755,5180 c -3,-5 -2,-10 4,-10 5,0 13,5 16,10 3,6 2,10 -4,10 -5,0 -13,-4 -16,-10 z" />
    <path
       id="path16458"
       d="m 4925,5160 c 3,-5 8,-10 11,-10 3,0 2,5 -1,10 -3,6 -8,10 -11,10 -3,0 -2,-4 1,-10 z" />
    <path
       id="path16460"
       d="m 5003,5103 c 4,-3 10,-3 14,0 3,4 0,7 -7,7 -7,0 -10,-3 -7,-7 z" />
    <path
       id="path16462"
       d="m 2860,5050 c 8,-5 26,-10 39,-10 32,0 24,6 -19,14 -25,4 -31,3 -20,-4 z" />
    <path
       id="path16464"
       d="m 3550,5031 c -12,-24 -13,-34 -1,-27 9,6 22,46 15,46 -2,0 -8,-9 -14,-19 z" />
    <path
       id="path16466"
       d="m 4582,5020 c 0,-14 2,-19 5,-12 2,6 2,18 0,25 -3,6 -5,1 -5,-13 z" />
    <path
       id="path16468"
       d="m 4940,5030 c 0,-7 3,-10 7,-7 3,4 3,10 0,14 -4,3 -7,0 -7,-7 z" />
    <path
       id="path16470"
       d="m 3034,5018 c -4,-7 -3,-8 4,-4 7,4 12,9 12,12 0,8 -9,4 -16,-8 z" />
    <path
       id="path16472"
       d="m 3401,5013 c -1,-27 11,-30 30,-5 13,15 12,16 -3,4 -14,-11 -17,-10 -21,5 -4,14 -5,13 -6,-4 z" />
    <path
       id="path16474"
       d="m 4430,5016 c 0,-8 5,-18 10,-21 6,-3 10,1 10,9 0,8 -4,18 -10,21 -5,3 -10,-1 -10,-9 z" />
    <path
       id="path16476"
       d="m 2928,5003 c 7,-3 16,-2 19,1 4,3 -2,6 -13,5 -11,0 -14,-3 -6,-6 z" />
    <path
       id="path16478"
       d="m 3346,4998 c 3,-4 9,-8 15,-8 5,0 9,4 9,8 0,5 -7,9 -15,9 -8,0 -12,-4 -9,-9 z" />
    <path
       id="path16480"
       d="m 4470,5006 c 0,-2 8,-10 18,-17 15,-13 16,-12 3,4 -13,16 -21,21 -21,13 z" />
    <path
       id="path16482"
       d="m 4620,4994 c 0,-8 5,-12 10,-9 6,4 8,11 5,16 -9,14 -15,11 -15,-7 z" />
    <path
       id="path16484"
       d="m 4975,5000 c 3,-5 8,-10 11,-10 3,0 2,5 -1,10 -3,6 -8,10 -11,10 -3,0 -2,-4 1,-10 z" />
    <path
       id="path16486"
       d="m 5038,5003 c 6,-2 18,-2 25,0 6,3 1,5 -13,5 -14,0 -19,-2 -12,-5 z" />
    <path
       id="path16488"
       d="m 3360,4955 c -7,-9 -10,-18 -7,-21 3,-3 10,4 17,15 13,25 8,27 -10,6 z" />
    <path
       id="path16490"
       d="m 3565,4960 c 3,-5 8,-10 11,-10 3,0 2,5 -1,10 -3,6 -8,10 -11,10 -3,0 -2,-4 1,-10 z" />
    <path
       id="path16492"
       d="m 4600,4966 c 0,-2 7,-9 15,-16 9,-7 15,-8 15,-2 0,5 -7,12 -15,16 -8,3 -15,4 -15,2 z" />
    <path
       id="path16494"
       d="m 2995,4920 c 3,-5 8,-10 11,-10 3,0 2,5 -1,10 -3,6 -8,10 -11,10 -3,0 -2,-4 1,-10 z" />
    <path
       id="path16496"
       d="m 4572,4905 c 0,-16 2,-22 5,-12 2,9 2,23 0,30 -3,6 -5,-1 -5,-18 z" />
    <path
       id="path16498"
       d="m 2919,4843 -24,-28 28,24 c 25,23 32,31 24,31 -2,0 -14,-12 -28,-27 z" />
    <path
       id="path16500"
       d="m 5008,4863 c 7,-3 16,-2 19,1 4,3 -2,6 -13,5 -11,0 -14,-3 -6,-6 z" />
    <path
       id="path16502"
       d="m 4562,4830 c 0,-14 2,-19 5,-12 2,6 2,18 0,25 -3,6 -5,1 -5,-13 z" />
    <path
       id="path16504"
       d="m 2964,4808 -19,-23 23,19 c 12,11 22,21 22,23 0,8 -8,2 -26,-19 z" />
    <path
       id="path16506"
       d="m 3595,4780 c -3,-5 -1,-10 4,-10 6,0 11,5 11,10 0,6 -2,10 -4,10 -3,0 -8,-4 -11,-10 z" />
    <path
       id="path16508"
       d="m 3726,4702 c -4,-18 -5,-36 -2,-39 3,-4 6,2 6,12 0,14 3,15 15,5 8,-7 12,-17 8,-23 -3,-6 -1,-7 6,-3 8,6 9,12 2,20 -6,7 -8,16 -4,19 3,4 1,7 -5,7 -6,0 -12,8 -14,18 -3,11 -7,5 -12,-16 z" />
    <path
       id="path16510"
       d="m 3817,4645 c 3,-33 7,-62 9,-64 7,-8 2,74 -6,99 -5,16 -6,2 -3,-35 z" />
    <path
       id="path16512"
       d="m 4230,4640 c 0,-7 3,-10 7,-7 3,4 3,10 0,14 -4,3 -7,0 -7,-7 z" />
    <path
       id="path16514"
       d="m 3030,4620 c -9,-6 -10,-10 -3,-10 6,0 15,5 18,10 8,12 4,12 -15,0 z" />
    <path
       id="path16516"
       d="m 3181,4587 c -8,-10 -7,-14 4,-14 8,0 15,6 15,14 0,7 -2,13 -4,13 -2,0 -9,-6 -15,-13 z" />
    <path
       id="path16518"
       d="m 4883,4578 c 9,-7 23,-22 31,-33 13,-17 14,-18 12,-3 -2,18 -33,47 -50,48 -6,0 -2,-6 7,-12 z" />
    <path
       id="path16520"
       d="m 3091,4534 c 0,-11 3,-14 6,-6 3,7 2,16 -1,19 -3,4 -6,-2 -5,-13 z" />
    <path
       id="path16522"
       d="m 4945,4540 c 3,-5 8,-10 11,-10 3,0 2,5 -1,10 -3,6 -8,10 -11,10 -3,0 -2,-4 1,-10 z" />
    <path
       id="path16524"
       d="m 3280,4473 c -46,-16 -93,-47 -85,-55 3,-3 -2,-22 -10,-43 -9,-20 -14,-39 -11,-42 3,-3 8,8 13,23 l 7,29 7,-30 8,-30 -1,30 c -1,45 18,84 47,95 38,14 44,13 39,-12 -4,-20 -3,-20 6,2 6,14 18,31 27,38 22,16 9,14 -47,-5 z" />
    <path
       id="path16526"
       d="m 3113,4453 c 4,-3 10,-3 14,0 3,4 0,7 -7,7 -7,0 -10,-3 -7,-7 z" />
    <path
       id="path16528"
       d="m 3702,4415 c 12,-24 23,-43 26,-41 4,5 -36,86 -43,86 -3,0 5,-20 17,-45 z" />
    <path
       id="path16530"
       d="m 4690,4420 c 0,-7 3,-10 7,-7 3,4 3,10 0,14 -4,3 -7,0 -7,-7 z" />
    <path
       id="path16532"
       d="m 4256,4375 c -9,-26 -7,-32 5,-12 6,10 9,21 6,23 -2,3 -7,-2 -11,-11 z" />
    <path
       id="path16534"
       d="m 3375,4341 c -3,-12 -13,-21 -20,-21 -8,0 -17,-5 -21,-12 -5,-7 -3,-8 6,-3 9,6 10,1 5,-16 -3,-14 5,-5 20,19 15,24 25,46 22,48 -3,3 -8,-4 -12,-15 z" />
    <path
       id="path16536"
       d="m 3730,4350 c 0,-7 3,-10 7,-7 3,4 3,10 0,14 -4,3 -7,0 -7,-7 z" />
    <path
       id="path16538"
       d="m 4332,4315 c -17,-37 -14,-45 4,-12 9,16 14,31 11,33 -2,2 -9,-7 -15,-21 z" />
    <path
       id="path16540"
       d="m 3162,4300 c 0,-14 2,-19 5,-12 2,6 2,18 0,25 -3,6 -5,1 -5,-13 z" />
    <path
       id="path16542"
       d="m 3597,4313 c -4,-3 -7,-25 -7,-49 0,-36 -5,-46 -42,-80 -24,-21 -55,-59 -71,-84 -17,-29 -19,-34 -5,-15 36,47 95,105 107,105 6,0 12,-10 13,-22 1,-13 4,15 8,62 6,93 6,93 -3,83 z" />
    <path
       id="path16544"
       d="m 4657,4299 c 7,-7 15,-10 18,-7 3,3 -2,9 -12,12 -14,6 -15,5 -6,-5 z" />
    <path
       id="path16546"
       d="m 3279,4279 -24,-20 30,17 c 39,24 40,24 28,24 -6,0 -21,-9 -34,-21 z" />
    <path
       id="path16548"
       d="m 4691,4287 c 2,-1 15,-11 29,-22 l 25,-20 -19,23 c -11,12 -24,22 -29,22 -6,0 -8,-1 -6,-3 z" />
    <path
       id="path16550"
       d="m 3330,4250 c 0,-7 3,-10 7,-7 3,4 3,10 0,14 -4,3 -7,0 -7,-7 z" />
    <path
       id="path16552"
       d="m 4481,4244 c 0,-11 3,-14 6,-6 3,7 2,16 -1,19 -3,4 -6,-2 -5,-13 z" />
    <path
       id="path16554"
       d="m 4651,4240 c 0,-8 4,-24 9,-35 5,-13 9,-14 9,-5 0,8 -4,24 -9,35 -5,13 -9,14 -9,5 z" />
    <path
       id="path16556"
       d="m 3316,4204 c -4,-14 -5,-28 -3,-31 3,-2 8,8 11,23 4,14 5,28 3,31 -3,2 -8,-8 -11,-23 z" />
    <path
       id="path16558"
       d="m 4590,4200 c 0,-7 3,-10 7,-7 3,4 3,10 0,14 -4,3 -7,0 -7,-7 z" />
    <path
       id="path16560"
       d="m 4670,4170 c 0,-7 3,-10 7,-7 3,4 3,10 0,14 -4,3 -7,0 -7,-7 z" />
    <path
       id="path16562"
       d="m 4390,4144 c 0,-15 -9,-43 -21,-63 l -21,-36 26,30 c 16,19 26,42 26,63 0,17 -2,32 -5,32 -3,0 -5,-12 -5,-26 z" />
    <path
       id="path16564"
       d="m 3590,4114 c 0,-7 9,-22 21,-35 16,-19 18,-20 10,-4 -17,34 -31,51 -31,39 z" />
    <path
       id="path16566"
       d="m 4500,4101 c 5,-11 15,-23 21,-27 6,-3 3,5 -6,20 -20,30 -30,35 -15,7 z" />
    <path
       id="path16568"
       d="m 7812,2772 c -41,-7 -100,-109 -85,-148 8,-21 19,-17 32,14 7,15 30,46 51,70 38,43 39,43 72,29 43,-19 65,-44 88,-103 23,-61 46,-66 42,-9 -3,41 -38,111 -68,136 -16,13 -85,20 -132,11 z" />
    <path
       id="path16572"
       d="m 4111,8785 c -228,-64 -368,-272 -347,-513 26,-288 267,-476 586,-459 95,5 184,21 208,36 11,6 48,209 39,216 -1,2 -11,5 -22,9 -18,5 -23,-1 -34,-39 -58,-195 -342,-235 -518,-72 -107,99 -153,303 -107,481 44,171 178,291 340,304 124,10 206,-34 280,-149 31,-48 51,-69 62,-67 24,5 19,39 -20,143 l -33,90 -55,13 c -88,21 -314,25 -379,7 z" />
    <path
       id="path16574"
       d="m 13075,7403 c -179,-14 -241,-25 -390,-68 -64,-18 -71,-21 -205,-79 -291,-125 -576,-383 -750,-675 -165,-277 -247,-636 -221,-963 11,-131 54,-348 93,-468 82,-255 360,-603 625,-782 93,-62 236,-138 338,-178 44,-18 82,-34 84,-36 2,-2 -233,-4 -523,-4 -349,0 -525,3 -521,10 3,6 15,10 26,10 23,0 25,16 2,24 -9,4 -71,2 -137,-4 -121,-10 -356,-25 -909,-59 -164,-10 -300,-21 -303,-23 -2,-3 82,-10 188,-17 106,-6 288,-18 403,-26 358,-24 566,-36 670,-38 90,-2 100,0 99,16 -2,16 41,17 772,17 425,0 775,4 778,9 3,4 49,11 103,15 575,40 1101,396 1361,921 66,132 107,251 139,404 24,112 27,148 27,326 0,165 -3,219 -21,312 -65,334 -220,628 -457,867 -284,287 -636,449 -1052,485 -117,11 -138,11 -219,4 z m 32,-104 c 12,-25 15,-26 90,-21 46,2 97,12 123,24 34,14 56,18 90,13 53,-8 41,-17 -43,-35 -33,-6 -67,-20 -78,-31 -10,-10 -23,-19 -29,-19 -5,0 -10,-6 -10,-13 0,-7 35,-22 83,-35 45,-13 133,-39 196,-59 l 114,-37 23,28 c 18,21 24,39 24,77 0,51 7,57 41,39 17,-10 18,-13 4,-34 -21,-31 -31,-121 -17,-149 33,-68 62,-137 62,-146 0,-6 5,-11 11,-11 9,0 10,23 5,80 -7,81 8,205 25,215 10,7 114,-48 221,-117 64,-41 77,-54 74,-71 -3,-12 -7,-49 -11,-82 -6,-60 -21,-135 -55,-275 -24,-96 -14,-168 28,-214 15,-17 43,-51 60,-76 18,-25 53,-73 78,-108 52,-73 64,-98 94,-202 20,-71 21,-78 6,-119 -9,-24 -16,-70 -16,-103 0,-79 -23,-126 -69,-145 -74,-30 -160,-75 -200,-103 -22,-17 -51,-30 -62,-30 -13,0 -45,-22 -74,-50 -29,-27 -66,-52 -81,-55 -16,-4 -38,-10 -49,-15 -11,-5 -78,-11 -150,-14 -114,-5 -138,-9 -199,-35 -95,-40 -120,-73 -118,-157 0,-53 7,-79 40,-147 22,-45 42,-95 46,-110 4,-16 16,-31 30,-37 42,-15 69,-75 70,-149 1,-58 -2,-67 -20,-75 -18,-8 -22,-21 -28,-85 -15,-183 -15,-182 -65,-234 -25,-26 -71,-59 -101,-74 -47,-22 -67,-26 -139,-25 -109,2 -201,33 -237,80 -14,17 -32,32 -40,32 -41,0 -124,99 -124,149 0,12 -7,35 -15,51 -20,38 -32,175 -16,184 6,4 11,21 11,38 0,18 11,45 25,64 26,34 32,68 15,79 -17,11 -12,90 8,107 24,22 54,29 72,18 12,-7 12,-12 -4,-29 -11,-12 -15,-27 -12,-39 13,-39 32,-31 65,26 44,77 54,178 23,238 -11,22 -26,45 -34,51 -21,16 -108,41 -170,47 -133,14 -296,78 -371,145 -24,21 -53,63 -70,101 l -31,65 -1,300 c -1,165 -5,323 -9,350 -17,113 -39,225 -61,310 -13,50 -29,133 -35,185 l -12,95 43,38 c 44,38 225,162 251,172 22,8 49,-116 59,-265 15,-234 49,-434 90,-537 l 12,-28 8,30 c 5,17 15,44 23,60 59,123 60,269 1,449 -19,60 -35,130 -35,155 0,53 -23,145 -41,167 -8,10 -9,18 -2,25 18,18 197,77 318,104 114,25 158,28 198,10 12,-5 17,-3 17,10 0,26 43,14 57,-16 z M 11623,4053 c -7,-2 -21,-2 -30,0 -10,3 -4,5 12,5 17,0 24,-2 18,-5 z" />
    <path
       id="path16576"
       d="m 13165,7179 c 4,-11 1,-42 -6,-69 -17,-65 0,-157 42,-237 29,-53 31,-64 26,-129 -3,-39 -14,-93 -26,-120 -56,-134 -63,-238 -26,-359 22,-72 19,-183 -6,-257 -22,-65 -44,-101 -147,-238 -35,-47 -67,-92 -70,-100 -3,-8 -14,-26 -24,-39 -20,-26 -58,-141 -58,-175 0,-12 15,9 36,52 40,83 86,123 167,147 71,21 112,19 155,-9 57,-35 92,-99 124,-221 6,-22 12,-41 13,-43 1,-1 26,10 56,25 47,24 68,28 167,31 l 113,4 -4,267 c -4,268 -21,498 -38,516 -5,5 -9,41 -9,80 0,66 -27,214 -65,364 -19,71 -17,101 15,249 12,56 20,108 17,115 -4,11 -57,29 -287,100 -19,5 -66,23 -103,38 -64,27 -68,27 -62,8 z" />
    <path
       id="path16578"
       d="m 13814,6613 c -11,-63 -74,-292 -95,-345 -18,-46 -19,-60 -9,-157 6,-58 15,-135 20,-171 6,-37 7,-145 3,-251 -5,-176 0,-275 15,-252 4,6 25,16 46,24 22,8 58,32 81,55 39,38 43,47 59,133 13,68 18,168 21,394 4,304 9,372 27,394 21,26 -29,103 -110,171 l -51,43 z m 72,-94 c 3,-6 2,-21 -4,-32 -17,-38 -29,-138 -32,-256 -1,-63 -6,-125 -11,-138 -13,-35 -10,-104 6,-133 l 14,-25 v 35 c 1,87 16,175 30,175 18,0 27,-131 10,-151 -6,-8 -8,-14 -4,-14 4,0 3,-6 -2,-12 -7,-8 -8,-65 -4,-153 9,-178 -2,-197 -44,-75 -10,30 -31,73 -46,95 -27,39 -28,45 -23,136 2,52 5,126 6,166 1,55 4,70 15,66 16,-6 17,19 1,62 -9,28 -8,39 10,77 12,24 22,59 22,77 0,74 34,135 56,100 z" />
    <path
       id="path16580"
       d="m 13050,5614 c -54,-23 -89,-62 -126,-139 -41,-83 -42,-109 -9,-171 20,-37 25,-62 25,-116 v -70 l 48,37 c 26,20 66,45 90,56 l 43,21 72,-43 c 40,-23 75,-43 78,-45 3,-2 4,18 1,45 -5,56 11,116 40,148 19,21 19,24 4,94 -22,92 -41,137 -73,172 -24,24 -34,27 -92,27 -36,-1 -82,-8 -101,-16 z m 93,-187 c 21,-8 51,-73 43,-93 -9,-22 -26,-16 -26,9 0,13 -11,34 -25,47 -24,23 -25,23 -45,5 -11,-10 -22,-26 -25,-36 -4,-11 -11,-19 -16,-19 -15,0 -10,44 7,68 17,25 56,44 64,33 3,-4 13,-10 23,-14 z" />
    <path
       id="path16582"
       d="m 13075,5188 c -99,-52 -205,-181 -205,-250 0,-16 -10,-52 -21,-79 -19,-42 -20,-54 -9,-73 6,-13 9,-33 6,-44 -5,-14 0,-26 19,-40 14,-11 25,-26 25,-32 0,-10 18,-11 73,-6 58,5 75,11 89,29 10,12 18,28 18,35 0,6 5,12 10,12 13,0 13,-33 0,-46 -7,-7 -4,-24 7,-52 22,-56 51,-57 74,-3 15,35 19,38 50,35 l 34,-3 -27,11 c -38,16 -39,58 -1,76 47,21 90,15 124,-18 27,-25 30,-32 19,-45 -7,-8 -31,-18 -54,-22 -36,-6 -38,-7 -16,-13 14,-4 40,-5 58,-2 40,6 40,-3 1,-44 -31,-32 -31,-32 -10,-44 19,-10 23,-8 35,22 8,18 17,54 21,79 10,65 20,79 39,54 14,-19 15,-19 21,-2 12,28 -4,120 -25,147 l -20,25 v -23 c 0,-17 -5,-23 -17,-20 -14,3 -19,17 -24,68 -11,112 -52,180 -131,221 -20,10 -53,30 -74,44 -44,30 -39,29 -89,3 z m 52,-115 c -4,-3 -10,-3 -14,0 -3,4 0,7 7,7 7,0 10,-3 7,-7 z m 8,-47 c 0,-15 -65,-28 -102,-21 -44,8 -42,23 5,28 56,6 97,3 97,-7 z m 65,-6 c 13,-9 13,-10 0,-10 -8,0 -22,5 -30,10 -13,9 -13,10 0,10 8,0 22,-5 30,-10 z m -62,-106 c 33,-16 41,-37 20,-50 -8,-5 -9,-2 -5,9 8,22 -27,41 -61,33 -26,-6 -26,-6 -8,9 24,18 17,18 54,-1 z m -75,-36 c 3,-13 9,-48 12,-78 l 7,-55 -21,40 c -12,21 -21,56 -21,77 0,42 15,51 23,16 z m -39,-101 c 12,-9 17,-23 14,-42 -3,-25 -9,-30 -43,-38 -47,-10 -113,6 -122,30 -4,9 5,24 23,39 33,26 99,32 128,11 z" />
    <path
       id="path16584"
       d="m 12901,4746 c -9,-11 -7,-15 9,-19 15,-4 20,0 20,14 0,22 -13,25 -29,5 z" />
    <path
       id="path16586"
       d="m 12993,4753 c 4,-3 10,-3 14,0 3,4 0,7 -7,7 -7,0 -10,-3 -7,-7 z" />
    <path
       id="path16588"
       d="m 13238,4743 c -21,-5 -23,-14 -6,-31 20,-20 38,-14 38,13 0,25 -1,26 -32,18 z" />
    <path
       id="path16590"
       d="m 13303,4723 c 4,-3 10,-3 14,0 3,4 0,7 -7,7 -7,0 -10,-3 -7,-7 z" />
    <path
       id="path16592"
       d="m 13022,4601 c -10,-6 -8,-9 10,-13 31,-5 60,1 53,13 -8,11 -45,12 -63,0 z" />
    <path
       id="path16594"
       d="m 13283,4603 c 4,-3 10,-3 14,0 3,4 0,7 -7,7 -7,0 -10,-3 -7,-7 z" />
    <path
       id="path16596"
       d="m 10577,5503 c -4,-3 -7,-14 -7,-24 0,-13 12,-18 55,-24 42,-5 59,-12 75,-32 19,-25 20,-40 20,-420 v -394 l -25,-24 c -13,-14 -35,-25 -49,-25 -37,0 -56,-10 -56,-31 0,-18 13,-19 339,-19 h 338 l 6,108 c 3,59 4,108 4,108 -1,1 -12,4 -23,8 -19,6 -23,2 -28,-28 -4,-19 -18,-55 -32,-80 -22,-40 -30,-46 -75,-55 -27,-6 -99,-11 -159,-11 -98,0 -110,2 -120,19 -6,12 -10,95 -10,200 v 181 h 123 c 148,0 166,-7 187,-73 12,-38 19,-47 38,-47 22,0 22,1 22,145 v 145 h -23 c -19,0 -26,-8 -36,-40 -19,-63 -37,-70 -183,-70 h -128 l 1,143 c 0,184 9,234 43,264 25,21 36,23 152,23 172,0 211,-21 264,-144 14,-33 25,-46 40,-46 26,0 25,25 -3,150 l -22,95 -361,3 c -198,1 -363,-1 -367,-5 z" />
    <path
       id="path16598"
       d="m 2535,3679 c -570,-60 -1062,-397 -1315,-903 -76,-150 -117,-266 -152,-427 -19,-90 -22,-134 -22,-324 -1,-224 10,-317 50,-444 44,-140 61,-185 104,-276 103,-215 262,-416 455,-574 580,-476 1431,-495 2032,-45 340,255 558,597 645,1012 19,91 23,138 23,317 0,116 -3,224 -7,242 l -7,32 772,3 c 425,2 776,0 782,-4 5,-5 -3,-8 -18,-8 -31,0 -36,-16 -8,-25 11,-3 77,-1 148,4 70,6 216,15 323,21 107,6 285,18 395,25 110,8 260,17 333,21 72,4 132,10 132,14 0,3 -91,12 -202,19 -112,6 -266,16 -343,21 -77,5 -252,17 -390,25 -137,8 -275,17 -306,19 -62,4 -109,-2 -109,-15 0,-4 12,-10 28,-12 15,-2 -330,-5 -765,-6 -703,-1 -793,1 -793,14 0,38 -78,251 -131,360 -155,313 -431,591 -744,748 -275,137 -607,198 -910,166 z m 373,-214 c 42,-9 90,-21 105,-27 26,-10 27,-13 22,-57 -4,-29 -46,-127 -115,-266 -60,-121 -116,-245 -126,-275 -9,-30 -26,-73 -37,-95 -11,-21 -28,-64 -39,-95 -10,-30 -30,-72 -43,-92 -31,-46 -31,-79 -3,-171 23,-77 30,-92 71,-153 28,-42 47,-114 30,-114 -13,0 -46,37 -69,78 -24,42 -39,42 -28,0 28,-110 -15,-242 -101,-308 -28,-22 -55,-40 -58,-40 -3,0 -30,-14 -59,-31 -47,-28 -58,-31 -107,-25 -61,7 -244,90 -275,125 -25,28 -16,55 41,121 42,48 44,52 15,32 -26,-19 -58,-55 -89,-101 -1,-2 -9,1 -16,8 -11,8 -18,6 -32,-9 -10,-11 -28,-20 -40,-20 -45,0 -55,46 -21,95 16,23 22,50 26,132 5,96 8,104 35,134 17,17 42,37 56,44 26,14 166,36 249,40 103,5 127,14 174,67 54,62 74,117 96,268 21,135 19,143 -59,245 -28,37 -59,81 -67,98 -9,18 -23,39 -30,48 -8,8 -23,41 -34,73 -23,67 -18,87 37,155 85,103 301,154 491,116 z m 291,-175 c 28,0 113,-51 257,-153 92,-65 244,-219 274,-277 11,-21 25,-42 31,-46 18,-11 49,-87 49,-122 0,-26 -9,-43 -42,-77 -24,-24 -59,-64 -78,-90 -19,-26 -56,-74 -82,-108 -26,-34 -48,-66 -48,-72 0,-5 -16,-35 -36,-65 -82,-129 -101,-300 -51,-440 16,-41 39,-93 52,-115 98,-162 135,-287 135,-453 0,-78 -25,-244 -45,-297 C 3560,829 3478,719 3382,662 3212,562 3163,546 2895,505 c -176,-28 -371,-13 -499,36 -215,84 -323,180 -420,373 -56,114 -57,118 -45,263 7,72 9,143 5,157 -3,14 -24,46 -46,71 -22,26 -50,65 -61,86 -11,22 -35,60 -54,85 -42,55 -47,104 -13,128 12,9 29,16 38,16 9,0 30,13 48,30 32,29 33,32 28,94 -5,69 0,78 44,89 16,4 31,0 43,-10 17,-16 18,-16 24,5 9,35 37,27 52,-15 19,-54 64,-97 135,-129 54,-24 73,-27 176,-28 151,-1 188,5 248,42 71,44 97,86 119,196 12,59 33,58 33,-1 0,-45 -32,-161 -58,-210 -16,-29 -112,-90 -178,-114 -52,-18 -73,-20 -179,-14 -125,7 -336,35 -416,55 -49,12 -71,7 -103,-26 -24,-24 -10,-61 51,-133 30,-35 62,-80 72,-100 21,-40 104,-114 160,-143 40,-20 105,-23 199,-8 95,16 244,118 354,243 56,62 66,80 77,132 7,33 21,89 31,125 51,174 58,262 40,530 -7,110 -6,142 6,175 27,72 52,148 90,275 20,69 41,127 45,130 5,3 24,48 42,100 43,119 113,256 141,275 11,9 27,13 34,10 8,-3 26,-5 41,-5 z" />
    <path
       id="path16600"
       d="m 5036,3611 c -12,-19 3,-30 50,-37 24,-3 55,-14 67,-24 l 22,-18 v -407 -407 l -23,-18 c -12,-10 -40,-21 -62,-25 -31,-5 -40,-11 -40,-27 0,-19 6,-19 263,-16 281,3 308,8 366,61 59,54 79,172 42,252 -21,48 -76,98 -125,116 -46,17 -45,25 1,34 92,17 182,89 202,162 40,143 -37,268 -204,334 -56,21 -77,23 -306,27 -171,3 -249,0 -253,-7 z m 482,-56 c 100,-30 152,-100 152,-207 -1,-151 -81,-217 -277,-226 l -103,-5 v 189 c 0,203 5,229 50,251 34,17 116,16 178,-2 z m 2,-518 c 75,-37 109,-110 96,-201 -15,-101 -90,-156 -211,-156 -117,0 -115,-3 -115,212 v 181 l 93,-7 c 64,-5 106,-13 137,-29 z" />
    <path
       id="path16602"
       d="m 12810,3581 c -149,-25 -188,-34 -285,-70 -209,-77 -325,-139 -454,-242 -286,-230 -464,-474 -569,-780 -59,-171 -92,-349 -92,-491 v -58 l -777,1 c -428,1 -766,4 -750,6 29,5 36,20 12,29 -13,5 -170,-3 -665,-36 -80,-5 -265,-17 -412,-27 -147,-9 -265,-20 -262,-25 3,-4 34,-8 70,-8 35,0 156,-6 267,-14 111,-8 288,-20 392,-26 105,-6 281,-18 392,-26 110,-8 208,-11 217,-8 23,9 20,23 -6,28 -13,3 -32,7 -43,9 -11,3 336,5 770,6 l 791,1 17,-129 c 45,-331 163,-597 380,-858 82,-98 222,-227 315,-289 32,-20 69,-45 84,-56 43,-29 216,-112 293,-141 346,-129 750,-135 1110,-15 98,32 297,128 373,179 345,234 588,565 695,949 74,265 77,607 7,872 -163,619 -678,1097 -1308,1214 -137,25 -421,28 -562,5 z M 14200,1990 V 950 h -324 -324 l -7,-49 c -4,-28 -12,-54 -18,-59 -43,-34 -392,-32 -719,3 -39,5 -48,3 -48,-10 0,-19 -24,-20 -40,0 -6,8 -17,36 -24,62 l -12,48 -332,3 -332,2 v 1040 1040 h 1090 1090 z" />
    <path
       id="path16604"
       d="m 12625,2830 c -22,-5 -95,-9 -163,-9 -119,-1 -124,-2 -149,-27 l -26,-26 8,-237 c 17,-458 13,-643 -19,-866 -17,-122 -30,-266 -33,-370 l -6,-171 89,-12 c 341,-48 359,-50 375,-36 12,11 28,11 80,3 87,-14 248,-14 334,1 39,6 149,14 245,16 96,3 231,9 300,14 69,4 169,6 224,2 l 98,-5 -7,24 c -4,13 -16,41 -27,62 -37,73 -77,203 -87,282 -6,44 -15,106 -19,139 -9,60 -4,142 23,371 9,72 20,180 25,240 5,61 12,121 15,134 l 6,24 -138,-6 c -76,-4 -178,-2 -228,3 -62,7 -176,6 -365,-2 -266,-11 -281,-10 -448,12 -200,27 -233,47 -54,35 64,-5 369,-9 677,-8 l 560,1 7,49 c 13,91 38,298 38,313 0,13 -17,16 -97,16 -54,0 -154,6 -223,12 -90,8 -134,8 -159,0 -21,-6 -61,-8 -105,-3 -208,20 -695,37 -751,25 z m 870,-218 c 168,-6 200,-9 200,-22 0,-17 42,-17 -610,-6 -459,7 -495,9 -495,26 0,18 377,19 905,2 z m 313,-329 c -3,-17 -31,-18 -358,-24 -195,-3 -401,-11 -458,-18 -67,-9 -148,-11 -230,-6 -70,3 -153,7 -185,8 -31,1 -57,5 -57,8 0,3 11,11 24,19 20,10 42,10 119,0 91,-12 238,-6 492,20 39,4 202,8 363,9 275,1 293,0 290,-16 z m -115,-129 c 15,-3 27,-11 27,-17 0,-9 -60,-13 -218,-15 -119,-1 -248,-7 -285,-12 -37,-6 -214,-14 -393,-20 -179,-5 -329,-12 -334,-15 -14,-9 -21,12 -7,22 12,10 257,26 572,39 83,3 173,9 200,13 62,8 400,12 438,5 z m -483,-443 c 16,-31 12,-59 -10,-66 -23,-7 -27,-35 -5,-35 8,0 15,-7 15,-16 0,-11 -8,-14 -32,-12 -31,3 -33,6 -36,46 -3,36 0,44 20,51 23,10 22,10 -4,10 -26,1 -37,19 -21,34 14,15 63,7 73,-12 z m -342,-25 c -11,-8 -18,-26 -18,-48 0,-42 -23,-67 -48,-52 -27,17 -27,36 -1,32 19,-2 23,1 21,17 -2,11 -10,27 -18,36 -23,26 -16,38 24,41 45,4 64,-8 40,-26 z m 432,19 c 15,-18 6,-45 -15,-45 -18,0 -20,-21 -3,-38 9,-9 9,-15 -1,-24 -10,-11 -16,-8 -32,11 -26,32 -25,76 3,95 28,20 32,20 48,1 z m 91,-32 c 25,-60 20,-73 -31,-73 -43,0 -52,13 -21,30 16,8 18,17 14,50 -8,56 13,52 38,-7 z m 384,17 c 20,-39 19,-63 -6,-86 -30,-27 -53,-8 -57,45 -5,70 35,96 63,41 z m -805,10 c 14,-7 19,-21 18,-50 0,-42 -17,-64 -44,-58 -22,4 -31,28 -10,28 10,0 13,6 9,16 -3,9 0,20 8,25 11,6 8,9 -8,9 -22,0 -31,19 -16,33 9,10 21,9 43,-3 z m 115,-8 c 0,-6 5,-16 11,-22 14,-14 -14,-90 -32,-90 -16,0 -56,60 -50,76 3,8 15,14 27,14 14,0 19,5 16,14 -3,8 -3,17 1,20 9,9 27,1 27,-12 z m 445,3 c 7,-9 9,-22 4,-37 -5,-13 -9,-31 -9,-42 0,-27 -30,-44 -52,-30 -18,11 -30,82 -19,110 7,18 60,18 76,-1 z m 160,-51 c 0,-41 -4,-54 -15,-54 -11,0 -15,13 -15,53 0,30 3,57 6,60 15,15 24,-8 24,-59 z m -1062,30 c 25,-18 30,-65 8,-83 -8,-7 -27,-11 -43,-9 -38,4 -53,46 -29,82 19,30 33,32 64,10 z m 92,-18 c 0,-39 -8,-66 -20,-66 -14,0 -21,32 -14,66 8,46 34,45 34,0 z m 890,-20 c 0,-60 -19,-88 -48,-69 -26,16 -28,53 -3,60 15,4 21,13 21,34 0,19 5,29 15,29 11,0 15,-13 15,-54 z m -1095,-16 c 0,-8 -8,-16 -17,-18 -13,-2 -18,3 -18,18 0,15 5,20 18,18 9,-2 17,-10 17,-18 z m -5,-104 c 18,-22 9,-60 -16,-64 -31,-4 -47,20 -34,52 11,29 31,34 50,12 z m 80,-5 c 0,-10 7,-21 15,-25 20,-7 19,-24 -2,-29 -11,-3 -7,-5 10,-6 17,-1 27,-7 27,-17 0,-12 -9,-14 -37,-12 l -38,3 -3,53 c -2,42 0,52 12,52 9,0 16,-8 16,-19 z m 708,-7 c 24,-16 29,-43 11,-61 -6,-6 -17,-22 -23,-35 -16,-31 -61,-36 -76,-8 -21,40 11,120 49,120 9,0 27,-7 39,-16 z m -398,-39 c 0,-53 -23,-72 -47,-39 -13,18 -15,18 -24,2 -20,-35 -39,-21 -39,27 0,25 5,45 10,45 6,0 10,-5 10,-11 0,-6 7,-8 16,-5 9,4 22,2 29,-4 9,-8 14,-5 18,10 10,37 27,21 27,-25 z m 218,15 4,-24 18,23 c 23,31 40,19 40,-29 0,-42 -13,-58 -34,-41 -10,8 -16,7 -25,-3 -21,-25 -41,-7 -41,34 0,47 9,72 24,67 6,-2 13,-14 14,-27 z m -363,-15 c 0,-23 -5,-30 -19,-30 -24,0 -41,27 -33,49 4,11 15,16 29,14 18,-2 23,-9 23,-33 z m 273,13 c 15,-15 16,-45 2,-53 -15,-9 -47,4 -54,22 -12,31 28,55 52,31 z m -568,-130 c 0,-7 -12,-25 -27,-40 -25,-27 -26,-30 -14,-64 10,-28 10,-39 1,-47 -9,-9 -16,-6 -30,11 -11,13 -24,21 -30,17 -6,-4 -18,-4 -27,-1 -14,6 -14,8 1,25 13,14 16,28 11,55 -6,29 -4,36 8,36 9,0 20,-7 25,-15 7,-13 12,-12 32,10 25,26 50,33 50,13 z m 250,2 c 53,-9 166,-19 455,-40 77,-6 212,-12 300,-13 151,-3 160,-4 160,-23 0,-18 -8,-19 -160,-19 -209,1 -469,19 -800,56 -135,15 -145,17 -145,34 0,12 14,15 68,14 37,0 92,-4 122,-9 z" />
    <path
       id="path16606"
       d="m 13740,1665 c 0,-8 4,-15 10,-15 5,0 7,7 4,15 -4,8 -8,15 -10,15 -2,0 -4,-7 -4,-15 z" />
    <path
       id="path16608"
       d="m 13480,1670 c 0,-5 5,-10 10,-10 6,0 10,5 10,10 0,6 -4,10 -10,10 -5,0 -10,-4 -10,-10 z" />
    <path
       id="path16610"
       d="m 12590,1630 c 0,-11 5,-20 10,-20 6,0 10,9 10,20 0,11 -4,20 -10,20 -5,0 -10,-9 -10,-20 z" />
    <path
       id="path16612"
       d="m 13250,1476 c 0,-9 7,-16 16,-16 9,0 14,5 12,12 -6,18 -28,21 -28,4 z" />
    <path
       id="path16614"
       d="m 12263,2080 c 0,-25 2,-35 4,-22 2,12 2,32 0,45 -2,12 -4,2 -4,-23 z" />
    <path
       id="path16616"
       d="m 13180,1036 c -63,-5 -184,-9 -267,-8 l -153,3 v -40 c 0,-22 -4,-43 -10,-46 -5,-3 -10,-17 -10,-31 0,-27 -11,-25 150,-30 58,-1 143,-7 190,-13 113,-15 319,-14 375,1 l 45,12 v 61 c 0,39 -6,69 -16,83 -14,20 -23,22 -102,21 -48,-1 -139,-7 -202,-13 z" />
    <path
       id="path16618"
       d="m 4742,2158 c 2,-16 14,-24 48,-32 70,-17 56,11 326,-680 51,-132 99,-243 106,-248 28,-17 37,-4 78,110 23,64 50,140 61,167 10,28 61,169 114,315 52,146 103,276 113,290 21,28 53,46 95,55 18,4 27,12 27,25 0,19 -7,20 -180,20 -170,0 -180,-1 -180,-19 0,-20 18,-31 54,-31 27,0 46,-18 46,-43 0,-10 -19,-72 -42,-138 l -42,-119 h -167 -167 l -41,125 c -46,137 -45,159 7,171 56,12 62,16 62,35 0,18 -9,19 -161,19 -159,0 -160,0 -157,-22 z m 598,-402 c 0,-8 -130,-379 -134,-383 -3,-4 -22,44 -101,262 -18,50 -36,98 -40,108 -7,16 4,17 134,17 78,0 141,-2 141,-4 z" />
    <path
       id="path16620"
       d="m 7878,2063 c 6,-2 18,-2 25,0 6,3 1,5 -13,5 -14,0 -19,-2 -12,-5 z" />
    <path
       id="path16622"
       d="m 7735,1968 c -90,-15 -95,-18 -55,-36 30,-13 49,-13 130,-3 52,7 122,16 155,19 l 60,7 -78,13 c -87,13 -125,13 -212,0 z" />
    <path
       id="path16624"
       d="m 7825,1742 c -16,-9 -41,-17 -55,-17 -23,0 -25,-4 -33,-65 -9,-78 -2,-124 25,-168 11,-18 24,-45 29,-60 8,-26 8,-13 -5,143 -1,22 -11,55 -20,73 -18,36 -9,62 21,62 8,0 28,8 43,17 27,15 31,16 62,0 18,-8 41,-18 51,-21 20,-6 23,-36 5,-55 -11,-10 -9,-12 7,-9 15,2 20,11 20,38 0,30 -4,35 -34,43 -19,5 -44,15 -55,23 -25,17 -24,17 -61,-4 z" />
    <path
       id="path16626"
       d="m 10220,1701 c 0,-15 10,-20 49,-26 65,-9 81,-22 92,-76 4,-24 8,-192 8,-374 0,-181 -4,-350 -8,-374 -11,-53 -26,-67 -87,-76 -35,-5 -44,-10 -42,-23 3,-15 30,-17 303,-17 327,0 360,5 468,63 163,88 240,298 193,523 -42,198 -200,341 -425,383 -61,12 -145,16 -317,16 -223,0 -234,-1 -234,-19 z m 502,-41 c 161,-23 268,-109 328,-265 20,-50 24,-79 24,-180 1,-121 -2,-137 -46,-233 -63,-135 -223,-210 -430,-200 -126,5 -118,-22 -118,414 0,381 3,409 44,443 15,13 68,26 116,30 8,0 45,-4 82,-9 z" />
    <path
       id="path16628"
       d="m 7486,1480 c -74,-58 -104,-90 -84,-90 9,0 20,5 23,10 9,14 163,12 205,-3 52,-18 60,-26 60,-53 0,-14 4,-22 10,-19 6,3 10,22 10,41 0,29 -5,36 -32,48 -55,23 -103,36 -131,36 -39,0 -33,18 13,39 22,10 37,21 33,24 -16,17 -62,2 -107,-33 z" />
    <path
       id="path16630"
       d="m 8104,1460 c -40,-15 -74,-68 -74,-115 0,-24 5,-47 10,-50 6,-3 10,5 10,19 0,36 21,43 138,49 107,4 119,8 107,28 -6,8 -37,10 -119,5 l -111,-6 38,34 c 39,35 39,50 1,36 z" />
    <path
       id="path16632"
       d="m 7800,1372 c 0,-9 -11,-34 -25,-55 -23,-33 -24,-38 -9,-44 26,-10 54,32 54,78 0,21 -4,39 -10,39 -5,0 -10,-8 -10,-18 z" />
  </g>
</svg>
