<?xml version="1.0" encoding="UTF-8" standalone="no"?>
<svg
   xmlns:dc="http://purl.org/dc/elements/1.1/"
   xmlns:cc="http://creativecommons.org/ns#"
   xmlns:rdf="http://www.w3.org/1999/02/22-rdf-syntax-ns#"
   xmlns:svg="http://www.w3.org/2000/svg"
   xmlns="http://www.w3.org/2000/svg"
   id="svg12646"
   preserveAspectRatio="xMidYMid meet"
   viewBox="0 0 8524.6128 14661.547"
   height="1466.1547"
   width="852.4613"
   version="1.0">
  <metadata
     id="metadata12652">
    <rdf:RDF>
      <cc:Work
         rdf:about="">
        <dc:format>image/svg+xml</dc:format>
        <dc:type
           rdf:resource="http://purl.org/dc/dcmitype/StillImage" />
        <dc:title></dc:title>
      </cc:Work>
    </rdf:RDF>
  </metadata>
  <defs
     id="defs12650" />
  <path
     d="M 6.0934474,12 C 11.093447,4 29.093447,0 49.093447,2 l 34,3 12,120 c 14.000003,132 35.000003,228 102.000003,470 11,39 25,99 31,134 6,36 22,92 34,125 13,34 42,129 66,211 114,403 129,451 161,520 11,21 28,89 40,150 11,60 31,142 44,180 13,39 35,138 50,220 14,83 37,204 50,270 14,66 25,142 25,168 0,46 45,388 55,414 2,7 16,97 32,200 26,178 28,208 28,543 v 355 l -36,105 c -42,120 -63,235 -79,435 -22,286 -30,351 -45,405 -35,121 -41,974 -9,1157 16,90 43,154 107,254 60,94 74,115 137,193 123.99995,153 149.99995,193 164.99995,243 8,28 15,60 15,70 0,11 7,28 15,39 22,29 18,44 -10,44 -43,0 -73.99995,-30 -110.99995,-105 -20,-40 -59,-100 -87,-133 l -51,-60 -13,37 c -22,62 -24,105 -28,571 l -4,455 -29,150 c -30,151 -69,315 -103,435 -17,62 -61,267 -79,375 -12,69 -12,220 0,345 6,66 7,245 1,485 -9,421 -2,374.9997 -87,545 -48,96 -89,229 -104,340 -24,177 -35,227 -54,265 -20,37 -21,56 -20,280 0,143 5,264 12,300 58,294 104,491 131,567 12,32 21,67 21,78 0,12 10,34 22,50 14,20 18,33 12,42 -14,20 1,444 17,493 l 14,40 3,-39 c 6,-64 31,-78 132,-72 81,6 86,7 115,40 56,64 74,190 35,254 -11,17 -24,32 -30,32 -5,0 -28,16 -50,36 -46,42 -69,41 -92,-4 -18,-37 -49,-74 -56,-68 -5,6 46,107 66,129 14,16 29,18 89,15 67,-3 75,-6 108,-38 20,-19 48,-59 62,-88 25,-51 26,-57 19,-175 -6,-110 -17,-180 -46,-305 -5,-23 -10,-77 -10,-120 0,-68 5,-88 41,-172 22,-52 49,-112 60,-132 24.99995,-49 23.99995,-76 -7,-121 -28,-42 -28,-70 0,-75 21,-4 60.99995,31 82.99995,71 19,37 21,143 4,187 -8,19 -23,60 -35,90 -11,30 -24,59 -27.99995,64 -16,19 -8,153 16.99995,279 35,183 42,317 21,391 -11,36 -14,62 -8,69 26,33 56,147 72,272 10,78 26,161 34,185 9,25 16,52 16,61 0,18 54,122 81,157 10,13 37,37 60,54 41,30 45,31 125,25 107,-8 154,-34 180,-104 10,-26 24,-53 30,-60 20,-20 27,-147 14,-220 -22,-117 5,-379 54,-512 10,-27 16,-76 16,-130 0,-121 -26,-195 -103,-291 -62,-78 -87,-124 -87,-161 v -22 l 24,22 c 13,13 27,18 30,13 6,-10 156,137 156,153 0,5 6,16 13,24 7,9 25,53 40,97 34.0001,101 37.0001,220 8,310 -52,166 -60,250 -50,580 2,94 -1,119 -21,175 -20,60 -21,71 -11,125 6,32 22,118 35,190 24,137 35,162 97.0001,219 l 32,30 -28,-50 c -53.0001,-95 -56.0001,-104 -53.0001,-151 2,-37 9,-51 30.0001,-67 25,-19 34,-19 200,-10 185,11 215,19 290,76 55,41 60,83 19,149 -18,28 -35,64 -38,79 -3,17 -29,51 -63,84 -65,61 -92,68 -170,40 -43,-15 -43,-15 -25,5 10,11 42,32 72,46 41,20 63,25 94,21 53,-7 117,-50 125,-84 9,-34 68,-135 89,-153 28,-23 36,-49 56,-169 23,-143 24,-311 3,-406 -13,-55 -17,-146 -19,-420 -2,-192 -8,-369 -13,-392 -5,-23 -26,-70 -46,-104 -43,-73 -60,-165 -33,-188 14,-11 18,-7 32,26 9,21 19,51 22,66 4,18 19,37 42,51 33,21 38,32 59,112 13,49 28,100 33,114 19,54 28,179 34,495 4,182 14,391 22,465 8,74 19,202 23,283 7,133 16,181 26,152 2,-5 13,-24 23,-41 55,-90 322,-102 419,-18 l 37,32 v 135 c 0,91 3,130 10,119 14,-26 19,-308 6,-377 -7,-33 -14,-159 -18,-280 -5,-178 -2,-244 11,-345 10,-68 20,-128 22,-132 3,-4 9,-36 15,-70 9,-61 28,-148 51,-233 6,-22 14,-56 18,-75 4,-19 24,-98 45,-175 51,-192 54,-263 20,-390 -37,-141 -37,-149 2,-153 28,-3 34,2 56,40 31,52 67,172 67,220 0,20 11,55 24,79 21,37 25,59 27,139 2,113 -17,519 -30,640 -20,176 -9,380 24,490 8,25 19,64 25,88 6,23 14,40 19,38 4,-3 16,-33 27,-68 14,-47 30,-75 64,-110 79,-82 172,-95 509.9999,-73 112,7 135,5 222,-15 84,-19 104,-21 146,-11 73,18 105,42 153,116 l 44,66 9,-233 c 13,-369 11,-659 -8,-763 -8,-49 -18,-186 -22,-303 -9,-259 8,-423 59,-572 30,-89 32,-103 30,-224 -2,-164 -16,-263 -63,-457 -48,-194 -64,-235 -139,-364 -33,-57 -85,-167 -115,-243 -30,-77 -62,-154 -70,-171 -16,-30 -64,-199 -90,-316 -8,-33 -17,-100.0003 -21,-150.0003 -4,-49 -16,-116.9997 -28,-149.9997 -19,-55 -20,-84 -21,-350 -1,-159 0,-444 2,-631 l 3,-341 -41,-84 -41,-84 6,-120 c 3,-66 6,-138 7,-160 1,-30 -12,-69 -52,-154 -64,-137 -69,-171 -69,-483 -1,-187 2,-225 18,-270 38,-108 50,-166 60,-284 6,-66 17,-140 26,-163 8,-24 15,-54 15,-68 0,-13 9,-51 20,-84 12,-34 19,-63 17,-66 -3,-2 -30,33 -61,79 -31,46 -83,121 -116,168 -135,191 -209.9999,310 -247.9999,392 -23,48 -54,107 -70,130 -64,93 -114,180 -189,324 -43,83 -97,185 -121,227 -46,81 -73,150 -103,265 -23,84 -99,209 -186,302 -29,32 -53,62 -53,67 0,15 104,263 144,340 20,40 50,107 66,149 31,76 50,115 95,189 60,98 81,159 134,383 7,29 28,79 47,110 73,120 150,376.9997 183,608 11,78 30,166 42,195 42,108 109.9999,346 124.9999,439 8,52 21,127 30,165 17,75 90,309 105,337 5,10 25,111 44,225 20,115 39,222 44,238 5,17 12,46 15,66 6,34 59,125 128,219 18,25 38,56 44,70 6,14 22,50 35,80 13,30 48,84 77,120 29,36 55,76 58,90 3,14 17,59 31,100 43,129 49,167 28,190 -22,25 -57,26 -78,2 -9,-9 -33,-56 -55,-103 -43,-93 -49,-99 -214,-204 -35,-22 -113,-90 -175,-151 l -112,-111 -12,36 c -6,20 -29,77 -51,126 -81.9999,181 -120.9999,179 -164.9999,-7 -23,-100 -23,-111 -17,-393 6,-266 5,-302 -15,-435 -26,-171 -30,-194 -66,-325 -15,-55 -30,-113 -34,-130 -5,-16 -26,-82 -49,-145 -22,-63 -48,-149 -57,-190 -22,-92 -95,-319 -125,-385 -5,-11 -14,-38 -20,-60 -7,-22 -19,-56 -27,-75 -27,-64 -31,-74 -64,-180.0003 -17,-58 -40,-125 -51,-149 -10,-23.9997 -25,-88.9997 -34,-144.9997 -8,-55 -24,-132 -36,-171 -19,-67 -90,-219 -147,-315 -41,-71 -82,-206 -110,-365 -12,-63 -30,-122 -49,-160 -16,-33 -37,-77 -45,-97 -9,-20 -54,-74 -100,-120 -103,-101 -117,-127 -117,-213 0,-36 -2,-65 -4,-65 -2,0 -43,20 -92,44 -49,24 -104,46 -122,50 -22,4 -55,27 -98,68 -134,130 -210,212 -255,277 -47,68 -104,111 -147.0001,111 -16,0 -43,21 -81,60 -32,33 -65,60 -73,60 -9,0 -39,16 -68,36 -86,59 -179,102 -278,127 -51,14 -103,33 -115,44 -28,25 -104,73 -115,73 -4,0 -26,18 -46.99995,40 -33,34 -40,49 -47,98 -4,31 -12,84 -18,117 -6,33 -14,112 -18,175 -4,63 -11,121 -15,128 -5,6 -21,12 -37,12 -23,0 -35,-10 -66,-52 -60,-84 -85,-151 -95,-258 -5,-52 -12,-115 -15,-138 -9,-65 13,-226 44,-316 23,-68 33,-85 82,-128 60,-53 197.99995,-128 236.99995,-128 47,0 304,-91 336,-120 27,-23 99,-75 180,-130 12,-8 61,-51 109,-97 48,-46 92,-83 97,-83 6,0 74.0001,-63 150.0001,-141 l 140,-141 -10,-106 c -15,-159 -13,-163 182,-543 63,-123 105,-215 133,-289 13,-36 34,-90 46,-120 74,-178 73,-175 60,-282 -6,-51 -15,-109 -20,-128 -5,-19 -14,-53 -19,-75 -6,-23 -11,-163 -11,-326 0,-326 -8,-391 -70,-583 -21,-66 -52,-177 -69,-246 -26,-110 -62,-222 -91,-285 -5,-11 -16,-47 -25,-80 -9,-33 -43,-116 -75,-185 -32,-69 -67,-152 -78,-185 -17,-53 -49,-119 -144,-300 -15,-27 -42,-95 -62.0001,-150 -19,-55 -52,-143 -73,-195 -22,-52 -48,-126 -57,-165 -10,-38 -24,-83 -31,-100 -12,-29 -32,-100 -55,-195 -34,-144 -41,-369 -13,-441 14,-38 16,-88 16,-379 -1,-348 -3,-376 -46,-525 -24,-83 -27,-112 -35,-375 -6,-212 -5,-298 4,-335 6,-27 14,-93 17,-145 3,-52 12,-111 20,-130 25,-58 40,-183 34,-272 -4,-46 -11,-157 -16,-248 -15,-244 -31,-479 -36,-532 l -4,-48 h 54 c 29,0 55,4 57,10 1,5 41,14 88,19 77,9 87.0001,8 112.0001,-9 29,-21 68,-27 68,-10 0,6 16,20 35,31 27,16 35,27 35,50 0,17 -7,32 -19,38 -17,10 -19,33 -26,368 -4,207 -13,398 -21,453 -7,52 -19,233 -26,403 -9,247 -9,324 1,395 7,48 16,168 21,267 6,156 12,199 43,325 21,85 46,233 62,360 14,118 30,231 35,250 5,19 14,114 20,210 20,347 30,438 65,620 44,228 54,265 116,412 27,65 49,123 49,129 0,6 7,27 16,47 30,68 33,77 68,181 20,57 46,140 57,184 13,48 57,149 109,251 99,195 153,351 195,561 l 29,140 66,-130 c 36,-71 91,-169 122,-217 97,-147 116,-197 220,-573 14,-49 47,-144 73,-210 26,-66 53,-142 60,-170 7,-27 22,-77 34,-110 11,-33 30,-91 41,-130 31,-101 58,-171 95,-245 19,-36 39,-87 46,-115 6,-27 47,-122 91,-210 50,-102 83,-182 90,-220 7,-39 20,-70 37,-90 33,-38 63,-81 83.9999,-121 14,-27 14,-38 2,-95 -28.9999,-137 -57.9999,-287 -69.9999,-359 -9,-54 -13,-249 -13,-695 -1,-658 1,-694 52,-920 9,-38 26.9999,-140 39.9999,-225 29,-187 83,-401 126,-491 33,-72 47,-130 58,-251 8,-89 26,-117 61,-99 29,16 35,49 28,150 -7,97 -36,218 -63,259 -10,15 -23,54 -30,87 -6,33 -23,105 -37,160 -14,55 -33,159 -43,230 -9,72 -23,155 -31,185 -8,30 -23,111 -34,180 -18,111 -20,173 -20,565 2,828 0,777 28,915 14,69 30,154 36,190 6,36 12,67 14,69 9,11 314,-349 641,-756 45,-56 110,-126 144,-155 152,-132 296,-264 327,-302 19,-22 64,-73 100,-112 36,-39 118,-128 181,-198 63,-70 155,-164 203,-208 49,-45 128,-127 175,-182 48,-56 134,-150 192,-211 104,-108 180,-203 180,-223 0,-6 70,-75 155,-153 85,-79 155,-148 155,-153 1,-6 44.9997,-60 99.9997,-121 55,-60 121,-136 147,-167 l 48,-57 h 64 l 63,-1 -33,40 c -19,21 -76,83 -127,137 -51,54 -96,109 -99,123 -12,47 -55,99 -131.9997,159 -100,77 -252,237 -321,337 -30,43 -100,126 -156,184 -55,58 -133,144 -172,191 -39,48 -115,128 -170,178 -54,50 -139,137 -188,193 -49,56 -121,136 -159,177 -39,42 -106,123 -149,181 -44,58 -122,150 -175,205 -146,153 -251,271 -324,366 -36,47 -74,92 -83,100 -9,8 -50,55 -90,104 -41,50 -121,142 -179,205 -58,63 -126,144 -153,179 -26,35 -68,88 -93,116 -38,43 -96,120 -141,189 -5,6 -17,37 -29,69 -12,32 -34.9999,74 -50.9999,93 -17,19 -43,69 -57,112 -15,43 -51,123 -80,177 -104,199 -124,247 -171,420 -4,17 -16,50 -25,75 -9,25 -23,65 -30,90 -15,50 -91,273 -105,305 -17,40 -120,381 -120,397 0,6 -23,62 -50,125 -28,63 -50,120 -50,126 0,7 -17,34 -38,61 -41,53 -95,137 -113,176 -63,132 -92,231 -104,355 -13,146 -66,389 -98,452 -8,16 -20,46 -27,68 -6,22 -27,70 -46,107 -19,36 -57,124 -85,195 -28,70 -68,165 -90,210 -21,46 -39,87 -39,92 0,15 -39,100 -140,306 -92,187 -146,322 -135,333 3,3 15,-8 27,-24 85,-109 165,-164 239,-164 37,0 57,16 93,74 16,25 18,45 14,140 -4,96 -9,120 -35,176 -46,101 -51,137 -8,65 61,-103 141,-275 185,-400 23,-66 57,-149 75,-185 18,-36 38,-85 46,-110 7,-25 16,-49 21,-54 4,-6 8,-18 8,-28 0,-38 161,-331 286,-518 92,-139 159,-255 233,-405 57,-115 120,-232 140,-260 46,-63 55,-78 86,-145 78,-166 232.9999,-434 287.9999,-496 28,-33 115,-90 123,-81 3,2 -17,49 -44,103 -27,54 -69,140 -94,189 -24,50 -64.9999,131 -89.9999,180 -49,97 -118,241 -118,249 0,4 -66,120 -191,338 -22,37 -39,70 -39,73 0,3 -18,32 -40,64 -22,32 -40,62 -40,66 0,4 -13,25 -28,48 -58,85 -98,144 -158,232 -69,101 -103,166 -163,310 -61,147 -80,189 -133,302 -26,56 -48,105 -48,108 0,8 -69,194 -85,230 -14,32 -65,135 -98,197 -34,66 -13,62 52,-11 77,-87 134,-128 215,-152 48,-15 68,-17 93,-8 98,32 109,192 25,367 -54,114 -55,121 -19,80 61,-68 135,-202 176,-318 62,-178 84,-232 114,-278 15,-24 56,-93 89,-155 63,-115 191,-323 239,-389 14,-21 37,-64 49,-95 21,-52 112,-197 234.9999,-373 25,-36 61,-87 80,-115 19,-27 41,-59 49,-70 51,-73 207,-318 226,-355 24,-48 93,-144 110,-155 6,-4 22,-24 35,-46 41,-64 153,-176 199,-198 51,-25 84,-27 93,-5 7,19 -23,111 -44,135 -8,9 -19,34 -24,54 -6,21 -21,54 -33,74 -13,20 -33,68 -46,106 -12,39 -27,75 -31,81 -5,6 -13,56 -19,111 -5,55 -14,120 -19,144 -6,24 -11,72 -11,106 0,56 4,68 35,112 20,27 47,57 61,66 14,9 43,32 65,52 l 39,35 94,-4 95,-3 51,-50 c 36,-35 66,-80 101,-150 27,-55 65,-126 84,-159 19,-32 42,-84 51,-115 9,-31 25,-72 35,-91 10,-19 30,-66 45,-105 50,-134 110,-244 158,-295 19,-19 45,-57 59,-85 33,-67 57,-87 99,-83 25,2 34,8 36,24 4,28 -38,120 -92,202 -56,85 -130,246 -123,266 4,9 22,22 40,30 19,8 38,19 41,25 13,20 84,51 117,51 26,0 43,-10 81,-50 87,-91 196,-268 348,-565 17,-33 51,-94 77,-135 48,-77 60,-98 152,-266 30,-55 76,-128 101,-164 76,-108 86,-125 139.9997,-245 10,-22 50,-105 88,-185 97,-204 102,-216 102,-237 0,-10 11,-54 25,-98 14,-44 25,-93 25,-110 0,-16 6,-42 14,-57 8,-15 22,-71 31,-125 26,-155 44,-225 69,-273 13,-25 36,-81 51,-125 15,-44 44,-118 65,-165 64,-145 110,-257 110,-269 0,-7 22,-83 49,-169 27,-86 51,-175 55,-197 3,-22 9,-60 15,-85 5,-25 12,-61 15,-80 15,-93 85,-209 212,-350 17,-19 60,-73 96,-120 136,-180 164,-217 221,-285 33,-38 69,-81 80,-95 11,-14 57,-66 101,-116 45,-50 95,-108 113,-130 183,-223 294,-326 435,-408 52,-30 83,-28 93,6 5,14 -2,29 -26,54 -18,19 -37,34 -42,34 -5,0 -50,30 -99,67 -64,47 -119,101 -191,187 -56,67 -140,164 -186,216 -168,188 -219,251 -408,500 -48,63 -102,131 -209,263 -66,81 -82,115 -104,216 -14,64 -20,119 -17,145 6,43 -13,137 -40,196 -9,19 -20,48 -24,65 -4,16 -14,55 -22,85 -8,30 -18,74 -22,97 -4,23 -15,53 -26,67 -12,15 -19,40 -19,64 0,23 -4,52 -10,67 -5,14 -12,37 -15,52 -2,15 -24,67 -48,117 -61,125 -74,156 -83,191 -4,17 -10,35 -14,40 -26,37 -59,205 -60,306 0,47 -19,103 -71,214 -16,33 -35,98 -43,145 -19,105 -26,129 -63,205 -33,70 -149,246 -202,308 -80.9997,93 -130.9997,168 -194.9997,292 -37,72 -76,139 -85,150 -10,11 -25,32 -32,46 -8,15 -29,55 -48,90 -18,35 -48,89 -66,119 -18,30 -47,90 -65,132 -17,42 -45,94 -61,115 -16,21 -58,81 -93,133 -105,155 -205,240 -283,240 -33,0 -139,-48 -187,-85 -18,-14 -36,-25 -39,-25 -8,0 -31,54 -56,130 -30,90 -53,131 -112,205 -31,39 -86,115 -122,171 -72,111 -71,110 -210,134 -76,14 -189,7 -240,-15 -42,-18 -203,-172 -216,-208 -13,-34 -13,-213 -1,-282 14,-76 30,-219 25,-224 -3,-2 -16,6 -29,18 -21,20 -24,34 -31,134 -6,97 -10,115 -29,134 -15,15 -28,49 -40,105 -9,46 -22,103 -28,128 -20,83 -27,135 -27,204 -1,51 -11,101 -37,185 l -36,116 4,260 4,260 31,65 c 82,174 85,184 86,239 0,31 -3,83 -8,117 -9,73 10,169 53,265 l 29,64 -9,475 c -12,578 -7,760 21,850 11,36 25,117.9997 31,181.9997 6,65.0003 14,128.0003 19,140.0003 17,44 41,130 41,149 0,15 80,226 119,314 5,11 16,40 25,64 9,24 43,88 76,143 66,112 98,191 130,318 12,47 28,108 35,135 20,70 45,243 45,314 0,33 5,63 10,66 7,4 8,47 4,118 -5,94 -10,118 -30,149 -28,44 -37,80 -63,248 -17,116 -17,142 -6,350 7,124 17,245 23,270 15,63 19,389 9,740 -8,260 -12,314 -37,450 -16,85 -32,180 -35,210 -4,30 -14,82 -23,115 -15,54 -25,69 -112,155 -95,95 -97,96 -245,162 -83,36 -177,72 -210,79 -74,15 -222,14 -277,-3 -57,-17 -130.9999,-88 -196.9999,-188 -69,-104 -71,-109 -136,-296 -29,-83 -66,-177 -83,-210 -17,-32 -37,-81 -46,-109 -9,-27 -26,-79 -38,-115 -19,-56 -22,-93 -26,-275 -3,-115 0,-271 6,-345 19,-223 23,-340 14,-340 -5,0 -13,24 -19,53 -6,28 -18,80 -27,114 -15,60 -41,195 -73,373 -18,103 -21,521 -4,590 6,25 11,120 11,213 0,137 -4,181 -20,243 -43,160 -66,184 -170,184 -74,0 -93,-5 -225,-58 -71,-29 -101,-48 -145,-92 -78,-77 -160,-242 -160,-322 0,-15 -3,-28 -8,-28 -14,0 -68,75 -112,159 -43,81 -48,86 -110,117 -54,28 -76,34 -132,34 -63,0 -73,-3 -145,-47 -94,-57 -293.0001,-247 -340.0001,-325 -27,-44 -36,-75 -53,-188 -11,-74 -24,-138 -29,-143 -4,-4 -27,2 -51,14 -33,18 -65,23 -144,27 -115,5 -144,-4 -224,-73 -102,-89 -191.99995,-363 -191.99995,-589 0,-35 -5,-77 -11,-95 l -11,-32 -43,45 c -52,53 -116,76 -214,76 -129,0 -178,-56 -257,-295 -67,-205 -74,-244 -74,-455 0,-184 -6,-226 -50,-375 -59,-196 -123,-497 -141,-661 -22,-205 5,-587 48,-669 6,-11 16,-60 23,-110 7,-49 21,-117 31,-150 11,-33 24,-76 30,-95 6,-19 35,-82 64,-141 49,-98.0003 53,-113.0003 65,-220.0003 12,-112.9997 9,-568.9997 -6,-898.9997 -4,-102 -2,-156 10,-220 25,-139 74,-368 85,-403 22,-66 64,-247 93,-397 30,-154 30,-157 37,-625 7,-458 8,-471 29,-520 28,-60 49,-85 74,-85 18,0 17,-4 -9,-37 -141,-185 -217,-333 -237,-465 -19,-127 -27,-495 -16,-833 7,-232 12,-294 29,-360 11,-44 23,-129 26,-190 16,-312 48,-519 104,-676 37,-102 43,-179 36,-439 -7,-272 -23,-420 -85,-795 -11,-71 -25,-180 -30,-241 -5,-61 -20,-172 -33,-245 -14,-74 -35,-192 -47,-264 -12,-71 -35,-170 -50,-220 -15,-49 -33,-124 -40,-165 -6,-41 -29,-122 -50,-180 -37,-100 -77,-229 -115,-370 -9,-36 -21,-76 -25,-90 -4,-14 -13,-45 -20,-70 -7,-25 -27,-90 -46,-145 -18,-55 -46,-158 -62,-230 C 93.093447,614 71.093447,519 60.093447,475 c -11,-44 -27,-111 -37,-150 C 4.0934474,246 -7.9065526,32 6.0934474,12 Z M 660.09345,12657 c 13,36 28,68 35,70 38,15 56,-57 32,-126 -10,-28 -15,-31 -50,-31 -22,0 -39,5 -39,11 0,6 10,41 22,76 z m 1237.00005,1217 c 5,3 26,32 46,63 65,100 125,153 173,153 24,0 77,-57 90,-98 6,-18 21,-46 32,-62 l 21,-30 -32,-19 c -38,-23 -66,-28 -222,-37 -101,-5 -117,-4 -117,9 0,9 4,18 9,21 z m 874,326 c 17,47 132,155 175,163 49,10 82,-7 82,-41 0,-16 5,-43 11,-61 7,-20 9,-56 4,-97 -6,-62 -8,-65 -43,-80 -24,-10 -67,-15 -122,-15 -76,0 -86,3 -102,23 -21,27 -22,60 -5,108 z m 326,240 c 5,0 12,-7 15,-16 5,-14 4,-15 -9,-4 -17,14 -19,20 -6,20 z m 560,-444 c 10,17 26,57 35,90 22,74 89,188 129.9999,219 17,12 46,26 65,30 18,4 58,18 88,32 49,23 65,25 141,21 128,-7 221,-40 287,-103 59,-57 119,-158 147,-248 11,-36 32,-75 48,-92 35,-36 37,-56 10,-145 -15,-50 -31,-79 -63,-114 -38,-41 -48,-46 -86,-46 -23,0 -74,7 -114,16 -59,14 -98,15 -222,9 -304,-16 -390.9999,-9 -430.9999,36 -50,56 -72,235 -35,295 z m 177.9999,492 c 55,57 61,61 117,68 83,10 231,-18 325,-62 41,-19 72,-36 69,-39 -2,-2 -40,6 -84,20 -117,37 -223,35 -314,-5 -38,-16 -77,-30 -87,-30 -10,-1 -29,-7 -43,-15 -58.9999,-34 -52.9999,-12 17,63 z m 575,-54 c 31,-18 126,-95 155,-126 34,-35 63,-104 63,-147 -1,-24 -3,-23 -21,14 -56,108 -112,186 -159,220 -46,33 -68,57 -38,39 z"
     id="path9696"
     style="fill:#020202;stroke:none" />
  <path
     d="m 1150.0934,13162 c 16,-16 43,-15 76,1 15,8 67,20 117,27 124,17 201,39 222,62 20,23 23,90 6,151 -22,77 -107,154 -181,164 -34,5 -43,2 -54,-16 -7,-11 -20,-21 -29,-21 -32,0 -98,-96 -122,-177 -8,-28 -22,-64 -31,-81 -19,-37 -21,-93 -4,-110 z m 128,176 c 11,44 81,132 104,132 31,0 105,-105 106,-151 0,-11 -31,-20 -107,-29 -40,-5 -84,-12 -98,-16 -19,-5 -24,-3 -21,7 3,8 10,34 16,57 z"
     id="path9698"
     style="fill:#020202;stroke:none" />
  <path
     id="path10209"
     d="m 764.01625,9175.0665 c 2.8592,-80.6718 3.9618,-95.9916 16.8188,-187.518 26.6576,-53.6023 71.2708,-96.1896 119.6828,-130.1766 54.0142,-38.0563 95.3829,-50.0802 146.48085,-70.9831 31.6413,-4.4296 66.7337,-19.0274 89.4258,-20.3223 31.5581,-19.0284 52.2458,-18.9993 99,-39.75 70.0564,-19.25 102.4998,-38.2031 158.9208,-69.0402 68.526,-27.5377 84.5851,-25.2813 128.2564,-77.868 54.7366,-40.8358 98.3372,-60.8142 103.8228,-68.3418 37.3612,-22.6038 72.7345,-73.3864 117.4375,-107.5 54.028,-74.5582 87.7416,-89.3229 177.7032,-147.0156 29.9867,-39.3301 55.5915,-56.6763 70.9378,-76.3218 46.6543,-32.8044 52.9588,-59.4712 83.4318,-94.2932 24.0173,-14.9182 56.6351,50.1317 71.3023,80.74 54.6743,62.0557 66.4295,37.7845 -44.8125,102.3906 -64.649,67.5872 -137.1716,134.3649 -188.1174,183.1924 -51.2077,69.7389 -56.3462,81.7977 -99.7107,131.2607 -38.4779,54.1509 -89.6572,72.3578 -155.0003,114.1904 -17.2265,31.5786 -116.033,71.8635 -202.3123,122.794 -46.5897,20.9821 -88.9029,43.137 -135.8496,68.3672 -43.8663,16.5979 -45.0476,40.4105 -122.7829,56.4638 -55.6098,20.1349 -66.525,18.552 -102.3052,30.2799 -56.1002,34.1022 -98.58305,52.8379 -150.21335,94.4189 -54.474,34.9163 -76.1078,128.4967 -78.1906,195.1143 -2.2548,36.3568 18.3354,241.2948 -18.9363,260.2107 -93.8909,6.6589 -76.0465,-90.7851 -76.8255,-136.966 -2.9376,-20.6695 -15.9077,-192.7997 -8.1642,-213.3263 z"
     style="fill:#7d7d7d;stroke:none" />
  <path
     id="path10489"
     d="m 1613.4245,1376.0665 c 34.3101,-138.0549 43.1322,-287.2131 79,-416 5.1397,-216.2614 -33.2473,-435.5476 -38,-654 -116.4939,-223.3431 269.3924,-233.5901 183.6102,-14.7727 -16.5857,247.9254 -1.1249,501.0047 -43.6102,739.7727 -36.4328,402.5043 -0.344,805.4337 20.5626,1207.1094 75.1467,199.0894 77.5568,405.3248 112.9375,611.2656 40.989,196.4144 31.6548,416.1843 51.8594,622.5313 17.6605,196.9412 63.8417,392.6851 100.6406,584.0937 65.6533,154.0488 155.9576,367.8226 126.875,312.75 58.6683,148.5033 109.4612,312.7913 153.875,460 61.3015,165.6718 174.7074,310.3217 214.25,483.25 42.3631,130.51 58.3797,259.8957 94.25,396.125 28.1478,189.7793 52.3172,388.2006 -20.1563,575.8965 -24.5555,124.7307 -109.8021,320.8271 -115.7187,82.8535 -16.6272,-238.2515 6.5796,-503.332 -31.375,-725.875 -42.2073,-122.1369 -157.4175,-471.1218 -119.625,-379.25 -5.9893,-89.3267 -102.5483,-338.6117 -71.375,-267.75 -41.7357,-107.288 -52.1223,-166.899 -95,-259 -41.1525,-67.6676 -126.9805,-347.5474 -109,-264 -44.3569,-113.5095 -138.3921,-244.8426 -178,-374 -28.7095,-91.2589 -92.5615,-213.0918 -121.0001,-319 -27.1771,-99.3521 -101.3685,-253.9394 -109.875,-383.75 -60.4209,-167.119 -23.3347,-353.4066 0.047,-518.0312 -8.614,-210.7327 30.0375,-419.4901 -9.0762,-628.3047 -31.9386,-175.1463 -86.8845,-345.4793 -69.8418,-534.1934 5.1991,-112.3911 -23.6077,-226.9699 -6.2539,-337.7207 z"
     style="fill:#7d7d7d;stroke:none" />
  <path
     id="path11005"
     d="m 2819.4246,8522.0665 c 69.7768,-33.559 147.5634,-117.5241 161.25,6.75 44.1079,120.0642 97.9435,234.2564 156.2617,346.5371 27.5226,82.5827 76.4207,187.3439 102.4883,235.7129 56.5326,70.9495 93.3887,203.0838 119,285 10.3167,132.6941 100.6938,242.8533 139.5,361.125 26.1472,103.7572 72.604,171.1062 77.125,293.6255 35.1938,98.032 44.1356,217.186 68.375,330.25 31.3707,107.298 54.6995,142.645 87.25,238.25 18.288,90.611 50.1264,187.195 74.0028,275.008 9.6498,83.741 35.352,163.544 64.9503,252.434 13.3557,78.687 35.0105,162.954 44.5468,245.308 26.7912,73.72 30.7131,157.757 50.25,247 4.2129,85.783 37.3208,184.035 52,246 27.3987,102.914 115.6799,180.737 167.7656,277.805 9.0088,10.451 78.3061,162.413 11.2344,123.195 -65.8618,-52.109 -168.0141,-137.301 -218,-226 -31.2915,-115.996 -168.8156,-43.548 -178.4999,66.25 -41.0532,74.606 -57.7635,177.773 -70.5024,37.497 -16.9286,-154.541 24.0288,-305.169 10.9323,-459.976 4.1425,-129.74 -28.3139,-258.658 -31.0549,-383.521 -34.4608,-108.08 -33.0006,-174.446 -74.375,-269.875 -26.7843,-97.385 -51.7582,-213.592 -87.75,-280.094 -21.6566,-91.581 -37.3503,-181.351 -59.375,-248.031 -17.5361,-79.024 -66.9666,-174.067 -95.8438,-263.656 -23.0754,-92.457 -67.1426,-183.367 -88.5312,-266.5943 -64.5626,-136.318 -92.6383,-289.1141 -118.375,-431.0002 -22.1341,-111.5456 -54.4045,-196.417 -116.3455,-295.583 -49.5355,-103.6193 -103.4075,-204.8857 -132.0295,-306.417 -12.8027,-91.0115 -32.3302,-202.1441 -63.25,-293 -7.3598,-40.9124 -84.0359,-110.7545 -53,-144 z"
     style="fill:#7d7d7d;stroke:none" />
</svg>
