<?xml version="1.0" encoding="UTF-8" standalone="no"?>
<svg
   xmlns:dc="http://purl.org/dc/elements/1.1/"
   xmlns:cc="http://creativecommons.org/ns#"
   xmlns:rdf="http://www.w3.org/1999/02/22-rdf-syntax-ns#"
   xmlns:svg="http://www.w3.org/2000/svg"
   xmlns="http://www.w3.org/2000/svg"
   id="svg4895"
   preserveAspectRatio="xMidYMid meet"
   viewBox="0 0 16000 16000"
   height="1600"
   width="1600"
   version="1.0">
  <metadata
     id="metadata4901">
    <rdf:RDF>
      <cc:Work
         rdf:about="">
        <dc:format>image/svg+xml</dc:format>
        <dc:type
           rdf:resource="http://purl.org/dc/dcmitype/StillImage" />
        <dc:title></dc:title>
      </cc:Work>
    </rdf:RDF>
  </metadata>
  <defs
     id="defs4899" />
  <g
     style="fill:#010101;stroke:none"
     id="layer101">
    <path
       id="path4870"
       d="m 7115,15971 c -8,-17 -24,-35 -35,-41 -10,-5 -25,-22 -32,-37 -7,-16 -25,-34 -40,-41 -15,-7 -36,-26 -48,-42 -30,-43 -75,-52 -259,-56 -91,-2 -185,-6 -209,-9 -29,-3 -60,1 -100,15 -117,42 -120,43 -178,24 -60,-18 -71,-34 -103,-135 -15,-47 -16,-59 -4,-74 7,-11 13,-28 13,-39 0,-12 7,-30 15,-40 20,-27 19,-36 -5,-36 -16,0 -20,7 -20,35 0,38 -24,85 -44,85 -12,0 -50,-58 -102,-155 -35,-66 -57,-77 -98,-50 -18,12 -37,15 -63,11 -21,-3 -43,-7 -50,-8 -7,-1 -10,-5 -7,-10 3,-4 1,-8 -5,-8 -6,0 -21,-19 -34,-42 -13,-24 -46,-81 -72,-128 -89,-158 -105,-190 -131,-257 -31,-80 -31,-74 -38,-373 -4,-129 -9,-242 -12,-251 -2,-9 3,-32 11,-52 8,-20 14,-40 14,-44 -2,-7 26,-75 54,-132 11,-22 36,-48 128,-133 20,-18 76,-94 125,-168 49,-74 104,-151 122,-171 l 32,-37 -15,-58 c -8,-33 -26,-93 -41,-134 -15,-41 -28,-92 -30,-113 -2,-20 -5,-56 -8,-80 -5,-54 -6,-299 0,-352 7,-71 10,-89 23,-134 7,-25 14,-54 16,-65 3,-28 33,-95 56,-128 25,-34 24,-59 -3,-111 -26,-51 -37,-136 -43,-322 -9,-288 -7,-471 4,-526 7,-31 11,-60 10,-65 -1,-5 0,-16 4,-24 35,-92 50,-153 49,-205 0,-33 3,-64 8,-70 7,-10 16,-52 24,-122 3,-17 16,-71 31,-118 14,-48 24,-90 21,-93 -3,-3 -2,-10 3,-16 5,-6 16,-42 26,-81 9,-38 20,-79 25,-90 5,-11 19,-49 31,-85 11,-36 34,-92 49,-125 14,-33 39,-94 54,-135 49,-134 82,-219 114,-290 13,-30 25,-67 27,-83 1,-15 5,-30 9,-34 3,-3 6,-19 6,-35 0,-51 49,-219 95,-323 12,-27 34,-79 49,-115 16,-36 32,-72 37,-80 5,-8 13,-24 18,-35 13,-30 28,-40 96,-63 56,-20 63,-20 104,-6 25,8 57,24 71,34 32,23 79,117 79,157 0,15 2,60 5,98 3,39 8,97 10,130 2,33 7,83 11,110 8,74 16,221 15,294 0,35 3,68 8,75 9,11 10,46 17,411 2,110 5,250 7,310 2,76 -1,120 -10,144 -7,18 -11,39 -8,47 3,7 1,16 -4,19 -5,3 -14,31 -21,63 -13,63 -83,289 -105,338 -7,17 -25,73 -39,125 -15,52 -47,154 -71,228 -24,73 -44,138 -44,142 0,5 -16,43 -35,85 -19,41 -35,82 -35,89 0,8 -4,17 -10,20 -9,5 -30,69 -35,105 -1,8 -7,26 -12,40 -6,14 -14,45 -18,70 -4,25 -11,50 -15,55 -4,6 -13,33 -19,60 -7,28 -17,59 -21,70 -27,63 -48,161 -54,250 -3,57 -66,177 -110,214 -8,7 -18,33 -22,57 -3,24 -10,47 -15,50 -5,3 -9,16 -9,29 0,18 4,23 15,19 28,-11 63,6 82,38 15,28 17,46 12,118 -5,74 -11,97 -46,166 -37,75 -121,204 -193,299 -16,22 -33,48 -36,57 -3,9 -12,19 -20,22 -8,3 -14,10 -14,17 0,6 -11,20 -25,31 -14,11 -25,23 -25,27 0,11 -100,110 -122,122 -9,5 -33,9 -52,9 -27,0 -40,6 -52,25 -15,24 -15,27 0,44 26,28 30,106 10,216 -31,180 -35,230 -21,280 6,22 10,43 9,48 -1,4 7,48 18,98 26,119 62,180 170,287 97,96 113,124 111,192 -2,62 -9,80 -37,90 -34,13 -30,27 16,50 53,27 64,26 83,-15 9,-18 29,-42 44,-51 15,-9 39,-24 53,-34 58,-38 100,-42 415,-38 50,1 167,0 260,-2 166,-3 172,-2 255,26 64,22 87,35 97,54 7,14 23,34 36,45 14,11 29,30 35,41 10,19 18,21 56,17 27,-3 64,1 97,12 59,19 169,81 182,102 4,7 14,13 21,13 7,0 18,11 25,24 7,13 26,34 42,45 16,12 29,26 29,32 0,6 12,34 26,64 24,48 31,54 73,65 88,24 109,23 149,-7 20,-15 42,-32 48,-39 13,-16 169,-85 198,-89 12,-1 35,-5 51,-9 17,-3 50,-8 73,-10 25,-2 53,-13 65,-24 29,-26 205,-142 216,-142 5,0 30,-10 57,-22 49,-21 69,-26 154,-32 27,-2 68,-17 105,-37 94,-53 161,-84 177,-81 4,1 26,-6 50,-14 88,-33 201,-35 260,-4 25,13 55,20 77,19 20,-2 41,0 46,3 6,3 30,11 55,18 115,30 175,98 171,194 -2,52 -26,110 -57,138 -11,9 -39,25 -64,35 -38,16 -69,19 -209,17 -148,-2 -168,0 -204,19 -21,11 -51,21 -66,22 -14,1 -47,16 -72,34 -26,17 -50,31 -55,31 -4,0 -15,6 -23,13 -16,13 -87,37 -126,42 -17,2 -81,28 -137,56 -22,11 -83,-21 -118,-62 l -25,-30 -23,30 c -12,17 -27,31 -32,31 -5,0 -26,16 -47,35 l -38,35 h -448 c -425,0 -450,-1 -486,-20 -41,-20 -98,-71 -118,-105 -11,-18 -12,-16 -13,20 -1,22 -3,54 -3,70 l -2,30 -192,3 -192,2 z" />
    <path
       id="path4872"
       d="m 10137,15552 c -38,-39 -38,-107 -1,-151 27,-32 29,-46 18,-116 -5,-34 0,-52 28,-105 18,-36 42,-77 52,-93 19,-27 19,-52 2,-192 -3,-22 -5,-57 -5,-77 0,-20 -5,-39 -10,-43 -6,-3 -8,-19 -5,-34 4,-16 0,-46 -7,-68 -7,-21 -14,-51 -15,-66 -1,-16 -9,-45 -17,-65 -8,-21 -22,-58 -31,-83 -15,-42 -109,-179 -140,-204 -7,-5 -25,-37 -40,-69 -25,-53 -27,-64 -17,-96 18,-62 53,-103 112,-134 54,-29 58,-29 100,-16 24,7 51,19 59,25 8,6 27,17 41,24 43,21 141,122 168,171 13,25 32,56 42,69 11,13 19,28 19,34 0,6 9,29 19,51 10,23 30,86 44,141 14,55 38,132 52,170 32,88 35,105 40,240 3,100 -1,129 -25,190 -4,11 -20,63 -35,115 -55,193 -178,350 -310,394 -69,24 -107,21 -138,-12 z" />
    <path
       id="path4874"
       d="m 4593,10914 c 3,-4 -5,-17 -19,-31 -41,-41 -32,-62 66,-159 49,-49 108,-105 131,-124 132,-110 399,-365 399,-381 0,-4 14,-22 31,-40 47,-50 131,-165 179,-244 41,-67 43,-74 46,-159 4,-100 14,-120 70,-135 35,-10 70,-5 91,11 23,18 44,71 33,82 -5,5 -10,17 -10,26 0,9 -8,24 -18,34 -13,11 -18,28 -17,54 2,20 0,42 -3,47 -4,6 -16,38 -28,72 -31,88 -102,214 -178,317 -36,48 -66,90 -66,93 0,2 -13,16 -30,30 -16,13 -30,29 -30,34 0,11 -133,149 -144,149 -5,0 -32,22 -62,49 -100,91 -344,251 -415,271 -17,5 -29,7 -26,4 z" />
    <path
       id="path4876"
       d="m 11579,10159 c -54,-55 -99,-104 -99,-107 0,-4 -24,-32 -52,-62 -29,-31 -66,-75 -83,-99 -16,-24 -38,-49 -47,-55 -10,-6 -18,-14 -18,-18 0,-4 -19,-37 -42,-75 -43,-67 -43,-68 -43,-160 0,-56 4,-96 12,-104 20,-20 100,-23 128,-5 26,17 50,60 46,83 -4,30 94,193 117,193 4,0 12,9 17,20 6,11 42,63 80,115 90,123 117,165 157,243 l 33,64 -37,34 c -21,19 -45,34 -54,34 -9,0 -60,-45 -115,-101 z" />
    <path
       id="path4878"
       d="m 1144,9858 c -5,-8 -18,-9 -106,-8 -31,1 -67,-4 -80,-11 -13,-7 -30,-16 -38,-20 -59,-31 -100,-48 -133,-53 -42,-8 -103,-17 -129,-20 -10,-1 -21,-5 -24,-9 -4,-4 -16,-7 -27,-7 -10,0 -33,-6 -50,-14 -18,-8 -48,-22 -67,-30 -19,-9 -55,-29 -80,-46 -25,-16 -56,-35 -70,-42 -14,-7 -36,-24 -50,-38 -42,-41 -141,-125 -153,-129 -7,-2 -17,-11 -22,-18 -6,-8 -33,-27 -60,-41 L 5,9345 2,8188 0,7031 23,6998 c 51,-77 114,-140 162,-163 28,-13 57,-29 65,-34 8,-5 35,-16 60,-24 25,-8 97,-34 160,-57 63,-23 132,-44 154,-45 21,-2 52,-10 70,-18 57,-28 126,-57 135,-57 4,0 30,-9 55,-21 26,-11 65,-22 88,-25 22,-2 45,-7 52,-12 6,-5 39,-9 72,-11 34,-1 85,-8 115,-17 30,-8 72,-19 94,-24 22,-5 52,-13 66,-18 31,-12 124,-2 266,29 149,32 150,32 273,34 63,1 138,7 165,14 28,7 65,14 83,17 47,6 129,50 148,80 10,15 17,42 16,67 -2,48 9,58 52,46 17,-5 52,-9 78,-9 26,0 50,-5 53,-10 3,-6 17,-7 29,-4 13,3 39,1 57,-4 19,-5 88,-5 160,-1 108,6 134,11 179,34 29,15 71,28 94,30 40,4 239,71 294,99 15,8 65,24 112,36 47,13 114,37 150,55 36,18 92,41 125,51 66,21 323,171 340,198 5,10 34,43 63,74 29,31 76,91 104,132 52,77 57,83 175,210 39,41 105,121 147,178 43,56 82,102 87,102 5,0 9,6 9,14 0,8 14,26 30,39 17,14 30,29 30,32 0,4 15,25 34,47 19,22 51,72 72,111 20,40 68,118 105,175 38,56 69,106 69,110 0,4 11,34 25,67 25,61 31,95 17,95 -4,0 -12,-9 -17,-19 -48,-95 -279,-431 -296,-431 -5,0 -9,-7 -9,-14 0,-8 -16,-27 -35,-42 -19,-14 -35,-32 -35,-39 0,-7 -18,-29 -40,-49 -22,-20 -40,-38 -40,-41 0,-11 -153,-205 -162,-205 -4,0 -8,-6 -8,-14 0,-7 -33,-44 -72,-82 -40,-37 -77,-76 -83,-85 -58,-100 -139,-198 -165,-199 -18,0 -42,-47 -29,-56 19,-11 7,-25 -38,-46 -54,-24 -125,-59 -225,-111 -37,-20 -85,-41 -105,-48 -21,-6 -67,-26 -103,-44 -36,-18 -103,-43 -150,-55 -47,-13 -96,-28 -110,-35 -57,-29 -227,-88 -258,-90 -18,-1 -36,-5 -39,-9 -3,-3 -16,-6 -28,-6 -11,0 -39,-9 -60,-21 -30,-15 -65,-22 -140,-25 -171,-8 -234,-6 -253,9 -7,5 -28,7 -48,4 -21,-4 -61,1 -93,9 -31,8 -69,17 -86,19 -63,7 -98,15 -192,46 -54,17 -106,31 -117,31 -16,-1 -226,58 -266,75 -8,3 -19,5 -24,4 -5,-1 -16,1 -25,5 -9,4 -23,8 -31,9 -8,1 -50,14 -92,29 -42,14 -85,26 -96,26 -34,0 -167,77 -227,132 -11,10 -48,38 -83,63 -34,25 -62,49 -62,55 0,5 -5,10 -11,10 -25,0 -219,174 -219,196 0,7 -6,14 -14,17 -13,5 -126,140 -126,151 0,3 -12,17 -26,31 -14,14 -44,65 -66,113 -22,48 -51,101 -64,119 -13,17 -24,36 -24,42 0,6 -8,15 -19,20 -10,6 -26,26 -35,46 -14,30 -15,42 -6,70 9,28 9,45 -3,83 -8,26 -15,56 -15,67 1,11 -7,41 -17,66 -12,30 -16,55 -11,75 l 8,29 24,-30 c 13,-16 24,-33 24,-37 0,-4 12,-20 26,-35 15,-15 32,-39 38,-53 26,-59 105,-159 194,-246 53,-52 98,-94 100,-94 2,0 29,-20 60,-43 31,-24 77,-56 102,-72 25,-15 81,-54 125,-86 135,-99 215,-149 248,-156 18,-4 77,-30 132,-58 55,-28 129,-59 165,-69 36,-10 74,-23 85,-30 11,-7 47,-23 80,-36 33,-13 102,-45 153,-71 51,-27 99,-46 107,-43 8,3 20,2 27,-2 7,-4 22,-9 33,-11 11,-1 40,-5 65,-9 92,-14 326,-8 370,10 8,3 31,6 50,6 32,0 65,3 175,16 102,12 146,15 230,18 101,3 235,38 350,91 39,18 88,38 110,46 22,7 54,23 70,35 17,12 98,63 180,114 83,51 159,101 170,111 11,10 40,26 65,37 25,11 56,31 69,46 14,14 28,26 32,26 4,0 20,11 35,25 15,14 30,25 34,25 4,0 31,23 61,51 58,54 132,109 147,109 11,0 47,40 54,60 10,27 149,180 164,180 8,0 18,8 21,18 4,9 23,37 44,62 20,25 60,84 88,132 29,49 65,98 81,110 17,12 30,26 30,31 0,18 56,84 137,163 69,68 83,87 83,113 0,24 -4,31 -20,31 -31,0 -55,-18 -154,-115 -117,-116 -212,-230 -253,-303 -18,-31 -44,-67 -58,-79 -14,-12 -25,-27 -25,-32 0,-6 -29,-34 -65,-62 -36,-28 -65,-57 -65,-64 0,-8 -11,-22 -25,-33 -14,-11 -25,-24 -25,-30 0,-6 -13,-22 -30,-35 -16,-14 -30,-30 -30,-35 0,-4 -19,-19 -42,-32 -23,-13 -53,-36 -66,-52 -13,-15 -27,-28 -31,-28 -4,0 -27,-18 -51,-40 -23,-22 -52,-42 -63,-46 -11,-3 -32,-21 -48,-39 -16,-18 -44,-39 -61,-46 -18,-7 -78,-43 -133,-80 -55,-36 -116,-74 -135,-83 -32,-16 -30,-13 20,34 30,28 73,68 95,88 56,53 136,165 156,220 9,26 33,85 53,132 20,47 41,103 47,125 5,22 13,47 16,55 10,26 12,61 13,207 1,138 1,144 -27,194 -15,29 -43,64 -61,78 -18,14 -44,46 -57,71 -54,101 -129,199 -266,341 -53,56 -146,107 -239,133 -36,10 -71,20 -79,22 -8,3 -11,7 -8,10 3,3 31,0 64,-6 57,-12 96,-16 203,-25 30,-2 62,-5 70,-6 33,-5 90,2 90,10 0,5 -15,18 -32,28 -30,17 -46,24 -113,48 -11,4 -36,9 -55,11 -19,2 -46,7 -60,11 -14,3 -29,5 -34,4 -5,-1 -16,1 -25,5 -9,4 -32,9 -51,11 -19,2 -39,7 -45,12 -5,4 -77,9 -160,11 -319,7 -345,10 -475,51 -92,29 -120,34 -230,36 -228,4 -335,4 -370,-1 -31,-4 -68,6 -121,34 -9,5 -26,6 -38,3 -12,-3 -27,0 -34,6 -8,6 -16,8 -19,5 -5,-4 -223,47 -268,64 -8,3 -21,4 -29,3 -7,-1 -20,1 -30,5 -14,6 -57,10 -148,14 -12,0 -25,5 -28,10 -3,5 -12,7 -19,4 -8,-3 -38,7 -67,21 -38,20 -70,28 -112,29 -32,0 -61,-2 -63,-6 z m 1460,-409 c -3,-5 -10,-9 -16,-9 -5,0 -24,-12 -41,-26 -16,-14 -61,-42 -99,-62 -111,-59 -122,-66 -170,-105 -117,-96 -233,-292 -343,-582 -19,-49 -31,-249 -17,-279 13,-29 55,-166 58,-191 1,-11 3,-22 5,-25 1,-3 3,-9 4,-15 1,-5 6,-19 10,-30 51,-128 78,-188 97,-218 13,-20 41,-66 63,-101 22,-36 43,-66 47,-66 3,0 38,-24 77,-52 70,-53 77,-75 14,-45 -18,9 -48,23 -66,31 -62,28 -182,86 -197,96 -8,5 -40,21 -70,35 -81,38 -108,53 -180,103 -128,90 -200,145 -200,153 0,5 -5,9 -10,9 -15,0 -120,80 -120,91 0,5 -5,9 -11,9 -21,0 -147,109 -176,152 -15,23 -48,56 -73,73 -32,22 -71,70 -132,160 -49,72 -88,135 -88,140 0,15 97,167 114,180 24,18 86,105 86,120 0,9 7,18 15,21 8,4 15,11 15,18 0,6 21,31 47,54 27,24 57,52 68,62 11,10 65,40 120,65 55,26 136,64 180,85 88,42 248,88 310,88 58,1 121,8 134,17 7,4 18,4 26,1 8,-3 17,-1 21,5 3,6 18,9 32,8 15,-2 33,0 40,5 7,4 19,6 26,3 7,-3 46,3 87,13 78,19 324,26 313,9 z m 387,-55 c 24,-9 94,-20 154,-25 182,-15 312,-47 349,-86 11,-12 28,-23 37,-23 19,0 167,-156 235,-246 24,-33 57,-84 73,-114 17,-30 50,-74 75,-97 54,-51 59,-72 53,-213 -7,-154 -14,-185 -64,-304 -19,-45 -46,-109 -59,-143 -15,-34 -45,-83 -69,-109 -24,-26 -46,-53 -49,-61 -3,-7 -12,-16 -21,-19 -8,-3 -43,-33 -77,-66 -94,-90 -99,-94 -146,-119 -24,-12 -46,-29 -49,-38 -14,-39 -46,-61 -90,-61 -24,0 -69,-9 -101,-20 -116,-41 -263,-69 -348,-66 -45,2 -86,6 -92,10 -6,3 -47,12 -91,20 -90,16 -231,76 -326,139 -101,67 -150,126 -216,259 -32,67 -59,127 -59,135 0,7 -17,64 -37,126 -36,106 -38,118 -37,237 0,120 2,129 37,218 53,132 125,267 188,350 29,40 57,72 61,72 4,0 18,10 30,23 13,12 54,45 92,72 37,28 84,62 104,77 24,17 50,27 72,28 20,0 78,11 130,24 157,40 180,42 241,20 z M 1460,8000 c 0,-5 -2,-10 -4,-10 -3,0 -8,5 -11,10 -3,6 -1,10 4,10 6,0 11,-4 11,-10 z m -140,-184 c 0,-3 -4,-8 -10,-11 -5,-3 -10,-1 -10,4 0,6 5,11 10,11 6,0 10,-2 10,-4 z m -141,-683 c 2,-2 -4,-3 -15,-2 -10,0 -32,17 -49,37 l -30,37 45,-35 c 25,-18 47,-35 49,-37 z" />
    <path
       id="path4880"
       d="m 2905,9204 c -8,-13 -17,-14 -55,-5 -72,17 -113,13 -161,-14 -24,-14 -71,-38 -104,-54 -76,-37 -105,-65 -172,-167 -82,-127 -103,-180 -127,-330 -12,-73 -27,-139 -34,-146 -16,-16 -15,-33 3,-48 8,-7 15,-23 15,-36 0,-42 58,-207 92,-261 66,-104 208,-282 255,-318 26,-20 81,-53 122,-73 l 75,-37 201,-3 c 183,-3 207,-2 264,18 144,48 263,165 354,345 85,170 130,426 97,547 -18,64 -136,207 -321,388 -67,67 -90,82 -191,128 -64,29 -124,52 -135,52 -11,0 -26,7 -33,15 -18,21 -131,21 -145,-1 z" />
    <path
       id="path4882"
       d="m 14057,9797 c -40,-6 -57,-13 -53,-22 3,-9 -23,-14 -102,-19 -108,-6 -127,-8 -224,-21 -29,-4 -93,-9 -143,-11 -101,-3 -136,-7 -152,-17 -6,-4 -31,-9 -55,-11 -25,-2 -67,-16 -94,-30 -34,-17 -71,-27 -114,-30 -36,-2 -77,-9 -91,-14 -78,-30 -144,-42 -264,-47 -53,-2 -121,-12 -165,-25 -48,-14 -87,-19 -108,-15 -25,5 -67,-5 -167,-39 -73,-25 -140,-43 -148,-40 -24,9 -97,-33 -97,-56 0,-11 6,-20 14,-20 7,0 19,-7 26,-15 14,-17 31,-14 97,16 103,46 216,72 331,75 62,2 137,11 166,19 29,9 60,13 68,10 9,-4 19,-2 23,4 3,6 23,11 44,11 22,0 76,11 122,26 65,19 110,26 202,28 103,3 120,6 140,24 12,11 33,21 47,21 14,0 41,3 60,6 29,6 21,-2 -50,-46 -47,-29 -108,-70 -137,-91 -29,-21 -57,-38 -62,-38 -6,0 -15,-9 -21,-20 -6,-11 -15,-20 -20,-20 -18,0 -156,-147 -190,-203 -19,-32 -56,-86 -81,-122 -26,-36 -50,-82 -54,-102 -4,-21 -9,-42 -13,-47 -3,-6 -7,-23 -9,-40 -2,-16 -7,-34 -12,-40 -10,-13 -9,-306 2,-323 4,-6 7,-24 7,-40 -2,-47 19,-124 49,-188 27,-57 165,-250 232,-325 107,-119 143,-149 208,-176 70,-29 88,-40 79,-49 -3,-3 -34,8 -69,24 -85,38 -98,43 -137,47 -18,2 -49,12 -70,23 -20,10 -53,25 -72,32 -115,41 -325,166 -352,209 -7,11 -18,20 -24,20 -6,0 -45,35 -86,78 -42,42 -88,89 -104,103 -16,15 -47,48 -69,73 -22,25 -54,61 -71,79 -67,70 -204,258 -204,281 0,4 -11,22 -24,39 -41,57 -196,387 -196,420 0,21 -26,29 -40,12 -16,-19 -7,-106 18,-175 58,-158 185,-393 274,-506 26,-34 48,-64 48,-66 0,-3 23,-29 51,-59 28,-30 53,-61 57,-70 4,-9 46,-51 95,-95 48,-43 87,-82 87,-86 0,-14 72,-88 85,-88 8,0 22,-11 33,-25 11,-14 24,-25 30,-25 6,0 22,-13 35,-30 14,-16 29,-30 33,-30 4,0 40,-20 80,-45 68,-43 97,-57 254,-125 94,-40 104,-43 118,-41 7,1 32,-6 55,-17 128,-59 230,-87 347,-98 30,-2 84,-14 119,-25 38,-12 78,-18 95,-15 17,3 60,-2 96,-11 104,-25 194,-28 232,-7 25,14 60,19 138,20 214,5 338,12 348,18 6,4 30,8 53,11 61,6 96,15 146,37 25,11 47,17 50,14 4,-3 12,-1 19,4 6,6 27,12 45,14 19,2 41,6 49,9 8,3 22,6 30,6 74,4 126,15 260,57 100,31 168,58 191,76 20,15 41,28 47,28 5,0 12,6 15,14 9,22 148,109 217,134 70,25 158,87 258,182 l 62,59 v 294 295 l -22,-5 -23,-6 23,25 c 22,24 22,28 22,294 v 269 l -46,53 c -25,28 -50,52 -56,52 -5,0 -42,24 -81,54 -104,78 -312,170 -412,182 -53,7 -110,15 -185,28 -69,12 -189,26 -229,26 -12,0 -28,3 -34,7 -7,4 -25,6 -40,4 -15,-1 -35,3 -43,10 -12,9 -23,9 -54,-1 -21,-7 -45,-10 -53,-7 -8,3 -18,3 -21,-1 -4,-3 -44,-7 -89,-7 -45,-1 -102,-7 -126,-14 -24,-6 -53,-9 -65,-5 -11,4 -59,7 -106,6 -61,-1 -101,4 -143,18 -62,22 -74,22 -160,7 z m 26,-153 c 41,-7 55,-19 32,-28 -14,-5 -107,8 -150,21 -18,6 -18,7 5,14 24,7 36,6 113,-7 z m 475,-29 c 26,-4 47,-3 56,4 7,6 16,7 20,3 4,-4 27,-8 49,-8 44,-1 77,-6 162,-24 28,-6 66,-12 85,-14 19,-2 53,-7 75,-10 22,-4 54,-6 72,-6 41,0 245,-71 342,-120 108,-54 326,-204 358,-247 16,-20 52,-62 81,-94 28,-33 52,-65 52,-72 0,-8 11,-24 25,-37 24,-22 24,-24 7,-52 -9,-17 -35,-47 -57,-67 -47,-45 -74,-81 -105,-141 -60,-118 -142,-219 -312,-385 -96,-93 -189,-180 -206,-193 -18,-13 -32,-29 -32,-37 0,-35 -142,-129 -275,-181 -38,-15 -88,-35 -111,-45 -46,-20 -138,-48 -180,-54 -55,-8 -99,-22 -141,-43 -63,-33 -193,-66 -206,-53 -7,7 -5,12 9,17 59,19 159,76 229,130 105,82 149,129 174,186 11,26 52,94 91,152 38,57 70,109 70,116 0,7 13,40 29,74 53,109 64,187 46,316 -3,25 -8,72 -10,105 -7,137 -82,317 -182,442 -18,23 -33,46 -33,51 0,10 -31,40 -59,56 -10,6 -40,28 -67,49 -69,52 -271,151 -319,156 -21,1 -49,7 -62,12 -13,5 -30,6 -38,3 -8,-4 -23,-3 -32,2 -31,14 61,22 212,19 77,-2 159,-6 183,-10 z m -573,-96 c 33,-5 67,-12 75,-16 18,-6 76,-14 110,-13 171,2 422,-148 542,-324 75,-109 128,-260 129,-364 1,-26 2,-99 2,-162 2,-111 1,-118 -34,-196 -19,-45 -66,-128 -104,-185 -39,-57 -75,-119 -81,-137 -20,-57 -146,-167 -258,-225 l -61,-32 -215,-1 c -129,-1 -229,-6 -250,-13 -42,-13 -60,-14 -60,-2 0,12 46,21 162,31 107,9 146,19 229,61 81,40 151,99 205,174 27,37 71,95 98,128 61,79 87,130 121,241 32,106 35,172 11,316 -25,152 -40,194 -103,299 -69,116 -119,172 -175,196 -24,10 -69,34 -101,53 -65,39 -60,39 -302,25 -147,-9 -152,-10 -245,-52 -129,-58 -170,-91 -332,-271 -180,-199 -191,-218 -196,-333 -12,-246 101,-533 275,-698 81,-78 188,-129 269,-129 31,0 84,-42 67,-53 -4,-3 -73,-6 -153,-6 -137,-1 -149,0 -220,28 -109,42 -122,50 -153,93 -15,22 -44,46 -64,54 -43,19 -50,26 -160,178 -111,155 -120,177 -140,353 -22,185 8,388 66,463 16,19 36,51 46,70 32,62 111,158 166,203 114,93 305,219 339,224 14,2 39,6 55,8 128,18 173,22 270,23 61,1 137,-3 170,-9 z m 945,-1728 c 0,-5 -15,-12 -32,-16 -18,-4 -42,-8 -53,-11 -11,-2 -2,5 20,16 44,21 65,25 65,11 z m -906,-51 c -7,-7 -24,-7 -50,-1 l -39,9 50,1 c 33,1 46,-2 39,-9 z m 276,-2 c 0,-4 -51,-8 -112,-7 -68,1 -103,4 -88,9 34,10 200,9 200,-2 z m 370,-28 c -14,-4 -36,-8 -50,-9 -20,-1 -22,1 -10,9 8,5 31,9 50,9 32,-1 33,-2 10,-9 z" />
    <path
       id="path4884"
       d="m 6287,8936 c -57,-28 -59,-30 -126,-159 -39,-77 -71,-120 -140,-193 -94,-100 -187,-233 -276,-396 -14,-27 -30,-48 -35,-48 -6,0 -10,-6 -10,-12 0,-12 -41,-77 -68,-108 -10,-12 -89,-130 -127,-189 -114,-179 -242,-365 -348,-505 -106,-140 -296,-354 -336,-378 -21,-13 -61,-36 -89,-53 -28,-16 -53,-38 -55,-47 -3,-10 -17,-22 -32,-28 -15,-6 -29,-19 -32,-30 -3,-10 -28,-31 -57,-46 -28,-14 -70,-39 -94,-55 -24,-16 -45,-29 -47,-29 -7,0 -51,-40 -135,-125 -71,-71 -96,-108 -139,-204 -4,-7 -4,-46 0,-86 7,-69 29,-125 51,-125 5,0 21,-9 36,-19 30,-22 180,-55 205,-45 9,3 29,-1 44,-9 47,-25 134,-55 210,-71 57,-13 83,-14 120,-6 26,6 56,10 67,9 20,-2 59,10 102,32 12,6 75,12 140,13 66,1 125,5 132,9 7,5 33,10 59,12 77,7 158,53 292,167 13,11 39,29 57,40 19,11 34,24 34,28 0,5 16,18 35,30 20,12 47,32 62,43 43,36 213,208 213,217 0,4 17,29 38,56 37,49 46,64 87,139 11,22 26,49 32,60 18,33 93,194 93,200 0,4 8,25 19,48 73,163 137,357 156,474 4,24 11,45 16,49 5,3 7,9 4,14 -6,10 13,87 25,105 10,14 24,67 21,81 -1,7 4,25 10,40 6,16 12,51 14,77 2,27 9,55 16,63 9,12 9,20 -1,39 -11,21 -11,29 0,50 10,18 10,28 2,38 -8,9 -11,76 -11,198 1,147 -2,191 -14,220 -18,41 -14,196 5,237 12,23 11,25 -30,112 -12,25 -33,42 -72,62 -30,15 -59,28 -65,28 -5,-1 -32,-11 -58,-24 z m -187,-826 c -9,-32 -25,-49 -43,-50 -5,0 0,15 10,33 37,67 49,73 33,17 z" />
    <path
       id="path4886"
       d="m 11684,8875 c -19,-29 -17,-42 32,-180 39,-110 53,-142 69,-165 7,-8 21,-38 33,-66 25,-60 95,-180 146,-251 20,-28 36,-55 36,-62 0,-6 4,-11 9,-11 5,0 39,-42 76,-92 36,-51 87,-117 113,-146 108,-123 145,-162 154,-162 5,0 56,-35 113,-77 125,-93 185,-132 222,-142 38,-11 259,-123 306,-155 21,-14 42,-26 48,-26 6,0 34,-11 62,-24 77,-36 264,-102 327,-116 30,-6 62,-14 70,-17 8,-4 19,-5 23,-4 5,1 27,-4 50,-10 53,-14 181,-39 227,-44 201,-20 751,-37 780,-24 19,9 125,31 136,28 5,-1 16,0 24,3 8,4 40,11 70,17 153,29 246,53 307,80 38,16 97,37 133,47 36,10 77,26 92,36 14,10 74,38 131,61 57,24 131,61 163,83 33,21 78,48 102,58 23,10 42,23 42,27 0,5 50,41 110,80 l 110,71 v 68 68 l -72,-48 c -132,-86 -221,-145 -247,-162 -14,-10 -43,-28 -65,-40 -21,-13 -47,-28 -56,-33 -10,-6 -24,-16 -31,-22 -8,-6 -48,-25 -90,-41 -42,-17 -105,-44 -140,-61 -147,-68 -441,-160 -549,-170 -54,-6 -77,-9 -92,-16 -9,-4 -21,-4 -27,-1 -5,4 -12,2 -15,-3 -4,-5 -19,-11 -34,-12 -53,-4 -289,-2 -467,4 -99,3 -196,6 -215,7 -19,0 -42,3 -50,7 -13,5 -61,11 -110,14 -25,1 -164,31 -175,37 -5,3 -27,8 -49,10 -83,7 -366,112 -486,180 -36,20 -123,65 -195,99 -71,35 -137,68 -145,73 -8,6 -26,15 -40,21 -50,21 -218,155 -317,253 -57,55 -103,104 -103,108 0,4 -13,21 -29,38 -16,18 -35,43 -42,57 -8,14 -29,42 -46,61 -18,20 -33,42 -33,49 0,7 -5,13 -10,13 -13,0 -140,194 -140,213 0,8 -6,19 -13,25 -7,6 -26,39 -41,74 -15,35 -45,99 -67,143 -21,44 -43,99 -49,122 -10,41 -32,73 -50,73 -5,0 -17,-11 -26,-25 z" />
    <path
       id="path4888"
       d="m 12572,6524 c -27,-12 -40,-12 -65,-4 -27,10 -40,8 -78,-9 -38,-17 -48,-27 -57,-59 -7,-22 -12,-46 -12,-54 0,-7 -32,-30 -71,-51 -74,-38 -115,-78 -183,-179 -35,-52 -145,-147 -190,-164 -9,-3 -16,-12 -16,-19 0,-7 -16,-22 -35,-34 -19,-11 -35,-25 -35,-31 0,-6 -15,-43 -34,-83 -88,-188 -94,-213 -61,-277 29,-58 84,-119 128,-142 23,-12 46,-21 51,-20 4,2 31,-4 60,-12 89,-25 165,-32 421,-39 86,-2 159,-8 171,-15 12,-6 24,-9 27,-5 4,3 35,-2 69,-12 35,-10 86,-19 113,-22 99,-8 121,-10 152,-17 18,-4 48,-9 68,-11 20,-2 42,-9 50,-15 8,-7 21,-10 29,-7 7,3 56,-8 107,-25 52,-17 103,-30 114,-29 11,0 45,-8 75,-19 31,-11 74,-20 95,-20 76,1 194,-10 237,-20 24,-6 64,-12 91,-14 26,-2 54,-9 62,-16 9,-8 27,-10 46,-6 17,3 44,0 62,-8 18,-7 48,-12 67,-11 19,1 39,-1 44,-3 8,-4 107,-11 165,-12 13,0 40,-4 60,-10 20,-5 56,-12 80,-15 24,-3 49,-9 55,-13 6,-3 19,-5 29,-4 9,2 42,-6 72,-17 29,-11 66,-21 82,-21 474,-12 501,-11 563,15 33,14 65,25 72,25 7,1 31,9 53,20 22,11 46,19 53,20 7,0 31,9 52,20 22,11 43,19 47,18 5,0 21,4 36,10 16,7 32,12 37,12 9,0 -66,-150 -84,-165 -10,-9 -36,-56 -94,-170 -12,-25 -27,-45 -32,-45 -6,0 -10,-6 -10,-14 0,-7 -7,-19 -15,-26 -8,-7 -15,-18 -15,-25 0,-12 -99,-185 -140,-245 -10,-14 -27,-45 -39,-68 -12,-23 -26,-42 -31,-42 -6,0 -10,-6 -10,-14 0,-7 -7,-19 -15,-26 -8,-7 -15,-19 -15,-27 0,-8 -18,-41 -40,-73 -22,-32 -40,-63 -40,-68 0,-5 -7,-15 -16,-22 -8,-8 -21,-27 -29,-44 -14,-33 -126,-156 -142,-156 -13,0 -53,-44 -53,-58 0,-7 -4,-12 -9,-12 -11,0 -251,-240 -251,-251 0,-5 -6,-9 -12,-9 -7,-1 -33,-25 -57,-55 -24,-30 -49,-55 -57,-55 -8,0 -14,-6 -14,-13 0,-13 -43,-63 -132,-155 -38,-39 -57,-65 -74,-102 -4,-8 -16,-25 -27,-38 -12,-12 -30,-37 -41,-56 -12,-18 -43,-67 -70,-107 -64,-97 -151,-260 -221,-414 -14,-33 -35,-78 -45,-100 -10,-22 -35,-75 -54,-117 -20,-43 -41,-78 -46,-78 -6,0 -10,-5 -10,-11 0,-9 -45,-75 -61,-89 -3,-3 -20,-26 -38,-52 -17,-27 -35,-48 -39,-48 -4,0 -20,-28 -37,-63 -16,-34 -36,-70 -43,-79 -8,-9 -11,-22 -6,-29 4,-7 3,-10 -3,-6 -12,7 -33,-34 -33,-64 0,-13 -4,-18 -12,-13 -7,4 -5,-2 5,-13 9,-11 14,-23 11,-26 -4,-4 -2,-12 3,-19 18,-23 21,-56 8,-75 -7,-10 -27,-57 -45,-103 -17,-47 -40,-104 -51,-128 -10,-23 -19,-49 -19,-56 0,-7 -9,-34 -20,-58 -22,-52 -34,-209 -18,-264 5,-19 29,-64 54,-100 24,-37 43,-68 42,-70 -2,-1 -47,15 -101,36 -147,58 -139,60 -154,-35 -6,-44 -12,-101 -12,-127 l -1,-47 -42,19 c -24,11 -51,20 -60,20 -10,0 -32,6 -50,14 -18,8 -94,33 -168,56 -76,24 -146,52 -160,65 -42,37 -175,103 -253,124 -40,12 -103,21 -140,21 -52.781,16.7532 -105.257,11.0002 -159,15 -67,6 -127,18 -305,60 -35,8 -93,22 -130,31 -38,8 -88,21 -113,29 -25,8 -85,23 -135,35 -49,11 -99,27 -110,34 -11,7 -58,30 -105,51 -47,21 -131,60 -188,87 -141,66 -268,116 -372,145 -132,36 -169,45 -235,52 -90,11 -175,35 -250,71 -131,63 -516,190 -574,190 -10,0 -21,3 -24,7 -4,3 -19,7 -34,8 -43,4 -142,23 -154,31 -6,3 -30,7 -53,9 -24,1 -52,8 -64,14 -11,6 -27,8 -35,5 -8,-3 -39,0 -68,6 -30,6 -61,11 -69,11 -34,2 -156,22 -165,27 -5,4 -32,8 -58,9 -27,1 -56,5 -65,9 -9,4 -41,9 -71,11 -30,2 -60,8 -66,13 -7,5 -15,7 -18,4 -3,-4 -14,-3 -24,1 -10,4 -42,9 -71,10 -29,2 -59,8 -67,15 -8,6 -19,9 -24,6 -5,-4 -31,-1 -58,5 -26,6 -57,12 -68,13 -94,13 -131,19 -138,23 -5,3 -30,6 -57,8 -27,1 -56,8 -64,14 -8,7 -24,10 -35,6 -11,-3 -45,1 -75,8 -30,8 -57,13 -60,10 -2,-3 -10,-2 -16,2 -6,4 -38,8 -71,10 -34,3 -67,10 -75,16 -8,6 -26,9 -40,6 -15,-2 -45,3 -68,13 -22,9 -50,21 -61,25 -11,4 -92,8 -180,9 -88,1 -167,6 -175,11 -8,5 -34,10 -58,12 -24,1 -50,7 -57,13 -8,7 -22,9 -32,6 -10,-3 -36,-1 -58,5 -22,5 -57,12 -79,14 -21,3 -44,10 -52,16 -7,6 -17,8 -22,5 -5,-3 -24,-1 -43,5 -19,6 -45,12 -59,14 -62,8 -141,25 -153,32 -6,4 -21,6 -33,5 -11,-2 -33,3 -50,9 -16,7 -33,11 -38,10 -5,-1 -41,4 -80,13 -115,24 -127,25 -226,32 -52,3 -98,8 -103,11 -14,8 -112,11 -687,17 -300,3 -570,8 -600,11 -117,10 -147,14 -199,24 -30,6 -60,16 -67,22 -7,6 -18,8 -24,4 -6,-4 -23,-2 -38,3 -15,6 -36,14 -47,18 -11,4 -23,7 -27,6 -4,-1 -26,6 -50,14 -24,9 -50,17 -58,18 -63,10 -101,20 -106,27 -3,5 -9,7 -14,4 -5,-3 -21,0 -37,6 -15,7 -37,13 -48,15 -32,5 -159,34 -175,40 -8,3 -34,7 -57,9 -22,1 -47,6 -55,11 -7,5 -20,7 -28,6 -8,-1 -60,7 -115,19 -55,11 -125,22 -155,25 -30,2 -80,8 -110,14 -30,6 -62,11 -70,11 -13,1 -440,139 -480,156 -8,3 -22,7 -30,9 -44,8 -228,78 -315,119 -211,99 -237,111 -336,149 -36,14 -71,26 -77,26 -16,0 -48,18 -93,52 -20,16 -39,28 -42,28 -3,0 -59,37 -124,82 -121,84 -233,183 -233,206 0,7 -7,15 -15,18 -41,16 -342,381 -389,472 -9,17 -22,32 -28,32 -6,0 -19,6 -27,13 -9,8 -36,19 -61,26 -50,13 -105,0 -161,-40 l -29,-21 -47,42 c -26,23 -58,54 -72,71 -13,16 -30,29 -37,29 -7,0 -23,14 -36,30 -12,17 -27,30 -32,30 -6,0 -24,13 -41,30 -16,16 -81,73 -143,127 -108,93 -129,123 -63,88 65,-33 202,-84 215,-79 7,3 33,-2 57,-10 25,-9 58,-16 75,-16 h 54 c 14,0 52,-5 85,-11 33,-6 229,-12 436,-14 l 376,-4 57,-27 c 43,-20 64,-25 93,-20 43,8 99,16 128,20 11,1 30,8 43,15 54,29 150,46 282,51 14,1 47,8 74,15 27,8 59,12 71,9 13,-3 26,-1 29,5 4,5 28,13 54,17 26,4 64,13 85,20 21,8 41,13 45,12 4,-1 16,2 27,6 45,17 72,25 105,31 19,3 44,10 55,15 52,22 127,41 161,39 22,0 65,4 97,11 32,6 68,10 80,9 12,-1 29,1 37,4 8,3 42,8 75,11 33,3 85,11 115,17 30,6 64,12 75,14 11,2 41,10 67,19 26,9 50,15 55,14 8,-2 80,18 168,47 22,7 81,23 130,35 50,11 97,24 105,27 8,4 22,8 30,9 8,2 51,16 95,32 44,16 89,32 100,36 11,4 29,12 40,19 34,18 169,90 191,101 24,11 40,38 79,136 24,56 26,69 16,102 -7,23 -25,48 -47,65 -34,25 -36,29 -29,67 13,78 8,176 -13,237 -7,20 -12,41 -11,45 5,22 -44,121 -91,184 -22,30 -40,57 -40,62 0,4 -17,16 -38,27 -21,11 -44,27 -52,36 -21,26 -336,175 -369,175 -9,0 -26,6 -37,14 -11,8 -49,16 -84,20 -36,3 -81,7 -100,8 -76,8 -201,-86 -250,-188 -16,-35 -30,-67 -30,-73 0,-12 -76,-52 -135,-71 -21,-7 -60,-23 -85,-36 -127,-64 -260,-89 -440,-85 -31,1 -69,1 -117,1 -68,0 -244,8 -308,14 -85,9 -591,9 -730,1 -55,-3 -137,-8 -183,-10 -61,-4 -92,-1 -115,9 -47,22 -109,44 -221,77 -97,29 -100,30 -225,20 -69,-5 -139,-14 -155,-20 -16,-7 -31,-10 -33,-7 -3,2 -36,-7 -74,-20 -38,-13 -75,-24 -84,-24 -8,0 -32,-9 -52,-20 -21,-11 -44,-20 -51,-20 -7,0 -23,-6 -35,-14 -20,-13 -79,-27 -170,-41 L 0,5669 V 4550 c 0,-672 4,-1120 9,-1120 5,0 12,6 15,13 3,6 3,1 0,-13 -4,-14 -3,-22 1,-18 12,11 38,-30 70,-110 16,-40 32,-75 37,-78 4,-3 8,-16 8,-29 0,-13 5,-25 10,-27 9,-3 39,-218 40,-275 0,-7 -21,3 -48,23 -59,45 -93,80 -84,88 3,4 -1,4 -10,1 -12,-5 -21,2 -32,22 C 2,3052 1,2906 0,1528 V 0 h 481 c 457,0 481,1 468,18 -8,9 -17,19 -21,22 -70,54 -258,223 -253,228 4,5 42,-16 63,-34 25,-22 108,-78 177,-120 33,-20 62,-39 65,-43 3,-3 27,-21 53,-38 l 48,-33 h 1119 c 616,0 1120,2 1120,5 0,6 -48,53 -52,50 -2,-1 -14,9 -28,22 -21,21 -15,20 42,-11 37,-20 74,-36 81,-36 8,0 20,-7 27,-15 C 3401,2 3668,0 5679,0 h 2276 l -130,65 -130,65 53,-4 c 29,-3 67,-12 84,-20 17,-9 34,-13 39,-10 8,5 111,-14 319,-58 52,-11 115,-24 140,-28 25,-5 583,-9 1240,-9 h 1195 l -60,23 c -33,13 -95,36 -137,52 -43,16 -78,32 -78,35 0,3 70,5 156,3 152,-2 157,-3 252,-39 53,-20 116,-45 140,-56 42,-19 101,-19 2502,-19 h 2460 v 3155 3154 l -37,-14 c -21,-7 -67,-26 -103,-40 -61,-26 -77,-28 -250,-32 -255,-5 -323,-9 -340,-16 -8,-4 -31,-6 -50,-6 -19,0 -122,-12 -227,-26 -106,-15 -201,-24 -210,-20 -10,4 -34,7 -54,6 -21,-1 -40,3 -44,9 -4,6 -20,8 -38,5 -18,-4 -52,-1 -77,5 -25,6 -60,12 -78,14 -18,2 -39,9 -47,16 -8,6 -18,9 -22,7 -5,-3 -40,3 -78,14 -39,10 -88,21 -109,24 -22,3 -45,10 -51,15 -7,6 -14,7 -18,4 -3,-3 -23,0 -44,7 -21,7 -47,14 -58,15 -11,2 -47,10 -80,19 -33,9 -73,18 -90,19 -51,6 -187,36 -204,45 -9,5 -21,7 -26,5 -6,-3 -32,2 -59,10 -26,8 -54,12 -61,10 -7,-3 -16,-1 -19,4 -3,6 -14,8 -24,5 -9,-2 -38,1 -62,7 -50,13 -84,18 -150,25 -25,3 -61,7 -80,10 -109,15 -208,23 -335,28 -55,1 -110,9 -123,16 -23,12 -126,42 -140,40 -4,0 -22,-7 -40,-15 z M 855,4850 c 4,-6 -5,-10 -20,-10 -15,0 -24,4 -20,10 3,6 12,10 20,10 8,0 17,-4 20,-10 z M 13370,1876 c 0,-3 -5,-8 -12,-12 -7,-4 -8,-3 -4,4 7,12 16,16 16,8 z M 3590,96 c 0,-2 -7,-7 -16,-10 -8,-3 -12,-2 -9,4 6,10 25,14 25,6 z m 35,-16 c 3,-5 4,-10 1,-10 -3,0 -8,5 -11,10 -3,6 -4,10 -1,10 3,0 8,-4 11,-10 z" />
    <path
       id="path4890"
       d="m 13233,1663 c 4,-3 10,-3 14,0 3,4 0,7 -7,7 -7,0 -10,-3 -7,-7 z" />
    <path
       id="path4892"
       d="m 13285,1660 c 3,-5 8,-10 11,-10 3,0 2,5 -1,10 -3,6 -8,10 -11,10 -3,0 -2,-4 1,-10 z" />
  </g>
</svg>
