<?xml version="1.0" encoding="UTF-8" standalone="no"?>
<!DOCTYPE svg PUBLIC "-//W3C//DTD SVG 1.1//EN"
 "http://www.w3.org/Graphics/SVG/1.1/DTD/svg11.dtd">
<!-- Generated by graphviz version 2.44.1 (20200629.0846)
 -->
<!-- Pages: 1 -->
<svg width="660pt" height="604pt"
 viewBox="0.00 0.00 660.42 604.00" xmlns="http://www.w3.org/2000/svg" xmlns:xlink="http://www.w3.org/1999/xlink">
<g id="graph0" class="graph" transform="scale(1 1) rotate(0) translate(4 600)">
<polygon fill="white" stroke="transparent" points="-4,4 -4,-600 656.42,-600 656.42,4 -4,4"/>
<!-- step_1 -->
<g id="node1" class="node">
<title>step_1</title>
<polygon fill="none" stroke="black" points="174,-539 35,-539 35,-503 174,-503 174,-539"/>
<text text-anchor="middle" x="104.5" y="-517.3" font-family="Times,serif" font-size="14.00">Step 1: Global Sorting</text>
</g>
<!-- step_2 -->
<g id="node2" class="node">
<title>step_2</title>
<polygon fill="none" stroke="black" points="195.5,-467 13.5,-467 13.5,-431 195.5,-431 195.5,-467"/>
<text text-anchor="middle" x="104.5" y="-445.3" font-family="Times,serif" font-size="14.00">Step 2: Individual Assessment</text>
</g>
<!-- step_1&#45;&gt;step_2 -->
<g id="edge4" class="edge">
<title>step_1&#45;&gt;step_2</title>
<path fill="none" stroke="black" d="M104.5,-502.95C104.5,-494.41 104.5,-485.86 104.5,-477.31"/>
<polygon fill="black" stroke="black" points="108,-477.28 104.5,-467.28 101,-477.28 108,-477.28"/>
</g>
<!-- sort_priority_3 -->
<g id="node4" class="node">
<title>sort_priority_3</title>
<polygon fill="none" stroke="black" points="376,-596 301,-596 301,-558 376,-558 376,-596"/>
<text text-anchor="start" x="321.5" y="-580.8" font-family="Times,serif" font-size="14.00">Walk:</text>
<text text-anchor="start" x="309" y="-565.8" font-family="Times,serif" font-size="14.00">Assess 3rd</text>
</g>
<!-- step_1&#45;&gt;sort_priority_3 -->
<g id="edge1" class="edge">
<title>step_1&#45;&gt;sort_priority_3</title>
<path fill="none" stroke="black" d="M174.17,-537.57C211.82,-546.66 257.52,-557.69 290.99,-565.77"/>
<polygon fill="black" stroke="black" points="290.42,-569.24 300.96,-568.18 292.06,-562.43 290.42,-569.24"/>
</g>
<!-- sort_priority_2 -->
<g id="node5" class="node">
<title>sort_priority_2</title>
<polygon fill="none" stroke="black" points="431,-540 246,-540 246,-502 431,-502 431,-540"/>
<text text-anchor="start" x="254" y="-524.8" font-family="Times,serif" font-size="14.00">Wave / Purposeful Movement:</text>
<text text-anchor="start" x="308" y="-509.8" font-family="Times,serif" font-size="14.00">Assess 2nd</text>
</g>
<!-- step_1&#45;&gt;sort_priority_2 -->
<g id="edge2" class="edge">
<title>step_1&#45;&gt;sort_priority_2</title>
<path fill="none" stroke="black" d="M174.17,-521C193.46,-521 214.86,-521 235.64,-521"/>
<polygon fill="black" stroke="black" points="235.78,-524.5 245.78,-521 235.78,-517.5 235.78,-524.5"/>
</g>
<!-- sort_priority_1 -->
<g id="node6" class="node">
<title>sort_priority_1</title>
<polygon fill="none" stroke="black" points="421,-484 256,-484 256,-446 421,-446 421,-484"/>
<text text-anchor="start" x="264" y="-468.8" font-family="Times,serif" font-size="14.00">Still / Obvious Life Threat:</text>
<text text-anchor="start" x="310" y="-453.8" font-family="Times,serif" font-size="14.00">Assess 1st</text>
</g>
<!-- step_1&#45;&gt;sort_priority_1 -->
<g id="edge3" class="edge">
<title>step_1&#45;&gt;sort_priority_1</title>
<path fill="none" stroke="black" d="M174.17,-504.43C197.52,-498.79 223.97,-492.4 248.67,-486.44"/>
<polygon fill="black" stroke="black" points="249.51,-489.84 258.41,-484.09 247.86,-483.04 249.51,-489.84"/>
</g>
<!-- interventions -->
<g id="node7" class="node">
<title>interventions</title>
<polygon fill="none" stroke="black" points="196,-395.5 13,-395.5 13,-312.5 196,-312.5 196,-395.5"/>
<text text-anchor="start" x="36" y="-380.3" font-family="Times,serif" font-size="14.00">Lifesaving Interventions:</text>
<text text-anchor="start" x="31" y="-365.3" font-family="Times,serif" font-size="14.00">Control major hemorrhage</text>
<text text-anchor="start" x="21" y="-350.3" font-family="Times,serif" font-size="14.00">Open airway (if child consider</text>
<text text-anchor="start" x="54.5" y="-335.3" font-family="Times,serif" font-size="14.00"> &#160;two ventilations)</text>
<text text-anchor="start" x="46" y="-320.3" font-family="Times,serif" font-size="14.00">Chest decompression</text>
</g>
<!-- step_2&#45;&gt;interventions -->
<g id="edge5" class="edge">
<title>step_2&#45;&gt;interventions</title>
<path fill="none" stroke="black" d="M104.5,-430.63C104.5,-422.32 104.5,-414.01 104.5,-405.7"/>
<polygon fill="black" stroke="black" points="108,-405.56 104.5,-395.56 101,-405.56 108,-405.56"/>
</g>
<!-- step_3 -->
<g id="node3" class="node">
<title>step_3</title>
<polygon fill="none" stroke="black" points="209,-277 0,-277 0,-241 209,-241 209,-277"/>
<text text-anchor="middle" x="104.5" y="-255.3" font-family="Times,serif" font-size="14.00">Step 3: Treatment and/or Transport</text>
</g>
<!-- interventions&#45;&gt;step_3 -->
<g id="edge6" class="edge">
<title>interventions&#45;&gt;step_3</title>
<path fill="none" stroke="black" d="M104.5,-312.29C104.5,-303.97 104.5,-295.65 104.5,-287.33"/>
<polygon fill="black" stroke="black" points="108,-287.18 104.5,-277.18 101,-287.18 108,-287.18"/>
</g>
<!-- breathing -->
<g id="node9" class="node">
<title>breathing</title>
<polygon fill="none" stroke="black" points="391.93,-346.54 391.93,-361.46 360.63,-372 316.37,-372 285.07,-361.46 285.07,-346.54 316.37,-336 360.63,-336 391.93,-346.54"/>
<text text-anchor="middle" x="338.5" y="-350.3" font-family="Times,serif" font-size="14.00">Breathing?</text>
</g>
<!-- interventions&#45;&gt;breathing -->
<g id="edge7" class="edge">
<title>interventions&#45;&gt;breathing</title>
<path fill="none" stroke="black" d="M196.19,-354C222.55,-354 250.74,-354 274.95,-354"/>
<polygon fill="black" stroke="black" points="275.06,-357.5 285.06,-354 275.06,-350.5 275.06,-357.5"/>
</g>
<!-- criticality -->
<g id="node8" class="node">
<title>criticality</title>
<polygon fill="none" stroke="black" points="430.5,-300.5 246.5,-300.5 246.5,-217.5 430.5,-217.5 430.5,-300.5"/>
<text text-anchor="start" x="262" y="-285.3" font-family="Times,serif" font-size="14.00">Obeys commands or makes</text>
<text text-anchor="start" x="272.5" y="-270.3" font-family="Times,serif" font-size="14.00">purposeful movements?</text>
<text text-anchor="start" x="279.5" y="-255.3" font-family="Times,serif" font-size="14.00">Has peripheral pulse?</text>
<text text-anchor="start" x="264.5" y="-240.3" font-family="Times,serif" font-size="14.00">Not in respiratory distress?</text>
<text text-anchor="start" x="254.5" y="-225.3" font-family="Times,serif" font-size="14.00">Major hemhorrage controlled?</text>
</g>
<!-- minor_injuries -->
<g id="node10" class="node">
<title>minor_injuries</title>
<polygon fill="none" stroke="black" points="652.63,-261.92 652.63,-286.08 609.91,-303.17 549.51,-303.17 506.79,-286.08 506.79,-261.92 549.51,-244.83 609.91,-244.83 652.63,-261.92"/>
<text text-anchor="start" x="540.21" y="-277.8" font-family="Times,serif" font-size="14.00">Minor injuries</text>
<text text-anchor="start" x="564.21" y="-262.8" font-family="Times,serif" font-size="14.00">only?</text>
</g>
<!-- criticality&#45;&gt;minor_injuries -->
<g id="edge10" class="edge">
<title>criticality&#45;&gt;minor_injuries</title>
<path fill="none" stroke="black" d="M430.62,-264.71C452.39,-266.08 475.5,-267.53 496.82,-268.87"/>
<polygon fill="black" stroke="black" points="496.61,-272.36 506.81,-269.49 497.04,-265.37 496.61,-272.36"/>
<text text-anchor="middle" x="469" y="-271.8" font-family="Times,serif" font-size="14.00">All Yes</text>
</g>
<!-- survivable -->
<g id="node11" class="node">
<title>survivable</title>
<polygon fill="none" stroke="black" points="427.07,-95.17 427.07,-128.83 375.19,-152.63 301.81,-152.63 249.93,-128.83 249.93,-95.17 301.81,-71.37 375.19,-71.37 427.07,-95.17"/>
<text text-anchor="start" x="313.5" y="-123.3" font-family="Times,serif" font-size="14.00">Likely to</text>
<text text-anchor="start" x="301.5" y="-108.3" font-family="Times,serif" font-size="14.00">survive given</text>
<text text-anchor="start" x="288.5" y="-93.3" font-family="Times,serif" font-size="14.00">current resources?</text>
</g>
<!-- criticality&#45;&gt;survivable -->
<g id="edge13" class="edge">
<title>criticality&#45;&gt;survivable</title>
<path fill="none" stroke="black" d="M338.5,-217.25C338.5,-200.4 338.5,-180.8 338.5,-163.11"/>
<polygon fill="black" stroke="black" points="342,-162.95 338.5,-152.95 335,-162.95 342,-162.95"/>
<text text-anchor="middle" x="328" y="-181.33" font-family="Times,serif" font-size="14.00">Any No</text>
</g>
<!-- breathing&#45;&gt;criticality -->
<g id="edge9" class="edge">
<title>breathing&#45;&gt;criticality</title>
<path fill="none" stroke="black" d="M338.5,-335.95C338.5,-328.67 338.5,-319.87 338.5,-310.86"/>
<polygon fill="black" stroke="black" points="342,-310.67 338.5,-300.67 335,-310.67 342,-310.67"/>
<text text-anchor="middle" x="328" y="-314.55" font-family="Times,serif" font-size="14.00">Yes</text>
</g>
<!-- category_dead -->
<g id="node12" class="node">
<title>category_dead</title>
<polygon fill="none" stroke="black" points="606.71,-372 552.71,-372 552.71,-336 606.71,-336 606.71,-372"/>
<text text-anchor="middle" x="579.71" y="-350.3" font-family="Times,serif" font-size="14.00">Dead</text>
</g>
<!-- breathing&#45;&gt;category_dead -->
<g id="edge8" class="edge">
<title>breathing&#45;&gt;category_dead</title>
<path fill="none" stroke="black" d="M392,-354C437.57,-354 502.37,-354 542.41,-354"/>
<polygon fill="black" stroke="black" points="542.52,-357.5 552.52,-354 542.52,-350.5 542.52,-357.5"/>
<text text-anchor="middle" x="469" y="-357.8" font-family="Times,serif" font-size="14.00">No</text>
</g>
<!-- category_delayed -->
<g id="node15" class="node">
<title>category_delayed</title>
<polygon fill="none" stroke="black" points="610.71,-155 548.71,-155 548.71,-119 610.71,-119 610.71,-155"/>
<text text-anchor="middle" x="579.71" y="-133.3" font-family="Times,serif" font-size="14.00">Delayed</text>
</g>
<!-- minor_injuries&#45;&gt;category_delayed -->
<g id="edge12" class="edge">
<title>minor_injuries&#45;&gt;category_delayed</title>
<path fill="none" stroke="black" d="M524.12,-254.83C494.78,-241.14 467.02,-220.22 478.5,-192.5 488.67,-167.96 515.44,-153.95 538.9,-146.15"/>
<polygon fill="black" stroke="black" points="540.14,-149.43 548.69,-143.17 538.11,-142.73 540.14,-149.43"/>
<text text-anchor="middle" x="469" y="-196.3" font-family="Times,serif" font-size="14.00">No</text>
</g>
<!-- category_minimal -->
<g id="node16" class="node">
<title>category_minimal</title>
<polygon fill="none" stroke="black" points="612.21,-209 547.21,-209 547.21,-173 612.21,-173 612.21,-209"/>
<text text-anchor="middle" x="579.71" y="-187.3" font-family="Times,serif" font-size="14.00">Minimal</text>
</g>
<!-- minor_injuries&#45;&gt;category_minimal -->
<g id="edge11" class="edge">
<title>minor_injuries&#45;&gt;category_minimal</title>
<path fill="none" stroke="black" d="M579.71,-244.6C579.71,-236.35 579.71,-227.39 579.71,-219.2"/>
<polygon fill="black" stroke="black" points="583.21,-219.01 579.71,-209.01 576.21,-219.01 583.21,-219.01"/>
<text text-anchor="middle" x="569.21" y="-223.26" font-family="Times,serif" font-size="14.00">Yes</text>
</g>
<!-- category_expectant -->
<g id="node13" class="node">
<title>category_expectant</title>
<polygon fill="none" stroke="black" points="374,-36 303,-36 303,0 374,0 374,-36"/>
<text text-anchor="middle" x="338.5" y="-14.3" font-family="Times,serif" font-size="14.00">Expectant</text>
</g>
<!-- survivable&#45;&gt;category_expectant -->
<g id="edge15" class="edge">
<title>survivable&#45;&gt;category_expectant</title>
<path fill="none" stroke="black" d="M338.5,-71.35C338.5,-62.89 338.5,-54.16 338.5,-46.26"/>
<polygon fill="black" stroke="black" points="342,-46.12 338.5,-36.12 335,-46.12 342,-46.12"/>
<text text-anchor="middle" x="328" y="-50.02" font-family="Times,serif" font-size="14.00">No</text>
</g>
<!-- category_immediate -->
<g id="node14" class="node">
<title>category_immediate</title>
<polygon fill="none" stroke="black" points="617.71,-101 541.71,-101 541.71,-65 617.71,-65 617.71,-101"/>
<text text-anchor="middle" x="579.71" y="-79.3" font-family="Times,serif" font-size="14.00">Immediate</text>
</g>
<!-- survivable&#45;&gt;category_immediate -->
<g id="edge14" class="edge">
<title>survivable&#45;&gt;category_immediate</title>
<path fill="none" stroke="black" d="M427.21,-101.37C462.52,-97.09 501.83,-92.32 531.55,-88.72"/>
<polygon fill="black" stroke="black" points="532.14,-92.17 541.64,-87.49 531.3,-85.22 532.14,-92.17"/>
<text text-anchor="middle" x="469" y="-102.8" font-family="Times,serif" font-size="14.00">Yes</text>
</g>
</g>
</svg>
