<svg xmlns="http://www.w3.org/2000/svg" xmlns:xlink="http://www.w3.org/1999/xlink" width="1200" height="628" viewBox="0 0 1200 628">
  <defs>
    <rect id="tactics-a" width="1104" height="532" x="48" y="48" rx="24"/>
  </defs>
  <g fill="none" fill-rule="evenodd">
    <rect width="1200" height="628" fill="#FFF"/>
    <path fill="#FF006C" d="M80,580 L1120,580 C1120,588.836556 1112.83656,596 1104,596 L96,596 C87.163444,596 80,588.836556 80,580 L80,580 L80,580 Z" opacity=".5"/>
    <mask id="tactics-b" fill="#fff">
      <use xlink:href="#tactics-a"/>
    </mask>
    <use fill="#FF006C" xlink:href="#tactics-a"/>
    <g mask="url(#tactics-b)">
      <g transform="translate(184 204)">
        <path fill="#FFF" fill-rule="nonzero" d="M332.936 184L332.936 75.712 358.28 75.712 358.28 46.912 272.84 46.912 272.84 75.712 298.184 75.712 298.184 184 332.936 184zM382.856 185.92C389.896 185.92 395.496 184.64 399.656 182.08 403.816 179.52 407.752 175.488 411.464 169.984L411.464 169.984 412.04 169.984 417.992 184 441.608 184 441.608 114.304C441.608 101.504 438.408 91.904 432.008 85.504 425.608 79.104 416.968 75.904 406.088 75.904 397.896 75.904 390.44 76.736 383.72 78.4 377 80.064 370.952 82.432 365.576 85.504L365.576 85.504 374.408 108.928C383.88 103.68 391.816 101.056 398.216 101.056 404.744 101.056 408.008 105.408 408.008 114.112L408.008 114.112 408.008 116.416 393.8 116.992C381.768 117.504 372.552 120.544 366.152 126.112 359.752 131.68 356.552 140.16 356.552 151.552 356.552 157.824 357.512 163.584 359.432 168.832 361.352 174.08 364.264 178.24 368.168 181.312 372.072 184.384 376.968 185.92 382.856 185.92zM397.64 160.768C392.648 160.768 390.152 157.184 390.152 150.016 390.152 141.824 394.248 137.472 402.44 136.96L402.44 136.96 408.2 136.576 408.2 145.6C408.2 150.08 407.144 153.728 405.032 156.544 402.92 159.36 400.456 160.768 397.64 160.768zM502.088 185.92C507.848 185.92 513.128 185.184 517.928 183.712 522.728 182.24 527.112 180.096 531.08 177.28L531.08 177.28 531.08 150.016C523.912 155.776 516.68 158.656 509.384 158.656 503.752 158.656 499.304 156.416 496.04 151.936 492.776 147.456 491.144 140.608 491.144 131.392 491.144 122.176 492.776 115.168 496.04 110.368 499.304 105.568 503.56 103.168 508.808 103.168 511.496 103.168 514.248 103.68 517.064 104.704 519.88 105.728 522.568 107.008 525.128 108.544L525.128 108.544 533.768 83.968C529.288 81.408 524.552 79.424 519.56 78.016 514.568 76.608 509.192 75.904 503.432 75.904 493.32 75.904 484.84 78.208 477.992 82.816 471.144 87.424 465.96 93.92 462.44 102.304 458.92 110.688 457.16 120.384 457.16 131.392 457.16 150.208 461.064 164 468.872 172.768 476.68 181.536 487.752 185.92 502.088 185.92zM581.96 185.92C587.08 185.92 591.592 185.376 595.496 184.288 599.4 183.2 603.208 181.76 606.92 179.968L606.92 179.968 606.92 154.816C604.232 155.84 601.704 156.704 599.336 157.408 596.968 158.112 594.696 158.464 592.52 158.464 587.4 158.464 584.84 155.008 584.84 148.096L584.84 148.096 584.84 103.936 605.384 103.936 605.384 77.824 584.84 77.824 584.84 56.512 562.376 56.512 554.504 78.784 540.488 87.808 540.488 103.936 551.432 103.936 551.432 149.056C551.432 162.112 553.896 171.52 558.824 177.28 563.752 183.04 571.464 185.92 581.96 185.92zM637.64 67.456C643.144 67.456 647.464 66.176 650.6 63.616 653.736 61.056 655.304 56.96 655.304 51.328 655.304 45.568 653.768 41.408 650.696 38.848 647.624 36.288 643.272 35.008 637.64 35.008 631.88 35.008 627.496 36.288 624.488 38.848 621.48 41.408 619.976 45.568 619.976 51.328 619.976 56.96 621.544 61.056 624.68 63.616 627.816 66.176 632.136 67.456 637.64 67.456zM654.152 184L654.152 77.824 620.744 77.824 620.744 184 654.152 184zM715.4 185.92C721.16 185.92 726.44 185.184 731.24 183.712 736.04 182.24 740.424 180.096 744.392 177.28L744.392 177.28 744.392 150.016C737.224 155.776 729.992 158.656 722.696 158.656 717.064 158.656 712.616 156.416 709.352 151.936 706.088 147.456 704.456 140.608 704.456 131.392 704.456 122.176 706.088 115.168 709.352 110.368 712.616 105.568 716.872 103.168 722.12 103.168 724.808 103.168 727.56 103.68 730.376 104.704 733.192 105.728 735.88 107.008 738.44 108.544L738.44 108.544 747.08 83.968C742.6 81.408 737.864 79.424 732.872 78.016 727.88 76.608 722.504 75.904 716.744 75.904 706.632 75.904 698.152 78.208 691.304 82.816 684.456 87.424 679.272 93.92 675.752 102.304 672.232 110.688 670.472 120.384 670.472 131.392 670.472 150.208 674.376 164 682.184 172.768 689.992 181.536 701.064 185.92 715.4 185.92zM789.32 185.92C801.992 185.92 811.464 182.912 817.736 176.896 824.008 170.88 827.144 162.368 827.144 151.36 827.144 142.784 825.192 136.032 821.288 131.104 817.384 126.176 811.912 121.856 804.872 118.144 800.136 115.584 796.648 113.6 794.408 112.192 792.168 110.784 790.696 109.6 789.992 108.64 789.288 107.68 788.936 106.624 788.936 105.472 788.936 102.272 790.92 100.672 794.888 100.672 798.088 100.672 801.736 101.44 805.832 102.976 809.928 104.512 813.832 106.368 817.544 108.544L817.544 108.544 825.608 84.928C820.232 81.984 814.984 79.744 809.864 78.208 804.744 76.672 799.24 75.904 793.352 75.904 781.96 75.904 773.032 78.624 766.568 84.064 760.104 89.504 756.872 97.216 756.872 107.2 756.872 115.136 758.6 121.728 762.056 126.976 765.512 132.224 770.568 136.512 777.224 139.84 782.216 142.4 785.96 144.416 788.456 145.888 790.952 147.36 792.584 148.64 793.352 149.728 794.12 150.816 794.504 152 794.504 153.28 794.504 157.248 791.688 159.232 786.056 159.232 781.832 159.232 777.128 158.432 771.944 156.832 766.76 155.232 761.8 153.152 757.064 150.592L757.064 150.592 757.064 179.968C762.312 182.144 767.592 183.68 772.904 184.576 778.216 185.472 783.688 185.92 789.32 185.92zM180 20L148 20C144 8 133 0 120 0 107 0 96 8 92 20L60 20C49 20 40 29 40 40L40 160C40 171 49 180 60 180L180 180C191 180 200 171 200 160L200 40C200 29 191 20 180 20M120 20C126 20 130 25 130 30 130 35 125 40 120 40 115 40 110 35 110 30 110 25 114 20 120 20M140 130L70 130 70 110 140 110M170 90L70 90 70 70 170 70"/>
        <path fill="#FFF" fill-rule="nonzero" d="M20,200 L160,200 L160,220 L20,220 C9,220 0,211 0,200 L0,60 L20,60"/>
      </g>
    </g>
    <path stroke="#062CFF" stroke-linecap="square" stroke-width="32" d="M964,430.920834 C856.116559,425.693055 774.372559,425.693055 718.768,430.920834 C663.163441,436.148613 588.045136,446.904813 493.413085,463.189432"/>
  </g>
</svg>
