<svg xmlns="http://www.w3.org/2000/svg" xmlns:xlink="http://www.w3.org/1999/xlink" width="1200" height="628" viewBox="0 0 1200 628">
  <defs>
    <rect id="toolbox-a" width="1104" height="532" x="48" y="48" rx="24"/>
  </defs>
  <g fill="none" fill-rule="evenodd">
    <rect width="1200" height="628" fill="#FFF"/>
    <path fill="#FF006C" d="M80,580 L1120,580 C1120,588.836556 1112.83656,596 1104,596 L96,596 C87.163444,596 80,588.836556 80,580 L80,580 L80,580 Z" opacity=".5"/>
    <mask id="toolbox-b" fill="#fff">
      <use xlink:href="#toolbox-a"/>
    </mask>
    <use fill="#FF006C" xlink:href="#toolbox-a"/>
    <g mask="url(#toolbox-b)">
      <g transform="translate(155 221)">
        <path fill="#FFF" fill-rule="nonzero" d="M307.936,167 L307.936,58.712 L333.28,58.712 L333.28,29.912 L247.84,29.912 L247.84,58.712 L273.184,58.712 L273.184,167 L307.936,167 Z M378.976,168.92 C389.6,168.92 398.24,166.392 404.896,161.336 C411.552,156.28 416.416,149.56 419.488,141.176 C422.56,132.792 424.096,123.608 424.096,113.624 C424.096,101.976 422.208,92.088 418.432,83.96 C414.656,75.832 409.408,69.624 402.688,65.336 C395.968,61.048 388.192,58.904 379.36,58.904 C368.992,58.904 360.448,61.24 353.728,65.912 C347.008,70.584 342.016,77.048 338.752,85.304 C335.488,93.56 333.856,103 333.856,113.624 C333.856,123.736 335.552,132.984 338.944,141.368 C342.336,149.752 347.392,156.44 354.112,161.432 C360.832,166.424 369.12,168.92 378.976,168.92 Z M379.168,142.616 C375.072,142.616 372.16,140.152 370.432,135.224 C368.704,130.296 367.84,123.16 367.84,113.816 C367.84,104.088 368.704,96.888 370.432,92.216 C372.16,87.544 375.072,85.208 379.168,85.208 C383.264,85.208 386.144,87.576 387.808,92.312 C389.472,97.048 390.304,104.152 390.304,113.624 C390.304,123.224 389.472,130.456 387.808,135.32 C386.144,140.184 383.264,142.616 379.168,142.616 Z M481.888,168.92 C492.512,168.92 501.152,166.392 507.808,161.336 C514.464,156.28 519.328,149.56 522.4,141.176 C525.472,132.792 527.008,123.608 527.008,113.624 C527.008,101.976 525.12,92.088 521.344,83.96 C517.568,75.832 512.32,69.624 505.6,65.336 C498.88,61.048 491.104,58.904 482.272,58.904 C471.904,58.904 463.36,61.24 456.64,65.912 C449.92,70.584 444.928,77.048 441.664,85.304 C438.4,93.56 436.768,103 436.768,113.624 C436.768,123.736 438.464,132.984 441.856,141.368 C445.248,149.752 450.304,156.44 457.024,161.432 C463.744,166.424 472.032,168.92 481.888,168.92 Z M482.08,142.616 C477.984,142.616 475.072,140.152 473.344,135.224 C471.616,130.296 470.752,123.16 470.752,113.816 C470.752,104.088 471.616,96.888 473.344,92.216 C475.072,87.544 477.984,85.208 482.08,85.208 C486.176,85.208 489.056,87.576 490.72,92.312 C492.384,97.048 493.216,104.152 493.216,113.624 C493.216,123.224 492.384,130.456 490.72,135.32 C489.056,140.184 486.176,142.616 482.08,142.616 Z M576.544,167 L576.544,21.08 L543.136,21.08 L543.136,167 L576.544,167 Z M652,168.92 C661.984,168.92 669.856,164.056 675.616,154.328 C681.376,144.6 684.256,131.032 684.256,113.624 C684.256,96.472 681.408,83.064 675.712,73.4 C670.016,63.736 662.432,58.904 652.96,58.904 C642.848,58.904 635.04,64.088 629.536,74.456 L629.536,74.456 L628.576,74.456 C628.832,70.232 629.056,66.424 629.248,63.032 C629.44,59.64 629.536,56.664 629.536,54.104 L629.536,54.104 L629.536,21.08 L596.128,21.08 L596.128,167 L622.624,167 L627.808,156.632 L629.536,156.632 C632.864,160.984 636.128,164.12 639.328,166.04 C642.528,167.96 646.752,168.92 652,168.92 Z M640.672,141.848 C636.576,141.848 633.696,139.768 632.032,135.608 C630.368,131.448 629.536,124.824 629.536,115.736 L629.536,115.736 L629.536,109.976 C629.536,101.656 630.432,95.608 632.224,91.832 C634.016,88.056 636.704,86.168 640.288,86.168 C646.944,86.168 650.272,95.192 650.272,113.24 C650.272,132.312 647.072,141.848 640.672,141.848 Z M741.664,168.92 C752.288,168.92 760.928,166.392 767.584,161.336 C774.24,156.28 779.104,149.56 782.176,141.176 C785.248,132.792 786.784,123.608 786.784,113.624 C786.784,101.976 784.896,92.088 781.12,83.96 C777.344,75.832 772.096,69.624 765.376,65.336 C758.656,61.048 750.88,58.904 742.048,58.904 C731.68,58.904 723.136,61.24 716.416,65.912 C709.696,70.584 704.704,77.048 701.44,85.304 C698.176,93.56 696.544,103 696.544,113.624 C696.544,123.736 698.24,132.984 701.632,141.368 C705.024,149.752 710.08,156.44 716.8,161.432 C723.52,166.424 731.808,168.92 741.664,168.92 Z M741.856,142.616 C737.76,142.616 734.848,140.152 733.12,135.224 C731.392,130.296 730.528,123.16 730.528,113.816 C730.528,104.088 731.392,96.888 733.12,92.216 C734.848,87.544 737.76,85.208 741.856,85.208 C745.952,85.208 748.832,87.576 750.496,92.312 C752.16,97.048 752.992,104.152 752.992,113.624 C752.992,123.224 752.16,130.456 750.496,135.32 C748.832,140.184 745.952,142.616 741.856,142.616 Z M827.872,167 L839.392,136.28 L851.296,167 L888.352,167 L862.048,112.856 L887.2,60.824 L850.336,60.824 L839.968,89.24 L829.216,60.824 L792.352,60.824 L817.504,112.856 L791.392,167 L827.872,167 Z"/>
        <path fill="#062CFF" fill-rule="nonzero" d="M137.8,104.375 L197.8,164.375 L176.7,185.975 L116.7,125.975 L137.8,104.375 Z M98.9,8.775 L77.8,30.375 L91.9,44.375 L84.8,51.475 L102.7,69.275 L81.6,90.375 L63.9,72.575 L56.7,79.575 L42.2,65.475 L42.2,94.075 L35.2,101.075 L2.4158453e-13,65.475 L7,58.475 L35.1,58.475 L21.1,44.375 L56.7,8.775 C68.4,-2.925 87.2,-2.925 98.9,8.775 Z"/>
        <path fill="#FFF" fill-rule="nonzero" d="M154.4,73.9 C150.5,73.9 146.3,73.4 143,72 L29.1,185.4 L8,164.3 L121.4,50.4 C120,47.1 119.4,42.9 119.4,39.2 C119.4,19.5 135,4 154.4,4 C160.3,4 165.5,5.4 170.2,8.2 L143.5,34.9 L158.5,49.9 L185.2,23.2 C188,27.9 189.4,32.9 189.4,39.2 C189.4,58.4 173.9,73.9 154.4,73.9 Z"/>
      </g>
    </g>
  </g>
</svg>
