<svg xmlns="http://www.w3.org/2000/svg" width="640" height="320" viewBox="0 0 640 320">
  <g fill="none" fill-rule="evenodd">
    <rect width="640" height="320" fill="#FF006C"/>
    <g fill-rule="nonzero" transform="translate(47.064 103.336)">
      <path fill="#062CFF" d="M22.336,49.664 L33.024,14.272 L21.44,14.272 L17.536,31.936 C17.2373333,33.3013333 17.0026667,34.5493333 16.832,35.68 C16.6613333,36.8106667 16.5546667,37.8453333 16.512,38.784 L16.512,38.784 L16.256,38.784 C16.128,36.6933333 15.7866667,34.368 15.232,31.808 L15.232,31.808 L11.648,14.272 L5.40012479e-13,14.272 L10.56,49.664 L22.336,49.664 Z M42.048,10.816 C43.8826667,10.816 45.3226667,10.3893333 46.368,9.536 C47.4133333,8.68266667 47.936,7.31733333 47.936,5.44 C47.936,3.52 47.424,2.13333333 46.4,1.28 C45.376,0.426666667 43.9253333,1.63424829e-13 42.048,1.63424829e-13 C40.128,1.63424829e-13 38.6666667,0.426666667 37.664,1.28 C36.6613333,2.13333333 36.16,3.52 36.16,5.44 C36.16,7.31733333 36.6826667,8.68266667 37.728,9.536 C38.7733333,10.3893333 40.2133333,10.816 42.048,10.816 Z M47.552,49.664 L47.552,14.272 L36.416,14.272 L36.416,49.664 L47.552,49.664 Z M63.68,50.304 C65.5146667,50.304 66.976,49.9413333 68.064,49.216 C69.152,48.4906667 70.208,47.3813333 71.232,45.888 L71.232,45.888 L71.744,45.888 L73.664,49.664 L82.432,49.664 L82.432,1.024 L71.232,1.024 L71.232,11.584 C71.232,12.5226667 71.264,13.6213333 71.328,14.88 C71.392,16.1386667 71.4666667,17.4506667 71.552,18.816 L71.552,18.816 L71.296,18.816 C69.504,15.36 66.944,13.632 63.616,13.632 C60.416,13.632 57.8453333,15.232 55.904,18.432 C53.9626667,21.632 52.992,26.1333333 52.992,31.936 C52.992,37.696 53.952,42.1973333 55.872,45.44 C57.792,48.6826667 60.3946667,50.304 63.68,50.304 Z M67.712,41.344 C66.688,41.344 65.8666667,40.576 65.248,39.04 C64.6293333,37.504 64.32,35.1146667 64.32,31.872 C64.32,28.8426667 64.6293333,26.5706667 65.248,25.056 C65.8666667,23.5413333 66.7093333,22.784 67.776,22.784 C69.1413333,22.784 70.112,23.4666667 70.688,24.832 C71.264,26.1973333 71.552,28.288 71.552,31.104 L71.552,31.104 L71.552,32.832 C71.552,35.8186667 71.2533333,37.984 70.656,39.328 C70.0586667,40.672 69.0773333,41.344 67.712,41.344 Z M103.104,50.304 C107.626667,50.304 111.36,49.4506667 114.304,47.744 L114.304,47.744 L114.304,39.168 C112.597333,40.1493333 111.008,40.8533333 109.536,41.28 C108.064,41.7066667 106.453333,41.92 104.704,41.92 C100.736,41.92 98.752,39.7013333 98.752,35.264 L98.752,35.264 L116.224,35.264 L116.224,29.824 C116.224,24.576 114.976,20.576 112.48,17.824 C109.984,15.072 106.538667,13.696 102.144,13.696 C97.536,13.696 93.9626667,15.2533333 91.424,18.368 C88.8853333,21.4826667 87.616,26.0693333 87.616,32.128 C87.616,38.144 88.9386667,42.6773333 91.584,45.728 C94.2293333,48.7786667 98.0693333,50.304 103.104,50.304 Z M106.048,27.84 L98.752,27.84 C98.7946667,25.6213333 99.168,24.0533333 99.872,23.136 C100.576,22.2186667 101.44,21.76 102.464,21.76 C103.573333,21.76 104.448,22.272 105.088,23.296 C105.728,24.32 106.048,25.8346667 106.048,27.84 L106.048,27.84 Z M135.168,50.304 C138.709333,50.304 141.589333,49.4613333 143.808,47.776 C146.026667,46.0906667 147.648,43.8506667 148.672,41.056 C149.696,38.2613333 150.208,35.2 150.208,31.872 C150.208,27.9893333 149.578667,24.6933333 148.32,21.984 C147.061333,19.2746667 145.312,17.2053333 143.072,15.776 C140.832,14.3466667 138.24,13.632 135.296,13.632 C131.84,13.632 128.992,14.4106667 126.752,15.968 C124.512,17.5253333 122.848,19.68 121.76,22.432 C120.672,25.184 120.128,28.3306667 120.128,31.872 C120.128,35.2426667 120.693333,38.3253333 121.824,41.12 C122.954667,43.9146667 124.64,46.144 126.88,47.808 C129.12,49.472 131.882667,50.304 135.168,50.304 Z M135.232,41.536 C133.866667,41.536 132.896,40.7146667 132.32,39.072 C131.744,37.4293333 131.456,35.0506667 131.456,31.936 C131.456,28.6933333 131.744,26.2933333 132.32,24.736 C132.896,23.1786667 133.866667,22.4 135.232,22.4 C136.597333,22.4 137.557333,23.1893333 138.112,24.768 C138.666667,26.3466667 138.944,28.7146667 138.944,31.872 C138.944,35.072 138.666667,37.4826667 138.112,39.104 C137.557333,40.7253333 136.597333,41.536 135.232,41.536 Z M181.696,50.304 C183.616,50.304 185.376,50.0586667 186.976,49.568 C188.576,49.0773333 190.037333,48.3626667 191.36,47.424 L191.36,47.424 L191.36,38.336 C188.970667,40.256 186.56,41.216 184.128,41.216 C182.250667,41.216 180.768,40.4693333 179.68,38.976 C178.592,37.4826667 178.048,35.2 178.048,32.128 C178.048,29.056 178.592,26.72 179.68,25.12 C180.768,23.52 182.186667,22.72 183.936,22.72 C184.832,22.72 185.749333,22.8906667 186.688,23.232 C187.626667,23.5733333 188.522667,24 189.376,24.512 L189.376,24.512 L192.256,16.32 C190.762667,15.4666667 189.184,14.8053333 187.52,14.336 C185.856,13.8666667 184.064,13.632 182.144,13.632 C178.773333,13.632 175.946667,14.4 173.664,15.936 C171.381333,17.472 169.653333,19.6373333 168.48,22.432 C167.306667,25.2266667 166.72,28.4586667 166.72,32.128 C166.72,38.4 168.021333,42.9973333 170.624,45.92 C173.226667,48.8426667 176.917333,50.304 181.696,50.304 Z M204.16,50.304 C206.506667,50.304 208.373333,49.8773333 209.76,49.024 C211.146667,48.1706667 212.458667,46.8266667 213.696,44.992 L213.696,44.992 L213.888,44.992 L215.872,49.664 L223.744,49.664 L223.744,26.432 C223.744,22.1653333 222.677333,18.9653333 220.544,16.832 C218.410667,14.6986667 215.530667,13.632 211.904,13.632 C209.173333,13.632 206.688,13.9093333 204.448,14.464 C202.208,15.0186667 200.192,15.808 198.4,16.832 L198.4,16.832 L201.344,24.64 C204.501333,22.8906667 207.146667,22.016 209.28,22.016 C211.456,22.016 212.544,23.4666667 212.544,26.368 L212.544,26.368 L212.544,27.136 L207.808,27.328 C203.797333,27.4986667 200.725333,28.512 198.592,30.368 C196.458667,32.224 195.392,35.0506667 195.392,38.848 C195.392,40.9386667 195.712,42.8586667 196.352,44.608 C196.992,46.3573333 197.962667,47.744 199.264,48.768 C200.565333,49.792 202.197333,50.304 204.16,50.304 Z M209.088,41.92 C207.424,41.92 206.592,40.7253333 206.592,38.336 C206.592,35.6053333 207.957333,34.1546667 210.688,33.984 L210.688,33.984 L212.608,33.856 L212.608,36.864 C212.608,38.3573333 212.256,39.5733333 211.552,40.512 C210.848,41.4506667 210.026667,41.92 209.088,41.92 Z M241.216,49.664 L241.216,1.024 L230.08,1.024 L230.08,49.664 L241.216,49.664 Z M258.88,49.664 L258.88,1.024 L247.744,1.024 L247.744,49.664 L258.88,49.664 Z M271.104,10.816 C272.938667,10.816 274.378667,10.3893333 275.424,9.536 C276.469333,8.68266667 276.992,7.31733333 276.992,5.44 C276.992,3.52 276.48,2.13333333 275.456,1.28 C274.432,0.426666667 272.981333,1.63424829e-13 271.104,1.63424829e-13 C269.184,1.63424829e-13 267.722667,0.426666667 266.72,1.28 C265.717333,2.13333333 265.216,3.52 265.216,5.44 C265.216,7.31733333 265.738667,8.68266667 266.784,9.536 C267.829333,10.3893333 269.269333,10.816 271.104,10.816 Z M276.608,49.664 L276.608,14.272 L265.472,14.272 L265.472,49.664 L276.608,49.664 Z M294.336,49.664 L294.336,33.664 C294.336,29.824 294.581333,27.0826667 295.072,25.44 C295.562667,23.7973333 296.576,22.976 298.112,22.976 C299.306667,22.976 300.106667,23.5733333 300.512,24.768 C300.917333,25.9626667 301.12,27.7333333 301.12,30.08 L301.12,30.08 L301.12,49.664 L312.32,49.664 L312.32,26.624 C312.32,22.3573333 311.392,19.1253333 309.536,16.928 C307.68,14.7306667 305.194667,13.632 302.08,13.632 C300.032,13.632 298.325333,14.0586667 296.96,14.912 C295.594667,15.7653333 294.485333,17.024 293.632,18.688 L293.632,18.688 L293.184,18.688 L291.776,14.272 L283.2,14.272 L283.2,49.664 L294.336,49.664 Z M330.048,65.024 C335.893333,65.024 340.16,63.52 342.848,60.512 C345.536,57.504 346.88,53.1626667 346.88,47.488 L346.88,47.488 L346.88,14.272 L337.152,14.272 L336.32,18.688 L335.808,18.688 C334.954667,16.896 333.941333,15.6053333 332.768,14.816 C331.594667,14.0266667 330.069333,13.632 328.192,13.632 C324.906667,13.632 322.293333,15.264 320.352,18.528 C318.410667,21.792 317.44,26.3466667 317.44,32.192 C317.44,37.8666667 318.4,42.304 320.32,45.504 C322.24,48.704 324.778667,50.304 327.936,50.304 C329.898667,50.304 331.477333,49.8666667 332.672,48.992 C333.866667,48.1173333 334.869333,46.8266667 335.68,45.12 L335.68,45.12 L336.064,45.12 C335.936,45.8453333 335.84,46.656 335.776,47.552 C335.712,48.448 335.68,49.216 335.68,49.856 L335.68,49.856 L335.68,50.304 C335.68,52.3093333 335.125333,53.76 334.016,54.656 C332.906667,55.552 331.392,56 329.472,56 C327.552,56 325.770667,55.776 324.128,55.328 C322.485333,54.88 320.725333,54.1866667 318.848,53.248 L318.848,53.248 L318.848,62.528 C321.92,64.192 325.653333,65.024 330.048,65.024 Z M332.224,41.216 C331.072,41.216 330.208,40.4906667 329.632,39.04 C329.056,37.5893333 328.768,35.3493333 328.768,32.32 C328.768,25.92 329.898667,22.72 332.16,22.72 C333.610667,22.72 334.613333,23.4346667 335.168,24.864 C335.722667,26.2933333 336,28.5226667 336,31.552 L336,31.552 L336,33.28 C336,36.0106667 335.722667,38.016 335.168,39.296 C334.613333,40.576 333.632,41.216 332.224,41.216 Z"/>
      <path fill="#FFF" d="M15.744,113.664 L15.744,86.976 L21.632,86.976 L21.632,78.272 L15.744,78.272 L15.744,77.056 C15.744,75.776 15.8933333,74.8586667 16.192,74.304 C16.4906667,73.7493333 16.96,73.472 17.6,73.472 C18.1973333,73.472 18.7733333,73.536 19.328,73.664 C19.8826667,73.792 20.4373333,73.9413333 20.992,74.112 L20.992,74.112 L23.168,66.368 C21.504,65.8133333 20.064,65.3973333 18.848,65.12 C17.632,64.8426667 16.2773333,64.704 14.784,64.704 C11.2,64.704 8.61866667,65.7173333 7.04,67.744 C5.46133333,69.7706667 4.672,73.1306667 4.672,77.824 L4.672,77.824 L4.672,78.4 L0.704,81.344 L0.704,86.976 L4.544,86.976 L4.544,113.664 L15.744,113.664 Z M39.232,114.304 C42.7733333,114.304 45.6533333,113.461333 47.872,111.776 C50.0906667,110.090667 51.712,107.850667 52.736,105.056 C53.76,102.261333 54.272,99.2 54.272,95.872 C54.272,91.9893333 53.6426667,88.6933333 52.384,85.984 C51.1253333,83.2746667 49.376,81.2053333 47.136,79.776 C44.896,78.3466667 42.304,77.632 39.36,77.632 C35.904,77.632 33.056,78.4106667 30.816,79.968 C28.576,81.5253333 26.912,83.68 25.824,86.432 C24.736,89.184 24.192,92.3306667 24.192,95.872 C24.192,99.2426667 24.7573333,102.325333 25.888,105.12 C27.0186667,107.914667 28.704,110.144 30.944,111.808 C33.184,113.472 35.9466667,114.304 39.232,114.304 Z M39.296,105.536 C37.9306667,105.536 36.96,104.714667 36.384,103.072 C35.808,101.429333 35.52,99.0506667 35.52,95.936 C35.52,92.6933333 35.808,90.2933333 36.384,88.736 C36.96,87.1786667 37.9306667,86.4 39.296,86.4 C40.6613333,86.4 41.6213333,87.1893333 42.176,88.768 C42.7306667,90.3466667 43.008,92.7146667 43.008,95.872 C43.008,99.072 42.7306667,101.482667 42.176,103.104 C41.6213333,104.725333 40.6613333,105.536 39.296,105.536 Z M70.848,113.664 L70.848,96 C70.848,93.3973333 71.3813333,91.5626667 72.448,90.496 C73.5146667,89.4293333 74.88,88.896 76.544,88.896 C77.44,88.896 78.1653333,88.928 78.72,88.992 C79.2746667,89.056 79.7653333,89.152 80.192,89.28 L80.192,89.28 L81.088,78.016 C80.064,77.76 79.04,77.632 78.016,77.632 C76.864,77.632 75.7866667,77.9413333 74.784,78.56 C73.7813333,79.1786667 72.9066667,79.968 72.16,80.928 C71.4133333,81.888 70.8053333,82.88 70.336,83.904 L70.336,83.904 L69.76,83.904 L68.096,78.272 L59.648,78.272 L59.648,113.664 L70.848,113.664 Z M104.256,114.304 C106.602667,114.304 108.469333,113.877333 109.856,113.024 C111.242667,112.170667 112.554667,110.826667 113.792,108.992 L113.792,108.992 L113.984,108.992 L115.968,113.664 L123.84,113.664 L123.84,90.432 C123.84,86.1653333 122.773333,82.9653333 120.64,80.832 C118.506667,78.6986667 115.626667,77.632 112,77.632 C109.269333,77.632 106.784,77.9093333 104.544,78.464 C102.304,79.0186667 100.288,79.808 98.496,80.832 L98.496,80.832 L101.44,88.64 C104.597333,86.8906667 107.242667,86.016 109.376,86.016 C111.552,86.016 112.64,87.4666667 112.64,90.368 L112.64,90.368 L112.64,91.136 L107.904,91.328 C103.893333,91.4986667 100.821333,92.512 98.688,94.368 C96.5546667,96.224 95.488,99.0506667 95.488,102.848 C95.488,104.938667 95.808,106.858667 96.448,108.608 C97.088,110.357333 98.0586667,111.744 99.36,112.768 C100.661333,113.792 102.293333,114.304 104.256,114.304 Z M109.184,105.92 C107.52,105.92 106.688,104.725333 106.688,102.336 C106.688,99.6053333 108.053333,98.1546667 110.784,97.984 L110.784,97.984 L112.704,97.856 L112.704,100.864 C112.704,102.357333 112.352,103.573333 111.648,104.512 C110.944,105.450667 110.122667,105.92 109.184,105.92 Z M144,114.304 C145.92,114.304 147.68,114.058667 149.28,113.568 C150.88,113.077333 152.341333,112.362667 153.664,111.424 L153.664,111.424 L153.664,102.336 C151.274667,104.256 148.864,105.216 146.432,105.216 C144.554667,105.216 143.072,104.469333 141.984,102.976 C140.896,101.482667 140.352,99.2 140.352,96.128 C140.352,93.056 140.896,90.72 141.984,89.12 C143.072,87.52 144.490667,86.72 146.24,86.72 C147.136,86.72 148.053333,86.8906667 148.992,87.232 C149.930667,87.5733333 150.826667,88 151.68,88.512 L151.68,88.512 L154.56,80.32 C153.066667,79.4666667 151.488,78.8053333 149.824,78.336 C148.16,77.8666667 146.368,77.632 144.448,77.632 C141.077333,77.632 138.250667,78.4 135.968,79.936 C133.685333,81.472 131.957333,83.6373333 130.784,86.432 C129.610667,89.2266667 129.024,92.4586667 129.024,96.128 C129.024,102.4 130.325333,106.997333 132.928,109.92 C135.530667,112.842667 139.221333,114.304 144,114.304 Z M170.624,114.304 C172.330667,114.304 173.834667,114.122667 175.136,113.76 C176.437333,113.397333 177.706667,112.917333 178.944,112.32 L178.944,112.32 L178.944,103.936 C178.048,104.277333 177.205333,104.565333 176.416,104.8 C175.626667,105.034667 174.869333,105.152 174.144,105.152 C172.437333,105.152 171.584,104 171.584,101.696 L171.584,101.696 L171.584,86.976 L178.432,86.976 L178.432,78.272 L171.584,78.272 L171.584,71.168 L164.096,71.168 L161.472,78.592 L156.8,81.6 L156.8,86.976 L160.448,86.976 L160.448,102.016 C160.448,106.368 161.269333,109.504 162.912,111.424 C164.554667,113.344 167.125333,114.304 170.624,114.304 Z M189.184,74.816 C191.018667,74.816 192.458667,74.3893333 193.504,73.536 C194.549333,72.6826667 195.072,71.3173333 195.072,69.44 C195.072,67.52 194.56,66.1333333 193.536,65.28 C192.512,64.4266667 191.061333,64 189.184,64 C187.264,64 185.802667,64.4266667 184.8,65.28 C183.797333,66.1333333 183.296,67.52 183.296,69.44 C183.296,71.3173333 183.818667,72.6826667 184.864,73.536 C185.909333,74.3893333 187.349333,74.816 189.184,74.816 Z M194.688,113.664 L194.688,78.272 L183.552,78.272 L183.552,113.664 L194.688,113.664 Z M220.48,113.664 L231.168,78.272 L219.584,78.272 L215.68,95.936 C215.381333,97.3013333 215.146667,98.5493333 214.976,99.68 C214.805333,100.810667 214.698667,101.845333 214.656,102.784 L214.656,102.784 L214.4,102.784 C214.272,100.693333 213.930667,98.368 213.376,95.808 L213.376,95.808 L209.792,78.272 L198.144,78.272 L208.704,113.664 L220.48,113.664 Z M240.192,74.816 C242.026667,74.816 243.466667,74.3893333 244.512,73.536 C245.557333,72.6826667 246.08,71.3173333 246.08,69.44 C246.08,67.52 245.568,66.1333333 244.544,65.28 C243.52,64.4266667 242.069333,64 240.192,64 C238.272,64 236.810667,64.4266667 235.808,65.28 C234.805333,66.1333333 234.304,67.52 234.304,69.44 C234.304,71.3173333 234.826667,72.6826667 235.872,73.536 C236.917333,74.3893333 238.357333,74.816 240.192,74.816 Z M245.696,113.664 L245.696,78.272 L234.56,78.272 L234.56,113.664 L245.696,113.664 Z M261.696,114.304 C265.92,114.304 269.077333,113.301333 271.168,111.296 C273.258667,109.290667 274.304,106.453333 274.304,102.784 C274.304,99.9253333 273.653333,97.6746667 272.352,96.032 C271.050667,94.3893333 269.226667,92.9493333 266.88,91.712 C265.301333,90.8586667 264.138667,90.1973333 263.392,89.728 C262.645333,89.2586667 262.154667,88.864 261.92,88.544 C261.685333,88.224 261.568,87.872 261.568,87.488 C261.568,86.4213333 262.229333,85.888 263.552,85.888 C264.618667,85.888 265.834667,86.144 267.2,86.656 C268.565333,87.168 269.866667,87.7866667 271.104,88.512 L271.104,88.512 L273.792,80.64 C272,79.6586667 270.250667,78.912 268.544,78.4 C266.837333,77.888 265.002667,77.632 263.04,77.632 C259.242667,77.632 256.266667,78.5386667 254.112,80.352 C251.957333,82.1653333 250.88,84.736 250.88,88.064 C250.88,90.7093333 251.456,92.9066667 252.608,94.656 C253.76,96.4053333 255.445333,97.8346667 257.664,98.944 C259.328,99.7973333 260.576,100.469333 261.408,100.96 C262.24,101.450667 262.784,101.877333 263.04,102.24 C263.296,102.602667 263.424,102.997333 263.424,103.424 C263.424,104.746667 262.485333,105.408 260.608,105.408 C259.2,105.408 257.632,105.141333 255.904,104.608 C254.176,104.074667 252.522667,103.381333 250.944,102.528 L250.944,102.528 L250.944,112.32 C252.693333,113.045333 254.453333,113.557333 256.224,113.856 C257.994667,114.154667 259.818667,114.304 261.696,114.304 Z M290.624,114.304 C292.330667,114.304 293.834667,114.122667 295.136,113.76 C296.437333,113.397333 297.706667,112.917333 298.944,112.32 L298.944,112.32 L298.944,103.936 C298.048,104.277333 297.205333,104.565333 296.416,104.8 C295.626667,105.034667 294.869333,105.152 294.144,105.152 C292.437333,105.152 291.584,104 291.584,101.696 L291.584,101.696 L291.584,86.976 L298.432,86.976 L298.432,78.272 L291.584,78.272 L291.584,71.168 L284.096,71.168 L281.472,78.592 L276.8,81.6 L276.8,86.976 L280.448,86.976 L280.448,102.016 C280.448,106.368 281.269333,109.504 282.912,111.424 C284.554667,113.344 287.125333,114.304 290.624,114.304 Z M312.896,114.304 C317.12,114.304 320.277333,113.301333 322.368,111.296 C324.458667,109.290667 325.504,106.453333 325.504,102.784 C325.504,99.9253333 324.853333,97.6746667 323.552,96.032 C322.250667,94.3893333 320.426667,92.9493333 318.08,91.712 C316.501333,90.8586667 315.338667,90.1973333 314.592,89.728 C313.845333,89.2586667 313.354667,88.864 313.12,88.544 C312.885333,88.224 312.768,87.872 312.768,87.488 C312.768,86.4213333 313.429333,85.888 314.752,85.888 C315.818667,85.888 317.034667,86.144 318.4,86.656 C319.765333,87.168 321.066667,87.7866667 322.304,88.512 L322.304,88.512 L324.992,80.64 C323.2,79.6586667 321.450667,78.912 319.744,78.4 C318.037333,77.888 316.202667,77.632 314.24,77.632 C310.442667,77.632 307.466667,78.5386667 305.312,80.352 C303.157333,82.1653333 302.08,84.736 302.08,88.064 C302.08,90.7093333 302.656,92.9066667 303.808,94.656 C304.96,96.4053333 306.645333,97.8346667 308.864,98.944 C310.528,99.7973333 311.776,100.469333 312.608,100.96 C313.44,101.450667 313.984,101.877333 314.24,102.24 C314.496,102.602667 314.624,102.997333 314.624,103.424 C314.624,104.746667 313.685333,105.408 311.808,105.408 C310.4,105.408 308.832,105.141333 307.104,104.608 C305.376,104.074667 303.722667,103.381333 302.144,102.528 L302.144,102.528 L302.144,112.32 C303.893333,113.045333 305.653333,113.557333 307.424,113.856 C309.194667,114.154667 311.018667,114.304 312.896,114.304 Z"/>
    </g>
    <path fill="#002CFF" fill-rule="nonzero" d="M138.24,103.68 L103.68,76.032 L103.68,103.68 L34.56,103.68 L34.56,34.56 L103.68,34.56 L103.68,62.208 L138.24,34.56 M155.52,0 L17.28,0 C7.73651952,0 0,7.73651952 0,17.28 L0,172.8 L34.56,138.24 L155.52,138.24 C165.06348,138.24 172.8,130.50348 172.8,120.96 L172.8,17.28 C172.8,7.6896 165.024,0 155.52,0 Z" transform="translate(431 74)"/>
  </g>
</svg>
