<svg xmlns="http://www.w3.org/2000/svg" xmlns:xlink="http://www.w3.org/1999/xlink" width="1200" height="628" viewBox="0 0 1200 628">
  <defs>
    <rect id="wellbeing-a" width="1104" height="532" x="48" y="48" rx="24"/>
  </defs>
  <g fill="none" fill-rule="evenodd">
    <rect width="1200" height="628" fill="#FFF"/>
    <path fill="#FF006C" d="M80,580 L1120,580 C1120,588.836556 1112.83656,596 1104,596 L96,596 C87.163444,596 80,588.836556 80,580 L80,580 L80,580 Z" opacity=".5"/>
    <mask id="wellbeing-b" fill="#fff">
      <use xlink:href="#wellbeing-a"/>
    </mask>
    <use fill="#FF006C" xlink:href="#wellbeing-a"/>
    <g fill="#062CFF" fill-rule="nonzero" mask="url(#wellbeing-b)">
      <path d="M50,91.75 L42.75,85.15 C17,61.8 0,46.35 0,27.5 C0,12.05 12.1,0 27.5,0 C36.2,0 44.55,4.05 50,10.4 C55.45,4.05 63.8,0 72.5,0 C87.9,0 100,12.05 100,27.5 C100,46.35 83,61.8 57.25,85.15 L50,91.75 Z" transform="translate(729 178)"/>
    </g>
    <g fill="#FFF" fill-rule="nonzero" mask="url(#wellbeing-b)">
      <path d="M67.544,149 L76.76,95.624 C77.4,92.552 78.04,88.808 78.68,84.392 C79.32,79.976 79.896,75.496 80.408,70.952 C80.92,66.408 81.304,62.408 81.56,58.952 C82.072,65.096 82.808,71.592 83.768,78.44 C84.728,85.288 85.592,91.08 86.36,95.816 L86.36,95.816 L95.384,149 L135.704,149 L162.584,11.912 L128.792,11.912 L118.424,74.504 C117.784,78.216 117.112,82.344 116.408,86.888 C115.704,91.432 115.032,95.944 114.392,100.424 C113.752,104.904 113.304,109 113.048,112.712 C112.28,106.44 111.416,99.88 110.456,93.032 C109.496,86.184 108.568,80.2 107.672,75.08 L107.672,75.08 L96.344,11.912 L67.16,11.912 L55.064,75.464 C54.04,80.2 52.984,85.928 51.896,92.648 C50.808,99.368 49.944,106.056 49.304,112.712 C48.92,108.488 48.44,104.04 47.864,99.368 C47.288,94.696 46.68,90.184 46.04,85.832 C45.4,81.48 44.824,77.832 44.312,74.888 L44.312,74.888 L33.752,11.912 L0.344,11.912 L27.416,149 L67.544,149 Z M213.848,150.92 C227.416,150.92 238.616,148.36 247.448,143.24 L247.448,143.24 L247.448,117.512 C242.328,120.456 237.56,122.568 233.144,123.848 C228.728,125.128 223.896,125.768 218.648,125.768 C206.744,125.768 200.792,119.112 200.792,105.8 L200.792,105.8 L253.208,105.8 L253.208,89.48 C253.208,73.736 249.464,61.736 241.976,53.48 C234.488,45.224 224.152,41.096 210.968,41.096 C197.144,41.096 186.424,45.768 178.808,55.112 C171.192,64.456 167.384,78.216 167.384,96.392 C167.384,114.44 171.352,128.04 179.288,137.192 C187.224,146.344 198.744,150.92 213.848,150.92 Z M222.68,83.528 L200.792,83.528 C200.92,76.872 202.04,72.168 204.152,69.416 C206.264,66.664 208.856,65.288 211.928,65.288 C215.256,65.288 217.88,66.824 219.8,69.896 C221.72,72.968 222.68,77.512 222.68,83.528 L222.68,83.528 Z M301.784,149 L301.784,3.08 L268.376,3.08 L268.376,149 L301.784,149 Z M354.776,149 L354.776,3.08 L321.368,3.08 L321.368,149 L354.776,149 Z M430.232,150.92 C440.216,150.92 448.088,146.056 453.848,136.328 C459.608,126.6 462.488,113.032 462.488,95.624 C462.488,78.472 459.64,65.064 453.944,55.4 C448.248,45.736 440.664,40.904 431.192,40.904 C421.08,40.904 413.272,46.088 407.768,56.456 L407.768,56.456 L406.808,56.456 C407.064,52.232 407.288,48.424 407.48,45.032 C407.672,41.64 407.768,38.664 407.768,36.104 L407.768,36.104 L407.768,3.08 L374.36,3.08 L374.36,149 L400.856,149 L406.04,138.632 L407.768,138.632 C411.096,142.984 414.36,146.12 417.56,148.04 C420.76,149.96 424.984,150.92 430.232,150.92 Z M418.904,123.848 C414.808,123.848 411.928,121.768 410.264,117.608 C408.6,113.448 407.768,106.824 407.768,97.736 L407.768,97.736 L407.768,91.976 C407.768,83.656 408.664,77.608 410.456,73.832 C412.248,70.056 414.936,68.168 418.52,68.168 C425.176,68.168 428.504,77.192 428.504,95.24 C428.504,114.312 425.304,123.848 418.904,123.848 Z M521.24,150.92 C534.808,150.92 546.008,148.36 554.84,143.24 L554.84,143.24 L554.84,117.512 C549.72,120.456 544.952,122.568 540.536,123.848 C536.12,125.128 531.288,125.768 526.04,125.768 C514.136,125.768 508.184,119.112 508.184,105.8 L508.184,105.8 L560.6,105.8 L560.6,89.48 C560.6,73.736 556.856,61.736 549.368,53.48 C541.88,45.224 531.544,41.096 518.36,41.096 C504.536,41.096 493.816,45.768 486.2,55.112 C478.584,64.456 474.776,78.216 474.776,96.392 C474.776,114.44 478.744,128.04 486.68,137.192 C494.616,146.344 506.136,150.92 521.24,150.92 Z M530.072,83.528 L508.184,83.528 C508.312,76.872 509.432,72.168 511.544,69.416 C513.656,66.664 516.248,65.288 519.32,65.288 C522.648,65.288 525.272,66.824 527.192,69.896 C529.112,72.968 530.072,77.512 530.072,83.528 L530.072,83.528 Z M609.368,149 L609.368,42.824 L575.96,42.824 L575.96,149 L609.368,149 Z M662.552,149 L662.55292,100.298812 C662.582347,89.1456993 663.318041,81.1554286 664.76,76.328 C666.232,71.4 669.272,68.936 673.88,68.936 C677.464,68.936 679.864,70.728 681.08,74.312 C682.296,77.896 682.904,83.208 682.904,90.248 L682.904,90.248 L682.904,149 L716.504,149 L716.504,79.88 C716.504,67.08 713.72,57.384 708.152,50.792 C702.584,44.2 695.128,40.904 685.784,40.904 C679.64,40.904 674.52,42.184 670.424,44.744 C666.328,47.304 663,51.08 660.44,56.072 L660.44,56.072 L659.096,56.072 L654.872,42.824 L629.144,42.824 L629.144,149 L662.552,149 Z M769.688,195.08 C787.224,195.08 800.024,190.568 808.088,181.544 C816.152,172.52 820.184,159.496 820.184,142.472 L820.184,142.472 L820.184,42.824 L791,42.824 L788.504,56.072 L786.968,56.072 C784.408,50.696 781.368,46.824 777.848,44.456 C774.328,42.088 769.752,40.904 764.12,40.904 C754.264,40.904 746.424,45.8 740.6,55.592 C734.776,65.384 731.864,79.048 731.864,96.584 C731.864,113.608 734.744,126.92 740.504,136.52 C746.264,146.12 753.88,150.92 763.352,150.92 C769.24,150.92 773.976,149.608 777.56,146.984 C781.144,144.36 784.152,140.488 786.584,135.368 L786.584,135.368 L787.736,135.368 C787.352,137.544 787.064,139.976 786.872,142.664 C786.68,145.352 786.584,147.656 786.584,149.576 L786.584,149.576 L786.584,150.92 C786.584,156.936 784.92,161.288 781.592,163.976 C778.264,166.664 773.72,168.008 767.96,168.008 C762.2,168.008 756.856,167.336 751.928,165.992 C747,164.648 741.72,162.568 736.088,159.752 L736.088,159.752 L736.088,187.592 C745.304,192.584 756.504,195.08 769.688,195.08 Z M776.216,123.656 C772.76,123.656 770.168,121.48 768.44,117.128 C766.712,112.776 765.848,106.056 765.848,96.968 C765.848,77.768 769.24,68.168 776.024,68.168 C780.376,68.168 783.384,70.312 785.048,74.6 C786.712,78.888 787.544,85.576 787.544,94.664 L787.544,94.664 L787.544,99.848 C787.544,108.04 786.712,114.056 785.048,117.896 C783.384,121.736 780.44,123.656 776.216,123.656 Z" transform="translate(186 239)"/>
    </g>
  </g>
</svg>
