<svg xmlns="http://www.w3.org/2000/svg" width="640" height="320" viewBox="0 0 640 320">
  <g fill="none" fill-rule="evenodd">
    <rect width="640" height="320" fill="#FF006C"/>
    <g fill-rule="nonzero" transform="translate(47.768 104.36)">
      <path fill="#FFF" d="M9.664,49.28 C12.0106667,49.28 13.8773333,48.8533333 15.264,48 C16.6506667,47.1466667 17.9626667,45.8026667 19.2,43.968 L19.2,43.968 L19.392,43.968 L21.376,48.64 L29.248,48.64 L29.248,25.408 C29.248,21.1413333 28.1813333,17.9413333 26.048,15.808 C23.9146667,13.6746667 21.0346667,12.608 17.408,12.608 C14.6773333,12.608 12.192,12.8853333 9.952,13.44 C7.712,13.9946667 5.696,14.784 3.904,15.808 L3.904,15.808 L6.848,23.616 C10.0053333,21.8666667 12.6506667,20.992 14.784,20.992 C16.96,20.992 18.048,22.4426667 18.048,25.344 L18.048,25.344 L18.048,26.112 L13.312,26.304 C9.30133333,26.4746667 6.22933333,27.488 4.096,29.344 C1.96266667,31.2 0.896,34.0266667 0.896,37.824 C0.896,39.9146667 1.216,41.8346667 1.856,43.584 C2.496,45.3333333 3.46666667,46.72 4.768,47.744 C6.06933333,48.768 7.70133333,49.28 9.664,49.28 Z M14.592,40.896 C12.928,40.896 12.096,39.7013333 12.096,37.312 C12.096,34.5813333 13.4613333,33.1306667 16.192,32.96 L16.192,32.96 L18.112,32.832 L18.112,35.84 C18.112,37.3333333 17.76,38.5493333 17.056,39.488 C16.352,40.4266667 15.5306667,40.896 14.592,40.896 Z"/>
      <path fill="#062CFF" d="M59.264,49.28 C60.9706667,49.28 62.4746667,49.0986667 63.776,48.736 C65.0773333,48.3733333 66.3466667,47.8933333 67.584,47.296 L67.584,47.296 L67.584,38.912 C66.688,39.2533333 65.8453333,39.5413333 65.056,39.776 C64.2666667,40.0106667 63.5093333,40.128 62.784,40.128 C61.0773333,40.128 60.224,38.976 60.224,36.672 L60.224,36.672 L60.224,21.952 L67.072,21.952 L67.072,13.248 L60.224,13.248 L60.224,6.144 L52.736,6.144 L50.112,13.568 L45.44,16.576 L45.44,21.952 L49.088,21.952 L49.088,36.992 C49.088,41.344 49.9093333,44.48 51.552,46.4 C53.1946667,48.32 55.7653333,49.28 59.264,49.28 Z M86.016,49.28 C89.5573333,49.28 92.4373333,48.4373333 94.656,46.752 C96.8746667,45.0666667 98.496,42.8266667 99.52,40.032 C100.544,37.2373333 101.056,34.176 101.056,30.848 C101.056,26.9653333 100.426667,23.6693333 99.168,20.96 C97.9093333,18.2506667 96.16,16.1813333 93.92,14.752 C91.68,13.3226667 89.088,12.608 86.144,12.608 C82.688,12.608 79.84,13.3866667 77.6,14.944 C75.36,16.5013333 73.696,18.656 72.608,21.408 C71.52,24.16 70.976,27.3066667 70.976,30.848 C70.976,34.2186667 71.5413333,37.3013333 72.672,40.096 C73.8026667,42.8906667 75.488,45.12 77.728,46.784 C79.968,48.448 82.7306667,49.28 86.016,49.28 Z M86.08,40.512 C84.7146667,40.512 83.744,39.6906667 83.168,38.048 C82.592,36.4053333 82.304,34.0266667 82.304,30.912 C82.304,27.6693333 82.592,25.2693333 83.168,23.712 C83.744,22.1546667 84.7146667,21.376 86.08,21.376 C87.4453333,21.376 88.4053333,22.1653333 88.96,23.744 C89.5146667,25.3226667 89.792,27.6906667 89.792,30.848 C89.792,34.048 89.5146667,36.4586667 88.96,38.08 C88.4053333,39.7013333 87.4453333,40.512 86.08,40.512 Z M120.32,49.28 C123.861333,49.28 126.741333,48.4373333 128.96,46.752 C131.178667,45.0666667 132.8,42.8266667 133.824,40.032 C134.848,37.2373333 135.36,34.176 135.36,30.848 C135.36,26.9653333 134.730667,23.6693333 133.472,20.96 C132.213333,18.2506667 130.464,16.1813333 128.224,14.752 C125.984,13.3226667 123.392,12.608 120.448,12.608 C116.992,12.608 114.144,13.3866667 111.904,14.944 C109.664,16.5013333 108,18.656 106.912,21.408 C105.824,24.16 105.28,27.3066667 105.28,30.848 C105.28,34.2186667 105.845333,37.3013333 106.976,40.096 C108.106667,42.8906667 109.792,45.12 112.032,46.784 C114.272,48.448 117.034667,49.28 120.32,49.28 Z M120.384,40.512 C119.018667,40.512 118.048,39.6906667 117.472,38.048 C116.896,36.4053333 116.608,34.0266667 116.608,30.912 C116.608,27.6693333 116.896,25.2693333 117.472,23.712 C118.048,22.1546667 119.018667,21.376 120.384,21.376 C121.749333,21.376 122.709333,22.1653333 123.264,23.744 C123.818667,25.3226667 124.096,27.6906667 124.096,30.848 C124.096,34.048 123.818667,36.4586667 123.264,38.08 C122.709333,39.7013333 121.749333,40.512 120.384,40.512 Z M151.872,48.64 L151.872,-1.20792265e-13 L140.736,-1.20792265e-13 L140.736,48.64 L151.872,48.64 Z M177.024,49.28 C180.352,49.28 182.976,47.6586667 184.896,44.416 C186.816,41.1733333 187.776,36.6506667 187.776,30.848 C187.776,25.1306667 186.826667,20.6613333 184.928,17.44 C183.029333,14.2186667 180.501333,12.608 177.344,12.608 C173.973333,12.608 171.370667,14.336 169.536,17.792 L169.536,17.792 L169.216,17.792 C169.301333,16.384 169.376,15.1146667 169.44,13.984 C169.504,12.8533333 169.536,11.8613333 169.536,11.008 L169.536,11.008 L169.536,-1.20792265e-13 L158.4,-1.20792265e-13 L158.4,48.64 L167.232,48.64 L168.96,45.184 L169.536,45.184 C170.645333,46.6346667 171.733333,47.68 172.8,48.32 C173.866667,48.96 175.274667,49.28 177.024,49.28 Z M173.248,40.256 C171.882667,40.256 170.922667,39.5626667 170.368,38.176 C169.813333,36.7893333 169.536,34.5813333 169.536,31.552 L169.536,31.552 L169.536,29.632 C169.536,26.8586667 169.834667,24.8426667 170.432,23.584 C171.029333,22.3253333 171.925333,21.696 173.12,21.696 C175.338667,21.696 176.448,24.704 176.448,30.72 C176.448,37.0773333 175.381333,40.256 173.248,40.256 Z M206.912,49.28 C210.453333,49.28 213.333333,48.4373333 215.552,46.752 C217.770667,45.0666667 219.392,42.8266667 220.416,40.032 C221.44,37.2373333 221.952,34.176 221.952,30.848 C221.952,26.9653333 221.322667,23.6693333 220.064,20.96 C218.805333,18.2506667 217.056,16.1813333 214.816,14.752 C212.576,13.3226667 209.984,12.608 207.04,12.608 C203.584,12.608 200.736,13.3866667 198.496,14.944 C196.256,16.5013333 194.592,18.656 193.504,21.408 C192.416,24.16 191.872,27.3066667 191.872,30.848 C191.872,34.2186667 192.437333,37.3013333 193.568,40.096 C194.698667,42.8906667 196.384,45.12 198.624,46.784 C200.864,48.448 203.626667,49.28 206.912,49.28 Z M206.976,40.512 C205.610667,40.512 204.64,39.6906667 204.064,38.048 C203.488,36.4053333 203.2,34.0266667 203.2,30.912 C203.2,27.6693333 203.488,25.2693333 204.064,23.712 C204.64,22.1546667 205.610667,21.376 206.976,21.376 C208.341333,21.376 209.301333,22.1653333 209.856,23.744 C210.410667,25.3226667 210.688,27.6906667 210.688,30.848 C210.688,34.048 210.410667,36.4586667 209.856,38.08 C209.301333,39.7013333 208.341333,40.512 206.976,40.512 Z M235.648,48.64 L239.488,38.4 L243.456,48.64 L255.808,48.64 L247.04,30.592 L255.424,13.248 L243.136,13.248 L239.68,22.72 L236.096,13.248 L223.808,13.248 L232.192,30.592 L223.488,48.64 L235.648,48.64 Z"/>
      <path fill="#FFF" d="M15.04,112.64 L15.04,85.952 L20.928,85.952 L20.928,77.248 L15.04,77.248 L15.04,76.032 C15.04,74.752 15.1893333,73.8346667 15.488,73.28 C15.7866667,72.7253333 16.256,72.448 16.896,72.448 C17.4933333,72.448 18.0693333,72.512 18.624,72.64 C19.1786667,72.768 19.7333333,72.9173333 20.288,73.088 L20.288,73.088 L22.464,65.344 C20.8,64.7893333 19.36,64.3733333 18.144,64.096 C16.928,63.8186667 15.5733333,63.68 14.08,63.68 C10.496,63.68 7.91466667,64.6933333 6.336,66.72 C4.75733333,68.7466667 3.968,72.1066667 3.968,76.8 L3.968,76.8 L3.968,77.376 L-3.41060513e-13,80.32 L-3.41060513e-13,85.952 L3.84,85.952 L3.84,112.64 L15.04,112.64 Z M38.528,113.28 C42.0693333,113.28 44.9493333,112.437333 47.168,110.752 C49.3866667,109.066667 51.008,106.826667 52.032,104.032 C53.056,101.237333 53.568,98.176 53.568,94.848 C53.568,90.9653333 52.9386667,87.6693333 51.68,84.96 C50.4213333,82.2506667 48.672,80.1813333 46.432,78.752 C44.192,77.3226667 41.6,76.608 38.656,76.608 C35.2,76.608 32.352,77.3866667 30.112,78.944 C27.872,80.5013333 26.208,82.656 25.12,85.408 C24.032,88.16 23.488,91.3066667 23.488,94.848 C23.488,98.2186667 24.0533333,101.301333 25.184,104.096 C26.3146667,106.890667 28,109.12 30.24,110.784 C32.48,112.448 35.2426667,113.28 38.528,113.28 Z M38.592,104.512 C37.2266667,104.512 36.256,103.690667 35.68,102.048 C35.104,100.405333 34.816,98.0266667 34.816,94.912 C34.816,91.6693333 35.104,89.2693333 35.68,87.712 C36.256,86.1546667 37.2266667,85.376 38.592,85.376 C39.9573333,85.376 40.9173333,86.1653333 41.472,87.744 C42.0266667,89.3226667 42.304,91.6906667 42.304,94.848 C42.304,98.048 42.0266667,100.458667 41.472,102.08 C40.9173333,103.701333 39.9573333,104.512 38.592,104.512 Z M70.144,112.64 L70.144,94.976 C70.144,92.3733333 70.6773333,90.5386667 71.744,89.472 C72.8106667,88.4053333 74.176,87.872 75.84,87.872 C76.736,87.872 77.4613333,87.904 78.016,87.968 C78.5706667,88.032 79.0613333,88.128 79.488,88.256 L79.488,88.256 L80.384,76.992 C79.36,76.736 78.336,76.608 77.312,76.608 C76.16,76.608 75.0826667,76.9173333 74.08,77.536 C73.0773333,78.1546667 72.2026667,78.944 71.456,79.904 C70.7093333,80.864 70.1013333,81.856 69.632,82.88 L69.632,82.88 L69.056,82.88 L67.392,77.248 L58.944,77.248 L58.944,112.64 L70.144,112.64 Z M103.552,113.28 C105.898667,113.28 107.765333,112.853333 109.152,112 C110.538667,111.146667 111.850667,109.802667 113.088,107.968 L113.088,107.968 L113.28,107.968 L115.264,112.64 L123.136,112.64 L123.136,89.408 C123.136,85.1413333 122.069333,81.9413333 119.936,79.808 C117.802667,77.6746667 114.922667,76.608 111.296,76.608 C108.565333,76.608 106.08,76.8853333 103.84,77.44 C101.6,77.9946667 99.584,78.784 97.792,79.808 L97.792,79.808 L100.736,87.616 C103.893333,85.8666667 106.538667,84.992 108.672,84.992 C110.848,84.992 111.936,86.4426667 111.936,89.344 L111.936,89.344 L111.936,90.112 L107.2,90.304 C103.189333,90.4746667 100.117333,91.488 97.984,93.344 C95.8506667,95.2 94.784,98.0266667 94.784,101.824 C94.784,103.914667 95.104,105.834667 95.744,107.584 C96.384,109.333333 97.3546667,110.72 98.656,111.744 C99.9573333,112.768 101.589333,113.28 103.552,113.28 Z M108.48,104.896 C106.816,104.896 105.984,103.701333 105.984,101.312 C105.984,98.5813333 107.349333,97.1306667 110.08,96.96 L110.08,96.96 L112,96.832 L112,99.84 C112,101.333333 111.648,102.549333 110.944,103.488 C110.24,104.426667 109.418667,104.896 108.48,104.896 Z M143.296,113.28 C145.216,113.28 146.976,113.034667 148.576,112.544 C150.176,112.053333 151.637333,111.338667 152.96,110.4 L152.96,110.4 L152.96,101.312 C150.570667,103.232 148.16,104.192 145.728,104.192 C143.850667,104.192 142.368,103.445333 141.28,101.952 C140.192,100.458667 139.648,98.176 139.648,95.104 C139.648,92.032 140.192,89.696 141.28,88.096 C142.368,86.496 143.786667,85.696 145.536,85.696 C146.432,85.696 147.349333,85.8666667 148.288,86.208 C149.226667,86.5493333 150.122667,86.976 150.976,87.488 L150.976,87.488 L153.856,79.296 C152.362667,78.4426667 150.784,77.7813333 149.12,77.312 C147.456,76.8426667 145.664,76.608 143.744,76.608 C140.373333,76.608 137.546667,77.376 135.264,78.912 C132.981333,80.448 131.253333,82.6133333 130.08,85.408 C128.906667,88.2026667 128.32,91.4346667 128.32,95.104 C128.32,101.376 129.621333,105.973333 132.224,108.896 C134.826667,111.818667 138.517333,113.28 143.296,113.28 Z M169.92,113.28 C171.626667,113.28 173.130667,113.098667 174.432,112.736 C175.733333,112.373333 177.002667,111.893333 178.24,111.296 L178.24,111.296 L178.24,102.912 C177.344,103.253333 176.501333,103.541333 175.712,103.776 C174.922667,104.010667 174.165333,104.128 173.44,104.128 C171.733333,104.128 170.88,102.976 170.88,100.672 L170.88,100.672 L170.88,85.952 L177.728,85.952 L177.728,77.248 L170.88,77.248 L170.88,70.144 L163.392,70.144 L160.768,77.568 L156.096,80.576 L156.096,85.952 L159.744,85.952 L159.744,100.992 C159.744,105.344 160.565333,108.48 162.208,110.4 C163.850667,112.32 166.421333,113.28 169.92,113.28 Z M188.48,73.792 C190.314667,73.792 191.754667,73.3653333 192.8,72.512 C193.845333,71.6586667 194.368,70.2933333 194.368,68.416 C194.368,66.496 193.856,65.1093333 192.832,64.256 C191.808,63.4026667 190.357333,62.976 188.48,62.976 C186.56,62.976 185.098667,63.4026667 184.096,64.256 C183.093333,65.1093333 182.592,66.496 182.592,68.416 C182.592,70.2933333 183.114667,71.6586667 184.16,72.512 C185.205333,73.3653333 186.645333,73.792 188.48,73.792 Z M193.984,112.64 L193.984,77.248 L182.848,77.248 L182.848,112.64 L193.984,112.64 Z M219.776,112.64 L230.464,77.248 L218.88,77.248 L214.976,94.912 C214.677333,96.2773333 214.442667,97.5253333 214.272,98.656 C214.101333,99.7866667 213.994667,100.821333 213.952,101.76 L213.952,101.76 L213.696,101.76 C213.568,99.6693333 213.226667,97.344 212.672,94.784 L212.672,94.784 L209.088,77.248 L197.44,77.248 L208,112.64 L219.776,112.64 Z M239.488,73.792 C241.322667,73.792 242.762667,73.3653333 243.808,72.512 C244.853333,71.6586667 245.376,70.2933333 245.376,68.416 C245.376,66.496 244.864,65.1093333 243.84,64.256 C242.816,63.4026667 241.365333,62.976 239.488,62.976 C237.568,62.976 236.106667,63.4026667 235.104,64.256 C234.101333,65.1093333 233.6,66.496 233.6,68.416 C233.6,70.2933333 234.122667,71.6586667 235.168,72.512 C236.213333,73.3653333 237.653333,73.792 239.488,73.792 Z M244.992,112.64 L244.992,77.248 L233.856,77.248 L233.856,112.64 L244.992,112.64 Z M260.992,113.28 C265.216,113.28 268.373333,112.277333 270.464,110.272 C272.554667,108.266667 273.6,105.429333 273.6,101.76 C273.6,98.9013333 272.949333,96.6506667 271.648,95.008 C270.346667,93.3653333 268.522667,91.9253333 266.176,90.688 C264.597333,89.8346667 263.434667,89.1733333 262.688,88.704 C261.941333,88.2346667 261.450667,87.84 261.216,87.52 C260.981333,87.2 260.864,86.848 260.864,86.464 C260.864,85.3973333 261.525333,84.864 262.848,84.864 C263.914667,84.864 265.130667,85.12 266.496,85.632 C267.861333,86.144 269.162667,86.7626667 270.4,87.488 L270.4,87.488 L273.088,79.616 C271.296,78.6346667 269.546667,77.888 267.84,77.376 C266.133333,76.864 264.298667,76.608 262.336,76.608 C258.538667,76.608 255.562667,77.5146667 253.408,79.328 C251.253333,81.1413333 250.176,83.712 250.176,87.04 C250.176,89.6853333 250.752,91.8826667 251.904,93.632 C253.056,95.3813333 254.741333,96.8106667 256.96,97.92 C258.624,98.7733333 259.872,99.4453333 260.704,99.936 C261.536,100.426667 262.08,100.853333 262.336,101.216 C262.592,101.578667 262.72,101.973333 262.72,102.4 C262.72,103.722667 261.781333,104.384 259.904,104.384 C258.496,104.384 256.928,104.117333 255.2,103.584 C253.472,103.050667 251.818667,102.357333 250.24,101.504 L250.24,101.504 L250.24,111.296 C251.989333,112.021333 253.749333,112.533333 255.52,112.832 C257.290667,113.130667 259.114667,113.28 260.992,113.28 Z M289.92,113.28 C291.626667,113.28 293.130667,113.098667 294.432,112.736 C295.733333,112.373333 297.002667,111.893333 298.24,111.296 L298.24,111.296 L298.24,102.912 C297.344,103.253333 296.501333,103.541333 295.712,103.776 C294.922667,104.010667 294.165333,104.128 293.44,104.128 C291.733333,104.128 290.88,102.976 290.88,100.672 L290.88,100.672 L290.88,85.952 L297.728,85.952 L297.728,77.248 L290.88,77.248 L290.88,70.144 L283.392,70.144 L280.768,77.568 L276.096,80.576 L276.096,85.952 L279.744,85.952 L279.744,100.992 C279.744,105.344 280.565333,108.48 282.208,110.4 C283.850667,112.32 286.421333,113.28 289.92,113.28 Z M312.192,113.28 C316.416,113.28 319.573333,112.277333 321.664,110.272 C323.754667,108.266667 324.8,105.429333 324.8,101.76 C324.8,98.9013333 324.149333,96.6506667 322.848,95.008 C321.546667,93.3653333 319.722667,91.9253333 317.376,90.688 C315.797333,89.8346667 314.634667,89.1733333 313.888,88.704 C313.141333,88.2346667 312.650667,87.84 312.416,87.52 C312.181333,87.2 312.064,86.848 312.064,86.464 C312.064,85.3973333 312.725333,84.864 314.048,84.864 C315.114667,84.864 316.330667,85.12 317.696,85.632 C319.061333,86.144 320.362667,86.7626667 321.6,87.488 L321.6,87.488 L324.288,79.616 C322.496,78.6346667 320.746667,77.888 319.04,77.376 C317.333333,76.864 315.498667,76.608 313.536,76.608 C309.738667,76.608 306.762667,77.5146667 304.608,79.328 C302.453333,81.1413333 301.376,83.712 301.376,87.04 C301.376,89.6853333 301.952,91.8826667 303.104,93.632 C304.256,95.3813333 305.941333,96.8106667 308.16,97.92 C309.824,98.7733333 311.072,99.4453333 311.904,99.936 C312.736,100.426667 313.28,100.853333 313.536,101.216 C313.792,101.578667 313.92,101.973333 313.92,102.4 C313.92,103.722667 312.981333,104.384 311.104,104.384 C309.696,104.384 308.128,104.117333 306.4,103.584 C304.672,103.050667 303.018667,102.357333 301.44,101.504 L301.44,101.504 L301.44,111.296 C303.189333,112.021333 304.949333,112.533333 306.72,112.832 C308.490667,113.130667 310.314667,113.28 312.192,113.28 Z"/>
    </g>
    <path fill="#062CFF" fill-rule="nonzero" d="M226.8,189 L226.8,138.6 L189,138.6 L189,151.2 L163.8,151.2 L163.8,138.6 L88.2,138.6 L88.2,151.2 L63,151.2 L63,138.6 L25.2,138.6 L25.2,189 L226.8,189 M54.558,63 L32.634,113.4 L63,113.4 L63,100.8 L88.2,100.8 L88.2,113.4 L163.8,113.4 L163.8,100.8 L189,100.8 L189,113.4 L219.366,113.4 L197.442,63 L54.558,63 M88.2,25.2 L88.2,37.8 L163.8,37.8 L163.8,25.2 L88.2,25.2 M249.984,121.086 C251.244,123.858 252,127.134 252,131.166 L252,189 C252,195.678 249.354,201.6 244.44,206.766 C239.4,211.806 233.73,214.2 226.8,214.2 L25.2,214.2 C18.27,214.2 12.6,211.806 7.56,206.766 C2.646,201.6 0,195.678 0,189 L0,131.166 C0,127.134 0.756,123.858 2.016,121.086 L31.5,53.172 C35.784,42.966 43.47,37.8 54.558,37.8 L63,37.8 L63,25.2 C63,18.27 65.268,12.6 70.182,7.434 C75.096,2.52 81.144,0 88.2,0 L163.8,0 C170.856,0 176.904,2.52 181.818,7.434 C186.732,12.6 189,18.27 189,25.2 L189,37.8 L197.442,37.8 C208.53,37.8 216.216,42.966 220.5,53.172 L249.984,121.086 Z" transform="translate(402 53)"/>
  </g>
</svg>
