<svg xmlns="http://www.w3.org/2000/svg" width="640" height="320" viewBox="0 0 640 320">
  <g fill="none" fill-rule="evenodd">
    <rect width="640" height="320" fill="#FF006C"/>
    <g fill-rule="nonzero" transform="translate(47.448 103.336)">
      <path fill="#062CFF" d="M19.904,49.664 L22.72,33.856 C23.0186667,32.4053333 23.2746667,30.7946667 23.488,29.024 C23.7013333,27.2533333 23.8933333,25.6213333 24.064,24.128 L24.064,24.128 L24.32,24.128 C24.448,25.4933333 24.6293333,27.0613333 24.864,28.832 C25.0986667,30.6026667 25.344,32.2773333 25.6,33.856 L25.6,33.856 L28.224,49.664 L40.896,49.664 L48.512,14.272 L37.632,14.272 L35.712,26.304 C35.456,28.1386667 35.2106667,30.1013333 34.976,32.192 C34.7413333,34.2826667 34.56,36.288 34.432,38.208 L34.432,38.208 L34.24,38.208 C34.112,36.7573333 33.888,35.0186667 33.568,32.992 C33.248,30.9653333 32.9386667,28.9706667 32.64,27.008 L32.64,27.008 L30.528,14.272 L18.048,14.272 L15.808,26.816 C15.4666667,28.608 15.1573333,30.528 14.88,32.576 C14.6026667,34.624 14.4,36.5013333 14.272,38.208 L14.272,38.208 L14.016,38.208 C13.9306667,36.2453333 13.7706667,34.1653333 13.536,31.968 C13.3013333,29.7706667 13.056,27.8186667 12.8,26.112 L12.8,26.112 L11.072,14.272 L-9.66338121e-13,14.272 L7.488,49.664 L19.904,49.664 Z M66.432,50.304 C70.9546667,50.304 74.688,49.4506667 77.632,47.744 L77.632,47.744 L77.632,39.168 C75.9253333,40.1493333 74.336,40.8533333 72.864,41.28 C71.392,41.7066667 69.7813333,41.92 68.032,41.92 C64.064,41.92 62.08,39.7013333 62.08,35.264 L62.08,35.264 L79.552,35.264 L79.552,29.824 C79.552,24.576 78.304,20.576 75.808,17.824 C73.312,15.072 69.8666667,13.696 65.472,13.696 C60.864,13.696 57.2906667,15.2533333 54.752,18.368 C52.2133333,21.4826667 50.944,26.0693333 50.944,32.128 C50.944,38.144 52.2666667,42.6773333 54.912,45.728 C57.5573333,48.7786667 61.3973333,50.304 66.432,50.304 Z M69.376,27.84 L62.08,27.84 C62.1226667,25.6213333 62.496,24.0533333 63.2,23.136 C63.904,22.2186667 64.768,21.76 65.792,21.76 C66.9013333,21.76 67.776,22.272 68.416,23.296 C69.056,24.32 69.376,25.8346667 69.376,27.84 L69.376,27.84 Z M95.744,49.664 L95.744,1.024 L84.608,1.024 L84.608,49.664 L95.744,49.664 Z M113.408,49.664 L113.408,1.024 L102.272,1.024 L102.272,49.664 L113.408,49.664 Z M138.56,50.304 C141.888,50.304 144.512,48.6826667 146.432,45.44 C148.352,42.1973333 149.312,37.6746667 149.312,31.872 C149.312,26.1546667 148.362667,21.6853333 146.464,18.464 C144.565333,15.2426667 142.037333,13.632 138.88,13.632 C135.509333,13.632 132.906667,15.36 131.072,18.816 L131.072,18.816 L130.752,18.816 C130.837333,17.408 130.912,16.1386667 130.976,15.008 C131.04,13.8773333 131.072,12.8853333 131.072,12.032 L131.072,12.032 L131.072,1.024 L119.936,1.024 L119.936,49.664 L128.768,49.664 L130.496,46.208 L131.072,46.208 C132.181333,47.6586667 133.269333,48.704 134.336,49.344 C135.402667,49.984 136.810667,50.304 138.56,50.304 Z M134.784,41.28 C133.418667,41.28 132.458667,40.5866667 131.904,39.2 C131.349333,37.8133333 131.072,35.6053333 131.072,32.576 L131.072,32.576 L131.072,30.656 C131.072,27.8826667 131.370667,25.8666667 131.968,24.608 C132.565333,23.3493333 133.461333,22.72 134.656,22.72 C136.874667,22.72 137.984,25.728 137.984,31.744 C137.984,38.1013333 136.917333,41.28 134.784,41.28 Z M168.896,50.304 C173.418667,50.304 177.152,49.4506667 180.096,47.744 L180.096,47.744 L180.096,39.168 C178.389333,40.1493333 176.8,40.8533333 175.328,41.28 C173.856,41.7066667 172.245333,41.92 170.496,41.92 C166.528,41.92 164.544,39.7013333 164.544,35.264 L164.544,35.264 L182.016,35.264 L182.016,29.824 C182.016,24.576 180.768,20.576 178.272,17.824 C175.776,15.072 172.330667,13.696 167.936,13.696 C163.328,13.696 159.754667,15.2533333 157.216,18.368 C154.677333,21.4826667 153.408,26.0693333 153.408,32.128 C153.408,38.144 154.730667,42.6773333 157.376,45.728 C160.021333,48.7786667 163.861333,50.304 168.896,50.304 Z M171.84,27.84 L164.544,27.84 C164.586667,25.6213333 164.96,24.0533333 165.664,23.136 C166.368,22.2186667 167.232,21.76 168.256,21.76 C169.365333,21.76 170.24,22.272 170.88,23.296 C171.52,24.32 171.84,25.8346667 171.84,27.84 L171.84,27.84 Z M192.768,10.816 C194.602667,10.816 196.042667,10.3893333 197.088,9.536 C198.133333,8.68266667 198.656,7.31733333 198.656,5.44 C198.656,3.52 198.144,2.13333333 197.12,1.28 C196.096,0.426666667 194.645333,1.63424829e-13 192.768,1.63424829e-13 C190.848,1.63424829e-13 189.386667,0.426666667 188.384,1.28 C187.381333,2.13333333 186.88,3.52 186.88,5.44 C186.88,7.31733333 187.402667,8.68266667 188.448,9.536 C189.493333,10.3893333 190.933333,10.816 192.768,10.816 Z M198.272,49.664 L198.272,14.272 L187.136,14.272 L187.136,49.664 L198.272,49.664 Z M216,49.664 L216,33.664 C216,29.824 216.245333,27.0826667 216.736,25.44 C217.226667,23.7973333 218.24,22.976 219.776,22.976 C220.970667,22.976 221.770667,23.5733333 222.176,24.768 C222.581333,25.9626667 222.784,27.7333333 222.784,30.08 L222.784,30.08 L222.784,49.664 L233.984,49.664 L233.984,26.624 C233.984,22.3573333 233.056,19.1253333 231.2,16.928 C229.344,14.7306667 226.858667,13.632 223.744,13.632 C221.696,13.632 219.989333,14.0586667 218.624,14.912 C217.258667,15.7653333 216.149333,17.024 215.296,18.688 L215.296,18.688 L214.848,18.688 L213.44,14.272 L204.864,14.272 L204.864,49.664 L216,49.664 Z M251.712,65.024 C257.557333,65.024 261.824,63.52 264.512,60.512 C267.2,57.504 268.544,53.1626667 268.544,47.488 L268.544,47.488 L268.544,14.272 L258.816,14.272 L257.984,18.688 L257.472,18.688 C256.618667,16.896 255.605333,15.6053333 254.432,14.816 C253.258667,14.0266667 251.733333,13.632 249.856,13.632 C246.570667,13.632 243.957333,15.264 242.016,18.528 C240.074667,21.792 239.104,26.3466667 239.104,32.192 C239.104,37.8666667 240.064,42.304 241.984,45.504 C243.904,48.704 246.442667,50.304 249.6,50.304 C251.562667,50.304 253.141333,49.8666667 254.336,48.992 C255.530667,48.1173333 256.533333,46.8266667 257.344,45.12 L257.344,45.12 L257.728,45.12 C257.6,45.8453333 257.504,46.656 257.44,47.552 C257.376,48.448 257.344,49.216 257.344,49.856 L257.344,49.856 L257.344,50.304 C257.344,52.3093333 256.789333,53.76 255.68,54.656 C254.570667,55.552 253.056,56 251.136,56 C249.216,56 247.434667,55.776 245.792,55.328 C244.149333,54.88 242.389333,54.1866667 240.512,53.248 L240.512,53.248 L240.512,62.528 C243.584,64.192 247.317333,65.024 251.712,65.024 Z M253.888,41.216 C252.736,41.216 251.872,40.4906667 251.296,39.04 C250.72,37.5893333 250.432,35.3493333 250.432,32.32 C250.432,25.92 251.562667,22.72 253.824,22.72 C255.274667,22.72 256.277333,23.4346667 256.832,24.864 C257.386667,26.2933333 257.664,28.5226667 257.664,31.552 L257.664,31.552 L257.664,33.28 C257.664,36.0106667 257.386667,38.016 256.832,39.296 C256.277333,40.576 255.296,41.216 253.888,41.216 Z"/>
      <path fill="#FFF" d="M8.448,74.816 C10.2826667,74.816 11.7226667,74.3893333 12.768,73.536 C13.8133333,72.6826667 14.336,71.3173333 14.336,69.44 C14.336,67.52 13.824,66.1333333 12.8,65.28 C11.776,64.4266667 10.3253333,64 8.448,64 C6.528,64 5.06666667,64.4266667 4.064,65.28 C3.06133333,66.1333333 2.56,67.52 2.56,69.44 C2.56,71.3173333 3.08266667,72.6826667 4.128,73.536 C5.17333333,74.3893333 6.61333333,74.816 8.448,74.816 Z M13.952,113.664 L13.952,78.272 L2.816,78.272 L2.816,113.664 L13.952,113.664 Z M29.952,114.304 C34.176,114.304 37.3333333,113.301333 39.424,111.296 C41.5146667,109.290667 42.56,106.453333 42.56,102.784 C42.56,99.9253333 41.9093333,97.6746667 40.608,96.032 C39.3066667,94.3893333 37.4826667,92.9493333 35.136,91.712 C33.5573333,90.8586667 32.3946667,90.1973333 31.648,89.728 C30.9013333,89.2586667 30.4106667,88.864 30.176,88.544 C29.9413333,88.224 29.824,87.872 29.824,87.488 C29.824,86.4213333 30.4853333,85.888 31.808,85.888 C32.8746667,85.888 34.0906667,86.144 35.456,86.656 C36.8213333,87.168 38.1226667,87.7866667 39.36,88.512 L39.36,88.512 L42.048,80.64 C40.256,79.6586667 38.5066667,78.912 36.8,78.4 C35.0933333,77.888 33.2586667,77.632 31.296,77.632 C27.4986667,77.632 24.5226667,78.5386667 22.368,80.352 C20.2133333,82.1653333 19.136,84.736 19.136,88.064 C19.136,90.7093333 19.712,92.9066667 20.864,94.656 C22.016,96.4053333 23.7013333,97.8346667 25.92,98.944 C27.584,99.7973333 28.832,100.469333 29.664,100.96 C30.496,101.450667 31.04,101.877333 31.296,102.24 C31.552,102.602667 31.68,102.997333 31.68,103.424 C31.68,104.746667 30.7413333,105.408 28.864,105.408 C27.456,105.408 25.888,105.141333 24.16,104.608 C22.432,104.074667 20.7786667,103.381333 19.2,102.528 L19.2,102.528 L19.2,112.32 C20.9493333,113.045333 22.7093333,113.557333 24.48,113.856 C26.2506667,114.154667 28.0746667,114.304 29.952,114.304 Z M78.976,113.664 L89.664,78.272 L78.08,78.272 L74.176,95.936 C73.8773333,97.3013333 73.6426667,98.5493333 73.472,99.68 C73.3013333,100.810667 73.1946667,101.845333 73.152,102.784 L73.152,102.784 L72.896,102.784 C72.768,100.693333 72.4266667,98.368 71.872,95.808 L71.872,95.808 L68.288,78.272 L56.64,78.272 L67.2,113.664 L78.976,113.664 Z M98.688,74.816 C100.522667,74.816 101.962667,74.3893333 103.008,73.536 C104.053333,72.6826667 104.576,71.3173333 104.576,69.44 C104.576,67.52 104.064,66.1333333 103.04,65.28 C102.016,64.4266667 100.565333,64 98.688,64 C96.768,64 95.3066667,64.4266667 94.304,65.28 C93.3013333,66.1333333 92.8,67.52 92.8,69.44 C92.8,71.3173333 93.3226667,72.6826667 94.368,73.536 C95.4133333,74.3893333 96.8533333,74.816 98.688,74.816 Z M104.192,113.664 L104.192,78.272 L93.056,78.272 L93.056,113.664 L104.192,113.664 Z M122.176,114.304 C123.882667,114.304 125.386667,114.122667 126.688,113.76 C127.989333,113.397333 129.258667,112.917333 130.496,112.32 L130.496,112.32 L130.496,103.936 C129.6,104.277333 128.757333,104.565333 127.968,104.8 C127.178667,105.034667 126.421333,105.152 125.696,105.152 C123.989333,105.152 123.136,104 123.136,101.696 L123.136,101.696 L123.136,86.976 L129.984,86.976 L129.984,78.272 L123.136,78.272 L123.136,71.168 L115.648,71.168 L113.024,78.592 L108.352,81.6 L108.352,86.976 L112,86.976 L112,102.016 C112,106.368 112.821333,109.504 114.464,111.424 C116.106667,113.344 118.677333,114.304 122.176,114.304 Z M142.272,114.304 C144.618667,114.304 146.485333,113.877333 147.872,113.024 C149.258667,112.170667 150.570667,110.826667 151.808,108.992 L151.808,108.992 L152,108.992 L153.984,113.664 L161.856,113.664 L161.856,90.432 C161.856,86.1653333 160.789333,82.9653333 158.656,80.832 C156.522667,78.6986667 153.642667,77.632 150.016,77.632 C147.285333,77.632 144.8,77.9093333 142.56,78.464 C140.32,79.0186667 138.304,79.808 136.512,80.832 L136.512,80.832 L139.456,88.64 C142.613333,86.8906667 145.258667,86.016 147.392,86.016 C149.568,86.016 150.656,87.4666667 150.656,90.368 L150.656,90.368 L150.656,91.136 L145.92,91.328 C141.909333,91.4986667 138.837333,92.512 136.704,94.368 C134.570667,96.224 133.504,99.0506667 133.504,102.848 C133.504,104.938667 133.824,106.858667 134.464,108.608 C135.104,110.357333 136.074667,111.744 137.376,112.768 C138.677333,113.792 140.309333,114.304 142.272,114.304 Z M147.2,105.92 C145.536,105.92 144.704,104.725333 144.704,102.336 C144.704,99.6053333 146.069333,98.1546667 148.8,97.984 L148.8,97.984 L150.72,97.856 L150.72,100.864 C150.72,102.357333 150.368,103.573333 149.664,104.512 C148.96,105.450667 148.138667,105.92 147.2,105.92 Z M179.328,113.664 L179.328,65.024 L168.192,65.024 L168.192,113.664 L179.328,113.664 Z"/>
    </g>
    <path fill="#062CFF" fill-rule="nonzero" d="M144,264.24 L123.12,245.232 C48.96,177.984 0,133.488 0,79.2 C0,34.704 34.848,0 79.2,0 C104.256,0 128.304,11.664 144,29.952 C159.696,11.664 183.744,0 208.8,0 C253.152,0 288,34.704 288,79.2 C288,133.488 239.04,177.984 164.88,245.232 L144,264.24 Z" transform="translate(364 28)"/>
  </g>
</svg>
